<svg xmlns="http://www.w3.org/2000/svg" width="19" height="18" viewBox="0 0 19 18" fill="none">
<mask id="mask0_5695_18617" style="mask-type:alpha" maskUnits="userSpaceOnUse" x="0" y="0" width="19" height="18">
<rect x="0.5" width="18" height="18" fill="#D9D9D9"/>
</mask>
<g mask="url(#mask0_5695_18617)">
<path d="M7.25 18C6.4 18 5.66667 17.7042 5.05 17.1125C4.43333 16.5208 4.08333 15.8083 4 14.975C3 14.8417 2.16667 14.4 1.5 13.65C0.833333 12.9 0.5 12.0167 0.5 11C0.5 10.65 0.545833 10.3042 0.6375 9.9625C0.729167 9.62083 0.866667 9.3 1.05 9C0.866667 8.7 0.729167 8.38333 0.6375 8.05C0.545833 7.71667 0.5 7.36667 0.5 7C0.5 5.98333 0.833333 5.10417 1.5 4.3625C2.16667 3.62083 2.99167 3.18333 3.975 3.05C4.025 2.2 4.36667 1.47917 5 0.8875C5.63333 0.295833 6.38333 0 7.25 0C7.68333 0 8.0875 0.0833333 8.4625 0.25C8.8375 0.416667 9.18333 0.641667 9.5 0.925C9.8 0.641667 10.1417 0.416667 10.525 0.25C10.9083 0.0833333 11.3167 0 11.75 0C12.6167 0 13.3625 0.291667 13.9875 0.875C14.6125 1.45833 14.95 2.175 15 3.025C15.9833 3.15833 16.8125 3.6 17.4875 4.35C18.1625 5.1 18.5 5.98333 18.5 7C18.5 7.36667 18.4542 7.71667 18.3625 8.05C18.2708 8.38333 18.1333 8.7 17.95 9C18.1333 9.3 18.2708 9.62083 18.3625 9.9625C18.4542 10.3042 18.5 10.65 18.5 11C18.5 12.0333 18.1625 12.9208 17.4875 13.6625C16.8125 14.4042 15.975 14.8417 14.975 14.975C14.8917 15.8083 14.5458 16.5208 13.9375 17.1125C13.3292 17.7042 12.6 18 11.75 18C11.3333 18 10.9292 17.9208 10.5375 17.7625C10.1458 17.6042 9.8 17.3833 9.5 17.1C9.18333 17.3833 8.83333 17.6042 8.45 17.7625C8.06667 17.9208 7.66667 18 7.25 18ZM10.5 3.25V14.75C10.5 15.1 10.6208 15.3958 10.8625 15.6375C11.1042 15.8792 11.4 16 11.75 16C12.0833 16 12.3708 15.8667 12.6125 15.6C12.8542 15.3333 12.9833 15.0333 13 14.7C12.65 14.5667 12.3292 14.3875 12.0375 14.1625C11.7458 13.9375 11.4833 13.6667 11.25 13.35C11.0833 13.1167 11.0208 12.8667 11.0625 12.6C11.1042 12.3333 11.2417 12.1167 11.475 11.95C11.7083 11.7833 11.9583 11.7208 12.225 11.7625C12.4917 11.8042 12.7083 11.9417 12.875 12.175C13.0583 12.4417 13.2917 12.6458 13.575 12.7875C13.8583 12.9292 14.1667 13 14.5 13C15.05 13 15.5208 12.8042 15.9125 12.4125C16.3042 12.0208 16.5 11.55 16.5 11C16.5 10.9167 16.4958 10.8333 16.4875 10.75C16.4792 10.6667 16.4583 10.5833 16.425 10.5C16.1417 10.6667 15.8375 10.7917 15.5125 10.875C15.1875 10.9583 14.85 11 14.5 11C14.2167 11 13.9792 10.9042 13.7875 10.7125C13.5958 10.5208 13.5 10.2833 13.5 10C13.5 9.71667 13.5958 9.47917 13.7875 9.2875C13.9792 9.09583 14.2167 9 14.5 9C15.05 9 15.5208 8.80417 15.9125 8.4125C16.3042 8.02083 16.5 7.55 16.5 7C16.5 6.45 16.3042 5.98333 15.9125 5.6C15.5208 5.21667 15.05 5.01667 14.5 5C14.3167 5.3 14.0792 5.5625 13.7875 5.7875C13.4958 6.0125 13.175 6.19167 12.825 6.325C12.5583 6.425 12.3 6.41667 12.05 6.3C11.8 6.18333 11.6333 5.99167 11.55 5.725C11.4667 5.45833 11.4792 5.2 11.5875 4.95C11.6958 4.7 11.8833 4.53333 12.15 4.45C12.4 4.36667 12.6042 4.21667 12.7625 4C12.9208 3.78333 13 3.53333 13 3.25C13 2.9 12.8792 2.60417 12.6375 2.3625C12.3958 2.12083 12.1 2 11.75 2C11.4 2 11.1042 2.12083 10.8625 2.3625C10.6208 2.60417 10.5 2.9 10.5 3.25ZM8.5 14.75V3.25C8.5 2.9 8.37917 2.60417 8.1375 2.3625C7.89583 2.12083 7.6 2 7.25 2C6.9 2 6.60417 2.12083 6.3625 2.3625C6.12083 2.60417 6 2.9 6 3.25C6 3.51667 6.075 3.7625 6.225 3.9875C6.375 4.2125 6.575 4.36667 6.825 4.45C7.09167 4.53333 7.28333 4.7 7.4 4.95C7.51667 5.2 7.53333 5.45833 7.45 5.725C7.35 5.99167 7.175 6.18333 6.925 6.3C6.675 6.41667 6.41667 6.425 6.15 6.325C5.8 6.19167 5.47917 6.0125 5.1875 5.7875C4.89583 5.5625 4.65833 5.3 4.475 5C3.94167 5.01667 3.47917 5.22083 3.0875 5.6125C2.69583 6.00417 2.5 6.46667 2.5 7C2.5 7.55 2.69583 8.02083 3.0875 8.4125C3.47917 8.80417 3.95 9 4.5 9C4.78333 9 5.02083 9.09583 5.2125 9.2875C5.40417 9.47917 5.5 9.71667 5.5 10C5.5 10.2833 5.40417 10.5208 5.2125 10.7125C5.02083 10.9042 4.78333 11 4.5 11C4.15 11 3.8125 10.9583 3.4875 10.875C3.1625 10.7917 2.85833 10.6667 2.575 10.5C2.54167 10.5833 2.52083 10.6667 2.5125 10.75C2.50417 10.8333 2.5 10.9167 2.5 11C2.5 11.55 2.69583 12.0208 3.0875 12.4125C3.47917 12.8042 3.95 13 4.5 13C4.83333 13 5.14167 12.9292 5.425 12.7875C5.70833 12.6458 5.94167 12.4417 6.125 12.175C6.29167 11.9417 6.50833 11.8042 6.775 11.7625C7.04167 11.7208 7.29167 11.7833 7.525 11.95C7.75833 12.1167 7.89583 12.3333 7.9375 12.6C7.97917 12.8667 7.91667 13.1167 7.75 13.35C7.51667 13.6667 7.25 13.9417 6.95 14.175C6.65 14.4083 6.325 14.5917 5.975 14.725C5.99167 15.0583 6.125 15.3542 6.375 15.6125C6.625 15.8708 6.91667 16 7.25 16C7.6 16 7.89583 15.8792 8.1375 15.6375C8.37917 15.3958 8.5 15.1 8.5 14.75Z" fill="#B3CDFF"/>
</g>
</svg>