<svg xmlns="http://www.w3.org/2000/svg" width="18" height="18" viewBox="0 0 18 18" fill="none">
  <mask id="mask0_9551_23039" style="mask-type:alpha" maskUnits="userSpaceOnUse" x="0" y="0" width="18" height="18">
    <rect width="18" height="18" fill="#D9D9D9"/>
  </mask>
  <g mask="url(#mask0_9551_23039)">
    <path d="M6.75 18C5.9 18 5.16667 17.7042 4.55 17.1125C3.93333 16.5208 3.58333 15.8083 3.5 14.975C2.5 14.8417 1.66667 14.4 1 13.65C0.333333 12.9 0 12.0167 0 11C0 10.65 0.0458333 10.3042 0.1375 9.9625C0.229167 9.62083 0.366667 9.3 0.55 9C0.366667 8.7 0.229167 8.38333 0.1375 8.05C0.0458333 7.71667 0 7.36667 0 7C0 5.98333 0.333333 5.10417 1 4.3625C1.66667 3.62083 2.49167 3.18333 3.475 3.05C3.525 2.2 3.86667 1.47917 4.5 0.8875C5.13333 0.295833 5.88333 0 6.75 0C7.18333 0 7.5875 0.0833333 7.9625 0.25C8.3375 0.416667 8.68333 0.641667 9 0.925C9.3 0.641667 9.64167 0.416667 10.025 0.25C10.4083 0.0833333 10.8167 0 11.25 0C12.1167 0 12.8625 0.291667 13.4875 0.875C14.1125 1.45833 14.45 2.175 14.5 3.025C15.4833 3.15833 16.3125 3.6 16.9875 4.35C17.6625 5.1 18 5.98333 18 7C18 7.36667 17.9542 7.71667 17.8625 8.05C17.7708 8.38333 17.6333 8.7 17.45 9C17.6333 9.3 17.7708 9.62083 17.8625 9.9625C17.9542 10.3042 18 10.65 18 11C18 12.0333 17.6625 12.9208 16.9875 13.6625C16.3125 14.4042 15.475 14.8417 14.475 14.975C14.3917 15.8083 14.0458 16.5208 13.4375 17.1125C12.8292 17.7042 12.1 18 11.25 18C10.8333 18 10.4292 17.9208 10.0375 17.7625C9.64583 17.6042 9.3 17.3833 9 17.1C8.68333 17.3833 8.33333 17.6042 7.95 17.7625C7.56667 17.9208 7.16667 18 6.75 18ZM10 3.25V14.75C10 15.1 10.1208 15.3958 10.3625 15.6375C10.6042 15.8792 10.9 16 11.25 16C11.5833 16 11.8708 15.8667 12.1125 15.6C12.3542 15.3333 12.4833 15.0333 12.5 14.7C12.15 14.5667 11.8292 14.3875 11.5375 14.1625C11.2458 13.9375 10.9833 13.6667 10.75 13.35C10.5833 13.1167 10.5208 12.8667 10.5625 12.6C10.6042 12.3333 10.7417 12.1167 10.975 11.95C11.2083 11.7833 11.4583 11.7208 11.725 11.7625C11.9917 11.8042 12.2083 11.9417 12.375 12.175C12.5583 12.4417 12.7917 12.6458 13.075 12.7875C13.3583 12.9292 13.6667 13 14 13C14.55 13 15.0208 12.8042 15.4125 12.4125C15.8042 12.0208 16 11.55 16 11C16 10.9167 15.9958 10.8333 15.9875 10.75C15.9792 10.6667 15.9583 10.5833 15.925 10.5C15.6417 10.6667 15.3375 10.7917 15.0125 10.875C14.6875 10.9583 14.35 11 14 11C13.7167 11 13.4792 10.9042 13.2875 10.7125C13.0958 10.5208 13 10.2833 13 10C13 9.71667 13.0958 9.47917 13.2875 9.2875C13.4792 9.09583 13.7167 9 14 9C14.55 9 15.0208 8.80417 15.4125 8.4125C15.8042 8.02083 16 7.55 16 7C16 6.45 15.8042 5.98333 15.4125 5.6C15.0208 5.21667 14.55 5.01667 14 5C13.8167 5.3 13.5792 5.5625 13.2875 5.7875C12.9958 6.0125 12.675 6.19167 12.325 6.325C12.0583 6.425 11.8 6.41667 11.55 6.3C11.3 6.18333 11.1333 5.99167 11.05 5.725C10.9667 5.45833 10.9792 5.2 11.0875 4.95C11.1958 4.7 11.3833 4.53333 11.65 4.45C11.9 4.36667 12.1042 4.21667 12.2625 4C12.4208 3.78333 12.5 3.53333 12.5 3.25C12.5 2.9 12.3792 2.60417 12.1375 2.3625C11.8958 2.12083 11.6 2 11.25 2C10.9 2 10.6042 2.12083 10.3625 2.3625C10.1208 2.60417 10 2.9 10 3.25ZM8 14.75V3.25C8 2.9 7.87917 2.60417 7.6375 2.3625C7.39583 2.12083 7.1 2 6.75 2C6.4 2 6.10417 2.12083 5.8625 2.3625C5.62083 2.60417 5.5 2.9 5.5 3.25C5.5 3.51667 5.575 3.7625 5.725 3.9875C5.875 4.2125 6.075 4.36667 6.325 4.45C6.59167 4.53333 6.78333 4.7 6.9 4.95C7.01667 5.2 7.03333 5.45833 6.95 5.725C6.85 5.99167 6.675 6.18333 6.425 6.3C6.175 6.41667 5.91667 6.425 5.65 6.325C5.3 6.19167 4.97917 6.0125 4.6875 5.7875C4.39583 5.5625 4.15833 5.3 3.975 5C3.44167 5.01667 2.97917 5.22083 2.5875 5.6125C2.19583 6.00417 2 6.46667 2 7C2 7.55 2.19583 8.02083 2.5875 8.4125C2.97917 8.80417 3.45 9 4 9C4.28333 9 4.52083 9.09583 4.7125 9.2875C4.90417 9.47917 5 9.71667 5 10C5 10.2833 4.90417 10.5208 4.7125 10.7125C4.52083 10.9042 4.28333 11 4 11C3.65 11 3.3125 10.9583 2.9875 10.875C2.6625 10.7917 2.35833 10.6667 2.075 10.5C2.04167 10.5833 2.02083 10.6667 2.0125 10.75C2.00417 10.8333 2 10.9167 2 11C2 11.55 2.19583 12.0208 2.5875 12.4125C2.97917 12.8042 3.45 13 4 13C4.33333 13 4.64167 12.9292 4.925 12.7875C5.20833 12.6458 5.44167 12.4417 5.625 12.175C5.79167 11.9417 6.00833 11.8042 6.275 11.7625C6.54167 11.7208 6.79167 11.7833 7.025 11.95C7.25833 12.1167 7.39583 12.3333 7.4375 12.6C7.47917 12.8667 7.41667 13.1167 7.25 13.35C7.01667 13.6667 6.75 13.9417 6.45 14.175C6.15 14.4083 5.825 14.5917 5.475 14.725C5.49167 15.0583 5.625 15.3542 5.875 15.6125C6.125 15.8708 6.41667 16 6.75 16C7.1 16 7.39583 15.8792 7.6375 15.6375C7.87917 15.3958 8 15.1 8 14.75Z" fill="#52C974"/>
  </g>
</svg>