<svg width="169" height="177" viewBox="0 0 169 177" fill="none" xmlns="http://www.w3.org/2000/svg">
<g filter="url(#filter0_d_6069_58940)">
<path fill-rule="evenodd" clip-rule="evenodd" d="M71.1426 12.3968C97.5458 -5.73193 131.679 12.3964 146.905 33.4999C153.952 53.724 159.543 61.6378 159.543 107.359C155.158 132.385 137.804 151.608 116.299 161C86.119 167.155 67.7891 165.325 49.362 155.48C30.9888 145.664 19.5794 129.222 14.7615 107.36C1.59736 82.7391 12.1186 57.4444 23.5203 38.2193C36.4873 16.3549 47.489 10.6634 71.1426 12.3968Z" fill="#D7D7D7"/>
<mask id="mask0_6069_58940" style="mask-type:alpha" maskUnits="userSpaceOnUse" x="16" y="20" width="142" height="141">
<ellipse cx="86.5592" cy="90.6554" rx="70.4762" ry="70.3448" fill="#7791FA"/>
</mask>
<g mask="url(#mask0_6069_58940)">
<ellipse cx="87.1012" cy="127.452" rx="50.4176" ry="58.4403" fill="#F40000"/>
<path d="M68.5273 134.142C80.1263 134.142 89.5292 125.619 89.5292 115.105C89.5292 104.592 80.1263 96.0688 68.5273 96.0688C56.9283 96.0688 47.5254 104.592 47.5254 115.105C47.5254 125.619 56.9283 134.142 68.5273 134.142Z" fill="#FDFDFD"/>
<path d="M68.5259 124.186C73.2805 124.186 77.1349 120.339 77.1349 115.593C77.1349 110.847 73.2805 107 68.5259 107C63.7713 107 59.917 110.847 59.917 115.593C59.917 120.339 63.7713 124.186 68.5259 124.186Z" fill="#1E1E1E"/>
<path d="M61.1543 115.593C61.1543 115.593 64.1143 115.16 64.4721 114.392C64.4721 114.392 65.3829 116.902 65.5455 117.097C65.5455 117.097 62.8349 119.413 62.2494 119.164C61.6639 118.915 61.1543 115.593 61.1543 115.593Z" fill="#FDFDFD"/>
<path d="M105.392 134.142C116.991 134.142 126.393 125.619 126.393 115.105C126.393 104.592 116.991 96.0688 105.392 96.0688C93.7925 96.0688 84.3896 104.592 84.3896 115.105C84.3896 125.619 93.7925 134.142 105.392 134.142Z" fill="#FDFDFD"/>
<path d="M105.39 124.186C110.145 124.186 113.999 120.339 113.999 115.593C113.999 110.847 110.145 107 105.39 107C100.636 107 96.7812 110.847 96.7812 115.593C96.7812 120.339 100.636 124.186 105.39 124.186Z" fill="#1E1E1E"/>
<path d="M98.0186 115.593C98.0186 115.593 100.979 115.16 101.336 114.392C101.336 114.392 102.247 116.902 102.41 117.097C102.41 117.097 99.6991 119.413 99.1136 119.164C98.5281 118.915 98.0186 115.593 98.0186 115.593Z" fill="#FDFDFD"/>
</g>
<path fill-rule="evenodd" clip-rule="evenodd" d="M72.9044 11.5168C99.3076 -6.61185 145.474 20.7598 152.19 44.0513C159.543 69.5515 159.543 81.8618 159.543 107.359C155.158 132.385 137.804 151.607 116.299 161C85.2378 165.397 67.789 165.324 49.3619 155.48C30.9887 145.664 18.6984 129.221 13.8805 107.359C8.96233 85.0423 3.30912 60.7583 23.5202 38.219C36.4872 16.3546 49.2508 9.78353 72.9044 11.5168Z" stroke="#FDFDFD" stroke-width="10"/>
</g>
<defs>
<filter id="filter0_d_6069_58940" x="0.214844" y="0.622559" width="168.328" height="176.17" filterUnits="userSpaceOnUse" color-interpolation-filters="sRGB">
<feFlood flood-opacity="0" result="BackgroundImageFix"/>
<feColorMatrix in="SourceAlpha" type="matrix" values="0 0 0 0 0 0 0 0 0 0 0 0 0 0 0 0 0 0 127 0" result="hardAlpha"/>
<feOffset dy="4"/>
<feGaussianBlur stdDeviation="2"/>
<feComposite in2="hardAlpha" operator="out"/>
<feColorMatrix type="matrix" values="0 0 0 0 0 0 0 0 0 0 0 0 0 0 0 0 0 0 0.25 0"/>
<feBlend mode="normal" in2="BackgroundImageFix" result="effect1_dropShadow_6069_58940"/>
<feBlend mode="normal" in="SourceGraphic" in2="effect1_dropShadow_6069_58940" result="shape"/>
</filter>
</defs>
</svg>
