<svg width="165" height="177" viewBox="0 0 165 177" fill="none" xmlns="http://www.w3.org/2000/svg">
<g filter="url(#filter0_d_6069_58908)">
<path fill-rule="evenodd" clip-rule="evenodd" d="M67.143 12.3967C93.5462 -5.73201 132.965 12.3967 148.191 33.5002C139.381 66.9136 148.191 83.6205 155.544 107.359C151.159 132.385 133.805 151.608 112.299 161C82.1194 167.155 63.7895 165.325 45.3624 155.48C26.9892 145.664 24.339 118.672 19.5211 96.8102C6.35691 72.1895 8.11901 57.4443 19.5207 38.2192C32.4877 16.3548 43.4894 10.6634 67.143 12.3967Z" fill="#D7D7D7"/>
<mask id="mask0_6069_58908" style="mask-type:alpha" maskUnits="userSpaceOnUse" x="12" y="20" width="142" height="141">
<ellipse cx="82.5592" cy="90.6554" rx="70.4762" ry="70.3448" fill="#7791FA"/>
</mask>
<g mask="url(#mask0_6069_58908)">
<ellipse cx="83.1012" cy="127.452" rx="50.4176" ry="58.4403" fill="#3EB560"/>
<path d="M64.5273 134.142C76.1263 134.142 85.5292 125.619 85.5292 115.105C85.5292 104.592 76.1263 96.0688 64.5273 96.0688C52.9283 96.0688 43.5254 104.592 43.5254 115.105C43.5254 125.619 52.9283 134.142 64.5273 134.142Z" fill="#FDFDFD"/>
<path d="M64.5259 124.186C69.2805 124.186 73.1349 120.339 73.1349 115.593C73.1349 110.847 69.2805 107 64.5259 107C59.7713 107 55.917 110.847 55.917 115.593C55.917 120.339 59.7713 124.186 64.5259 124.186Z" fill="#1E1E1E"/>
<path d="M57.1543 115.593C57.1543 115.593 60.1143 115.16 60.4721 114.392C60.4721 114.392 61.3829 116.902 61.5455 117.097C61.5455 117.097 58.8349 119.413 58.2494 119.164C57.6639 118.915 57.1543 115.593 57.1543 115.593Z" fill="#FDFDFD"/>
<path d="M101.392 134.142C112.991 134.142 122.393 125.619 122.393 115.105C122.393 104.592 112.991 96.0688 101.392 96.0688C89.7925 96.0688 80.3896 104.592 80.3896 115.105C80.3896 125.619 89.7925 134.142 101.392 134.142Z" fill="#FDFDFD"/>
<path d="M101.39 124.186C106.145 124.186 109.999 120.339 109.999 115.593C109.999 110.847 106.145 107 101.39 107C96.6356 107 92.7812 110.847 92.7812 115.593C92.7812 120.339 96.6356 124.186 101.39 124.186Z" fill="#1E1E1E"/>
<path d="M94.0186 115.593C94.0186 115.593 96.9786 115.16 97.3364 114.392C97.3364 114.392 98.2471 116.902 98.4098 117.097C98.4098 117.097 95.6991 119.413 95.1136 119.164C94.5281 118.915 94.0186 115.593 94.0186 115.593Z" fill="#FDFDFD"/>
</g>
<path fill-rule="evenodd" clip-rule="evenodd" d="M68.9046 11.5169C95.3078 -6.61178 157.039 21.4808 148.19 44.0514C140.262 64.2757 148.19 82.7411 155.543 107.359C151.158 132.385 133.804 151.607 112.299 161C81.2379 165.397 63.7892 165.324 45.3621 155.48C26.9889 145.664 24.3386 122.189 19.5207 100.327C14.6025 78.0104 -0.690744 60.7584 19.5203 38.2191C32.4873 16.3547 45.251 9.78359 68.9046 11.5169Z" stroke="#FDFDFD" stroke-width="10"/>
</g>
<defs>
<filter id="filter0_d_6069_58908" x="0.341797" y="0.710449" width="164.33" height="176.082" filterUnits="userSpaceOnUse" color-interpolation-filters="sRGB">
<feFlood flood-opacity="0" result="BackgroundImageFix"/>
<feColorMatrix in="SourceAlpha" type="matrix" values="0 0 0 0 0 0 0 0 0 0 0 0 0 0 0 0 0 0 127 0" result="hardAlpha"/>
<feOffset dy="4"/>
<feGaussianBlur stdDeviation="2"/>
<feComposite in2="hardAlpha" operator="out"/>
<feColorMatrix type="matrix" values="0 0 0 0 0 0 0 0 0 0 0 0 0 0 0 0 0 0 0.25 0"/>
<feBlend mode="normal" in2="BackgroundImageFix" result="effect1_dropShadow_6069_58908"/>
<feBlend mode="normal" in="SourceGraphic" in2="effect1_dropShadow_6069_58908" result="shape"/>
</filter>
</defs>
</svg>
