<svg width="166" height="172" viewBox="0 0 166 172" fill="none" xmlns="http://www.w3.org/2000/svg">
<g filter="url(#filter0_d_6069_58876)">
<path fill-rule="evenodd" clip-rule="evenodd" d="M77.2823 19.6494C103.686 1.52073 125.43 -8.02068 140.312 41.5947C154.502 61.2629 159.866 79.6903 155.544 104.359C151.158 129.385 133.805 148.608 112.299 158C85.8957 141.916 63.7893 162.325 45.3622 152.48C26.989 142.664 16.5214 121.997 11.7035 100.135C6.78534 77.818 8.11882 54.4443 19.5205 35.2193C32.4875 13.3548 53.6287 17.9161 77.2823 19.6494Z" fill="#D7D7D7"/>
<mask id="mask0_6069_58876" style="mask-type:alpha" maskUnits="userSpaceOnUse" x="12" y="17" width="142" height="141">
<ellipse cx="82.5592" cy="87.6554" rx="70.4762" ry="70.3448" fill="#7791FA"/>
</mask>
<g mask="url(#mask0_6069_58876)">
<ellipse cx="83.1012" cy="124.452" rx="50.4176" ry="58.4403" fill="#7791FA"/>
<path d="M64.5273 131.142C76.1263 131.142 85.5292 122.619 85.5292 112.105C85.5292 101.592 76.1263 93.0688 64.5273 93.0688C52.9283 93.0688 43.5254 101.592 43.5254 112.105C43.5254 122.619 52.9283 131.142 64.5273 131.142Z" fill="#FDFDFD"/>
<path d="M64.5259 121.186C69.2805 121.186 73.1349 117.339 73.1349 112.593C73.1349 107.847 69.2805 104 64.5259 104C59.7713 104 55.917 107.847 55.917 112.593C55.917 117.339 59.7713 121.186 64.5259 121.186Z" fill="#1E1E1E"/>
<path d="M57.1543 112.593C57.1543 112.593 60.1143 112.16 60.4721 111.392C60.4721 111.392 61.3829 113.902 61.5455 114.097C61.5455 114.097 58.8349 116.413 58.2494 116.164C57.6639 115.915 57.1543 112.593 57.1543 112.593Z" fill="#FDFDFD"/>
<path d="M101.392 131.142C112.991 131.142 122.393 122.619 122.393 112.105C122.393 101.592 112.991 93.0688 101.392 93.0688C89.7925 93.0688 80.3896 101.592 80.3896 112.105C80.3896 122.619 89.7925 131.142 101.392 131.142Z" fill="#FDFDFD"/>
<path d="M101.39 121.186C106.145 121.186 109.999 117.339 109.999 112.593C109.999 107.847 106.145 104 101.39 104C96.6356 104 92.7812 107.847 92.7812 112.593C92.7812 117.339 96.6356 121.186 101.39 121.186Z" fill="#1E1E1E"/>
<path d="M94.0186 112.593C94.0186 112.593 96.9786 112.16 97.3364 111.392C97.3364 111.392 98.2471 113.902 98.4098 114.097C98.4098 114.097 95.6991 116.413 95.1136 116.164C94.5281 115.915 94.0186 112.593 94.0186 112.593Z" fill="#FDFDFD"/>
</g>
<path fill-rule="evenodd" clip-rule="evenodd" d="M77.2823 19.6494C103.686 1.52073 125.43 -8.02068 140.312 41.5947C154.502 61.2629 159.866 79.6903 155.544 104.359C151.158 129.385 133.805 148.608 112.299 158C85.8957 147.192 63.7893 162.325 45.3622 152.48C26.989 142.664 16.5214 121.997 11.7035 100.135C6.78534 77.818 8.11883 54.4443 19.5205 35.2193C32.4875 13.3548 53.6287 17.9161 77.2823 19.6494Z" stroke="#FDFDFD" stroke-width="10"/>
</g>
<defs>
<filter id="filter0_d_6069_58876" x="0.000976562" y="-0.000488281" width="165.998" height="171.429" filterUnits="userSpaceOnUse" color-interpolation-filters="sRGB">
<feFlood flood-opacity="0" result="BackgroundImageFix"/>
<feColorMatrix in="SourceAlpha" type="matrix" values="0 0 0 0 0 0 0 0 0 0 0 0 0 0 0 0 0 0 127 0" result="hardAlpha"/>
<feOffset dy="4"/>
<feGaussianBlur stdDeviation="2"/>
<feComposite in2="hardAlpha" operator="out"/>
<feColorMatrix type="matrix" values="0 0 0 0 0 0 0 0 0 0 0 0 0 0 0 0 0 0 0.25 0"/>
<feBlend mode="normal" in2="BackgroundImageFix" result="effect1_dropShadow_6069_58876"/>
<feBlend mode="normal" in="SourceGraphic" in2="effect1_dropShadow_6069_58876" result="shape"/>
</filter>
</defs>
</svg>
