<svg width="169" height="169" viewBox="0 0 169 169" fill="none" xmlns="http://www.w3.org/2000/svg">
<g filter="url(#filter0_d_6069_58972)">
<path fill-rule="evenodd" clip-rule="evenodd" d="M69.9048 13.1894C96.308 -4.93928 144.786 13.1892 150.952 30.2191C131.572 74.1846 174.397 80.9646 150.952 105.517C139.195 117.83 135.095 134.534 113.299 153C83.1191 159.155 64.7892 157.324 46.3621 147.48C31.1427 125.741 3.83311 115.19 9.1192 100.241C20.5203 87.0517 9.1192 45.7241 20.5203 30.2189C35.5819 9.7357 46.2512 11.4561 69.9048 13.1894Z" fill="#D7D7D7"/>
<mask id="mask0_6069_58972" style="mask-type:alpha" maskUnits="userSpaceOnUse" x="13" y="12" width="142" height="141">
<ellipse cx="83.5592" cy="82.6554" rx="70.4762" ry="70.3448" fill="#7791FA"/>
</mask>
<g mask="url(#mask0_6069_58972)">
<ellipse cx="84.1012" cy="119.452" rx="50.4176" ry="58.4403" fill="#132D96"/>
<path d="M65.5273 126.142C77.1263 126.142 86.5292 117.619 86.5292 107.105C86.5292 96.5917 77.1263 88.0688 65.5273 88.0688C53.9283 88.0688 44.5254 96.5917 44.5254 107.105C44.5254 117.619 53.9283 126.142 65.5273 126.142Z" fill="#FDFDFD"/>
<path d="M65.5259 116.186C70.2805 116.186 74.1349 112.339 74.1349 107.593C74.1349 102.847 70.2805 99 65.5259 99C60.7713 99 56.917 102.847 56.917 107.593C56.917 112.339 60.7713 116.186 65.5259 116.186Z" fill="#1E1E1E"/>
<path d="M58.1543 107.593C58.1543 107.593 61.1143 107.16 61.4721 106.392C61.4721 106.392 62.3829 108.902 62.5455 109.097C62.5455 109.097 59.8349 111.413 59.2494 111.164C58.6639 110.915 58.1543 107.593 58.1543 107.593Z" fill="#FDFDFD"/>
<path d="M102.392 126.142C113.991 126.142 123.393 117.619 123.393 107.105C123.393 96.5917 113.991 88.0688 102.392 88.0688C90.7925 88.0688 81.3896 96.5917 81.3896 107.105C81.3896 117.619 90.7925 126.142 102.392 126.142Z" fill="#FDFDFD"/>
<path d="M102.39 116.186C107.145 116.186 110.999 112.339 110.999 107.593C110.999 102.847 107.145 99 102.39 99C97.6356 99 93.7812 102.847 93.7812 107.593C93.7812 112.339 97.6356 116.186 102.39 116.186Z" fill="#1E1E1E"/>
<path d="M95.0186 107.593C95.0186 107.593 97.9786 107.16 98.3364 106.392C98.3364 106.392 99.2471 108.902 99.4098 109.097C99.4098 109.097 96.6991 111.413 96.1136 111.164C95.5281 110.915 95.0186 107.593 95.0186 107.593Z" fill="#FDFDFD"/>
</g>
<path fill-rule="evenodd" clip-rule="evenodd" d="M72.5473 13.1896C98.9505 -4.93908 162.66 15.8847 149.191 36.0513C128.048 67.7069 169.453 76.4998 156.544 99.3592C138.62 115.189 134.805 143.607 113.299 153C82.2382 157.397 64.7895 157.324 46.3624 147.48C20.5207 109.914 5.59571 125.741 9.99994 99.3592C28.4999 70.3446 0.309589 52.7583 20.5207 30.219C33.4877 8.35461 48.8937 11.4563 72.5473 13.1896Z" stroke="#FDFDFD" stroke-width="10"/>
</g>
<defs>
<filter id="filter0_d_6069_58972" x="0.234375" y="0" width="167.857" height="168.792" filterUnits="userSpaceOnUse" color-interpolation-filters="sRGB">
<feFlood flood-opacity="0" result="BackgroundImageFix"/>
<feColorMatrix in="SourceAlpha" type="matrix" values="0 0 0 0 0 0 0 0 0 0 0 0 0 0 0 0 0 0 127 0" result="hardAlpha"/>
<feOffset dy="4"/>
<feGaussianBlur stdDeviation="2"/>
<feComposite in2="hardAlpha" operator="out"/>
<feColorMatrix type="matrix" values="0 0 0 0 0 0 0 0 0 0 0 0 0 0 0 0 0 0 0.25 0"/>
<feBlend mode="normal" in2="BackgroundImageFix" result="effect1_dropShadow_6069_58972"/>
<feBlend mode="normal" in="SourceGraphic" in2="effect1_dropShadow_6069_58972" result="shape"/>
</filter>
</defs>
</svg>
