<svg width="432" height="552" viewBox="0 0 432 552" fill="none" xmlns="http://www.w3.org/2000/svg">
<path d="M285 366.021H247.543V540.129H285V366.021Z" fill="#7791FA"/>
<path d="M259.29 502.536H277.194C291.285 502.536 302.742 514.034 302.742 528.175V546.082C302.742 549.336 300.109 551.999 296.846 551.999H239.638C236.395 551.999 233.742 549.356 233.742 546.082V528.175C233.742 514.034 245.2 502.536 259.29 502.536Z" fill="#7791FA"/>
<path d="M184.455 366.021H146.998V540.129H184.455V366.021Z" fill="#7791FA"/>
<path d="M158.746 502.536H176.649C190.74 502.536 202.197 514.034 202.197 528.175V546.082C202.197 549.336 199.564 551.999 196.302 551.999H139.093C135.85 551.999 133.197 549.356 133.197 546.082V528.175C133.197 514.034 144.655 502.536 158.746 502.536Z" fill="#7791FA"/>
<path d="M313.945 0H116.084C100.495 0 87.8574 12.6014 87.8574 28.1461V369.531C87.8574 385.076 100.495 397.677 116.084 397.677H313.945C329.534 397.677 342.172 385.076 342.172 369.531V28.1461C342.172 12.6014 329.534 0 313.945 0Z" fill="#7791FA"/>
<path d="M346.828 76.2143L90.9929 44.4074C87.0834 43.9214 83.5149 46.7445 83.0225 50.713L79.4463 79.535C78.9539 83.5035 81.724 87.1147 85.6335 87.6007L341.469 119.408C345.379 119.894 348.947 117.071 349.44 113.102L353.016 84.2801C353.508 80.3116 350.738 76.7004 346.828 76.2143Z" fill="#7791FA"/>
<path d="M194.458 240.063C193.677 240.888 192.793 241.208 191.804 241.021C191.29 240.926 190.79 240.629 190.363 240.163C189.935 239.697 189.596 239.082 189.385 238.387C183.843 220.449 187.811 206.45 201.287 196.39C210.418 189.603 221.774 182.018 210.73 171.559C201.287 162.657 179.239 168.485 168.78 172.916C168.2 173.159 167.572 173.261 166.948 173.213C166.323 173.166 165.72 172.971 165.188 172.644C164.655 172.317 164.208 171.868 163.883 171.332C163.558 170.797 163.364 170.191 163.317 169.563L161.015 137.267C160.924 136.029 161.248 134.793 161.935 133.758C162.621 132.723 163.63 131.949 164.8 131.558C196.409 120.939 263.529 117.945 270.436 164.333C275.938 201.14 239.725 209.604 225.988 237.708C225.714 238.255 225.311 238.719 224.818 239.055C224.326 239.391 223.761 239.587 223.179 239.624C213.475 240.396 203.901 240.542 194.458 240.063Z" fill="#FDFDFD"/>
<path d="M208.362 292.999C221.019 292.999 231.279 284.11 231.279 273.145C231.279 262.179 221.019 253.29 208.362 253.29C195.705 253.29 185.445 262.179 185.445 273.145C185.445 284.11 195.705 292.999 208.362 292.999Z" fill="#FDFDFD"/>
</svg>
