<svg width="768" height="54" viewBox="0 0 768 54" fill="none" xmlns="http://www.w3.org/2000/svg">
<path d="M0 0H768V37.4249C768 37.4249 736.441 41.5314 716.067 41.0456C673.633 40.0339 612.96 17.5107 612.96 17.5107C612.96 17.5107 556.095 39.7811 515.917 41.0456C469.699 42.5003 402.575 17.5107 402.575 17.5107C402.575 17.5107 373.062 34.7509 354.432 37.4249C330.78 40.8199 305.532 22.6832 305.532 22.6832C305.532 22.6832 294.18 35.4237 283.546 37.4249C269.177 40.1289 255.874 22.6832 255.874 22.6832C255.874 22.6832 214.632 54.9835 180.059 53.977C147.735 53.0359 111.068 22.6832 111.068 22.6832C111.068 22.6832 79.8976 38.2662 56.4817 41.0456C34.655 43.6364 0 37.4249 0 37.4249V0Z" fill="#E3F0FF"/>
</svg>
