<svg width="1440" height="104" viewBox="0 0 1440 104" fill="none" xmlns="http://www.w3.org/2000/svg">
<path d="M0 0H1440V71.9419C1440 71.9419 1380.83 79.8358 1342.63 78.9021C1263.06 76.9573 1149.3 33.6608 1149.3 33.6608C1149.3 33.6608 1042.68 76.4713 967.345 78.9021C880.685 81.6983 754.827 33.6608 754.827 33.6608C754.827 33.6608 699.491 66.8016 664.561 71.9419C620.212 78.4681 572.873 43.6039 572.873 43.6039C572.873 43.6039 551.588 68.095 531.649 71.9419C504.707 77.1397 479.763 43.6039 479.763 43.6039C479.763 43.6039 402.435 105.695 337.611 103.76C277.003 101.951 208.253 43.6039 208.253 43.6039C208.253 43.6039 149.808 73.5592 105.903 78.9021C64.9781 83.8823 0 71.9419 0 71.9419V0Z" fill="#E3F0FF"/>
</svg>
