<svg width="360" height="26" viewBox="0 0 360 26" fill="none" xmlns="http://www.w3.org/2000/svg">
<path d="M0 0H360V18.0194C360 18.0194 345.207 19.9966 335.656 19.7627C315.766 19.2756 287.325 8.43106 287.325 8.43106C287.325 8.43106 260.669 19.1539 241.836 19.7627C220.171 20.4631 188.707 8.43106 188.707 8.43106C188.707 8.43106 174.873 16.7319 166.14 18.0194C155.053 19.654 143.218 10.9215 143.218 10.9215C143.218 10.9215 137.897 17.0559 132.912 18.0194C126.177 19.3213 119.941 10.9215 119.941 10.9215C119.941 10.9215 100.609 26.4735 84.4028 25.9889C69.2507 25.5358 52.0632 10.9215 52.0632 10.9215C52.0632 10.9215 37.452 18.4245 26.4758 19.7627C16.2445 21.0101 0 18.0194 0 18.0194V0Z" fill="#E3F0FF"/>
</svg>
