<svg width="1440" height="291" viewBox="0 0 1440 291" fill="none" xmlns="http://www.w3.org/2000/svg">
  <path d="M315.219 203.787C276.692 159.042 245.671 161.031 205.017 193.162C188.131 166.5 159.611 148.602 125.087 193.162C109.904 171.364 61.0424 160.534 45.0313 190.769C19.6488 160.67 8.81245 156.503 0 188.375V290.293H1440V207.149C1412.36 173.995 1377.96 174.833 1341.43 207.149C1317.92 176.94 1278.89 182.874 1271.88 207.149C1256.62 181.993 1244.88 187.283 1235.86 207.149C1222.35 179.923 1203.74 143.427 1143.79 198.815C1138.29 185.392 1120.92 171.463 1106.27 198.815C871.605 -34.3537 610.924 -97.4934 315.219 203.787Z" fill="#637DE6"/>
</svg>
