<svg xmlns="http://www.w3.org/2000/svg" width="2560" height="124" viewBox="0 0 2560 124" fill="none">
  <path d="M0 123L1482.8 123.171L1450.2 13.4957C1124.65 7.44773 988.065 21.6728 943.863 32.3418C923.95 37.1481 903.169 43.3639 903.169 43.3639C903.169 43.3639 852.383 -0.0628281 804.943 1.7771C760.587 3.49737 711.25 35.6377 711.25 35.6377C711.25 35.6377 669.477 13.9095 631.226 17.4274C604.212 19.9119 564.288 46.1062 564.288 46.1062C532.291 32.7491 516.209 30.4954 493.814 44.3856C406.585 17.445 360.178 16.1769 282.393 39.224C253.214 15.1959 225.473 27.8537 199.571 51C158.582 10.3033 45.2845 9.4074 0 43V123Z" fill="#455FC8"/>
  <path d="M1482.8 123.171L1450.2 13.4957C1512.87 23.5952 1584.91 28.6151 1675.65 49.3541C1675.65 49.3541 1725.33 -2.97288 1765.07 0.341949C1797.45 3.0428 1823.45 28.6151 1823.45 28.6151C1823.45 28.6151 1833.54 17.4447 1847.25 16.1462C1864.33 14.5287 1882.95 28.6151 1882.95 28.6151C1882.95 28.6151 1908.62 16.7754 1937.28 13.4957C1973.36 9.36626 2001.2 46.1062 2001.2 46.1062C2067.06 13.4957 2157.36 4.5 2223.72 46.1062C2242.68 28.6151 2266.63 28.6151 2279.1 49.3541C2303.64 26.6676 2319.36 18.8183 2350.45 48.2273C2400.13 22.3781 2508.79 4.22694 2560 28.6151V123.171H1482.8Z" fill="#455FC8"/>
</svg>