<svg width="768" height="339" viewBox="0 0 768 339" fill="none" xmlns="http://www.w3.org/2000/svg">
  <path d="M241.5 112.077C222 76.7642 208.375 100.922 204 117.415C186.735 105.574 177.074 102.218 160 120.164C132.198 94.5266 116.139 96.6622 87 117.415C81 104.045 74 109.906 67 122.299C57.6262 114.535 48.3751 116.92 39 125.23C23.5776 105.215 15.0676 109.396 0 122.823V339H768V127.98C756.352 115.216 751.5 114.303 736 125.537C730.5 112.282 715 94.2752 691.5 125.537C671 110.023 653.5 101.114 621.5 122.118C600.467 79.0658 576 114.151 576 112.282C572.719 102.427 554.859 76.7641 533.766 110.023C531.422 103.864 524.859 93.5991 519.703 110.023C434.859 -8.84802 346.5 -62.92 241.5 112.077Z" fill="#637DE6"/>
</svg>