<svg width="1440" height="133" viewBox="0 0 1440 133" fill="none" xmlns="http://www.w3.org/2000/svg">
  <path d="M0 124.079L838.524 119.335L815.308 10.5157C583.521 4.51491 486.278 18.6291 454.807 29.2148C440.629 33.9836 430.299 33.5398 430.299 33.5398C430.299 33.5398 408.037 -1.09846 374.26 0.727112C342.68 2.43396 310.215 33.5398 310.215 33.5398C310.215 33.5398 278.408 12.6487 251.174 16.1391C231.941 18.6042 184.628 36.3679 184.628 36.3679C154.16 23.6723 111.077 10.5155 79.5552 33.5398C42.5295 8.02966 15.0104 16.1391 0.00145155 41.2582L0 124.079Z" fill="#455FC8"/>
  <path d="M838.524 119.335L815.308 10.5157C859.934 20.5364 911.22 25.5172 975.827 46.0944C975.827 46.0944 1034.45 -3.05902 1062.74 0.22995C1085.79 2.90973 1104.77 25.5172 1104.77 25.5172C1104.77 25.5172 1113.52 14.4339 1123.28 13.1455C1135.44 11.5406 1146.8 25.5172 1146.8 25.5172C1146.8 25.5172 1165.42 16.3997 1185.82 13.1455C1211.51 9.04832 1231.86 45.5153 1231.86 45.5153C1251.11 29.5202 1267.47 21.8805 1280.08 45.5153C1298.55 29.04 1391.69 13.5009 1440 50.3761L1440 132.972L838.524 119.335Z" fill="#455FC8"/>
</svg>
