<svg width="1024" height="184" viewBox="0 0 1024 184" fill="none" xmlns="http://www.w3.org/2000/svg">
  <path d="M0 167.094L605.013 160.863L587.532 17.9194C413.003 10.0369 339.781 28.5769 316.084 42.4821C305.409 48.7464 294.268 56.8476 294.268 56.8476C294.268 56.8476 267.042 0.248108 241.609 2.64615C217.83 4.88823 191.38 46.7777 191.38 46.7777C191.38 46.7777 168.985 18.4588 148.479 23.0437C133.996 26.2818 112.593 60.4217 112.593 60.4217C69.9298 29.4091 42.6997 29.4308 0.00109291 58.3021L0 167.094Z" fill="#455FC8"/>
  <path d="M605.013 160.863L587.532 17.9194C621.134 31.0823 659.751 37.625 708.398 64.6548C708.398 64.6548 735.034 -3.54465 756.337 0.775681C773.695 4.29579 787.636 37.625 787.636 37.625C787.636 37.625 793.045 23.0663 800.394 21.3739C809.549 19.2657 819.532 37.625 819.532 37.625C819.532 37.625 833.296 22.1939 848.66 17.9194C868.003 12.5374 896.5 53.8587 896.5 53.8587C911 32.8479 928 32.8479 937.492 63.8941C951.401 42.2526 987.623 21.8406 1024 70.2791V183.562L605.013 160.863Z" fill="#455FC8"/>
</svg>
