<svg width="768" height="89" viewBox="0 0 768 89" fill="none" xmlns="http://www.w3.org/2000/svg">
  <path d="M0 81.5L434.34 75L426.176 8.11401C344.666 4.42564 310.47 13.1009 299.403 19.6074C294.417 22.5386 289.214 26.3293 289.214 26.3293C289.214 26.3293 276.499 -0.154709 264.621 0.967377C253.515 2.01649 241.163 21.6174 241.163 21.6174C241.163 21.6174 230.704 8.36641 221.127 10.5118C214.363 12.027 204.367 28.0017 204.367 28.0017C184.442 13.4903 173.217 13.6168 153.275 27.1263C137.274 4.15919 125.858 5.24103 102.183 26.2508C82.247 18.6555 68.9551 21.6174 51.0917 33.3754C29.1581 15.7454 18.0881 26.5721 0 42.5V81.5Z" fill="#455FC8"/>
  <path d="M434.34 75L426.176 8.11401C441.869 14.2732 459.904 17.3347 482.623 29.9825C482.623 29.9825 495.063 -1.92942 505.012 0.0921478C513.119 1.73928 519.629 17.3347 519.629 17.3347C519.629 17.3347 522.156 10.5223 525.588 9.73045C529.864 8.74399 534.526 17.3347 534.526 17.3347C534.526 17.3347 540.954 10.1142 548.129 8.11401C557.163 5.59566 564.133 28.0017 564.133 28.0017C576.269 22.2248 581.913 17.6532 589.616 29.6265C596.112 19.5 623.094 11.3347 640.083 34C687.053 0 732.023 7 768 39V89L434.34 75Z" fill="#455FC8"/>
</svg>
