<svg width="1024" height="104" viewBox="0 0 1024 104" fill="none" xmlns="http://www.w3.org/2000/svg">
<path d="M0 0H1024V72.0776C1024 72.0776 981.922 79.9864 954.756 79.0509C898.178 77.1024 817.279 33.7243 817.279 33.7243C817.279 33.7243 741.46 76.6155 687.89 79.0509C626.265 81.8524 536.766 33.7243 536.766 33.7243C536.766 33.7243 497.416 66.9276 472.577 72.0776C441.04 78.6161 407.376 43.6861 407.376 43.6861C407.376 43.6861 392.24 68.2234 378.061 72.0776C358.903 77.2852 341.165 43.6861 341.165 43.6861C341.165 43.6861 286.176 105.894 240.079 103.956C196.98 102.143 148.091 43.6861 148.091 43.6861C148.091 43.6861 106.53 73.6979 75.309 79.0509C46.2066 84.0405 0 72.0776 0 72.0776V0Z" fill="#E3F0FF"/>
</svg>
