<svg width="2560" height="296" viewBox="0 0 2560 296" fill="none" xmlns="http://www.w3.org/2000/svg">
  <path d="M713.966 207.958C636.133 141.831 581.75 187.069 564.288 217.954C522.009 191.992 501.053 189.332 470.489 213.5C452.951 189.472 440.169 185.776 408.622 207.958C339.938 171.78 301.855 169.416 234.995 205C199.167 181.948 177.527 189.761 141.696 213.5C71.8147 163.921 54.8821 172 0 189V296H2560V207C2535.76 177.532 2520.03 181.786 2490.15 207.168C2462.87 181.237 2447.58 192.183 2420.3 207.336C2374.91 178.231 2344.55 177.69 2280.6 207.671C2235.44 183.625 2206.9 178.441 2140.9 208.007C2135.63 180.256 2123.19 176.672 2071.05 208.175C2040.1 187.349 2024.71 186.683 2001.2 208.343C1988.1 189.888 1964.72 141.831 1880.52 204.113C1871.17 192.58 1844.97 173.356 1824.39 204.113C1485.75 -18.4903 1190.13 -114.991 713.966 207.958Z" fill="#637DE6"/>
</svg>
