<svg width="1440" height="763" viewBox="0 0 1440 763" fill="none" xmlns="http://www.w3.org/2000/svg">
<path d="M0 719.171H920.49L887.812 609.496C561.562 603.448 424.688 617.673 380.391 628.342C360.435 633.148 339.609 639.364 339.609 639.364C339.609 639.364 288.714 595.937 241.172 597.777C196.722 599.497 147.278 631.638 147.278 631.638C147.278 631.638 105.415 609.91 67.0823 613.427C40.0105 615.912 0 642.106 0 642.106V719.171Z" fill="#455FC8"/>
<path d="M920.49 719.171L887.812 609.496C950.625 619.595 1022.81 624.615 1113.75 645.354C1113.75 645.354 1163.54 593.027 1203.36 596.342C1235.81 599.043 1261.87 624.615 1261.87 624.615C1261.87 624.615 1271.98 613.445 1285.72 612.146C1302.83 610.529 1321.5 624.615 1321.5 624.615C1321.5 624.615 1347.22 612.775 1375.94 609.496C1412.1 605.366 1440 642.106 1440 642.106V719.171H920.49Z" fill="#455FC8"/>
<path d="M0 684.954V763H1440V675.343C1426.88 656.888 1403.44 608.831 1319.06 671.113C1309.69 659.58 1283.44 640.356 1262.81 671.113C923.438 448.51 627.188 352.009 150 674.958C72 608.831 17.5 654.069 0 684.954Z" fill="#637DE6"/>
<path d="M902.574 79.4825C910.36 76.8411 920.348 77.1626 925.892 87.0266C929.69 93.7847 929.161 108.231 915.307 112.946C909.526 114.913 902.909 115.588 893.358 114.177C888.923 113.521 886.801 121.599 885.484 123.214" stroke="#E3F0FF" stroke-width="4.25171" stroke-linecap="round"/>
<ellipse cx="2.42517" cy="2.42677" rx="2.42517" ry="2.42677" transform="matrix(0.988949 0.148255 -0.148055 0.988979 878.439 129.959)" fill="#E3F0FF"/>
<path d="M512.004 195.923C588.215 194.494 501.981 326.189 536.66 326.189C562.722 326.189 544.494 310.281 592.868 307.86C636.563 305.672 759.642 277.566 694.628 170.533C661.713 116.345 549.697 128.033 578.303 195.923M606.739 160.439C553.736 160.439 545.598 297.441 578.303 307.86C763.044 366.714 649.741 160.439 606.739 160.439Z" stroke="#E3F0FF" stroke-width="4.25171" stroke-linecap="round"/>
<path d="M656.404 291.355C746.368 323.699 693.216 230.272 680.685 177.045C643.132 17.5321 986.647 268.709 844.436 315.313C817.422 324.166 745.628 284.08 754.103 249.893C762.578 215.705 844.436 224.465 871.423 276.394M798.087 332.457C738.401 346.9 709.505 223.274 729.348 194.923C820.304 64.9694 967.934 291.356 798.087 332.457Z" stroke="#E3F0FF" stroke-width="4.25171" stroke-linecap="round"/>
<path d="M445.817 157.447C444.621 148.522 447.069 137.854 458.824 133.972C466.878 131.313 482.273 134.923 484.416 150.807C485.311 157.434 484.641 164.689 481.116 174.657C479.479 179.287 487.703 183.268 489.158 185.024" stroke="#E3F0FF" stroke-width="4.25171" stroke-linecap="round"/>
<ellipse cx="2.65604" cy="2.65463" rx="2.65604" ry="2.65463" transform="matrix(0.335423 -0.942068 0.941921 0.335834 496.143 193.3)" fill="#E3F0FF"/>
<path d="M909.686 421.134C911.398 428.434 910.23 437.474 900.801 441.642C894.341 444.497 881.291 442.75 878.232 429.759C876.955 424.338 876.924 418.272 879.041 409.725C880.024 405.755 872.886 403.121 871.538 401.783" stroke="#E3F0FF" stroke-width="4.25171" stroke-linecap="round"/>
<ellipse cx="2.61421" cy="2.61256" rx="2.61421" ry="2.61256" transform="matrix(-0.208299 0.978065 -0.978006 -0.208574 862.416 391.372)" fill="#E3F0FF"/>
<path d="M671.977 10.625H693.212C696.967 10.625 700.567 12.1176 703.222 14.7743C705.877 17.4311 707.369 21.0344 707.369 24.7917V74.375C707.369 71.5571 706.25 68.8546 704.259 66.862C702.268 64.8694 699.567 63.75 696.751 63.75H671.977V10.625Z" stroke="#B3CDFF" stroke-width="5.31464" stroke-linecap="round" stroke-linejoin="round"/>
<path d="M680.842 25.5098H698.912" stroke="#B3CDFF" stroke-width="2.12586" stroke-linecap="round"/>
<path d="M680.842 34.0137H698.912" stroke="#B3CDFF" stroke-width="2.12586" stroke-linecap="round"/>
<path d="M680.842 42.5166H698.912" stroke="#B3CDFF" stroke-width="2.12586" stroke-linecap="round"/>
<path d="M680.842 51.0205H698.912" stroke="#B3CDFF" stroke-width="2.12586" stroke-linecap="round"/>
<path d="M742.761 10.625H721.526C717.771 10.625 714.171 12.1176 711.516 14.7743C708.861 17.4311 707.369 21.0344 707.369 24.7917V74.375C707.369 71.5571 708.488 68.8546 710.479 66.862C712.47 64.8694 715.171 63.75 717.987 63.75H742.761V10.625Z" stroke="#B3CDFF" stroke-width="5.31464" stroke-linecap="round" stroke-linejoin="round"/>
<path d="M716.982 25.5098H735.052" stroke="#B3CDFF" stroke-width="2.12586" stroke-linecap="round"/>
<path d="M716.982 34.0137H735.052" stroke="#B3CDFF" stroke-width="2.12586" stroke-linecap="round"/>
<path d="M716.982 42.5166H735.052" stroke="#B3CDFF" stroke-width="2.12586" stroke-linecap="round"/>
<path d="M716.982 51.0205H735.052" stroke="#B3CDFF" stroke-width="2.12586" stroke-linecap="round"/>
<g clip-path="url(#clip0_10905_63981)">
<path d="M1004.47 218.708L1001.42 239.737C1000.88 243.455 998.882 246.807 995.872 249.054C992.863 251.301 989.085 252.26 985.37 251.72L936.336 244.59C939.122 244.995 941.956 244.276 944.213 242.591C946.469 240.905 947.965 238.392 948.37 235.603L951.932 211.069L1004.47 218.708Z" stroke="#B3CDFF" stroke-width="5.31464" stroke-linecap="round" stroke-linejoin="round"/>
<path d="M988.459 225.335L985.862 243.217" stroke="#B3CDFF" stroke-width="2.12586" stroke-linecap="round"/>
<path d="M980.043 224.111L977.446 241.994" stroke="#B3CDFF" stroke-width="2.12586" stroke-linecap="round"/>
<path d="M971.629 222.888L969.032 240.77" stroke="#B3CDFF" stroke-width="2.12586" stroke-linecap="round"/>
<path d="M963.213 221.665L960.616 239.547" stroke="#B3CDFF" stroke-width="2.12586" stroke-linecap="round"/>
<path d="M994.29 288.805L997.343 267.776C997.883 264.058 996.925 260.278 994.679 257.266C992.434 254.255 989.085 252.26 985.369 251.72L936.335 244.59C939.122 244.995 941.633 246.492 943.318 248.75C945.002 251.008 945.72 253.844 945.315 256.632L941.753 281.166L994.29 288.805Z" stroke="#B3CDFF" stroke-width="5.31464" stroke-linecap="round" stroke-linejoin="round"/>
<path d="M983.266 261.1L980.669 278.982" stroke="#B3CDFF" stroke-width="2.12586" stroke-linecap="round"/>
<path d="M974.85 259.876L972.253 277.758" stroke="#B3CDFF" stroke-width="2.12586" stroke-linecap="round"/>
<path d="M966.436 258.651L963.839 276.534" stroke="#B3CDFF" stroke-width="2.12586" stroke-linecap="round"/>
<path d="M958.021 257.429L955.425 275.311" stroke="#B3CDFF" stroke-width="2.12586" stroke-linecap="round"/>
</g>
<g clip-path="url(#clip1_10905_63981)">
<path d="M490.219 446.468L474.678 431.986C471.93 429.426 470.312 425.878 470.178 422.123C470.044 418.368 471.407 414.714 473.965 411.964L507.733 375.678C505.814 377.74 504.792 380.481 504.892 383.297C504.992 386.113 506.206 388.774 508.267 390.694L526.398 407.589L490.219 446.468Z" stroke="#B3CDFF" stroke-width="5.31464" stroke-linecap="round" stroke-linejoin="round"/>
<path d="M493.877 429.526L480.657 417.207" stroke="#B3CDFF" stroke-width="2.12586" stroke-linecap="round"/>
<path d="M499.67 423.301L486.45 410.982" stroke="#B3CDFF" stroke-width="2.12586" stroke-linecap="round"/>
<path d="M505.463 417.076L492.243 404.757" stroke="#B3CDFF" stroke-width="2.12586" stroke-linecap="round"/>
<path d="M511.256 410.852L498.036 398.533" stroke="#B3CDFF" stroke-width="2.12586" stroke-linecap="round"/>
<path d="M438.415 398.195L453.956 412.677C456.704 415.237 460.355 416.6 464.108 416.467C467.86 416.333 471.405 414.713 473.964 411.963L507.731 375.677C505.812 377.739 503.153 378.954 500.339 379.054C497.525 379.155 494.786 378.132 492.725 376.212L474.595 359.317L438.415 398.195Z" stroke="#B3CDFF" stroke-width="5.31464" stroke-linecap="round" stroke-linejoin="round"/>
<path d="M467.438 404.888L454.218 392.569" stroke="#B3CDFF" stroke-width="2.12586" stroke-linecap="round"/>
<path d="M473.23 398.664L460.011 386.345" stroke="#B3CDFF" stroke-width="2.12586" stroke-linecap="round"/>
<path d="M479.023 392.438L465.804 380.12" stroke="#B3CDFF" stroke-width="2.12586" stroke-linecap="round"/>
<path d="M484.816 386.214L471.597 373.895" stroke="#B3CDFF" stroke-width="2.12586" stroke-linecap="round"/>
</g>
<path d="M805.727 338.431L828.23 293.717L847.255 303.306C851.64 305.515 853.404 310.862 851.197 315.247L836.686 344.079C834.479 348.465 829.136 350.229 824.752 348.019L805.727 338.431Z" fill="#D7D7D7"/>
<path d="M836.182 345.082L851.701 314.245L853.778 315.292C858.162 317.502 859.927 322.848 857.72 327.233L850.193 342.189C847.986 346.574 842.643 348.338 838.258 346.129L836.182 345.082Z" fill="#EA5858"/>
<rect width="50.0568" height="4.31347" transform="matrix(0.44956 -0.89325 0.893001 0.450055 812.658 341.928)" fill="#868686"/>
<rect width="50.0568" height="4.31347" transform="matrix(0.44956 -0.89325 0.893001 0.450055 821.904 346.585)" fill="#868686"/>
<rect width="50.0568" height="199.437" transform="matrix(0.44956 -0.89325 0.893001 0.450055 628.252 249.11)" fill="#FF5A5A"/>
<rect width="15.5349" height="199.437" transform="matrix(0.44956 -0.89325 0.893001 0.450055 636.012 233.692)" fill="#F40000"/>
<path d="M628.128 249.046L593.777 208.42C590.533 205.792 592.28 199.728 597.561 200.901L650.631 204.333C654.742 213.962 652.652 217.142 642.865 219.765C646.926 227.632 645.84 230.819 635.895 233.614C638.869 243.295 637.885 247.113 628.128 249.046Z" fill="#F9E0B2"/>
<path d="M601.995 218.018L593.778 208.42C590.534 205.793 592.281 199.729 597.562 200.902L610.16 201.795C612.697 211.01 610.063 213.652 601.995 218.018Z" fill="#E3F0FF"/>
<path d="M686.96 433.581C686.96 451.252 672.598 465.594 654.863 465.594C637.127 465.594 622.765 451.252 622.765 433.581C622.765 415.909 637.127 401.568 654.863 401.568C672.598 401.568 686.96 415.909 686.96 433.581Z" stroke="black" stroke-width="8.08466"/>
<path d="M663.575 433.051C663.575 437.545 659.921 441.204 655.394 441.204C650.866 441.204 647.212 437.545 647.212 433.051C647.212 428.557 650.866 424.898 655.394 424.898C659.921 424.898 663.575 428.557 663.575 433.051Z" stroke="black" stroke-width="8.08466"/>
<path d="M655.924 398.585V421.915" stroke="#1D1D1B" stroke-width="6.06349"/>
<path d="M631.477 409.19L648.027 425.672" stroke="#1D1D1B" stroke-width="6.06349"/>
<path d="M631.477 456.911L648.027 440.43" stroke="#1D1D1B" stroke-width="6.06349"/>
<path d="M680.373 409.19L663.822 425.672" stroke="#1D1D1B" stroke-width="6.06349"/>
<path d="M680.373 456.911L663.822 440.43" stroke="#1D1D1B" stroke-width="6.06349"/>
<path d="M655.924 445.246V468.576" stroke="#1D1D1B" stroke-width="6.06349"/>
<path d="M667.617 433.581H689.939" stroke="#1D1D1B" stroke-width="6.06349"/>
<path d="M619.785 433.581H643.17" stroke="#1D1D1B" stroke-width="6.06349"/>
<path d="M806.005 433.581C806.005 451.252 791.643 465.594 773.907 465.594C756.172 465.594 741.81 451.252 741.81 433.581C741.81 415.909 756.172 401.568 773.907 401.568C791.643 401.568 806.005 415.909 806.005 433.581Z" stroke="black" stroke-width="8.08466"/>
<path d="M782.62 433.051C782.62 437.545 778.966 441.204 774.439 441.204C769.911 441.204 766.257 437.545 766.257 433.051C766.257 428.557 769.911 424.898 774.439 424.898C778.966 424.898 782.62 428.557 782.62 433.051Z" stroke="black" stroke-width="8.08466"/>
<path d="M774.969 398.585V421.915" stroke="#1D1D1B" stroke-width="6.06349"/>
<path d="M750.521 409.19L767.072 425.672" stroke="#1D1D1B" stroke-width="6.06349"/>
<path d="M750.521 456.911L767.072 440.43" stroke="#1D1D1B" stroke-width="6.06349"/>
<path d="M799.418 409.19L782.867 425.672" stroke="#1D1D1B" stroke-width="6.06349"/>
<path d="M799.418 456.911L782.867 440.43" stroke="#1D1D1B" stroke-width="6.06349"/>
<path d="M774.969 445.246V468.576" stroke="#1D1D1B" stroke-width="6.06349"/>
<path d="M786.662 433.581H808.984" stroke="#1D1D1B" stroke-width="6.06349"/>
<path d="M738.83 433.581H762.215" stroke="#1D1D1B" stroke-width="6.06349"/>
<path d="M662.662 249.755C663.63 241.949 672.692 238.118 679.003 242.847L720.843 274.202L656.247 301.507L662.662 249.755Z" fill="#F2B441"/>
<path d="M615.735 297.378C612.533 290.187 618.341 282.227 626.198 283.038L678.227 288.408L636.942 344.995L615.735 297.378Z" fill="#F2B441"/>
<path d="M607.519 356.564C600.685 352.617 600.685 342.753 607.519 338.806L652.734 312.69V382.68L607.519 356.564Z" fill="#F2B441"/>
<path d="M631.997 413.079C624.259 414.024 618.389 406.266 621.434 399.119L635.079 367.088C638.122 359.944 647.79 358.769 652.483 364.971L673.518 392.769C678.212 398.972 674.412 407.902 666.678 408.846L631.997 413.079Z" fill="#F2B441"/>
<path d="M684.807 446.587C678.584 451.262 669.636 447.48 668.691 439.775L664.45 405.223C663.503 397.508 671.286 391.648 678.454 394.678L710.6 408.266C717.768 411.297 718.942 420.942 712.711 425.623L684.807 446.587Z" fill="#F2B441"/>
<path d="M763.98 252.936C763.013 245.13 753.95 241.3 747.64 246.029L705.8 277.384L770.395 304.689L763.98 252.936Z" fill="#F2B441"/>
<path d="M810.907 300.56C814.11 293.369 808.302 285.409 800.445 286.22L748.416 291.59L789.701 348.177L810.907 300.56Z" fill="#F2B441"/>
<path d="M819.124 359.745C825.957 355.798 825.957 345.934 819.124 341.987L773.909 315.871V385.861L819.124 359.745Z" fill="#F2B441"/>
<path d="M794.645 416.261C802.383 417.205 808.254 409.448 805.209 402.301L791.564 370.27C788.521 363.126 778.853 361.95 774.16 368.153L753.124 395.951C748.431 402.154 752.231 411.084 759.965 412.028L794.645 416.261Z" fill="#F2B441"/>
<path d="M741.836 449.769C748.059 454.444 757.006 450.662 757.952 442.957L762.193 408.404C763.14 400.69 755.357 394.83 748.188 397.86L716.043 411.448C708.874 414.478 707.701 424.124 713.931 428.805L741.836 449.769Z" fill="#F2B441"/>
<ellipse cx="713.324" cy="349.275" rx="74.4056" ry="73.7016" fill="#F2B441"/>
<path d="M698.971 338.141C710.419 338.141 719.699 329.833 719.699 319.583C719.699 309.334 710.419 301.025 698.971 301.025C687.524 301.025 678.244 309.334 678.244 319.583C678.244 329.833 687.524 338.141 698.971 338.141Z" fill="white"/>
<path d="M698.441 328.598C703.137 328.598 706.944 324.8 706.944 320.114C706.944 315.429 703.137 311.631 698.441 311.631C693.745 311.631 689.938 315.429 689.938 320.114C689.938 324.8 693.745 328.598 698.441 328.598Z" fill="#1D1D1B"/>
<path d="M692.061 320.117C692.061 320.117 694.927 319.734 695.273 319.054C695.273 319.054 696.155 321.277 696.312 321.449C696.312 321.449 693.688 323.499 693.121 323.279C692.554 323.059 692.061 320.117 692.061 320.117Z" fill="white"/>
<path d="M735.112 338.141C746.559 338.141 755.839 329.833 755.839 319.583C755.839 309.334 746.559 301.025 735.112 301.025C723.665 301.025 714.385 309.334 714.385 319.583C714.385 329.833 723.665 338.141 735.112 338.141Z" fill="white"/>
<path d="M734.582 328.598C739.278 328.598 743.085 324.8 743.085 320.114C743.085 315.429 739.278 311.631 734.582 311.631C729.885 311.631 726.078 315.429 726.078 320.114C726.078 324.8 729.885 328.598 734.582 328.598Z" fill="#1D1D1B"/>
<path d="M728.201 320.117C728.201 320.117 731.067 319.734 731.414 319.054C731.414 319.054 732.295 321.277 732.453 321.449C732.453 321.449 729.828 323.499 729.261 323.279C728.695 323.059 728.201 320.117 728.201 320.117Z" fill="white"/>
<path d="M696.316 352.426C725.299 355.613 732.582 354.15 745.055 347.204C757.524 340.247 763.657 343.882 763.657 343.882C763.657 343.882 770.796 345.078 745.425 373.36C725.913 395.111 715.494 391.132 700.343 381.576C689.602 374.803 682.805 358.89 684.677 353.283C686.552 347.667 688.039 351.52 696.321 352.437L696.316 352.426Z" fill="#282828"/>
<mask id="mask0_10905_63981" style="mask-type:alpha" maskUnits="userSpaceOnUse" x="684" y="342" width="81" height="48">
<path d="M696.316 352.426C725.299 355.613 732.582 354.15 745.055 347.204C757.524 340.247 763.657 343.882 763.657 343.882C763.657 343.882 770.796 345.078 745.425 373.36C725.913 395.111 715.494 391.132 700.343 381.576C689.602 374.803 682.805 358.89 684.677 353.283C686.552 347.667 688.039 351.52 696.321 352.437L696.316 352.426Z" fill="#282828"/>
</mask>
<g mask="url(#mask0_10905_63981)">
<ellipse cx="6.36451" cy="12.2221" rx="6.36451" ry="12.2221" transform="matrix(0.345774 0.938318 0.970504 -0.241086 710.131 381.619)" fill="#EB2828"/>
<path d="M687.811 348.715C687.811 348.715 697.548 367.562 704.145 367.829C710.909 368.102 707.834 352.956 707.834 352.956L687.811 348.715Z" fill="white"/>
<path d="M700.984 340.232C700.984 340.232 710.722 359.08 717.318 359.346C724.083 359.619 731.545 348.715 731.545 348.715L700.984 340.232Z" fill="white"/>
<path d="M718.899 336.019C718.899 336.019 728.637 354.866 735.234 355.133C741.998 355.406 749.461 344.501 749.461 344.501L718.899 336.019Z" fill="white"/>
<path d="M687.811 348.715C687.811 348.715 697.548 367.562 704.145 367.829C710.909 368.102 707.834 352.956 707.834 352.956L687.811 348.715Z" stroke="white" stroke-width="2.02116"/>
<path d="M700.984 340.232C700.984 340.232 710.722 359.08 717.318 359.346C724.083 359.619 731.545 348.715 731.545 348.715L700.984 340.232Z" stroke="white" stroke-width="2.02116"/>
<path d="M718.899 336.019C718.899 336.019 728.637 354.866 735.234 355.133C741.998 355.406 749.461 344.501 749.461 344.501L718.899 336.019Z" stroke="white" stroke-width="2.02116"/>
</g>
<defs>
<clipPath id="clip0_10905_63981">
<rect width="84.9988" height="84.9426" fill="white" transform="matrix(-0.143696 0.989622 -0.989594 -0.14389 1015.99 213.227)"/>
</clipPath>
<clipPath id="clip1_10905_63981">
<rect width="84.9687" height="84.9728" fill="white" transform="matrix(-0.731593 -0.681741 0.681238 -0.732062 488.162 459.07)"/>
</clipPath>
</defs>
</svg>
