<svg xmlns="http://www.w3.org/2000/svg" width="329" height="266" viewBox="0 0 329 266" fill="none">
  <path d="M266.505 44.4151C270.859 42.939 276.444 43.1187 279.544 48.631C281.669 52.4075 281.373 60.4805 273.625 63.1152C270.393 64.2145 266.692 64.5916 261.351 63.803C258.871 63.4368 257.685 67.9512 256.948 68.8531" stroke="#E3F0FF" stroke-width="2.37501" stroke-linecap="round"/>
  <circle cx="254.149" cy="74.1661" r="1.35616" transform="rotate(8.52003 254.149 74.1661)" fill="#E3F0FF"/>
  <path d="M48.0947 109.486C90.7129 108.688 42.4898 182.282 61.8825 182.282C76.4567 182.282 66.2636 173.392 93.3147 172.039C117.75 170.817 186.577 155.11 150.22 95.2974C131.814 65.0161 69.1729 71.5476 85.1698 109.486M101.072 89.6569C71.432 89.6569 66.8809 166.217 85.1698 172.039C188.479 204.928 125.119 89.6569 101.072 89.6569Z" stroke="#E3F0FF" stroke-width="2.37501" stroke-linecap="round"/>
  <path d="M128.846 162.817C179.154 180.892 149.431 128.683 142.424 98.9382C121.424 9.79826 313.521 150.162 233.995 176.206C218.888 181.153 178.741 158.752 183.48 139.647C188.219 120.542 233.995 125.438 249.087 154.457M208.076 185.786C174.699 193.857 158.54 124.772 169.637 108.929C220.5 36.3074 303.057 162.818 208.076 185.786Z" stroke="#E3F0FF" stroke-width="2.37501" stroke-linecap="round"/>
  <path d="M11.0816 87.9841C10.4129 82.9963 11.7818 77.0351 18.3553 74.8657C22.859 73.3795 31.4679 75.3971 32.6666 84.2732C33.1668 87.9768 32.7926 92.0308 30.8211 97.6016C29.9055 100.189 34.5046 102.413 35.3183 103.395" stroke="#E3F0FF" stroke-width="2.37501" stroke-linecap="round"/>
  <circle cx="41.1216" cy="107.12" r="1.48438" transform="rotate(-70.3892 41.1216 107.12)" fill="#E3F0FF"/>
  <path d="M266.568 239.811C267.525 243.891 266.872 248.942 261.599 251.271C257.987 252.867 250.689 251.891 248.978 244.631C248.264 241.602 248.247 238.212 249.43 233.435C249.98 231.217 245.989 229.745 245.235 228.997" stroke="#E3F0FF" stroke-width="2.37501" stroke-linecap="round"/>
  <circle cx="238.4" cy="224.303" r="1.46093" transform="rotate(102.031 238.4 224.303)" fill="#E3F0FF"/>
  <path d="M137.553 5.9375H149.428C151.527 5.9375 153.541 6.77158 155.026 8.25625C156.51 9.74091 157.344 11.7546 157.344 13.8542V41.5626C157.344 39.9879 156.719 38.4777 155.605 37.3642C154.492 36.2507 152.982 35.6251 151.407 35.6251H137.553V5.9375Z" stroke="#B3CDFF" stroke-width="2.96876" stroke-linecap="round" stroke-linejoin="round"/>
  <path d="M142.501 14.25H152.595" stroke="#B3CDFF" stroke-width="1.1875" stroke-linecap="round"/>
  <path d="M142.501 19H152.595" stroke="#B3CDFF" stroke-width="1.1875" stroke-linecap="round"/>
  <path d="M142.501 23.75H152.595" stroke="#B3CDFF" stroke-width="1.1875" stroke-linecap="round"/>
  <path d="M142.501 28.5H152.595" stroke="#B3CDFF" stroke-width="1.1875" stroke-linecap="round"/>
  <path d="M177.136 5.9375H165.261C163.162 5.9375 161.148 6.77158 159.663 8.25625C158.179 9.74091 157.345 11.7546 157.345 13.8542V41.5626C157.345 39.9879 157.97 38.4777 159.084 37.3642C160.197 36.2507 161.708 35.6251 163.282 35.6251H177.136V5.9375Z" stroke="#B3CDFF" stroke-width="2.96876" stroke-linecap="round" stroke-linejoin="round"/>
  <path d="M162.689 14.25H172.783" stroke="#B3CDFF" stroke-width="1.1875" stroke-linecap="round"/>
  <path d="M162.689 19H172.783" stroke="#B3CDFF" stroke-width="1.1875" stroke-linecap="round"/>
  <path d="M162.689 23.75H172.783" stroke="#B3CDFF" stroke-width="1.1875" stroke-linecap="round"/>
  <path d="M162.689 28.5H172.783" stroke="#B3CDFF" stroke-width="1.1875" stroke-linecap="round"/>
  <g clip-path="url(#clip0_11486_63989)">
    <path d="M321.812 122.22L320.104 133.971C319.802 136.049 318.687 137.922 317.004 139.178C315.322 140.433 313.209 140.969 311.131 140.667L283.711 136.683C285.269 136.91 286.854 136.508 288.116 135.566C289.378 134.624 290.214 133.219 290.44 131.661L292.432 117.951L321.812 122.22Z" stroke="#B3CDFF" stroke-width="2.96876" stroke-linecap="round" stroke-linejoin="round"/>
    <path d="M312.875 125.921L311.423 135.91" stroke="#B3CDFF" stroke-width="1.1875" stroke-linecap="round"/>
    <path d="M308.174 125.238L306.722 135.227" stroke="#B3CDFF" stroke-width="1.1875" stroke-linecap="round"/>
    <path d="M303.473 124.555L302.022 134.544" stroke="#B3CDFF" stroke-width="1.1875" stroke-linecap="round"/>
    <path d="M298.772 123.871L297.321 133.86" stroke="#B3CDFF" stroke-width="1.1875" stroke-linecap="round"/>
    <path d="M316.119 161.392L317.827 149.64C318.129 147.562 317.593 145.45 316.337 143.767C315.082 142.084 313.209 140.969 311.131 140.667L283.71 136.683C285.269 136.909 286.673 137.746 287.615 139.008C288.557 140.27 288.959 141.854 288.732 143.413L286.74 157.123L316.119 161.392Z" stroke="#B3CDFF" stroke-width="2.96876" stroke-linecap="round" stroke-linejoin="round"/>
    <path d="M309.971 145.899L308.52 155.888" stroke="#B3CDFF" stroke-width="1.1875" stroke-linecap="round"/>
    <path d="M305.271 145.216L303.819 155.205" stroke="#B3CDFF" stroke-width="1.1875" stroke-linecap="round"/>
    <path d="M300.57 144.533L299.118 154.522" stroke="#B3CDFF" stroke-width="1.1875" stroke-linecap="round"/>
    <path d="M295.87 143.85L294.418 153.838" stroke="#B3CDFF" stroke-width="1.1875" stroke-linecap="round"/>
  </g>
  <g clip-path="url(#clip1_11486_63989)">
    <path d="M35.9111 249.496L27.2206 241.403C25.6841 239.972 24.7789 237.99 24.7041 235.892C24.6294 233.793 25.3913 231.751 26.8221 230.215L45.7051 209.937C44.632 211.089 44.0606 212.621 44.1166 214.194C44.1727 215.768 44.8516 217.255 46.004 218.328L56.1429 227.77L35.9111 249.496Z" stroke="#B3CDFF" stroke-width="2.96876" stroke-linecap="round" stroke-linejoin="round"/>
    <path d="M37.9556 240.041L30.5687 233.162" stroke="#B3CDFF" stroke-width="1.1875" stroke-linecap="round"/>
    <path d="M41.1919 236.565L33.805 229.687" stroke="#B3CDFF" stroke-width="1.1875" stroke-linecap="round"/>
    <path d="M44.4297 233.09L37.0428 226.211" stroke="#B3CDFF" stroke-width="1.1875" stroke-linecap="round"/>
    <path d="M47.6665 229.613L40.2796 222.734" stroke="#B3CDFF" stroke-width="1.1875" stroke-linecap="round"/>
    <path d="M6.94359 222.522L15.6341 230.615C17.1707 232.046 19.2127 232.807 21.311 232.733C23.4093 232.658 25.392 231.753 26.8229 230.216L45.7059 209.938C44.6327 211.091 43.1457 211.77 41.572 211.826C39.9982 211.882 38.4667 211.31 37.3143 210.237L27.1754 200.796L6.94359 222.522Z" stroke="#B3CDFF" stroke-width="2.96876" stroke-linecap="round" stroke-linejoin="round"/>
    <path d="M23.1816 226.284L15.7947 219.405" stroke="#B3CDFF" stroke-width="1.1875" stroke-linecap="round"/>
    <path d="M26.4189 222.808L19.032 215.929" stroke="#B3CDFF" stroke-width="1.1875" stroke-linecap="round"/>
    <path d="M29.6553 219.332L22.2684 212.453" stroke="#B3CDFF" stroke-width="1.1875" stroke-linecap="round"/>
    <path d="M32.8931 215.855L25.5062 208.977" stroke="#B3CDFF" stroke-width="1.1875" stroke-linecap="round"/>
  </g>
  <path d="M209.769 189.123L222.353 164.136L232.997 169.497C235.446 170.73 236.432 173.716 235.198 176.165L227.081 192.282C225.847 194.731 222.862 195.717 220.412 194.483L209.769 189.123Z" fill="#D7D7D7"/>
  <path d="M226.8 192.841L235.479 175.608L236.644 176.196C239.093 177.429 240.079 180.415 238.845 182.864L234.634 191.226C233.4 193.676 230.415 194.661 227.965 193.428L226.8 192.841Z" fill="#EA5858"/>
  <rect x="213.646" y="191.077" width="27.9769" height="2.4118" transform="rotate(-63.2686 213.646 191.077)" fill="#868686"/>
  <rect x="218.816" y="193.68" width="27.9769" height="2.4118" transform="rotate(-63.2686 218.816 193.68)" fill="#868686"/>
  <rect x="110.523" y="139.209" width="27.9769" height="111.512" transform="rotate(-63.2686 110.523 139.209)" fill="#FF5A5A"/>
  <rect x="114.863" y="130.593" width="8.68248" height="111.512" transform="rotate(-63.2686 114.863 130.593)" fill="#F40000"/>
  <path d="M110.453 139.175L91.2442 116.471C89.43 115.003 90.4071 111.614 93.3601 112.27L123.038 114.188C125.336 119.569 124.167 121.345 118.694 122.812C120.965 127.208 120.358 128.989 114.797 130.551C116.46 135.961 115.91 138.094 110.453 139.175Z" fill="#F9E0B2"/>
  <path d="M95.8396 121.834L91.2448 116.471C89.4306 115.003 90.4077 111.614 93.3608 112.27L100.406 112.768C101.825 117.918 100.352 119.394 95.8396 121.834Z" fill="#E3F0FF"/>
  <path d="M143.354 242.295C143.354 252.169 135.324 260.186 125.403 260.186C115.482 260.186 107.451 252.169 107.451 242.295C107.451 232.421 115.482 224.405 125.403 224.405C135.324 224.405 143.354 232.421 143.354 242.295Z" stroke="black" stroke-width="4.51609"/>
  <path d="M130.278 242C130.278 244.51 128.235 246.557 125.7 246.557C123.165 246.557 121.122 244.51 121.122 242C121.122 239.489 123.165 237.443 125.7 237.443C128.235 237.443 130.278 239.489 130.278 242Z" stroke="black" stroke-width="4.51609"/>
  <path d="M125.998 222.738V235.776" stroke="#1D1D1B" stroke-width="3.38707"/>
  <path d="M112.326 228.665L121.581 237.875" stroke="#1D1D1B" stroke-width="3.38707"/>
  <path d="M112.326 255.332L121.581 246.122" stroke="#1D1D1B" stroke-width="3.38707"/>
  <path d="M139.668 228.665L130.413 237.875" stroke="#1D1D1B" stroke-width="3.38707"/>
  <path d="M139.668 255.332L130.413 246.122" stroke="#1D1D1B" stroke-width="3.38707"/>
  <path d="M125.998 248.814V261.852" stroke="#1D1D1B" stroke-width="3.38707"/>
  <path d="M132.536 242.295H145.018" stroke="#1D1D1B" stroke-width="3.38707"/>
  <path d="M105.788 242.295H118.865" stroke="#1D1D1B" stroke-width="3.38707"/>
  <path d="M209.928 242.295C209.928 252.169 201.897 260.186 191.976 260.186C182.055 260.186 174.024 252.169 174.024 242.295C174.024 232.421 182.055 224.405 191.976 224.405C201.897 224.405 209.928 232.421 209.928 242.295Z" stroke="black" stroke-width="4.51609"/>
  <path d="M196.851 242C196.851 244.51 194.808 246.557 192.273 246.557C189.739 246.557 187.696 244.51 187.696 242C187.696 239.489 189.739 237.443 192.273 237.443C194.808 237.443 196.851 239.489 196.851 242Z" stroke="black" stroke-width="4.51609"/>
  <path d="M192.571 222.738V235.776" stroke="#1D1D1B" stroke-width="3.38707"/>
  <path d="M178.899 228.665L188.155 237.875" stroke="#1D1D1B" stroke-width="3.38707"/>
  <path d="M178.899 255.332L188.155 246.122" stroke="#1D1D1B" stroke-width="3.38707"/>
  <path d="M206.242 228.665L196.986 237.875" stroke="#1D1D1B" stroke-width="3.38707"/>
  <path d="M206.242 255.332L196.986 246.122" stroke="#1D1D1B" stroke-width="3.38707"/>
  <path d="M192.571 248.814V261.852" stroke="#1D1D1B" stroke-width="3.38707"/>
  <path d="M199.109 242.295H211.591" stroke="#1D1D1B" stroke-width="3.38707"/>
  <path d="M172.361 242.295H185.438" stroke="#1D1D1B" stroke-width="3.38707"/>
  <path d="M129.768 139.557C130.309 135.198 135.37 133.06 138.896 135.701L162.302 153.23L126.179 168.488L129.768 139.557Z" fill="#F2B441"/>
  <path d="M103.522 166.176C101.732 162.16 104.978 157.714 109.369 158.167L138.47 161.168L115.383 192.791L103.522 166.176Z" fill="#F2B441"/>
  <path d="M98.927 199.255C95.1077 197.051 95.1078 191.538 98.927 189.334L124.214 174.738V213.851L98.927 199.255Z" fill="#F2B441"/>
  <path d="M112.611 230.839C108.287 231.367 105.006 227.034 106.707 223.043L114.343 205.13C116.043 201.141 121.445 200.485 124.068 203.949L135.84 219.495C138.463 222.958 136.34 227.945 132.019 228.472L112.611 230.839Z" fill="#F2B441"/>
  <path d="M142.14 249.571C138.663 252.181 133.666 250.07 133.138 245.768L130.765 226.445C130.235 222.136 134.584 218.861 138.59 220.553L156.579 228.152C160.584 229.844 161.239 235.232 157.756 237.846L142.14 249.571Z" fill="#F2B441"/>
  <path d="M186.422 141.334C185.881 136.976 180.82 134.838 177.294 137.478L153.888 155.007L190.01 170.265L186.422 141.334Z" fill="#F2B441"/>
  <path d="M212.668 167.953C214.457 163.937 211.211 159.491 206.821 159.944L177.72 162.946L200.807 194.568L212.668 167.953Z" fill="#F2B441"/>
  <path d="M217.262 201.033C221.082 198.828 221.082 193.316 217.262 191.111L191.976 176.516V215.628L217.262 201.033Z" fill="#F2B441"/>
  <path d="M203.579 232.617C207.903 233.144 211.184 228.811 209.483 224.82L201.847 206.907C200.146 202.918 194.745 202.262 192.122 205.726L180.35 221.272C177.727 224.736 179.85 229.722 184.171 230.249L203.579 232.617Z" fill="#F2B441"/>
  <path d="M174.049 251.348C177.526 253.958 182.523 251.847 183.052 247.545L185.425 228.222C185.954 223.913 181.605 220.639 177.6 222.331L159.61 229.93C155.605 231.621 154.951 237.009 158.433 239.624L174.049 251.348Z" fill="#F2B441"/>
  <ellipse cx="158.095" cy="195.182" rx="41.6084" ry="41.1863" fill="#F2B441"/>
  <path d="M150.07 188.96C156.472 188.96 161.661 184.317 161.661 178.589C161.661 172.862 156.472 168.219 150.07 168.219C143.669 168.219 138.479 172.862 138.479 178.589C138.479 184.317 143.669 188.96 150.07 188.96Z" fill="white"/>
  <path d="M149.773 183.627C152.399 183.627 154.528 181.505 154.528 178.886C154.528 176.268 152.399 174.146 149.773 174.146C147.147 174.146 145.018 176.268 145.018 178.886C145.018 181.505 147.147 183.627 149.773 183.627Z" fill="#1D1D1B"/>
  <path d="M146.207 178.887C146.207 178.887 147.809 178.673 148.003 178.293C148.003 178.293 148.496 179.535 148.584 179.632C148.584 179.632 147.116 180.777 146.799 180.654C146.482 180.531 146.207 178.887 146.207 178.887Z" fill="white"/>
  <path d="M170.28 188.96C176.682 188.96 181.871 184.317 181.871 178.589C181.871 172.862 176.682 168.219 170.28 168.219C163.879 168.219 158.689 172.862 158.689 178.589C158.689 184.317 163.879 188.96 170.28 188.96Z" fill="white"/>
  <path d="M169.983 183.627C172.609 183.627 174.738 181.505 174.738 178.886C174.738 176.268 172.609 174.146 169.983 174.146C167.357 174.146 165.228 176.268 165.228 178.886C165.228 181.505 167.357 183.627 169.983 183.627Z" fill="#1D1D1B"/>
  <path d="M166.417 178.887C166.417 178.887 168.019 178.673 168.213 178.293C168.213 178.293 168.706 179.535 168.794 179.632C168.794 179.632 167.326 180.777 167.009 180.654C166.692 180.531 166.417 178.887 166.417 178.887Z" fill="white"/>
  <path d="M148.586 196.945C164.793 198.726 168.866 197.908 175.841 194.026C182.814 190.139 186.244 192.17 186.244 192.17C186.244 192.17 190.236 192.839 176.048 208.643C165.137 220.798 159.311 218.574 150.838 213.235C144.832 209.449 141.03 200.557 142.077 197.423C143.125 194.285 143.957 196.438 148.589 196.951L148.586 196.945Z" fill="#282828"/>
  <mask id="mask0_11486_63989" style="mask-type:alpha" maskUnits="userSpaceOnUse" x="141" y="191" width="46" height="27">
    <path d="M148.586 196.945C164.793 198.726 168.866 197.908 175.841 194.026C182.814 190.139 186.244 192.17 186.244 192.17C186.244 192.17 190.236 192.839 176.048 208.643C165.137 220.798 159.311 218.574 150.838 213.235C144.832 209.449 141.03 200.557 142.077 197.423C143.125 194.285 143.957 196.438 148.589 196.951L148.586 196.945Z" fill="#282828"/>
  </mask>
  <g mask="url(#mask0_11486_63989)">
    <ellipse cx="3.55694" cy="6.83446" rx="3.55694" ry="6.83446" transform="matrix(0.345984 0.93824 0.970543 -0.240929 156.312 213.257)" fill="#EB2828"/>
    <path d="M143.83 194.87C143.83 194.87 149.275 205.403 152.964 205.552C156.747 205.704 155.027 197.24 155.027 197.24L143.83 194.87Z" fill="white"/>
    <path d="M151.196 190.13C151.196 190.13 156.642 200.663 160.331 200.811C164.113 200.964 168.287 194.87 168.287 194.87L151.196 190.13Z" fill="white"/>
    <path d="M161.215 187.775C161.215 187.775 166.66 198.308 170.349 198.457C174.132 198.609 178.305 192.516 178.305 192.516L161.215 187.775Z" fill="white"/>
    <path d="M143.83 194.87C143.83 194.87 149.275 205.403 152.964 205.552C156.747 205.704 155.027 197.24 155.027 197.24L143.83 194.87Z" stroke="white" stroke-width="1.12902"/>
    <path d="M151.196 190.13C151.196 190.13 156.642 200.663 160.331 200.811C164.113 200.964 168.287 194.87 168.287 194.87L151.196 190.13Z" stroke="white" stroke-width="1.12902"/>
    <path d="M161.215 187.775C161.215 187.775 166.66 198.308 170.349 198.457C174.132 198.609 178.305 192.516 178.305 192.516L161.215 187.775Z" stroke="white" stroke-width="1.12902"/>
  </g>
  <defs>
    <clipPath id="clip0_11486_63989">
      <rect width="47.5002" height="47.5002" fill="white" transform="translate(328.257 119.156) rotate(98.2674)"/>
    </clipPath>
    <clipPath id="clip1_11486_63989">
      <rect width="47.5002" height="47.5002" fill="white" transform="translate(34.7617 256.54) rotate(-137.04)"/>
    </clipPath>
  </defs>
</svg>