<svg xmlns="http://www.w3.org/2000/svg" width="1440" height="301" viewBox="0 0 1440 301" fill="none">
  <path d="M-5 301H918.56L921.987 93.592C921.987 93.592 842.866 30.4956 814.756 32.6681C756.209 37.1928 725.161 78.7771 725.161 78.7771C725.161 78.7771 698.191 22.335 642.757 16.6796C578.988 10.1739 550.441 105.744 550.441 105.744C550.441 105.744 509.722 28.6389 484.018 16.6796C451.384 1.49573 409.816 105.744 409.816 105.744C409.816 105.744 391.841 81.3085 376.659 78.7771C353.755 74.9581 335.742 105.744 335.742 105.744C335.742 105.744 284.677 -0.504211 236.976 3.99734C192.377 8.20615 142.77 86.8408 142.77 86.8408C142.77 86.8408 100.767 33.6807 62.306 42.2875C35.1439 48.366 -5 112.453 -5 112.453V301Z" fill="#E3F0FF"/>
  <path d="M918.56 301L921.987 93.592C921.987 93.592 947.911 47.8567 965.117 47.8567C982.323 47.8567 1013.7 93.592 1013.7 93.592C1013.7 93.592 1041.11 34.843 1061.27 32.6681C1081.43 30.4932 1119.47 88.3596 1119.47 88.3596C1119.47 88.3596 1162.42 -7.62393 1202.38 0.486145C1234.93 7.09406 1261.08 69.6593 1261.08 69.6593C1261.08 69.6593 1271.22 42.3298 1285.01 39.1529C1302.18 35.1954 1320.9 69.6593 1320.9 69.6593C1320.9 69.6593 1346.72 40.6923 1375.53 32.6681C1411.81 22.565 1439.8 112.453 1439.8 112.453V301H918.56Z" fill="#E3F0FF"/>
</svg>