<svg xmlns="http://www.w3.org/2000/svg" width="360" height="75" viewBox="0 0 360 75" fill="none">
  <path d="M0 75H230.123L230.977 23.3203C230.977 23.3203 211.262 7.59864 204.258 8.13996C189.67 9.26737 181.934 19.6289 181.934 19.6289C181.934 19.6289 175.214 5.56526 161.401 4.15611C145.512 2.5351 138.399 26.3482 138.399 26.3482C138.399 26.3482 128.253 7.13602 121.848 4.15611C113.717 0.372772 103.359 26.3482 103.359 26.3482C103.359 26.3482 98.8805 20.2597 95.0977 19.6289C89.3908 18.6773 84.9023 26.3482 84.9023 26.3482C84.9023 26.3482 72.1785 -0.125557 60.293 0.996094C49.1804 2.0448 36.8196 21.6381 36.8196 21.6381C36.8196 21.6381 26.3538 8.39227 16.7706 10.5368C10.0026 12.0514 0 28.0199 0 28.0199V75Z" fill="#E3F0FF"/>
  <path d="M230.123 75L230.977 23.3203C230.977 23.3203 237.436 11.9245 241.723 11.9245C246.011 11.9245 253.828 23.3203 253.828 23.3203C253.828 23.3203 260.659 8.68188 265.681 8.13996C270.704 7.59805 280.182 22.0166 280.182 22.0166C280.182 22.0166 290.885 -1.89957 300.841 0.121208C308.953 1.7677 315.468 17.357 315.468 17.357C315.468 17.357 317.996 10.5474 321.43 9.75577C325.709 8.76969 330.374 17.357 330.374 17.357C330.374 17.357 336.806 10.1393 343.986 8.13996C353.026 5.62259 360 28.0199 360 28.0199V75H230.123Z" fill="#E3F0FF"/>
</svg>