<svg xmlns="http://www.w3.org/2000/svg" width="360" height="72" viewBox="0 0 360 72" fill="none">
  <path d="M261.734 71.25H0V50.125C0 50.125 11.8104 13.6742 19.249 17.0926C27.2291 20.7598 37.852 41.3208 37.852 41.3208C37.852 41.3208 50.348 1.27209 61.3641 0.0304031C73.1465 -1.29765 87.2017 41.3208 87.2017 41.3208C87.2017 41.3208 91.7355 18.3022 96.6324 21.8699C100.257 24.5104 104.125 41.3208 104.125 41.3208C104.125 41.3208 112.73 17.3904 120.79 21.8699C127.139 25.3982 137.197 48.1456 137.197 48.1456C137.197 48.1456 160.073 15.1733 175.824 17.0926C189.517 18.761 208.896 48.1456 208.896 48.1456C208.896 48.1456 229.574 18.4274 244.036 17.0926C250.979 16.4516 261.734 21.8699 261.734 21.8699L280.575 37.5C280.575 37.5 291.485 14.6999 301.355 17.0926C309.396 19.042 315.854 37.5 315.854 37.5C315.854 37.5 318.36 29.4373 321.765 28.5C326.006 27.3325 330.631 37.5 330.631 37.5C330.631 37.5 341.008 19.4599 348.125 17.0926C357.086 14.112 360 50.125 360 50.125V71.25H261.734Z" fill="#637DE6"/>
</svg>