<svg xmlns="http://www.w3.org/2000/svg" width="1440" height="285" viewBox="0 0 1440 285" fill="none">
  <path d="M1046.94 285H0V200.5C0 200.5 47.2416 54.6967 76.9959 68.3702C108.916 83.0394 151.408 165.283 151.408 165.283C151.408 165.283 201.392 5.08835 245.457 0.121613C292.586 -5.19058 348.807 165.283 348.807 165.283C348.807 165.283 366.942 73.2089 386.53 87.4797C401.026 98.0415 416.501 165.283 416.501 165.283C416.501 165.283 450.919 69.5616 483.162 87.4797C508.558 101.593 548.789 192.583 548.789 192.583C548.789 192.583 640.293 60.693 703.298 68.3702C758.068 75.0441 835.586 192.583 835.586 192.583C835.586 192.583 918.296 73.7097 976.142 68.3702C1003.92 65.8065 1046.94 87.4797 1046.94 87.4797L1122.3 150C1122.3 150 1165.94 58.7997 1205.42 68.3702C1237.58 76.1681 1263.42 150 1263.42 150C1263.42 150 1273.44 117.749 1287.06 114C1304.02 109.33 1322.52 150 1322.52 150C1322.52 150 1364.03 77.8394 1392.5 68.3702C1428.35 56.4478 1440 200.5 1440 200.5V285H1046.94Z" fill="#637DE6"/>
</svg>