<svg xmlns="http://www.w3.org/2000/svg" width="768" height="138" viewBox="0 0 768 138" fill="none">
  <path d="M0 138H558.366V42.8784C558.366 42.8784 535.422 32.441 520.609 33.6757C489.758 36.2471 445.646 93.4937 445.646 93.4937C445.646 93.4937 404.303 36.8896 375.092 33.6757C341.49 29.9785 292.688 93.4937 292.688 93.4937C292.688 93.4937 271.231 49.6749 257.686 42.8784C240.49 34.2494 222.134 80.3469 222.134 80.3469C222.134 80.3469 213.881 47.9648 206.149 42.8784C195.702 36.0059 186.03 80.3469 186.03 80.3469C186.03 80.3469 156.046 -1.74968 130.91 0.808563C107.409 3.20044 80.7509 80.3469 80.7509 80.3469C80.7509 80.3469 58.0887 40.74 41.0645 33.6757C25.1955 27.0908 0 97.3066 0 97.3066V138Z" fill="#637DE6"/>
  <path d="M557.366 138V42.8784L598.559 72.9868C598.559 72.9868 621.835 29.0667 642.89 33.6757C660.044 37.431 673.823 72.9868 673.823 72.9868C673.823 72.9868 679.169 57.4555 686.432 55.65C695.48 53.401 705.346 72.9868 705.346 72.9868C705.346 72.9868 727.483 38.2358 742.667 33.6757C761.784 27.9341 768 97.3066 768 97.3066V138H558.366Z" fill="#637DE6"/>
</svg>