<svg width="80" height="80" viewBox="0 0 80 80" fill="none" xmlns="http://www.w3.org/2000/svg">
  <rect width="80" height="80" rx="40" fill="#E3F0FF"/>
  <rect width="36.8119" height="31.8368" rx="4" transform="matrix(0.945593 0.325352 -0.341588 0.93985 26.875 21.7891)" fill="#B3CDFF"/>
  <path d="M53.2251 33.6141C54.5453 34.5359 56.4271 34.2384 57.0599 32.7679C57.4422 31.8797 57.7212 30.9496 57.8897 29.9946C58.2263 28.0868 58.1131 26.1296 57.5586 24.2707C57.0041 22.4117 56.0228 20.6997 54.6888 19.2637C53.3548 17.8277 51.703 16.7054 49.858 15.9814C48.013 15.2574 46.023 14.9506 44.0384 15.0844C42.0537 15.2181 40.1262 15.7887 38.4014 16.7532C36.6765 17.7178 35.1994 19.0509 34.0816 20.6521C33.5164 21.4617 33.0505 22.3291 32.691 23.2364C32.1059 24.7135 33.2394 26.1785 34.8393 26.4046C36.4555 26.6329 37.9195 25.4721 38.7868 24.1127C38.8391 24.0305 38.8933 23.9494 38.9493 23.8693C39.5663 22.9855 40.3815 22.2497 41.3336 21.7173C42.2856 21.185 43.3494 20.87 44.4449 20.7962C45.5403 20.7224 46.6386 20.8917 47.657 21.2913C48.6753 21.6909 49.587 22.3104 50.3233 23.1029C51.0596 23.8955 51.6012 24.8405 51.9073 25.8665C52.2134 26.8926 52.2758 27.9728 52.09 29.0258C52.0724 29.1261 52.0525 29.2258 52.0304 29.325C51.684 30.8817 51.905 32.6922 53.2251 33.6141Z" fill="#B3CDFF"/>
  <g style="mix-blend-mode:soft-light">
    <path d="M29.1131 31.7419C29.8402 29.6559 32.1303 28.5261 34.2282 29.2183L51.0105 34.7564C53.1083 35.4487 54.2195 37.701 53.4924 39.787L48.8028 53.2402C48.0757 55.3263 45.7856 56.4561 43.6877 55.7638L26.9054 50.2258C24.8076 49.5335 23.6964 47.2812 24.4235 45.1952L29.1131 31.7419Z" fill="white"/>
  </g>
  <path fill-rule="evenodd" clip-rule="evenodd" d="M40.6171 44.4281C40.7689 44.0322 41.0702 43.7055 41.4337 43.4802C42.0202 43.1166 42.4945 42.5712 42.7563 41.8885C43.3963 40.2194 42.5245 38.3616 40.8091 37.7389C39.0937 37.1161 37.1843 37.9644 36.5443 39.6334C36.2108 40.503 36.2878 41.4239 36.6806 42.1946C36.8103 42.4491 36.8362 42.749 36.733 43.0181C36.0873 44.7022 36.4332 46.3831 37.5058 46.7724C38.5783 47.1618 39.9713 46.1122 40.6171 44.4281Z" fill="#7791FA"/>
  <path d="M22.2032 25.5171C16.0212 34.8073 11.8632 45.3167 8.84693 43.2238C5.83063 41.1309 5.49806 28.825 11.6801 19.5349C17.8622 10.2447 29.5873 7.49795 32.6036 9.59088C35.6199 11.6838 28.3853 16.227 22.2032 25.5171Z" fill="white"/>
  <path d="M67.5637 58.0165C66.1275 60.4001 63.9964 61.6294 62.9961 61.001C61.9959 60.3726 63.5768 58.5913 65.013 56.2078C66.4491 53.8243 67.3528 51.9345 68.353 52.5629C69.3532 53.1913 68.9998 55.633 67.5637 58.0165Z" fill="#FDFDFD"/>
</svg>
