<svg xmlns="http://www.w3.org/2000/svg" width="328" height="260" viewBox="0 0 328 260" fill="none">
  <path d="M162.277 55.7169L177.095 3.35471C177.474 2.01588 176.673 0.722229 175.305 0.465269C173.938 0.208308 172.522 1.08534 172.143 2.42417L157.325 54.7864C156.946 56.1252 157.747 57.4188 159.115 57.6758C160.482 57.9328 161.898 57.0557 162.277 55.7169Z" fill="#8E5000"/>
  <path d="M176.351 55.3057L162.804 2.60021C162.458 1.25259 161.065 0.349897 159.694 0.583976C158.322 0.818054 157.491 2.10027 157.837 3.44788L171.384 56.1534C171.731 57.501 173.123 58.4037 174.495 58.1696C175.866 57.9355 176.697 56.6533 176.351 55.3057Z" fill="#8E5000"/>
  <path d="M76.3776 194.496H76.0786L75.9354 194.759L57.5036 228.518L57.0966 229.264H57.9458H276.628H277.478L277.07 228.518L258.573 194.758L258.43 194.496H258.131H76.3776Z" fill="#8E5000" stroke="#FDFDFD" stroke-width="1.00775"/>
  <ellipse cx="163.76" cy="250.175" rx="163.76" ry="9.82558" fill="#455FC8" fill-opacity="0.6"/>
  <path d="M287.664 249.924H167.79V229.769H277.332L288.032 249.302C288.186 249.582 287.983 249.924 287.664 249.924Z" fill="#B67805" stroke="white" stroke-width="1.00775"/>
  <path d="M167.79 196.008V29.1886L258.647 196.008H167.79Z" fill="#DEA02D" stroke="white" stroke-width="1.00775"/>
  <path d="M46.5392 249.302L57.2399 229.769H166.782V249.924H46.9076C46.5884 249.924 46.3859 249.582 46.5392 249.302Z" fill="#B67805" stroke="white" stroke-width="1.00775"/>
  <path d="M166.784 196.008H75.9263L166.784 29.1886V196.008Z" fill="#F2B441" stroke="white" stroke-width="1.00775"/>
  <path d="M117.904 231.784C115.677 231.784 113.873 233.25 113.873 235.059C113.873 236.869 115.677 238.335 117.904 238.335C120.131 238.335 121.935 236.869 121.935 235.059C121.935 233.25 120.131 231.784 117.904 231.784Z" fill="#F38273"/>
  <path d="M132.014 231.784C129.787 231.784 127.983 233.25 127.983 235.059C127.983 236.869 129.787 238.335 132.014 238.335C134.241 238.335 136.045 236.869 136.045 235.059C136.045 233.25 134.241 231.784 132.014 231.784Z" fill="#F38273"/>
  <path d="M146.122 231.784C143.895 231.784 142.091 233.25 142.091 235.059C142.091 236.869 143.895 238.335 146.122 238.335C148.349 238.335 150.153 236.869 150.153 235.059C150.153 233.25 148.349 231.784 146.122 231.784Z" fill="#F38273"/>
  <path d="M160.232 231.784C158.005 231.784 156.201 233.25 156.201 235.059C156.201 236.869 158.005 238.335 160.232 238.335C162.459 238.335 164.263 236.869 164.263 235.059C164.263 233.25 162.459 231.784 160.232 231.784Z" fill="#F38273"/>
  <path d="M174.342 231.784C172.115 231.784 170.311 233.25 170.311 235.059C170.311 236.869 172.115 238.335 174.342 238.335C176.568 238.335 178.373 236.869 178.373 235.059C178.373 233.25 176.568 231.784 174.342 231.784Z" fill="#ED675D"/>
  <path d="M188.448 231.784C186.221 231.784 184.417 233.25 184.417 235.059C184.417 236.869 186.221 238.335 188.448 238.335C190.674 238.335 192.479 236.869 192.479 235.059C192.479 233.25 190.674 231.784 188.448 231.784Z" fill="#ED675D"/>
  <path d="M202.053 231.784C199.826 231.784 198.022 233.25 198.022 235.059C198.022 236.869 199.826 238.335 202.053 238.335C204.28 238.335 206.084 236.869 206.084 235.059C206.084 233.25 204.28 231.784 202.053 231.784Z" fill="#ED675D"/>
  <path d="M216.163 231.784C213.936 231.784 212.132 233.25 212.132 235.059C212.132 236.869 213.936 238.335 216.163 238.335C218.39 238.335 220.194 236.869 220.194 235.059C220.194 233.25 218.39 231.784 216.163 231.784Z" fill="#ED675D"/>
  <path d="M160.232 185.931C158.005 185.931 156.201 187.397 156.201 189.206C156.201 191.015 158.005 192.481 160.232 192.481C162.459 192.481 164.263 191.015 164.263 189.206C164.263 187.397 162.459 185.931 160.232 185.931Z" fill="#F38273"/>
  <path d="M174.342 192.481C176.568 192.481 178.373 191.015 178.373 189.206C178.373 187.397 176.568 185.931 174.342 185.931C172.115 185.931 170.311 187.397 170.311 189.206C170.311 191.015 172.115 192.481 174.342 192.481Z" fill="#ED675D"/>
  <path d="M167.283 250.427H214.143L167.283 159.729V250.427Z" fill="#1D1D40"/>
  <path d="M167.284 250.427H120.424L167.284 159.729V250.427Z" fill="#383856"/>
  <path d="M167.285 159.729L235.812 250.426H214.263L167.285 159.729Z" fill="#FAECBD"/>
  <path d="M167.286 159.729L98.7589 250.426H120.307L167.286 159.729Z" fill="#FFDC69"/>
  <path d="M167.539 37.7901C171.853 37.7901 175.349 34.2936 175.349 29.98C175.349 25.6665 171.853 22.17 167.539 22.17C163.226 22.17 159.729 25.6665 159.729 29.98C159.729 34.2936 163.226 37.7901 167.539 37.7901Z" fill="#F2B441" stroke="white" stroke-width="1.00775"/>
  <g opacity="0.6">
    <path d="M179.453 210.864C177.252 210.166 175.982 207.98 176.615 205.982C177.249 203.984 179.547 202.93 181.748 203.628C183.948 204.326 185.219 206.511 184.585 208.51C183.951 210.508 181.654 211.562 179.453 210.864Z" fill="white"/>
    <path d="M180.053 208.971C179.151 208.685 178.652 207.722 178.938 206.821C179.224 205.919 180.187 205.42 181.088 205.706C181.99 205.992 182.489 206.955 182.203 207.856C181.917 208.758 180.954 209.257 180.053 208.971Z" fill="#1D1D1B"/>
    <path d="M181.968 207.78C181.968 207.78 181.434 207.52 181.411 207.353C181.411 207.353 181.086 207.776 181.044 207.803C181.044 207.803 181.418 208.407 181.545 208.394C181.671 208.381 181.967 207.783 181.967 207.783L181.968 207.78Z" fill="white"/>
    <path d="M186.191 212.871C184.034 212.187 182.79 210.046 183.411 208.088C184.032 206.13 186.283 205.097 188.439 205.78C190.596 206.464 191.84 208.606 191.219 210.564C190.598 212.522 188.347 213.555 186.191 212.871Z" fill="white"/>
    <path d="M186.779 211.016C185.895 210.736 185.405 209.792 185.686 208.909C185.966 208.025 186.91 207.535 187.794 207.816C188.678 208.096 189.167 209.04 188.886 209.924C188.606 210.807 187.662 211.297 186.779 211.016Z" fill="#1D1D1B"/>
    <path d="M188.657 209.851C188.657 209.851 188.132 209.596 188.111 209.431C188.111 209.431 187.793 209.845 187.752 209.872C187.752 209.872 188.119 210.463 188.242 210.451C188.366 210.439 188.657 209.851 188.657 209.851Z" fill="white"/>
  </g>
  <path d="M170.081 212.482C170.906 214.812 171.579 214.525 172.152 215.977C176.732 227.595 177.79 244.229 166.158 243.174" stroke="#9B90C5" stroke-width="3.07389" stroke-linecap="round"/>
  <path fill-rule="evenodd" clip-rule="evenodd" d="M164.981 218.825C164.688 218.624 164.464 218.32 164.37 217.948C164.165 217.138 164.656 216.316 165.466 216.111L170.919 214.731C171.729 214.526 172.552 215.016 172.757 215.826C172.815 216.056 172.818 216.286 172.773 216.503L173.131 217.841C173.749 220.147 172.381 222.518 170.075 223.135L169.443 223.305C169.366 223.338 169.286 223.364 169.201 223.383L168.912 223.447L168.771 223.485C168.692 223.506 168.612 223.521 168.533 223.531L167.474 223.767C166.749 223.928 166.031 223.471 165.869 222.746C165.843 222.629 165.833 222.512 165.838 222.397C165.5 222.119 165.285 221.698 165.285 221.226C165.285 221.116 165.297 221.009 165.319 220.906C164.999 220.668 164.773 220.304 164.72 219.877C164.672 219.491 164.774 219.12 164.981 218.825Z" fill="#9B90C5"/>
  <path d="M98.5318 242.07C98.5318 222.971 114.014 207.488 133.113 207.488C152.212 207.488 167.694 222.971 167.694 242.07V246.611C167.694 248.771 165.943 250.523 163.782 250.523H102.444C100.283 250.523 98.5318 248.771 98.5318 246.611V242.07Z" fill="#9B90C5"/>
  <path d="M119.281 211.718C113.708 207.173 103.665 202.424 108.074 219.784L119.281 211.718Z" fill="#9B90C5"/>
  <path d="M146.946 211.718C152.518 207.173 162.562 202.424 158.152 219.784L146.946 211.718Z" fill="#9B90C5"/>
  <circle cx="124.276" cy="226.698" r="5.37915" fill="#FDFDFD"/>
  <circle cx="142.719" cy="226.698" r="5.37915" fill="#FDFDFD"/>
  <circle cx="124.276" cy="226.699" r="3.84225" fill="#1E1E1E"/>
  <circle cx="142.719" cy="226.699" r="3.84225" fill="#1E1E1E"/>
  <rect x="122.548" y="224.394" width="1.92112" height="1.15267" transform="rotate(30 122.548 224.394)" fill="#FDFDFD"/>
  <rect x="140.989" y="224.394" width="1.92112" height="1.15267" transform="rotate(30 140.989 224.394)" fill="#FDFDFD"/>
  <path d="M140.784 236.689H126.161C125.57 236.689 125.125 237.206 125.284 237.777C125.874 239.896 127.779 244.374 133.328 244.374C138.846 244.374 140.955 239.948 141.651 237.814C141.84 237.235 141.393 236.689 140.784 236.689Z" fill="#1E1E1E"/>
  <path d="M129.911 239.763L128.118 236.689H131.192L129.911 239.763Z" fill="#FDFDFD"/>
</svg>