<svg width="62" height="64" viewBox="0 0 62 64" fill="none" xmlns="http://www.w3.org/2000/svg">
  <path d="M-6.10352e-05 24.5337C-6.10352e-05 23.3555 0.955065 22.4004 2.13327 22.4004H25.0666V41.6004H2.13327C0.955066 41.6004 -6.10352e-05 40.6453 -6.10352e-05 39.4671V24.5337Z" fill="#DEA02D"/>
  <path d="M59.1169 33.7044C60.2336 32.8508 60.2339 31.1692 59.1175 30.3152L28.4961 6.89027C27.0924 5.81645 25.0666 6.81734 25.0666 8.58467V55.4174C25.0666 57.1844 27.0917 58.1853 28.4955 57.1122L59.1169 33.7044Z" fill="#DEA02D"/>
  <path d="M2.13324 22.3994H27.7332V39.9994H4.26658C3.08837 39.9994 2.13324 39.0443 2.13324 37.8661V22.3994Z" fill="#F2B441"/>
  <path d="M57.0756 34.7317C58.1597 33.8818 58.166 32.2426 57.0886 31.3843L27.7332 7.99966L27.5395 54.5953C27.5339 55.9327 29.0742 56.6863 30.1267 55.8611L57.0756 34.7317Z" fill="#F2B441"/>
  <path d="M59.115 33.7092C60.2272 32.8552 60.2271 31.1789 59.1149 30.325L29.164 7.32938C29.1315 7.30444 29.0985 7.28056 29.0644 7.25793C28.9339 7.17146 28.5788 6.94122 28.3098 6.81493C28.0708 6.70276 27.7332 6.59089 27.7332 6.59089V53.3123C27.7332 55.0665 29.7326 56.071 31.14 55.0238L38.0872 49.8549L59.115 33.7092Z" fill="#F2B441"/>
  <rect opacity="0.9" x="4.79993" y="25.0664" width="6.93333" height="2.13333" rx="1.06667" fill="#FDFDFD"/>
  <rect opacity="0.9" width="26.1357" height="2.13319" rx="1.06659" transform="matrix(-0.796121 -0.605137 0.399255 -0.91684 50.0394 29.4424)" fill="#FDFDFD"/>
</svg>
