<svg width="655" height="464" viewBox="0 0 655 464" fill="none" xmlns="http://www.w3.org/2000/svg">
  <path d="M324.692 98.0839L354.013 6.42742C354.858 3.7869 353.325 1.27779 350.59 0.823168C347.856 0.368545 344.954 2.14056 344.109 4.78108L314.789 96.4375C313.944 99.0781 315.476 101.587 318.211 102.042C320.946 102.496 323.848 100.724 324.692 98.0839Z" fill="#8E5000"/>
  <path d="M352.533 97.3423L325.735 5.10696C324.961 2.44302 322.11 0.619199 319.367 1.03334C316.624 1.44748 315.028 3.94275 315.802 6.60669L342.6 98.842C343.373 101.506 346.225 103.33 348.968 102.916C351.711 102.501 353.307 100.006 352.533 97.3423Z" fill="#8E5000"/>
  <path d="M152.746 343.992H152.184L151.889 344.471L115.027 404.199L114.079 405.736H115.885H553.223H555.033L554.08 404.198L517.09 344.469L516.794 343.992H516.233H152.746Z" fill="#8E5000" stroke="#FDFDFD" stroke-width="2.0155"/>
  <ellipse cx="327.5" cy="442.617" rx="327.5" ry="17.3837" fill="#455FC8" fill-opacity="0.6"/>
  <path d="M575.093 442.054H335.557V406.628H554.664L575.807 440.772C576.154 441.332 575.751 442.054 575.093 442.054Z" fill="#B67805" stroke="white" stroke-width="2.0155"/>
  <path d="M335.557 346.667V51.6988L517.153 346.667H335.557Z" fill="#DEA02D" stroke="white" stroke-width="2.0155"/>
  <path d="M93.2929 440.773L114.436 406.629H333.543V442.055H94.007C93.3488 442.055 92.9463 441.333 93.2929 440.773Z" fill="#B67805" stroke="white" stroke-width="2.0155"/>
  <path d="M333.546 346.667H151.95L333.546 51.6988V346.667Z" fill="#F2B441" stroke="white" stroke-width="2.0155"/>
  <path d="M235.796 410.079C231.343 410.079 227.734 412.673 227.734 415.874C227.734 419.075 231.343 421.668 235.796 421.668C240.249 421.668 243.857 419.075 243.857 415.874C243.857 412.673 240.249 410.079 235.796 410.079Z" fill="#F38273"/>
  <path d="M264.013 410.079C259.559 410.079 255.951 412.673 255.951 415.874C255.951 419.075 259.559 421.668 264.013 421.668C268.466 421.668 272.074 419.075 272.074 415.874C272.074 412.673 268.466 410.079 264.013 410.079Z" fill="#F38273"/>
  <path d="M292.227 410.078C287.774 410.078 284.166 412.672 284.166 415.873C284.166 419.074 287.774 421.667 292.227 421.667C296.681 421.667 300.289 419.074 300.289 415.873C300.289 412.672 296.681 410.078 292.227 410.078Z" fill="#F38273"/>
  <path d="M320.444 410.079C315.991 410.079 312.383 412.673 312.383 415.874C312.383 419.075 315.991 421.668 320.444 421.668C324.898 421.668 328.506 419.075 328.506 415.874C328.506 412.673 324.898 410.079 320.444 410.079Z" fill="#F38273"/>
  <path d="M348.663 410.079C344.21 410.079 340.602 412.673 340.602 415.874C340.602 419.075 344.21 421.668 348.663 421.668C353.116 421.668 356.725 419.075 356.725 415.874C356.725 412.673 353.116 410.079 348.663 410.079Z" fill="#ED675D"/>
  <path d="M376.872 410.078C372.419 410.078 368.811 412.672 368.811 415.873C368.811 419.074 372.419 421.667 376.872 421.667C381.325 421.667 384.934 419.074 384.934 415.873C384.934 412.672 381.325 410.078 376.872 410.078Z" fill="#ED675D"/>
  <path d="M404.081 410.079C399.628 410.079 396.02 412.673 396.02 415.874C396.02 419.075 399.628 421.668 404.081 421.668C408.534 421.668 412.143 419.075 412.143 415.874C412.143 412.673 408.534 410.079 404.081 410.079Z" fill="#ED675D"/>
  <path d="M432.302 410.079C427.848 410.079 424.24 412.673 424.24 415.874C424.24 419.075 427.848 421.668 432.302 421.668C436.755 421.668 440.363 419.075 440.363 415.874C440.363 412.673 436.755 410.079 432.302 410.079Z" fill="#ED675D"/>
  <path d="M320.444 328.953C315.991 328.953 312.383 331.547 312.383 334.748C312.383 337.949 315.991 340.542 320.444 340.542C324.898 340.542 328.506 337.949 328.506 334.748C328.506 331.547 324.898 328.953 320.444 328.953Z" fill="#F38273"/>
  <path d="M348.663 340.542C353.115 340.542 356.725 337.948 356.725 334.748C356.725 331.547 353.115 328.953 348.663 328.953C344.211 328.953 340.602 331.547 340.602 334.748C340.602 337.948 344.211 340.542 348.663 340.542Z" fill="#ED675D"/>
  <path d="M334.545 443.063H428.26L334.545 282.598V443.063Z" fill="#1D1D40"/>
  <path d="M334.547 443.063H240.832L334.547 282.598V443.063Z" fill="#383856"/>
  <path d="M334.551 282.597L471.597 443.062H428.503L334.551 282.597Z" fill="#FAECBD"/>
  <path d="M334.552 282.597L197.506 443.062H240.6L334.552 282.597Z" fill="#FFDC69"/>
  <path d="M335.059 66.9767C343.566 66.9767 350.678 60.851 350.678 53.0426C350.678 45.2341 343.566 39.1085 335.059 39.1085C326.552 39.1085 319.44 45.2341 319.44 53.0426C319.44 60.851 326.552 66.9767 335.059 66.9767Z" fill="#F2B441" stroke="white" stroke-width="2.0155"/>
  <g opacity="0.6">
    <path d="M358.624 373.295C354.368 372.186 352.063 368.319 353.476 364.659C354.889 360.998 359.484 358.929 363.74 360.039C367.995 361.148 370.3 365.015 368.887 368.675C367.474 372.336 362.879 374.405 358.624 373.295Z" fill="white"/>
    <path d="M359.97 369.816C358.231 369.362 357.336 367.659 357.972 366.011C358.608 364.363 360.534 363.395 362.273 363.848C364.012 364.301 364.906 366.005 364.27 367.653C363.635 369.3 361.709 370.269 359.97 369.816Z" fill="#1D1D1B"/>
    <path d="M363.9 367.576C363.9 367.576 362.88 367.145 362.851 366.846C362.851 366.846 362.181 367.63 362.097 367.681C362.097 367.681 362.776 368.744 363.023 368.711C363.27 368.678 363.899 367.58 363.899 367.58L363.9 367.576Z" fill="white"/>
    <path d="M372.103 376.842C367.933 375.755 365.675 371.966 367.06 368.379C368.444 364.791 372.947 362.764 377.116 363.851C381.286 364.937 383.544 368.726 382.159 372.314C380.775 375.901 376.272 377.928 372.103 376.842Z" fill="white"/>
    <path d="M373.423 373.431C371.719 372.986 370.842 371.317 371.465 369.701C372.088 368.086 373.976 367.137 375.681 367.581C377.386 368.026 378.262 369.695 377.639 371.311C377.016 372.926 375.128 373.875 373.423 373.431Z" fill="#1D1D1B"/>
    <path d="M377.276 371.238C377.276 371.238 376.274 370.815 376.247 370.521C376.247 370.521 375.592 371.288 375.508 371.339C375.508 371.339 376.175 372.379 376.417 372.349C376.659 372.319 377.276 371.238 377.276 371.238Z" fill="white"/>
  </g>
  <path d="M340.156 387.724C341.806 392.383 343.153 391.808 344.298 394.713C353.459 417.948 355.575 451.216 332.311 449.106" stroke="#9B90C5" stroke-width="6.14779" stroke-linecap="round"/>
  <path fill-rule="evenodd" clip-rule="evenodd" d="M329.959 400.408C329.373 400.006 328.926 399.398 328.738 398.656C328.328 397.036 329.309 395.39 330.929 394.98L341.837 392.22C343.457 391.81 345.102 392.791 345.512 394.411C345.629 394.871 345.633 395.333 345.542 395.769L346.258 398.441C347.494 403.053 344.757 407.794 340.145 409.03L338.886 409.367C338.732 409.433 338.57 409.486 338.401 409.524L337.811 409.655L337.537 409.729C337.381 409.771 337.224 409.801 337.067 409.821L334.946 410.292C333.496 410.615 332.059 409.701 331.737 408.251C331.685 408.017 331.665 407.783 331.674 407.555C330.997 406.999 330.566 406.155 330.567 405.211C330.567 404.991 330.591 404.776 330.635 404.569C329.995 404.093 329.543 403.367 329.437 402.512C329.341 401.74 329.546 401 329.959 400.408Z" fill="#9B90C5"/>
  <path d="M197.057 446.897C197.057 408.7 228.022 377.734 266.219 377.734C304.417 377.734 335.382 408.7 335.382 446.897V455.979C335.382 460.3 331.879 463.803 327.557 463.803H204.881C200.56 463.803 197.057 460.3 197.057 455.979V446.897Z" fill="#9B90C5"/>
  <path d="M238.554 386.194C227.408 377.105 207.322 367.605 216.14 402.326L238.554 386.194Z" fill="#9B90C5"/>
  <path d="M293.885 386.194C305.031 377.105 325.117 367.605 316.299 402.326L293.885 386.194Z" fill="#9B90C5"/>
  <circle cx="248.543" cy="416.157" r="10.7583" fill="#FDFDFD"/>
  <circle cx="285.432" cy="416.157" r="10.7583" fill="#FDFDFD"/>
  <circle cx="248.544" cy="416.157" r="7.6845" fill="#1E1E1E"/>
  <circle cx="285.429" cy="416.157" r="7.6845" fill="#1E1E1E"/>
  <rect x="245.09" y="411.546" width="3.84225" height="2.30535" transform="rotate(30 245.09 411.546)" fill="#FDFDFD"/>
  <rect x="281.971" y="411.546" width="3.84225" height="2.30535" transform="rotate(30 281.971 411.546)" fill="#FDFDFD"/>
  <path d="M281.559 436.137H252.314C251.131 436.137 250.242 437.171 250.56 438.311C251.741 442.55 255.549 451.506 266.648 451.506C277.683 451.506 281.901 442.653 283.294 438.385C283.671 437.227 282.777 436.137 281.559 436.137Z" fill="#1E1E1E"/>
  <path d="M259.815 442.285L256.229 436.137H262.376L259.815 442.285Z" fill="#FDFDFD"/>
</svg>
