<svg width="62" height="64" viewBox="0 0 62 64" fill="none" xmlns="http://www.w3.org/2000/svg">
  <path d="M61.3335 39.4663C61.3335 40.6445 60.3784 41.5996 59.2002 41.5996H36.2668V22.3996L59.2002 22.3996C60.3784 22.3996 61.3335 23.3547 61.3335 24.5329V39.4663Z" fill="#DEA02D"/>
  <path d="M2.21648 30.2956C1.09974 31.1492 1.09944 32.8308 2.21588 33.6848L32.8373 57.1097C34.241 58.1835 36.2668 57.1827 36.2668 55.4153L36.2668 8.58262C36.2668 6.81564 34.2417 5.81466 32.8379 6.88777L2.21648 30.2956Z" fill="#DEA02D"/>
  <path d="M59.2002 41.6006H33.6002V24.0006L57.0669 24.0006C58.2451 24.0006 59.2002 24.9557 59.2002 26.1339V41.6006Z" fill="#F2B441"/>
  <path d="M4.25781 29.2683C3.17377 30.1182 3.16744 31.7574 4.24488 32.6157L33.6002 56.0003L33.7939 9.40467C33.7995 8.06727 32.2592 7.31369 31.2067 8.13889L4.25781 29.2683Z" fill="#F2B441"/>
  <path d="M2.21845 30.2908C1.10628 31.1448 1.1063 32.8211 2.2185 33.675L32.1694 56.6706C32.2019 56.6956 32.2349 56.7194 32.269 56.7421C32.3995 56.8285 32.7546 57.0588 33.0237 57.1851C33.2626 57.2972 33.6002 57.4091 33.6002 57.4091L33.6002 10.6877C33.6002 8.93353 31.6008 7.92903 30.1934 8.97617L23.2462 14.1451L2.21845 30.2908Z" fill="#F2B441"/>
  <rect opacity="0.9" width="26.1333" height="2.13333" rx="1.06667" transform="matrix(0.802614 0.596498 -0.389407 0.921066 11.2002 34.666)" fill="#FDFDFD"/>
</svg>
