<svg xmlns="http://www.w3.org/2000/svg" width="24" height="24" viewBox="0 0 24 24" fill="none">
  <mask id="mask0_9690_27095" style="mask-type:alpha" maskUnits="userSpaceOnUse" x="0" y="0" width="24" height="24">
    <rect width="24" height="24" fill="#D9D9D9"/>
  </mask>
  <g mask="url(#mask0_9690_27095)">
    <path d="M15.125 21.1004L6.70005 12.7004C6.60005 12.6004 6.52922 12.4921 6.48755 12.3754C6.44588 12.2587 6.42505 12.1337 6.42505 12.0004C6.42505 11.8671 6.44588 11.7421 6.48755 11.6254C6.52922 11.5087 6.60005 11.4004 6.70005 11.3004L15.125 2.87539C15.3584 2.64206 15.65 2.52539 16 2.52539C16.35 2.52539 16.65 2.65039 16.9 2.90039C17.15 3.15039 17.275 3.44206 17.275 3.77539C17.275 4.10872 17.15 4.40039 16.9 4.65039L9.55005 12.0004L16.9 19.3504C17.1334 19.5837 17.25 19.8712 17.25 20.2129C17.25 20.5546 17.125 20.8504 16.875 21.1004C16.625 21.3504 16.3334 21.4754 16 21.4754C15.6667 21.4754 15.375 21.3504 15.125 21.1004Z" fill="#1E1E1E"/>
  </g>
</svg>