<svg width="48" height="48" viewBox="0 0 48 48" fill="none" xmlns="http://www.w3.org/2000/svg">
<g clip-path="url(#clip0_5129_59082)">
<rect width="48" height="48" fill="#C7E1FF"/>
<ellipse cx="24" cy="36" rx="18" ry="20" fill="#132D96"/>
<path d="M17.8434 38.22C21.7933 38.22 24.9954 35.3122 24.9954 31.7252C24.9954 28.1383 21.7933 25.2305 17.8434 25.2305C13.8935 25.2305 10.6914 28.1383 10.6914 31.7252C10.6914 35.3122 13.8935 38.22 17.8434 38.22Z" fill="white"/>
<path d="M17.8433 34.8219C19.4624 34.8219 20.775 33.5093 20.775 31.8902C20.775 30.2711 19.4624 28.9585 17.8433 28.9585C16.2242 28.9585 14.9116 30.2711 14.9116 31.8902C14.9116 33.5093 16.2242 34.8219 17.8433 34.8219Z" fill="#1E1E1E"/>
<path d="M15.333 31.8903C15.333 31.8903 16.341 31.7426 16.4629 31.4805C16.4629 31.4805 16.773 32.3371 16.8284 32.4035C16.8284 32.4035 15.9053 33.1937 15.7059 33.1088C15.5065 33.0239 15.333 31.8903 15.333 31.8903Z" fill="white"/>
<path d="M30.3981 38.22C34.348 38.22 37.5501 35.3122 37.5501 31.7252C37.5501 28.1383 34.348 25.2305 30.3981 25.2305C26.4482 25.2305 23.2461 28.1383 23.2461 31.7252C23.2461 35.3122 26.4482 38.22 30.3981 38.22Z" fill="white"/>
<path d="M30.398 34.8219C32.0171 34.8219 33.3297 33.5093 33.3297 31.8902C33.3297 30.2711 32.0171 28.9585 30.398 28.9585C28.7789 28.9585 27.4663 30.2711 27.4663 31.8902C27.4663 33.5093 28.7789 34.8219 30.398 34.8219Z" fill="#1E1E1E"/>
<path d="M27.8877 31.8903C27.8877 31.8903 28.8957 31.7426 29.0175 31.4805C29.0175 31.4805 29.3277 32.3371 29.3831 32.4035C29.3831 32.4035 28.46 33.1937 28.2606 33.1088C28.0612 33.0239 27.8877 31.8903 27.8877 31.8903Z" fill="white"/>
</g>
<defs>
<clipPath id="clip0_5129_59082">
<rect width="48" height="48" rx="24" fill="white"/>
</clipPath>
</defs>
</svg>
