<svg width="609" height="219" viewBox="0 0 609 219" fill="none" xmlns="http://www.w3.org/2000/svg">
<path d="M140.438 139.816C140.438 139.816 247.948 168.327 316.025 157.575C378.635 147.687 473.079 158.414 465.965 95.4162C459.66 39.5791 378.659 -2.03245 335.754 34.2439C293.791 69.7243 333.908 127.758 367.32 171.388C425.113 246.855 609 200.001 609 200.001" stroke="#E3F0FF" stroke-width="7.90823" stroke-linecap="round" stroke-dasharray="19.77 19.77"/>
<mask id="path-2-outside-1_3443_12122" maskUnits="userSpaceOnUse" x="-0.839844" y="0.625" width="185" height="167" fill="black">
<rect fill="white" x="-0.839844" y="0.625" width="185" height="167"/>
<path d="M22.2807 21.0101C18.3203 23.5312 20.2049 27.8086 20.8567 31.3352L21.2676 33.6368L35.0548 104.603C37.4494 116.382 39.7804 128.175 42.0475 139.983C42.8906 144.373 45.845 148.049 50.6202 146.965C52.0986 146.63 54.4271 145.275 57.6059 142.9C64.7238 137.589 71.9268 132.29 79.2147 127.002L87.4828 120.89L107.264 106.316C107.313 105.651 53.5534 55.5405 47.7013 49.9884C47.6432 49.9334 47.5968 49.8673 47.5648 49.7939C47.5329 49.7205 47.5161 49.6415 47.5154 49.5615C47.5148 49.4815 47.5303 49.4022 47.561 49.3283C47.5917 49.2544 47.637 49.1875 47.6942 49.1316C47.7721 49.0537 119.903 92.0325 126.528 95.9628C137.703 92.2426 148.809 88.6592 159.848 85.2128C164.736 83.6902 166.047 77.9753 160.733 75.865C157.356 74.5242 154.017 73.1267 150.715 71.6726C92.6902 47.8356 50.8753 30.8631 25.2706 20.7552C24.666 20.5191 23.6694 20.6041 22.2807 21.0101Z"/>
<path d="M107.264 106.316C107.627 116.726 108.521 127.108 109.942 137.462C112.812 137.193 113.074 135.373 114.243 132.696L125.359 98.4345C125.505 97.2778 125.895 96.4538 126.528 95.9628C119.903 92.0325 47.7721 49.0537 47.6942 49.1316C47.637 49.1875 47.5917 49.2544 47.561 49.3283C47.5303 49.4022 47.5148 49.4815 47.5154 49.5615C47.5161 49.6415 47.5329 49.7205 47.5648 49.7939C47.5968 49.8673 47.6432 49.9334 47.7013 49.9884C53.5534 55.5405 107.313 105.651 107.264 106.316Z"/>
<path d="M107.264 106.316L87.4828 120.89L105.755 135.79C107.073 137.075 108.469 137.632 109.942 137.462C108.521 127.108 107.627 116.726 107.264 106.316Z"/>
</mask>
<path d="M22.2807 21.0101C18.3203 23.5312 20.2049 27.8086 20.8567 31.3352L21.2676 33.6368L35.0548 104.603C37.4494 116.382 39.7804 128.175 42.0475 139.983C42.8906 144.373 45.845 148.049 50.6202 146.965C52.0986 146.63 54.4271 145.275 57.6059 142.9C64.7238 137.589 71.9268 132.29 79.2147 127.002L87.4828 120.89L107.264 106.316C107.313 105.651 53.5534 55.5405 47.7013 49.9884C47.6432 49.9334 47.5968 49.8673 47.5648 49.7939C47.5329 49.7205 47.5161 49.6415 47.5154 49.5615C47.5148 49.4815 47.5303 49.4022 47.561 49.3283C47.5917 49.2544 47.637 49.1875 47.6942 49.1316C47.7721 49.0537 119.903 92.0325 126.528 95.9628C137.703 92.2426 148.809 88.6592 159.848 85.2128C164.736 83.6902 166.047 77.9753 160.733 75.865C157.356 74.5242 154.017 73.1267 150.715 71.6726C92.6902 47.8356 50.8753 30.8631 25.2706 20.7552C24.666 20.5191 23.6694 20.6041 22.2807 21.0101Z" fill="#F3FBFF"/>
<path d="M107.264 106.316C107.627 116.726 108.521 127.108 109.942 137.462C112.812 137.193 113.074 135.373 114.243 132.696L125.359 98.4345C125.505 97.2778 125.895 96.4538 126.528 95.9628C119.903 92.0325 47.7721 49.0537 47.6942 49.1316C47.637 49.1875 47.5917 49.2544 47.561 49.3283C47.5303 49.4022 47.5148 49.4815 47.5154 49.5615C47.5161 49.6415 47.5329 49.7205 47.5648 49.7939C47.5968 49.8673 47.6432 49.9334 47.7013 49.9884C53.5534 55.5405 107.313 105.651 107.264 106.316Z" fill="#CBDBE3"/>
<path d="M107.264 106.316L87.4828 120.89L105.755 135.79C107.073 137.075 108.469 137.632 109.942 137.462C108.521 127.108 107.627 116.726 107.264 106.316Z" fill="#9CC7D1"/>
<path d="M47.7013 49.9884L54.498 42.8105L54.505 42.8171L47.7013 49.9884ZM47.6942 49.1316L54.6826 56.1231L54.6458 56.1598L54.6086 56.1962L47.6942 49.1316ZM81.6192 112.932L101.4 98.3578L113.127 114.275L93.3464 128.849L81.6192 112.932ZM97.4058 105.582C97.2586 107.557 97.7499 109.055 97.9359 109.584C98.175 110.264 98.4392 110.774 98.586 111.042C98.8821 111.582 99.1617 111.967 99.2602 112.101C99.4881 112.412 99.6705 112.617 99.6825 112.631C99.747 112.704 99.7335 112.685 99.5688 112.515C99.2704 112.207 98.7684 111.706 98.0456 110.998C96.6189 109.603 94.54 107.607 91.9852 105.175C86.8861 100.321 80.008 93.84 72.928 87.1901C58.8211 73.9403 43.843 59.9542 40.8976 57.1598L54.505 42.8171C57.4116 45.5747 72.2396 59.4197 86.4633 72.7794C93.5486 79.4342 100.467 85.9528 105.617 90.8551C108.186 93.3013 110.345 95.3729 111.872 96.8666C112.626 97.6042 113.279 98.2533 113.766 98.7553C113.994 98.9903 114.28 99.2907 114.545 99.5932C114.658 99.7214 114.916 100.018 115.194 100.397C115.318 100.565 115.616 100.979 115.924 101.541C116.077 101.82 116.346 102.34 116.588 103.028C116.777 103.566 117.269 105.07 117.122 107.051L97.4058 105.582ZM40.9045 57.1664C39.881 56.1972 39.0635 55.0315 38.5009 53.739L56.6288 45.8488C56.1301 44.703 55.4053 43.6696 54.498 42.8105L40.9045 57.1664ZM38.5009 53.739C37.9387 52.4475 37.6421 51.0545 37.6305 49.6432L57.4004 49.4798C57.39 48.2285 57.1271 46.9936 56.6288 45.8488L38.5009 53.739ZM37.6305 49.6432C37.6188 48.2317 37.8924 46.8341 38.433 45.5336L56.6889 53.123C57.1681 51.9703 57.4107 50.7313 57.4004 49.4798L37.6305 49.6432ZM38.433 45.5336C38.974 44.2324 39.772 43.0532 40.7797 42.0669L54.6086 56.1962C55.502 55.3218 56.2094 54.2765 56.6889 53.123L38.433 45.5336ZM40.7058 42.14C44.0422 39.9455 49.0448 39.3387 50.0996 39.5431C50.5262 39.6602 51.1696 39.8768 51.3911 39.9629C51.749 40.1071 52.0217 40.2423 52.0834 40.2728C52.2728 40.3662 52.4248 40.4489 52.4697 40.4733C52.5956 40.5417 52.7184 40.6112 52.801 40.6583C52.9849 40.763 53.2251 40.9022 53.4987 41.0617C54.0553 41.3863 54.8549 41.8562 55.8545 42.4458C57.8584 43.6278 60.717 45.3209 64.157 47.3616C71.0392 51.4446 80.2742 56.9351 89.71 62.5485C108.594 73.7829 128.265 85.4997 131.572 87.4613L121.483 104.464C118.165 102.496 98.4587 90.7578 79.6018 79.5397C70.1671 73.9269 60.9407 68.4416 54.0694 64.3651C50.6326 62.3262 47.7915 60.6435 45.8099 59.4747C44.8167 58.8889 44.0522 58.4396 43.5405 58.1412C43.2798 57.9893 43.1098 57.891 43.0157 57.8375C42.9594 57.8054 42.9763 57.8156 43.0304 57.845C43.0395 57.8499 43.1641 57.9181 43.3348 58.0024C43.3872 58.0282 43.6528 58.1602 44.0057 58.3023C44.2246 58.3874 44.8661 58.6033 45.2913 58.7201C46.3447 58.9241 51.3465 58.3173 54.6826 56.1231L40.7058 42.14ZM117.143 105.971C117.495 116.045 118.359 126.094 119.736 136.117L100.149 138.807C98.6819 128.123 97.7599 117.407 97.3845 106.661L117.143 105.971ZM22.2807 21.0101L11.664 4.33197L14.0349 2.82276L16.7324 2.03403L22.2807 21.0101ZM20.8567 31.3352L40.298 27.7421L40.3089 27.8011L40.3195 27.8602L20.8567 31.3352ZM21.2676 33.6368L1.85991 37.4073L1.83124 37.2598L1.80482 37.1118L21.2676 33.6368ZM35.0548 104.603L15.6805 108.541L15.6634 108.457L15.647 108.373L35.0548 104.603ZM42.0475 139.983L22.6317 143.711L22.6316 143.711L42.0475 139.983ZM50.6202 146.965L46.2455 127.685L46.2485 127.684L50.6202 146.965ZM57.6059 142.9L45.7733 127.062L45.7823 127.055L57.6059 142.9ZM79.2147 127.002L90.9666 142.901L90.8961 142.953L90.825 143.004L79.2147 127.002ZM87.4828 120.89L75.7309 104.992L88.0779 95.8652L99.9771 105.568L87.4828 120.89ZM126.528 95.9628L114.409 80.3417L117.078 78.2713L120.283 77.2044L126.528 95.9628ZM159.848 85.2128L153.955 66.3407L153.969 66.3366L159.848 85.2128ZM160.733 75.865L168.029 57.4897L168.031 57.4905L160.733 75.865ZM150.715 71.6726L158.228 53.385L158.457 53.4792L158.684 53.5792L150.715 71.6726ZM25.2706 20.7552L32.4613 2.33863L32.4958 2.35209L32.5302 2.36567L25.2706 20.7552ZM109.942 137.462L107.677 117.821L107.886 117.797L108.096 117.778L109.942 137.462ZM114.243 132.696L133.048 138.797L132.749 139.72L132.361 140.608L114.243 132.696ZM125.359 98.4345L144.973 100.917L144.739 102.765L144.165 104.536L125.359 98.4345ZM105.755 135.79L118.249 120.468L118.927 121.021L119.553 121.631L105.755 135.79ZM32.8975 37.6883C34.8195 36.4648 36.9182 34.3864 38.2808 31.4017C39.5456 28.6312 39.6342 26.2615 39.5999 25.1724C39.5691 24.1971 39.4127 23.6902 39.5541 24.3316C39.6297 24.6746 39.6771 24.8643 39.8311 25.5304C39.9523 26.0548 40.134 26.8547 40.298 27.7421L1.41536 34.9284C1.41641 34.9341 1.39665 34.8289 1.30548 34.4345C1.24709 34.1818 1.07127 33.439 0.940445 32.8457C0.668961 31.6144 0.166687 29.2194 0.0783539 26.4188C-0.0135498 23.5043 0.305756 19.3722 2.31071 14.9804C4.41347 10.3745 7.76172 6.81603 11.664 4.33197L32.8975 37.6883ZM40.3195 27.8602L40.7304 30.1618L1.80482 37.1118L1.39389 34.8103L40.3195 27.8602ZM40.6753 29.8663L54.4625 100.832L15.647 108.373L1.85991 37.4073L40.6753 29.8663ZM54.429 100.664C56.838 112.513 59.1828 124.377 61.4634 136.255L22.6316 143.711C20.3779 131.973 18.0609 120.25 15.6805 108.541L54.429 100.664ZM61.4634 136.254C61.3438 135.632 60.801 133.34 58.2812 131.01C56.9023 129.735 54.9772 128.523 52.5597 127.867C50.1232 127.207 47.9088 127.307 46.2455 127.685L54.995 166.246C46.1577 168.251 37.5911 165.733 31.4374 160.043C26.0359 155.049 23.5943 148.724 22.6317 143.711L61.4634 136.254ZM46.2485 127.684C45.5921 127.833 45.0686 127.997 44.6998 128.125C44.3265 128.256 44.0449 128.373 43.866 128.453C43.6845 128.533 43.568 128.593 43.5228 128.616C43.4762 128.64 43.478 128.641 43.532 128.609C43.6478 128.542 43.8969 128.39 44.2951 128.12C44.688 127.854 45.1783 127.506 45.7733 127.062L69.4385 158.739C67.498 160.189 65.4626 161.597 63.4188 162.786C61.6448 163.818 58.6471 165.418 54.992 166.246L46.2485 127.684ZM45.7823 127.055C52.9719 121.69 60.246 116.338 67.6045 111L90.825 143.004C83.6075 148.241 76.4757 153.488 69.4295 158.746L45.7823 127.055ZM67.4629 111.103L75.7309 104.992L99.2347 136.789L90.9666 142.901L67.4629 111.103ZM120.283 77.2044C131.573 73.4459 142.797 69.8246 153.955 66.3407L165.74 104.085C154.822 107.494 143.833 111.039 132.772 114.721L120.283 77.2044ZM153.969 66.3366C150.432 67.438 145.558 71.0145 144.553 77.9067C144.032 81.4751 144.75 85.3438 146.871 88.658C148.948 91.9038 151.65 93.5304 153.436 94.2395L168.031 57.4905C177.746 61.3489 185.489 71.2049 183.68 83.6119C182.126 94.2698 174.152 101.465 165.727 104.089L153.969 66.3366ZM153.438 94.2403C149.836 92.8103 146.272 91.3189 142.746 89.766L158.684 53.5792C161.761 54.9345 164.876 56.238 168.029 57.4897L153.438 94.2403ZM143.203 89.9602C85.1832 66.1255 43.478 49.1983 18.011 39.1447L32.5302 2.36567C58.2726 12.528 100.197 29.5457 158.228 53.385L143.203 89.9602ZM18.0798 39.1717C21.7123 40.59 24.7085 40.4297 25.7494 40.341C26.9993 40.2344 27.7675 40.0042 27.8291 39.9862L16.7324 2.03403C18.1826 1.61003 20.1434 1.13433 22.3899 0.942776C24.4274 0.769037 28.2242 0.684275 32.4613 2.33863L18.0798 39.1717ZM108.096 117.778C106.784 117.901 104.513 118.321 101.99 119.736C99.3517 121.215 97.5721 123.144 96.4786 124.723C95.5688 126.036 95.1665 127.08 95.28 126.813C95.3223 126.713 95.3581 126.623 95.5263 126.21C95.6643 125.87 95.8736 125.358 96.1246 124.783L132.361 140.608C131.906 141.65 132.49 140.348 131.683 142.251C131.328 143.086 130.462 145.104 128.982 147.24C127.318 149.642 124.862 152.244 121.33 154.224C117.915 156.139 114.535 156.888 111.788 157.146L108.096 117.778ZM95.4373 126.594L106.553 92.333L144.165 104.536L133.048 138.797L95.4373 126.594ZM105.745 95.9516C106.249 91.9732 108.063 85.2648 114.409 80.3417L138.646 111.584C143.726 107.643 144.762 102.582 144.973 100.917L105.745 95.9516ZM99.9771 105.568L118.249 120.468L93.2608 151.113L74.9885 136.213L99.9771 105.568ZM119.553 121.631C118.758 120.856 117.308 119.683 115.12 118.81C112.816 117.89 110.24 117.526 107.677 117.821L112.208 157.102C103.43 158.114 96.4109 154.29 91.957 149.95L119.553 121.631Z" fill="white" mask="url(#path-2-outside-1_3443_12122)"/>
</svg>
