<svg width="124" height="104" viewBox="0 0 124 104" fill="none" xmlns="http://www.w3.org/2000/svg">
<path d="M49.4195 99.832C56.7438 99.832 64.7357 81.4547 64.7357 81.4547C64.7357 81.4547 73.4878 99.2915 79.5049 100.913C82.24 100.373 98.2048 98.3285 100.838 89.0219C103.042 81.2352 94.8212 64.1585 97.5562 62.5369C99.1972 59.8344 104.667 44.1876 104.667 40.9166C104.667 16.5512 86.9807 2 62.3222 2C37.6638 2 19.334 25.6529 19.334 50.0183C19.334 61.2291 28.0196 53.6148 31.3682 67.4015C34.7168 81.1882 36.1067 99.832 49.4195 99.832Z" fill="#F2B441" fill-opacity="0.6"/>
<path d="M93.2591 62.0543C93.364 60.6136 94.1129 59.3223 95.3132 58.5087L98.3186 56.4728C101.178 54.5386 102.198 50.742 100.693 47.6425L99.1107 44.3815C98.4797 43.0809 98.4797 41.588 99.1107 40.2873L100.693 37.0273C102.198 33.9268 101.178 30.1302 98.3186 28.196L95.3132 26.1611C94.1129 25.3484 93.364 24.0562 93.2591 22.6155L92.9931 19.0037C92.7422 15.5691 89.9521 12.7896 86.5068 12.5377L82.8818 12.2724C81.4362 12.1678 80.1405 11.4224 79.324 10.2261L77.2812 7.23097C75.3432 4.3824 71.5327 3.3644 68.4187 4.86389L65.1474 6.44077C63.8442 7.0696 62.3453 7.0696 61.0402 6.44077L57.769 4.86393C54.655 3.3626 50.8482 4.38244 48.9073 7.23102L46.8654 10.2262C46.0499 11.4224 44.7533 12.1679 43.3077 12.2724L39.6825 12.5375C36.2371 12.7894 33.4481 15.569 33.1953 19.0025L32.9304 22.6154C32.8246 24.056 32.0766 25.3482 30.8772 26.16L27.8708 28.1959C25.0125 30.1301 23.991 33.9267 25.4956 37.0271L27.0779 40.2872C27.7089 41.5878 27.7089 43.0807 27.0779 44.3814L25.4956 47.6424C23.9912 50.7419 25.0125 54.5385 27.8699 56.4727L30.8763 58.5086C32.0766 59.3222 32.8246 60.6135 32.9304 62.0541L33.1953 65.667C33.3082 67.2016 33.9475 68.5889 34.9059 69.695L26.0078 87.9482C25.4657 89.0549 25.6127 90.3312 26.3917 91.281C27.1753 92.2383 28.4055 92.6414 29.6198 92.3298L41.0252 89.2991L45.6774 100.122C46.168 101.253 47.2418 101.974 48.4796 101.998C48.502 102 48.5245 102 48.5469 102C49.7575 102 50.8294 101.33 51.3537 100.246L62.3017 77.8445C62.8273 77.754 63.3594 77.754 63.8847 77.8442L74.8263 100.252C75.3655 101.338 76.4386 102 77.6444 102C77.6782 102 77.7117 101.998 77.7455 101.998C78.9739 101.961 80.0319 101.237 80.5018 100.119L85.1531 89.2974L96.5847 92.3317C97.7831 92.6396 99.0039 92.2421 99.7848 91.298C100.569 90.3518 100.725 89.0717 100.189 87.9483L91.2759 69.7046C92.2389 68.597 92.8808 67.206 92.9933 65.6671L93.2591 62.0543ZM49.2828 99.2456C49.0768 99.673 48.6836 99.7121 48.5263 99.7066C48.368 99.7029 47.9786 99.6488 47.7914 99.2158L42.7488 87.4837C42.5223 86.9612 41.9492 86.6812 41.394 86.8269L29.0346 90.1111C28.5497 90.2361 28.2529 89.9301 28.1733 89.8312C28.074 89.7098 27.8653 89.3815 28.0759 88.9523L36.7315 71.1986C37.6191 71.7086 38.6119 72.0536 39.6825 72.1313L43.3077 72.3963C44.7533 72.5009 46.0499 73.2473 46.8645 74.4415L48.9073 77.4385C50.8481 80.2861 54.6559 81.3051 57.7688 79.8046L59.0967 79.1645L49.2828 99.2456ZM98.0096 89.8387C97.9085 89.9601 97.6332 90.2324 97.1688 90.1131L84.7822 86.8269C84.2204 86.6776 83.6531 86.9612 83.4284 87.4837L78.382 99.2233C78.2059 99.645 77.8277 99.7009 77.6741 99.7066C77.5505 99.6954 77.1123 99.6841 76.8915 99.2419L67.0872 79.1624L68.4203 79.8046C69.3884 80.2711 70.4239 80.4951 71.4481 80.4951C73.7213 80.4951 75.9439 79.4016 77.2809 77.4385L79.3237 74.4433C80.1401 73.2471 81.4359 72.5007 82.8814 72.3962L86.5066 72.1311C87.5741 72.0536 88.5642 71.7105 89.4498 71.203L98.116 88.9428C98.326 89.3815 98.1127 89.7155 98.0096 89.8387ZM90.9635 61.8863L90.6975 65.4991C90.529 67.8075 88.6547 69.6755 86.3384 69.8434L82.7132 70.1084C80.5636 70.2652 78.6349 71.3755 77.4216 73.1538L75.3787 76.1508C74.0736 78.0655 71.514 78.7484 69.4224 77.7408L66.1511 76.164C65.8392 76.0136 65.5111 75.9277 65.1869 75.8256C65.1042 75.785 65.0188 75.7543 64.9264 75.7343C63.7301 75.4081 62.4864 75.4037 61.289 75.7251C61.1886 75.7459 61.0966 75.7783 61.0052 75.8248C60.68 75.9271 60.3511 76.0133 60.0382 76.1641L56.767 77.741C54.6772 78.7467 52.1166 78.0656 50.8106 76.151L48.7678 73.1522C47.5544 71.3757 45.6257 70.2654 43.4761 70.1086L39.85 69.8435C37.5346 69.6755 35.6604 67.8077 35.4909 65.4993L35.226 61.8864C35.0677 59.7442 33.9545 57.8221 32.1701 56.6129L29.1629 54.577C27.2426 53.2764 26.5555 50.7245 27.5665 48.6409L29.1488 45.38C30.0888 43.4448 30.0888 41.2242 29.1488 39.2891L27.5665 36.029C26.5564 33.9455 27.2426 31.3927 29.1629 30.0921L32.1701 28.0571C33.9537 26.8488 35.0679 24.9267 35.226 22.7835L35.4909 19.1707C35.6604 16.8623 37.5348 14.9944 39.8509 14.8255L43.475 14.5605C45.6255 14.4037 47.5542 13.2944 48.7676 11.515L50.8095 8.51896C51.7092 7.2006 53.2045 6.46538 54.7315 6.46538C55.4206 6.46538 56.1171 6.61563 56.767 6.92821L60.0382 8.50505C61.9799 9.44189 64.2073 9.44189 66.1508 8.50505L69.4202 6.92821C71.51 5.92428 74.0734 6.60355 75.3784 8.52003L77.4213 11.5161C78.6346 13.2945 80.5633 14.404 82.7129 14.5606L86.3381 14.8257C88.6544 14.9946 90.5288 16.8626 90.6972 19.1708L90.9632 22.7837C91.1205 24.9268 92.2365 26.849 94.0209 28.0573L97.0263 30.0922C98.9475 31.3928 99.6328 33.9456 98.6217 36.0292L97.0395 39.2892C96.0994 41.2243 96.0994 43.445 97.0395 45.3801L98.6217 48.6411C99.6329 50.7246 98.9475 53.2765 97.0263 54.5771L94.0209 56.613C92.2348 57.8201 91.1207 59.7422 90.9635 61.8863ZM63.0942 70.8623C47.3101 70.8623 34.4685 58.0645 34.4685 42.3342C34.4685 26.6039 47.3101 13.8063 63.0942 13.8063C78.8783 13.8063 91.7199 26.6039 91.7199 42.3344C91.7199 58.0648 78.8783 70.8623 63.0942 70.8623ZM63.0942 16.0997C48.5786 16.0997 36.7699 27.8683 36.7699 42.3342C36.7699 56.8012 48.5788 68.5707 63.0942 68.5707C77.6107 68.5707 89.4205 56.8012 89.4205 42.3342C89.4205 27.8683 77.6107 16.0997 63.0942 16.0997ZM56.1932 56.3926C55.5481 56.3926 54.9105 56.191 54.3637 55.7945C53.4621 55.1422 52.9865 54.0926 53.0904 52.9879L53.6624 46.8736L49.5926 42.2625C48.8576 41.4284 48.6236 40.3004 48.9681 39.245C49.3116 38.1888 50.1664 37.4134 51.2525 37.1699L57.265 35.8227L60.408 30.5407C60.9762 29.5861 61.9799 29.017 63.0931 29.0161C64.2072 29.0161 65.2128 29.5863 65.7801 30.5407L68.924 35.8227L74.9366 37.1699C76.0226 37.4134 76.8765 38.1888 77.2209 39.2441C77.5654 40.3004 77.3314 41.4275 76.5975 42.2616L72.5267 46.8736L73.0997 52.9879C73.2026 54.0937 72.7252 55.1433 71.8245 55.7955C70.9221 56.4469 69.776 56.57 68.7518 56.1352L63.094 53.7027L57.4363 56.1352C57.034 56.3067 56.6117 56.3926 56.1932 56.3926ZM63.0942 31.3094C62.9537 31.3094 62.6026 31.3485 62.3873 31.7106L58.9915 37.4181C58.8296 37.6896 58.5636 37.8828 58.2547 37.9519L51.7581 39.4075C51.3453 39.4999 51.1992 39.8199 51.1561 39.9534C51.1121 40.0868 51.0419 40.431 51.3209 40.7484L55.7185 45.7298C55.9272 45.9668 56.0294 46.2794 55.9993 46.5939L55.3804 53.2008C55.3412 53.6207 55.6024 53.8576 55.7156 53.9399C55.8298 54.0238 56.1378 54.1965 56.5245 54.0295L62.6382 51.4021C62.9304 51.277 63.258 51.277 63.5502 51.4021L69.6639 54.0295C70.0553 54.1945 70.3567 54.0229 70.4728 53.9399C70.5871 53.8578 70.8474 53.6198 70.808 53.2008L70.19 46.5939C70.1619 46.2795 70.263 45.9669 70.4727 45.7309L74.8692 40.7484C75.1464 40.4321 75.0752 40.0868 75.0321 39.9534C74.989 39.8199 74.843 39.4999 74.431 39.4075L67.9354 37.9519C67.6265 37.8828 67.3605 37.6898 67.1995 37.4181L63.8019 31.7106C63.5858 31.3485 63.2347 31.3094 63.0942 31.3094Z" fill="black"/>
</svg>
