<svg width="125" height="104" viewBox="0 0 125 104" fill="none" xmlns="http://www.w3.org/2000/svg">
<path d="M113.968 37.223C113.968 50.3425 118.617 77.5567 113.968 87.2657C110.457 94.5976 96.9914 90.8383 88.5571 90.8925C80.9381 90.9415 78.6441 95.125 69.6914 95.125C37.7042 95.125 9.01136 69.1995 9.01136 37.223C9.01136 27.1743 8.37951 18.0251 11.7734 13.5202C19.1795 3.68995 38.544 16.9219 60.4792 16.9219C73.2119 16.9219 86.1652 3.44265 99.3674 11.3752C119.332 23.3708 113.968 17.975 113.968 37.223Z" fill="#F2B441" fill-opacity="0.6"/>
<path d="M106.399 23.2907C104.866 22.638 103.387 22.1007 101.903 21.6216V20.5789C101.903 19.2215 101.011 17.9977 99.7342 17.6025C86.5771 13.5338 71.6361 15.4194 58.6216 22.749C45.606 15.4185 30.6587 13.5329 17.5101 17.6025C16.2303 17.9984 15.337 19.2223 15.337 20.5789V21.6202C13.8493 22.101 12.368 22.6392 10.8309 23.2937C9.69706 23.7843 8.96484 24.9115 8.96484 26.1667V86.9849C8.96484 88.0211 9.4745 88.9837 10.327 89.5557C11.188 90.1316 12.2803 90.2434 13.253 89.8438C25.0927 84.9237 45.2275 85.439 52.4692 93.4679C53.0678 94.131 53.9128 94.5098 54.7872 94.5098H62.4504C63.3218 94.5098 64.1669 94.131 64.7693 93.4679C72.0083 85.439 92.1411 84.9199 103.991 89.8475C104.963 90.2454 106.06 90.1316 106.926 89.55C107.78 88.9779 108.29 88.0174 108.29 86.9849V26.1667C108.29 24.9163 107.551 23.7891 106.399 23.2907ZM99.0465 19.8266C99.3572 19.9233 99.577 20.232 99.577 20.5787V78.8555C99.577 79.1055 99.4614 79.3347 99.2626 79.4845C99.1546 79.5678 98.9272 79.691 98.6317 79.6096C86.1734 76.0877 72.1239 77.8534 59.7859 84.4291V24.7514C72.2375 17.7456 86.503 15.9449 99.0465 19.8266ZM17.6654 20.5789C17.6654 20.2331 17.8842 19.9233 18.1977 19.8268C30.7308 15.9506 45.004 17.7456 57.4575 24.7516V84.4293C49.294 80.0776 40.3813 77.8326 31.6715 77.8326C27.2222 77.8326 22.8261 78.4198 18.6107 79.6096C18.3132 79.691 18.0878 79.5698 17.9789 79.4845C17.7799 79.3349 17.6654 79.1056 17.6654 78.8555L17.6654 20.5789ZM105.963 86.9849C105.963 87.3411 105.753 87.5343 105.628 87.6176C105.522 87.6915 105.232 87.8393 104.878 87.6952C92.0881 82.3773 71.025 83.0594 63.0434 91.9048C62.8843 92.0809 62.6665 92.1832 62.4504 92.1832H54.7872C54.5702 92.1832 54.3544 92.0809 54.196 91.9066C46.2154 83.0611 25.1523 82.3734 12.3664 87.6914C12.1134 87.7936 11.8436 87.771 11.6257 87.6232C11.5015 87.5399 11.2932 87.3467 11.2932 86.9847V26.1667C11.2932 25.8408 11.4742 25.5519 11.7489 25.4335C12.9698 24.9135 14.1546 24.4775 15.337 24.0751V78.8558C15.337 79.841 15.7879 80.7465 16.5741 81.3414C17.3451 81.9249 18.3161 82.1087 19.2434 81.8492C31.695 78.3329 45.8366 80.3619 58.039 87.4153C58.219 87.5194 58.4208 87.5706 58.6216 87.5706C58.8224 87.5706 59.0242 87.5194 59.2042 87.4153C71.4038 80.3601 85.5387 78.335 97.9988 81.8492C98.9214 82.1087 99.8972 81.9268 100.668 81.3414C101.454 80.7465 101.903 79.841 101.903 78.8558V24.0765C103.082 24.478 104.264 24.913 105.482 25.4309C105.77 25.555 105.963 25.8505 105.963 26.167L105.963 86.9849Z" fill="black"/>
</svg>
