<svg width="124" height="104" viewBox="0 0 124 104" fill="none" xmlns="http://www.w3.org/2000/svg">
<path d="M98.3452 62.6912C98.3452 52.0367 125.185 45.9912 121.039 38.1064C117.908 32.1521 90.6746 21.7605 83.1525 21.7165C76.3575 21.6767 68.5068 11 60.5224 11C31.9947 11 2.56882 39.6191 2.56882 65.5877C2.56882 73.7484 2.00532 81.1786 5.03217 84.837C11.6372 92.8204 28.9074 82.0745 48.4702 82.0745C59.8259 82.0745 71.3781 93.0212 83.1525 86.579C100.958 76.8372 98.3452 78.3228 98.3452 62.6912Z" fill="#F2B441" fill-opacity="0.6"/>
<path d="M113.955 38.4981L62.8192 13.8798C61.8258 13.4015 60.683 13.4015 59.6896 13.8798L8.55607 38.4981C7.29533 39.1041 6.51293 40.3496 6.51293 41.749V64.8597C4.22777 65.4545 2.52734 67.5173 2.52734 69.986C2.52734 71.4038 3.0938 72.686 4.00191 73.6396L2.6128 80.9656C2.41157 82.0197 2.68744 83.0974 3.36932 83.9222C4.05545 84.751 5.07152 85.2251 6.15799 85.2251H9.52677C10.6122 85.2251 11.6284 84.7512 12.3144 83.9222C12.9961 83.0976 13.2721 82.0198 13.0709 80.9679L11.6821 73.6414C12.5909 72.6876 13.1576 71.4045 13.1576 69.9861C13.1576 67.5177 11.4579 65.4546 9.17306 64.8598V45.2971L30.5805 55.6047V76.1849C30.5805 79.5483 32.1799 82.7017 34.8659 84.628C42.7527 90.2076 51.9977 92.9997 61.2459 92.9997C70.4952 92.9997 79.7456 90.2076 87.6454 84.6259C90.327 82.7212 91.9266 79.557 91.9266 76.1611V55.6059L113.955 44.9998C115.212 44.3926 115.996 43.1471 115.996 41.749C115.996 40.3508 115.212 39.1051 113.955 38.4981ZM10.2648 82.2251C10.1599 82.3528 9.92391 82.5672 9.52677 82.5672H6.15799C5.75979 82.5672 5.5238 82.3528 5.41778 82.2251C5.31601 82.1018 5.15379 81.8378 5.22524 81.4612L6.43368 75.0857C6.88542 75.2108 7.35189 75.2993 7.84299 75.2993C8.33322 75.2993 8.79897 75.211 9.25 75.0862L10.4584 81.4633C10.5299 81.8378 10.3677 82.1019 10.2648 82.2251ZM10.4975 69.986C10.4975 71.449 9.30709 72.6417 7.84282 72.6417C6.37854 72.6417 5.18712 71.4492 5.18712 69.986C5.18712 68.5206 6.37854 67.3281 7.84282 67.3281C9.30709 67.3281 10.4975 68.5206 10.4975 69.986ZM89.2686 76.1608C89.2686 78.6973 88.0846 81.05 86.1065 82.4547C71.2333 92.9713 51.2553 92.969 36.4091 82.4613C34.4244 81.0394 33.2404 78.6932 33.2404 76.1847V56.885L59.6898 69.62H59.693C60.1887 69.8581 60.7211 69.9771 61.2535 69.9771C61.787 69.9771 62.3216 69.8581 62.8194 69.62L89.2687 56.8855L89.2686 76.1608ZM112.799 42.6039L61.6689 67.2221C61.406 67.3476 61.1073 67.3476 60.8422 67.2221L10.6966 43.0788H55.6927C56.4528 44.7809 58.6113 45.9888 61.2544 45.9888C64.5496 45.9888 67.1294 44.1263 67.1294 41.7488C67.1294 39.3713 64.5496 37.5088 61.2544 37.5088C58.6113 37.5088 56.4529 38.7167 55.6927 40.4187H10.6966L60.8433 16.2756C61.102 16.149 61.4028 16.148 61.6657 16.2756L112.799 40.8939C113.284 41.1265 113.336 41.5692 113.336 41.7488C113.336 41.9286 113.284 42.3711 112.799 42.6039ZM58.0394 41.749C58.0394 41.105 59.2914 40.1689 61.2544 40.1689C63.2185 40.1689 64.4718 41.105 64.4718 41.749C64.4718 42.3929 63.2187 43.329 61.2544 43.329C59.2914 43.3288 58.0394 42.3927 58.0394 41.749Z" fill="black"/>
</svg>
