<svg width="116" height="116" fill="none" xmlns="http://www.w3.org/2000/svg"><g filter="url(#a)"><g clip-path="url(#b)"><rect x="18" y="18" width="80" height="80" rx="40" fill="#E3F0FF"/><g clip-path="url(#c)" fill="#455FC8"><path d="M95.603 98h-34.2c-1.433 0-2.807-.293-3.82-.815-1.014-.522-1.583-1.23-1.583-1.968V85.201c0-2.504 1.93-4.906 5.368-6.676 3.437-1.77 8.098-2.765 12.959-2.765h8.346c4.86 0 9.522.994 12.96 2.765C99.068 80.295 101 82.697 101 85.2v10.02c-.002.737-.572 1.444-1.584 1.965-1.011.52-2.383.813-3.813.814ZM94.176 71.975s-9.23 3.006-15.38 3.006c-6.396 0-15.624-2.747-15.624-2.747s3.788-10.492 3.907-18.484c.092-6.185 23.116-5.674 23.435.499.586 11.48 3.662 17.726 3.662 17.726Z"/><path d="M78.917 84.204c-.648 0-1.29-.134-1.888-.395a4.92 4.92 0 0 1-1.6-1.129 5.231 5.231 0 0 1-1.07-1.689A5.452 5.452 0 0 1 73.984 79V65.297h9.863v13.708c0 1.38-.52 2.702-1.445 3.677a4.803 4.803 0 0 1-3.485 1.522Z"/><path d="M73.401 46.998h10.797c1.332 0 2.61.558 3.55 1.552a5.45 5.45 0 0 1 1.471 3.747v11.442c0 1.444-.27 2.875-.795 4.209a11.047 11.047 0 0 1-2.262 3.567 10.396 10.396 0 0 1-3.385 2.38 9.945 9.945 0 0 1-3.99.832c-2.76-.004-5.406-1.163-7.357-3.223-1.95-2.06-3.046-4.853-3.047-7.766V52.294c0-1.405.53-2.751 1.47-3.744a4.891 4.891 0 0 1 3.548-1.552Z"/><path d="M79.156 43v2.762a11.365 11.365 0 0 1-1.618 5.84 10.545 10.545 0 0 1-4.328 4.018l-6.25 3.126v-6.12c0-4.901 4.381-9.617 8.91-9.617L79.156 43Z"/><path d="M78.438 43v2.762a11.365 11.365 0 0 0 1.618 5.84 10.545 10.545 0 0 0 4.328 4.018l6.25 3.126v-6.12c0-4.901-4.381-9.617-8.91-9.617L78.437 43ZM68.4 57.988h.703v5.197H68.4a2.322 2.322 0 0 1-1.686-.737 2.588 2.588 0 0 1-.698-1.779v-.162c0-.33.06-.658.18-.964.12-.305.295-.583.517-.817a2.38 2.38 0 0 1 .774-.546c.289-.127.6-.192.913-.192Z"/><path d="M89.194 63.185h-.692v-5.208h.692c.313 0 .623.065.912.192.29.126.553.311.774.545.221.233.397.51.517.816.12.305.181.632.181.963v.189a2.587 2.587 0 0 1-.702 1.771 2.321 2.321 0 0 1-1.682.732Z"/></g><g clip-path="url(#d)"><path d="M30.161 47.514h.924v5.631h-.924a2.632 2.632 0 0 1-1.854-.762 2.593 2.593 0 0 1-.768-1.84v-.427c0-.69.276-1.352.768-1.84a2.632 2.632 0 0 1 1.854-.762ZM36.215 66.486h11.57c5.362 0 10.503 1.217 14.294 3.383C65.87 72.035 68 74.974 68 78.037v16.558c0 .903-.628 1.769-1.746 2.407-1.117.64-2.633.998-4.213.998H21.959c-1.58 0-3.096-.359-4.213-.998C16.628 96.364 16 95.498 16 94.596V78.039c0-1.517.522-3.02 1.538-4.421 1.016-1.402 2.505-2.675 4.382-3.748 1.877-1.073 4.105-1.924 6.558-2.504a33.81 33.81 0 0 1 7.737-.88Z" fill="#455FC8"/><path d="M36.719 55.103h11.365v14.864a5.62 5.62 0 0 1-1.665 3.989 5.704 5.704 0 0 1-4.018 1.652 5.704 5.704 0 0 1-4.018-1.652 5.62 5.62 0 0 1-1.664-3.989V55.103Z" fill="#455FC8"/><path d="M36.048 35.273h12.436c1.535 0 3.006.605 4.092 1.683a5.722 5.722 0 0 1 1.694 4.06v12.399c0 3.16-1.264 6.19-3.515 8.423a12.078 12.078 0 0 1-13.08 2.583 12.007 12.007 0 0 1-3.893-2.582 11.907 11.907 0 0 1-2.603-3.865 11.837 11.837 0 0 1-.913-4.56V41.018c0-1.523.609-2.983 1.693-4.06a5.808 5.808 0 0 1 4.09-1.684Z" fill="#455FC8"/><path d="M57.885 68.772c2.106 1.816 3.222 3.934 3.215 6.097 0 9.133-13.285 19.461-29.676 19.461H16v.35c0 .88.628 1.725 1.745 2.347 1.118.623 2.634.973 4.214.973h40.082c1.58 0 3.096-.35 4.214-.972C67.372 96.404 68 95.56 68 94.68V78.527c0-1.978-.934-3.921-2.71-5.634-1.775-1.712-4.33-3.134-7.405-4.121Z" fill="#132D96" style="mix-blend-mode:multiply" opacity=".59"/><path d="M53.995 36.94c-.773-2.798-5.71-4.934-11.694-4.934-4.993 0-9.26 1.499-10.982 3.61-2.096 1.98-1.184 12.504-1.184 12.504s2.66-2.121 2.66-5.374v-.105a2.249 2.249 0 0 1 .941-1.825 2.29 2.29 0 0 1 2.04-.321 21.64 21.64 0 0 0 6.525.949 21.845 21.845 0 0 0 6.281-.874 2.301 2.301 0 0 1 2.034.334 2.275 2.275 0 0 1 .936 1.824v.018c0 3.253 2.66 5.374 2.66 5.374s1.058-7.787-.217-11.18Z" fill="#455FC8"/><path d="M54.37 52.807h-.924v-5.632h.924c.696 0 1.363.274 1.854.763.492.488.768 1.15.768 1.84v.426c0 .69-.276 1.352-.768 1.84a2.632 2.632 0 0 1-1.854.763Z" fill="#455FC8"/></g></g><rect x="14" y="14" width="88" height="88" rx="44" stroke="#fff" stroke-width="8"/></g><defs><clipPath id="b"><rect x="18" y="18" width="80" height="80" rx="40" fill="#fff"/></clipPath><clipPath id="c"><path fill="#fff" transform="translate(56 43)" d="M0 0h45v55H0z"/></clipPath><clipPath id="d"><path fill="#fff" transform="translate(16 32)" d="M0 0h52v66H0z"/></clipPath><filter id="a" x="0" y="0" width="116" height="116" filterUnits="userSpaceOnUse" color-interpolation-filters="sRGB"><feFlood flood-opacity="0" result="BackgroundImageFix"/><feColorMatrix in="SourceAlpha" values="0 0 0 0 0 0 0 0 0 0 0 0 0 0 0 0 0 0 127 0" result="hardAlpha"/><feOffset/><feGaussianBlur stdDeviation="5"/><feComposite in2="hardAlpha" operator="out"/><feColorMatrix values="0 0 0 0 0 0 0 0 0 0 0 0 0 0 0 0 0 0 0.31 0"/><feBlend in2="BackgroundImageFix" result="effect1_dropShadow_5129_62498"/><feBlend in="SourceGraphic" in2="effect1_dropShadow_5129_62498" result="shape"/></filter></defs></svg>