<svg width="436" height="233" viewBox="0 0 436 233" fill="none" xmlns="http://www.w3.org/2000/svg">
<path d="M340.654 101.959C340.654 101.959 271.96 139.683 223.579 143.869C179.084 147.72 116.312 171.066 110.498 126.775C105.345 87.5196 153.688 45.3306 189.18 62.8671C223.894 80.0188 206.295 126.508 190.84 162.011C164.108 223.419 30.4052 222.548 30.4052 222.548" stroke="#E3F0FF" stroke-opacity="0.5" stroke-width="8" stroke-linecap="round" stroke-dasharray="20 20"/>
<path d="M401.323 0.678755C404.459 1.73158 403.895 4.97633 404.048 7.49872L404.157 9.14242L406.757 60.0131C407.116 68.4748 407.521 76.9355 407.972 85.395C408.14 88.5407 406.742 91.5551 403.293 91.6236C402.225 91.6449 400.403 91.113 397.826 90.0277C392.058 87.6019 386.234 85.1986 380.353 82.8178L373.663 80.0396L357.664 73.4255C357.517 72.9787 385.789 29.5952 388.85 24.8062C388.881 24.7587 388.901 24.7056 388.911 24.65C388.92 24.5944 388.918 24.5375 388.905 24.4827C388.892 24.4279 388.868 24.3763 388.834 24.3309C388.801 24.2856 388.759 24.2475 388.71 24.219C388.644 24.1789 346.599 65.7994 342.734 69.6102C334.461 68.9603 326.258 68.3924 318.124 67.9065C314.523 67.6939 312.658 64.0076 315.934 61.6636C318.016 60.1742 320.063 58.6524 322.075 57.0983C357.718 30.9601 383.438 12.2644 399.235 1.01121C399.609 0.747291 400.305 0.636471 401.323 0.678755Z" fill="#F3FBFF"/>
<path d="M357.664 73.4255C359.18 80.6066 360.329 87.8583 361.112 95.18C359.104 95.4824 358.616 94.2821 357.363 92.6495L343.952 71.1025C343.656 70.3363 343.25 69.8388 342.734 69.6102C346.599 65.7994 388.644 24.1789 388.71 24.219C388.759 24.2475 388.801 24.2856 388.834 24.3309C388.868 24.3763 388.892 24.4279 388.905 24.4827C388.918 24.5375 388.92 24.5944 388.911 24.65C388.901 24.7056 388.881 24.7587 388.85 24.8062C385.789 29.5952 357.517 72.9787 357.664 73.4255Z" fill="#CBDBE3"/>
<path d="M357.664 73.4255L373.663 80.0396L363.692 93.3271C363.008 94.4288 362.148 95.0464 361.112 95.18C360.329 87.8583 359.18 80.6066 357.664 73.4255Z" fill="#9CC7D1"/>
</svg>
