<svg width="1440" height="102" viewBox="0 0 1440 102" fill="none" xmlns="http://www.w3.org/2000/svg">
<path d="M0 0H1440V70.5499C1440 70.5499 1380.83 78.2911 1342.63 77.3754C1263.06 75.4683 1149.3 33.0095 1149.3 33.0095C1149.3 33.0095 1042.68 74.9917 967.345 77.3754C880.685 80.1176 754.827 33.0095 754.827 33.0095C754.827 33.0095 699.491 65.5091 664.561 70.5499C620.212 76.9499 572.873 42.7602 572.873 42.7602C572.873 42.7602 551.588 66.7775 531.649 70.5499C504.707 75.6472 479.763 42.7602 479.763 42.7602C479.763 42.7602 402.435 103.65 337.611 101.752C277.003 99.9783 208.253 42.7602 208.253 42.7602C208.253 42.7602 149.808 72.1359 105.903 77.3754C64.978 82.2593 0 70.5499 0 70.5499V0Z" fill="white"/>
</svg>
