<svg width="1440" height="102" viewBox="0 0 1440 102" fill="none" xmlns="http://www.w3.org/2000/svg">
<path d="M1440 0H0V70.5499C0 70.5499 59.1724 78.2911 97.3741 77.3754C176.938 75.4683 290.701 33.0095 290.701 33.0095C290.701 33.0095 397.322 74.9917 472.655 77.3754C559.315 80.1176 685.173 33.0095 685.173 33.0095C685.173 33.0095 740.509 65.5091 775.439 70.5499C819.788 76.9499 867.127 42.7602 867.127 42.7602C867.127 42.7602 888.412 66.7775 908.351 70.5499C935.293 75.6472 960.237 42.7602 960.237 42.7602C960.237 42.7602 1037.57 103.65 1102.39 101.752C1163 99.9783 1231.75 42.7602 1231.75 42.7602C1231.75 42.7602 1290.19 72.1359 1334.1 77.3754C1375.02 82.2593 1440 70.5499 1440 70.5499V0Z" fill="white"/>
</svg>
