<svg width="639" height="236" viewBox="0 0 639 236" fill="none" xmlns="http://www.w3.org/2000/svg">
<g clip-path="url(#clip0_3443_10731)">
<path fill-rule="evenodd" clip-rule="evenodd" d="M102.045 8.07812C66.6987 8.07812 38.0449 36.7319 38.0449 72.0781V195.078V196.578H38.1305C38.8742 203.051 44.3725 208.078 51.0449 208.078C57.7173 208.078 63.2156 203.051 63.9593 196.578H64.1272C64.8423 203.051 70.1292 208.078 76.5449 208.078C82.9607 208.078 88.2475 203.051 88.9626 196.578H89.1305C89.8742 203.051 95.3725 208.078 102.045 208.078C108.717 208.078 114.216 203.051 114.959 196.578H115.127C115.842 203.051 121.129 208.078 127.545 208.078C133.961 208.078 139.248 203.051 139.963 196.578H140.131C140.874 203.051 146.373 208.078 153.045 208.078C159.717 208.078 165.216 203.051 165.959 196.578H166.045V195.078V72.0781C166.045 36.7319 137.391 8.07812 102.045 8.07812Z" fill="#EEEEEE"/>
<path d="M105.5 113.489C119.031 113.489 130 103.53 130 91.2446C130 78.9592 119.031 69 105.5 69C91.969 69 81 78.9592 81 91.2446C81 103.53 91.969 113.489 105.5 113.489Z" fill="white"/>
<path d="M105.5 101.853C111.044 101.853 115.538 97.3591 115.538 91.8153C115.538 86.2715 111.044 81.7773 105.5 81.7773C99.956 81.7773 95.4619 86.2715 95.4619 91.8153C95.4619 97.3591 99.956 101.853 105.5 101.853Z" fill="#1D1D1B"/>
<path d="M96.9121 91.8144C96.9121 91.8144 100.357 91.3063 100.779 90.4141C100.779 90.4141 101.844 93.3511 102.03 93.5741C102.03 93.5741 98.8701 96.2881 98.1885 95.9907C97.507 95.6933 96.9121 91.8268 96.9121 91.8268V91.8144Z" fill="white"/>
<path d="M130 86.5C130 80.7978 127.419 75.3292 122.824 71.2972C118.229 67.2652 111.998 65 105.5 65C99.0022 65 92.7705 67.2652 88.1759 71.2972C83.5812 75.3292 81 80.7978 81 86.5L105.5 86.5H130Z" fill="#D9D9D9"/>
<path d="M66.2815 126.844C58.5563 122.242 87.286 128.056 111.48 128.344C133.17 128.602 150.466 124.367 144.782 128.344C133.381 136.32 127.822 146.917 111.48 148.178C91.8611 149.692 81.0652 135.651 66.2815 126.844Z" fill="#1D1D1B" stroke="#1E1E1E"/>
<mask id="mask0_3443_10731" style="mask-type:alpha" maskUnits="userSpaceOnUse" x="64" y="124" width="83" height="25">
<path d="M66.2815 126.844C58.5563 122.242 87.286 128.056 111.48 128.344C133.17 128.602 150.466 124.367 144.782 128.344C133.381 136.32 127.822 146.917 111.48 148.178C91.8611 149.692 81.0652 135.651 66.2815 126.844Z" fill="#1D1D1B" stroke="black"/>
</mask>
<g mask="url(#mask0_3443_10731)">
<path d="M87 122.078C87 122.078 87.8524 133.823 94.5294 134.074C101.376 134.332 103 122.078 103 122.078H87Z" fill="white" stroke="white"/>
<path d="M115 122.078C115 122.078 115.852 133.823 122.529 134.074C129.376 134.332 131 122.078 131 122.078H115Z" fill="white" stroke="white"/>
</g>
<ellipse cx="6.1512" cy="11.6192" rx="6.1512" ry="11.6192" transform="matrix(0.981561 -0.191151 0.295121 0.95546 96.0879 139.031)" fill="#EB2828"/>
<ellipse cx="6.1512" cy="11.6192" rx="6.1512" ry="11.6192" transform="matrix(0.995166 0.0982111 0.204171 -0.978935 102.085 159.398)" fill="#EB2828"/>
<path d="M39.851 81.1617C37.3426 74.8666 36.3265 68.0482 36.8609 61.0959C37.3952 54.1436 39.4695 47.1935 42.9653 40.6424C46.4611 34.0913 51.31 28.0675 57.235 22.915C63.16 17.7625 70.0452 13.5821 77.4975 10.6126C84.9497 7.64308 92.823 5.94256 100.668 5.60811C108.513 5.27368 116.176 6.31188 123.219 8.66344C130.262 11.015 136.548 14.6339 141.717 19.3134C146.887 23.993 150.838 29.6416 153.347 35.9367L96.5989 58.5492L39.851 81.1617Z" fill="#209742"/>
<rect y="86.2012" width="165.175" height="11.9652" rx="5.98259" transform="rotate(-22 0 86.2012)" fill="#209742"/>
<path d="M78.3683 55.9516C74.8512 47.2464 79.0569 37.3383 87.7621 33.8211L88.6893 33.4465C97.3945 29.9294 107.303 34.1352 110.82 42.8403L78.3683 55.9516Z" fill="#EEEEEE"/>
<circle cx="76.5" cy="9.57812" r="3.5" fill="#209742"/>
</g>
<g clip-path="url(#clip1_3443_10731)">
<path d="M323.73 75.09L255.3 202.23C247.2 217.28 257.32 236.085 273.52 236.085H410.37C426.57 236.085 436.69 217.28 428.59 202.23L360.17 75.09C352.07 60.0397 331.83 60.0397 323.73 75.09Z" fill="#132D96"/>
<path d="M337.39 63.1714H346.72C359.62 63.1714 370.09 74.4028 370.09 88.241V92.5748H314.01V88.241C314.01 74.4028 324.48 63.1714 337.38 63.1714H337.39Z" fill="#DCC61F"/>
<path d="M325.37 177.193C336.068 177.193 344.74 168.745 344.74 158.324C344.74 147.903 336.068 139.455 325.37 139.455C314.672 139.455 306 147.903 306 158.324C306 168.745 314.672 177.193 325.37 177.193Z" fill="white"/>
<path d="M328.54 162.819C332.925 162.819 336.48 159.006 336.48 154.302C336.48 149.598 332.925 145.784 328.54 145.784C324.154 145.784 320.6 149.598 320.6 154.302C320.6 159.006 324.154 162.819 328.54 162.819Z" fill="#1D1D1B"/>
<path d="M325.04 148.734C325.04 148.734 326.98 150.826 327.76 150.665C327.76 150.665 326.39 152.875 326.34 153.111C326.34 153.111 323.13 152.328 323 151.706C322.87 151.084 325.05 148.724 325.05 148.724L325.04 148.734Z" fill="white"/>
<path d="M356.98 170.188C364.044 170.188 369.77 164.612 369.77 157.733C369.77 150.855 364.044 145.279 356.98 145.279C349.917 145.279 344.19 150.855 344.19 157.733C344.19 164.612 349.917 170.188 356.98 170.188Z" fill="white"/>
<path d="M357.66 160.234C360.554 160.234 362.9 157.717 362.9 154.613C362.9 151.508 360.554 148.992 357.66 148.992C354.766 148.992 352.42 151.508 352.42 154.613C352.42 157.717 354.766 160.234 357.66 160.234Z" fill="#1D1D1B"/>
<path d="M355.11 150.976C355.11 150.976 356.48 152.263 356.98 152.113C356.98 152.113 356.17 153.636 356.15 153.797C356.15 153.797 354 153.432 353.89 153.035C353.78 152.639 355.11 150.976 355.11 150.976Z" fill="white"/>
<path d="M334.98 64.7595C334.98 64.7595 314.73 67.3019 315.88 91.8673L319.05 94.1308H340.4C340.4 94.1308 322.58 98.4646 334.98 64.7595Z" fill="#F5E43E"/>
<path d="M371.879 91.8564H312.009C310.844 91.8564 309.899 92.8698 309.899 94.1199C309.899 95.37 310.844 96.3834 312.009 96.3834H371.879C373.045 96.3834 373.989 95.37 373.989 94.1199C373.989 92.8698 373.045 91.8564 371.879 91.8564Z" fill="#F0DA35"/>
</g>
<g clip-path="url(#clip2_3443_10731)">
<path fill-rule="evenodd" clip-rule="evenodd" d="M576.007 88C540.661 88 512.007 116.654 512.007 152V242.849V244.091H512.092C512.836 249.451 518.334 253.613 525.007 253.613C531.679 253.613 537.178 249.451 537.921 244.091H538.089C538.804 249.451 544.091 253.613 550.507 253.613C556.923 253.613 562.209 249.451 562.925 244.091H563.092C563.836 249.451 569.334 253.613 576.007 253.613C582.679 253.613 588.178 249.451 588.921 244.091H589.089C589.804 249.451 595.091 253.613 601.507 253.613C607.923 253.613 613.209 249.451 613.925 244.091H614.092C614.836 249.451 620.334 253.613 627.007 253.613C633.679 253.613 639.178 249.451 639.921 244.091H640.007V242.849V152C640.007 116.654 611.353 88 576.007 88Z" fill="#C7E1FF"/>
<path d="M543.5 109.671C557.031 109.671 568 99.7115 568 87.4262C568 75.1409 557.031 65.1816 543.5 65.1816C529.969 65.1816 519 75.1409 519 87.4262C519 99.7115 529.969 109.671 543.5 109.671Z" fill="white"/>
<path d="M543.5 98.0343C549.044 98.0343 553.538 93.5401 553.538 87.9963C553.538 82.4525 549.044 77.9584 543.5 77.9584C537.956 77.9584 533.462 82.4525 533.462 87.9963C533.462 93.5401 537.956 98.0343 543.5 98.0343Z" fill="#1D1D1B"/>
<path d="M534.912 87.9963C534.912 87.9963 538.357 87.4882 538.778 86.5959C538.778 86.5959 539.844 89.533 540.03 89.756C540.03 89.756 536.87 92.47 536.188 92.1726C535.507 91.8752 534.912 88.0087 534.912 88.0087V87.9963Z" fill="white"/>
<path d="M543.5 111.671C557.949 111.671 570 100.993 570 87.4262C570 73.8589 557.949 63.1816 543.5 63.1816C529.051 63.1816 517 73.8589 517 87.4262C517 100.993 529.051 111.671 543.5 111.671Z" stroke="#E3F0FF" stroke-width="4"/>
<path d="M607.5 109.671C621.031 109.671 632 99.7115 632 87.4262C632 75.1409 621.031 65.1816 607.5 65.1816C593.969 65.1816 583 75.1409 583 87.4262C583 99.7115 593.969 109.671 607.5 109.671Z" fill="white"/>
<path d="M607.5 98.0343C613.044 98.0343 617.538 93.5401 617.538 87.9963C617.538 82.4525 613.044 77.9584 607.5 77.9584C601.956 77.9584 597.462 82.4525 597.462 87.9963C597.462 93.5401 601.956 98.0343 607.5 98.0343Z" fill="#1D1D1B"/>
<path d="M598.912 87.9963C598.912 87.9963 602.357 87.4882 602.778 86.5959C602.778 86.5959 603.844 89.533 604.03 89.756C604.03 89.756 600.87 92.47 600.188 92.1726C599.507 91.8752 598.912 88.0087 598.912 88.0087V87.9963Z" fill="white"/>
<path d="M607.5 111.671C621.949 111.671 634 100.993 634 87.4262C634 73.8589 621.949 63.1816 607.5 63.1816C593.051 63.1816 581 73.8589 581 87.4262C581 100.993 593.051 111.671 607.5 111.671Z" stroke="#E3F0FF" stroke-width="4"/>
</g>
<defs>
<clipPath id="clip0_3443_10731">
<rect width="172" height="236" fill="white"/>
</clipPath>
<clipPath id="clip1_3443_10731">
<rect width="179" height="236" fill="white" transform="translate(252)"/>
</clipPath>
<clipPath id="clip2_3443_10731">
<rect width="128" height="236" fill="white" transform="translate(511)"/>
</clipPath>
</defs>
</svg>
