<svg width="16" height="16" viewBox="0 0 16 16" fill="none" xmlns="http://www.w3.org/2000/svg">
<mask id="mask0_10370_44850" style="mask-type:alpha" maskUnits="userSpaceOnUse" x="0" y="0" width="16" height="16">
<rect width="16" height="16" fill="#D9D9D9"/>
</mask>
<g mask="url(#mask0_10370_44850)">
<path d="M10.0834 14.0669L4.46678 8.46693C4.40011 8.40026 4.35289 8.32804 4.32511 8.25026C4.29734 8.17248 4.28345 8.08915 4.28345 8.00026C4.28345 7.91137 4.29734 7.82804 4.32511 7.75026C4.35289 7.67248 4.40011 7.60026 4.46678 7.53359L10.0834 1.91693C10.239 1.76137 10.4334 1.68359 10.6668 1.68359C10.9001 1.68359 11.1001 1.76693 11.2668 1.93359C11.4334 2.10026 11.5168 2.2947 11.5168 2.51693C11.5168 2.73915 11.4334 2.93359 11.2668 3.10026L6.36678 8.00026L11.2668 12.9003C11.4223 13.0558 11.5001 13.2475 11.5001 13.4753C11.5001 13.703 11.4168 13.9003 11.2501 14.0669C11.0834 14.2336 10.889 14.3169 10.6668 14.3169C10.4446 14.3169 10.2501 14.2336 10.0834 14.0669Z" fill="#727272"/>
</g>
</svg>
