<svg width="1024" height="73" fill="none" xmlns="http://www.w3.org/2000/svg"><path d="M0 0h1024v50.593s-42.078 5.551-69.244 4.895c-56.578-1.368-137.477-31.816-137.477-31.816S741.46 53.778 687.89 55.488c-61.625 1.966-151.124-31.816-151.124-31.816s-39.35 23.306-64.189 26.92c-31.537 4.59-65.201-19.928-65.201-19.928s-15.136 17.224-29.315 19.929c-19.158 3.655-36.896-19.929-36.896-19.929S286.176 74.33 240.079 72.97c-43.099-1.272-91.988-42.305-91.988-42.305S106.53 51.73 75.309 55.488C46.207 58.99 0 50.593 0 50.593V0Z" fill="#7791FA"/></svg>