<svg width="1440" height="102" fill="none" xmlns="http://www.w3.org/2000/svg"><path d="M0 0h1440v70.692s-59.17 7.756-97.37 6.839c-79.57-1.911-193.33-44.455-193.33-44.455S1042.68 75.142 967.345 77.53c-86.66 2.747-212.518-44.455-212.518-44.455s-55.336 32.565-90.266 37.616c-44.349 6.412-91.688-27.846-91.688-27.846s-21.285 24.065-41.224 27.846c-26.942 5.107-51.886-27.846-51.886-27.846s-77.328 61.012-142.152 59.11c-60.608-1.777-129.358-59.11-129.358-59.11s-58.445 29.435-102.35 34.685C64.978 82.424 0 70.69 0 70.69V0Z" fill="#7791FA"/></svg>