<svg width="1024" height="104" fill="none" xmlns="http://www.w3.org/2000/svg"><path d="M0 0h1024v72.078s-42.078 7.908-69.244 6.973c-56.578-1.949-137.477-45.327-137.477-45.327S741.46 76.616 687.89 79.051c-61.625 2.801-151.124-45.327-151.124-45.327s-39.35 33.204-64.189 38.354c-31.537 6.538-65.201-28.392-65.201-28.392s-15.136 24.537-29.315 28.392c-19.158 5.207-36.896-28.392-36.896-28.392s-54.989 62.208-101.086 60.27c-43.099-1.813-91.988-60.27-91.988-60.27S106.53 73.698 75.309 79.051C46.207 84.04 0 72.078 0 72.078V0Z" fill="#fff"/></svg>