<svg width="768" height="55" fill="none" xmlns="http://www.w3.org/2000/svg"><path d="M0 0h768v38.118s-31.559 4.182-51.933 3.688c-42.434-1.03-103.107-23.971-103.107-23.971s-56.865 22.683-97.043 23.97c-46.218 1.482-113.342-23.97-113.342-23.97s-29.513 17.56-48.143 20.283c-23.652 3.458-48.9-15.015-48.9-15.015S294.18 36.08 283.546 38.118c-14.369 2.754-27.672-15.015-27.672-15.015s-41.242 32.899-75.815 31.873c-32.324-.958-68.991-31.873-68.991-31.873s-31.17 15.872-54.586 18.703C34.655 44.445 0 38.118 0 38.118V0Z" fill="#7791FA"/></svg>