<svg width="360" height="44" fill="none" xmlns="http://www.w3.org/2000/svg"><path d="M0 0h360v30.494s-14.793 3.346-24.344 2.95c-19.89-.824-48.331-19.176-48.331-19.176s-26.656 18.146-45.489 19.177c-21.665 1.185-53.129-19.177-53.129-19.177s-13.834 14.047-22.567 16.226c-11.087 2.767-22.922-12.011-22.922-12.011s-5.321 10.38-10.306 12.011c-6.735 2.204-12.971-12.011-12.971-12.011S100.609 44.8 84.403 43.98c-15.152-.767-32.34-25.498-32.34-25.498S37.452 31.18 26.476 33.445C16.244 35.555 0 30.495 0 30.495V0Z" fill="#7791FA"/></svg>