<svg width="1440" height="104" fill="none" xmlns="http://www.w3.org/2000/svg"><path d="M0 0h1440v71.942s-59.17 7.894-97.37 6.96c-79.57-1.945-193.33-45.241-193.33-45.241s-106.62 42.81-181.955 45.241c-86.66 2.796-212.518-45.241-212.518-45.241s-55.336 33.14-90.266 38.28c-44.349 6.527-91.688-28.337-91.688-28.337s-21.285 24.491-41.224 28.338c-26.942 5.198-51.886-28.338-51.886-28.338s-77.328 62.091-142.152 60.156c-60.608-1.809-129.358-60.156-129.358-60.156s-58.445 29.955-102.35 35.298C64.978 83.882 0 71.942 0 71.942V0Z" fill="#fff"/></svg>