<svg xmlns="http://www.w3.org/2000/svg" width="32" height="32" fill="none"><path stroke="#000" stroke-linecap="round" stroke-miterlimit="10" stroke-width="1.9" d="M18.667 12.4v3.867h3.466c.267 0 .4.266.4.533L22 19.333c0 .134-.267.267-.4.267h-2.933v9.733h-4v-9.6H12.4c-.267 0-.4-.133-.4-.4V16.8c0-.267.133-.4.4-.4h2.267V12c0-2.267 1.733-4 4-4h3.6c.266 0 .4.133.4.4v3.2c0 .267-.134.4-.4.4h-3.2c-.267 0-.4.133-.4.4Z"/><path stroke="#000" stroke-width="1.9" d="M25.333 2.667H6.666a4 4 0 0 0-4 4v18.666a4 4 0 0 0 4 4h18.667a4 4 0 0 0 4-4V6.667a4 4 0 0 0-4-4Z"/></svg>