<svg xmlns="http://www.w3.org/2000/svg" width="41" height="41" fill="none"><path stroke="#1E1E1E" stroke-linecap="round" stroke-miterlimit="10" stroke-width="1.9" d="M23.388 16.393v4.833h4.333c.334 0 .5.333.5.667l-.666 3.166c0 .167-.334.334-.5.334h-3.667v12.166h-5v-12h-2.833c-.334 0-.5-.166-.5-.5v-3.166c0-.334.166-.5.5-.5h2.833v-5.5c0-2.834 2.167-5 5-5h4.5c.333 0 .5.166.5.5v4c0 .333-.167.5-.5.5h-4c-.333 0-.5.166-.5.5Z"/><path stroke="#1E1E1E" stroke-width="1.9" d="M31.722 4.226H8.389a5 5 0 0 0-5 5v23.333a5 5 0 0 0 5 5h23.333a5 5 0 0 0 5-5V9.226a5 5 0 0 0-5-5Z"/></svg>