<svg width="48" height="48" fill="none" xmlns="http://www.w3.org/2000/svg"><g clip-path="url(#a)"><path fill="#FFDC69" d="M0 0h48v48H0z"/><ellipse cx="24" cy="36" rx="18" ry="20" fill="#7791FA"/><path d="M17.843 38.22c3.95 0 7.152-2.908 7.152-6.495s-3.202-6.495-7.152-6.495-7.152 2.908-7.152 6.495 3.202 6.495 7.152 6.495Z" fill="#fff"/><path d="M17.844 34.822a2.932 2.932 0 1 0 0-5.863 2.932 2.932 0 0 0 0 5.863Z" fill="#1E1E1E"/><path d="M15.333 31.89s1.008-.147 1.13-.41c0 0 .31.857.365.924 0 0-.923.79-1.122.705-.2-.085-.373-1.219-.373-1.219ZM30.398 38.22c3.95 0 7.152-2.908 7.152-6.495s-3.202-6.495-7.152-6.495-7.152 2.908-7.152 6.495 3.202 6.495 7.152 6.495Z" fill="#fff"/><path d="M30.398 34.822a2.932 2.932 0 1 0 0-5.863 2.932 2.932 0 0 0 0 5.863Z" fill="#1E1E1E"/><path d="M27.888 31.89s1.008-.147 1.13-.41c0 0 .31.857.365.924 0 0-.923.79-1.122.705-.2-.085-.373-1.219-.373-1.219Z" fill="#fff"/></g><defs><clipPath id="a"><rect width="48" height="48" rx="24" fill="#fff"/></clipPath></defs></svg>