<svg width="40" height="40" fill="none" xmlns="http://www.w3.org/2000/svg"><path fill-rule="evenodd" clip-rule="evenodd" d="M22.544 33.329c8.128-1.464 13.444-9.646 11.894-18.305C32.887 6.366 25.053.49 16.912 1.88c-2.91.498-5.593 1.9-7.716 4.028a14.616 14.616 0 0 1 6.758-3.079c8.143-1.389 15.939 4.253 17.44 12.621 1.501 8.368-3.858 16.314-11.988 17.774a14.585 14.585 0 0 1-3.121.213c1.423.179 2.856.142 4.259-.108Z" fill="#fff"/><path fill-rule="evenodd" clip-rule="evenodd" d="M25.406 33.33c9.231-1.652 15.37-10.351 13.733-19.46C37.502 4.762 28.705-1.326 19.46.248c-3.304.565-6.375 2.137-8.81 4.41 2.241-1.708 4.9-2.913 7.712-3.396 9.246-1.574 18.004 4.27 19.589 13.072 1.584 8.803-4.599 17.252-13.833 18.902a17.886 17.886 0 0 1-3.54.266c1.61.17 3.235.112 4.828-.171Z" fill="#fff"/><path fill-rule="evenodd" clip-rule="evenodd" d="M24.126 33.299c8.586-1.543 14.24-9.97 12.647-18.854C35.179 5.563 26.94-.43 18.34 1.035c-3.073.527-5.913 1.934-8.165 4.13 2.075-1.647 4.533-2.7 7.15-3.15C25.927.55 34.127 6.305 35.669 14.889c1.542 8.585-4.155 16.77-12.744 18.309-1.087.192-2.192.27-3.296.234 1.501.176 3.015.132 4.497-.132Z" fill="#fff"/><path fill-rule="evenodd" clip-rule="evenodd" d="M31.398 12.319C25.999 6.153 16.15 5.78 9.365 11.486 2.58 17.192 1.412 26.828 6.752 33.043c1.91 2.22 4.496 3.791 7.433 4.517a14.538 14.538 0 0 1-6.117-4.184c-5.34-6.218-4.358-15.703 2.198-21.22 6.557-5.516 16.22-4.987 21.616 1.183.68.782 1.274 1.635 1.768 2.545a13.74 13.74 0 0 0-2.252-3.565Z" fill="#fff"/><path fill-rule="evenodd" clip-rule="evenodd" d="M29.949 9.885c-6.123-7.008-16.84-7.818-23.975-1.811-7.134 6.007-8.001 16.57-1.94 23.63C6.204 34.226 9.13 36 12.352 36.919c-2.629-1.04-5.026-2.65-6.873-4.795C-.584 25.06.088 14.657 6.982 8.849c6.893-5.808 17.415-4.833 23.537 2.18a17.344 17.344 0 0 1 2.026 2.873 16.786 16.786 0 0 0-2.596-4.017Z" fill="#fff"/><path fill-rule="evenodd" clip-rule="evenodd" d="M30.57 10.99c-5.7-6.516-15.935-7.051-22.894-1.196C.716 15.649-.35 25.69 5.291 32.256c2.017 2.346 4.553 3.978 7.614 4.78-2.492-.93-4.525-2.417-6.242-4.413-5.642-6.568-4.765-16.455 1.959-22.115 6.725-5.661 16.769-4.966 22.467 1.554a15.434 15.434 0 0 1 1.874 2.683 14.926 14.926 0 0 0-2.393-3.755Z" fill="#fff"/><path fill-rule="evenodd" clip-rule="evenodd" d="M8.612 14.656c-3.012 7.585 1.25 16.347 9.535 19.601 8.284 3.254 17.474-.224 20.557-7.781 1.1-2.702 1.303-5.69.584-8.59.344 2.481.036 4.987-.9 7.287-3.085 7.558-12.052 11.128-20.06 7.985s-12.043-11.816-9.026-19.4c.383-.96.871-1.874 1.457-2.73a13.735 13.735 0 0 0-2.147 3.628Z" fill="#fff"/><path fill-rule="evenodd" clip-rule="evenodd" d="M7.105 17.055c-3.43 8.61.846 18.334 9.564 21.752 8.718 3.418 18.597-.756 22.101-9.337 1.251-3.067 1.52-6.517.842-9.755.293 2.778-.075 5.688-1.138 8.3-3.506 8.583-13.153 12.852-21.58 9.551-8.427-3.301-12.463-12.93-9.029-21.541.436-1.088.984-2.13 1.631-3.109a16.747 16.747 0 0 0-2.39 4.139Z" fill="#fff"/><path fill-rule="evenodd" clip-rule="evenodd" d="M7.807 15.998c-3.186 8.012 1.11 17.185 9.61 20.522 8.5 3.336 18.006-.42 21.264-8.403 1.162-2.854 1.443-5.983.733-9.026.328 2.606-.056 5.23-1.044 7.659-3.261 7.984-12.538 11.834-20.754 8.612-8.217-3.223-12.28-12.305-9.09-20.317.406-1.012.919-1.98 1.531-2.886a14.89 14.89 0 0 0-2.25 3.84Z" fill="#fff"/><path fill-rule="evenodd" clip-rule="evenodd" d="m11.553 13.097.055-.054h2.223l.056.054v.124c0 .564-.345 1.026-.803 1.282.55.254.882.8.882 1.34v.123l-.055.054h-2.303l-.055-.054v-2.869Zm.11.055v2.76h2.192v-.07c0-.53-.348-1.07-.92-1.283l-.004-.1c.48-.227.845-.682.845-1.238v-.07h-2.113Zm.297.31.055-.053h1.355l.055.06c-.067.601-.659.94-1.145.94h-.265l-.055-.054v-.892Zm.11.055v.784h.21c.43 0 .936-.29 1.026-.784H12.07Zm-.11 1.19.055-.054h.333c.56 0 1.075.403 1.16.94l-.055.063h-1.438l-.055-.054v-.894Zm.11.055v.785h1.316c-.104-.448-.55-.785-1.038-.785h-.278Z" fill="#fff"/><path d="M12.954 14.507c.495-.233.877-.705.877-1.287v-.123h-2.224v2.869h2.303v-.123c0-.553-.361-1.115-.956-1.336Zm.416-1.045c-.063.566-.624.893-1.09.893h-.265v-.893h1.355Zm-1.355 1.246h.332c.536 0 1.027.385 1.106.893h-1.438v-.893Z" fill="#fff"/><path fill-rule="evenodd" clip-rule="evenodd" d="m15.243 13.117.051-.074h.457l.052.035 1.122 2.868-.052.074h-.456l-.052-.034-.138-.35-1.998.429-.066-.048a2.88 2.88 0 0 1-.017-.264c0-.919.58-1.666 1.394-1.873l-.297-.763Zm.132.035.29.747-.039.072c-.792.173-1.37.887-1.37 1.782 0 .06.005.126.01.192l1.984-.425.063.033.142.358h.338l-1.08-2.76h-.338Zm-.66 2.315 1.336-.287-.326-.836c-.574.12-.96.558-1.01 1.123Zm-.115.066c.025-.664.475-1.186 1.15-1.304l.06.034.367.937-.04.073-1.47.315-.067-.055Z" fill="#fff"/><path d="m16.874 15.966-1.122-2.869h-.458l.32.82c-.819.18-1.413.918-1.413 1.836 0 .082.008.172.016.258l2.046-.438.154.393h.457Zm-2.22-.43c.025-.64.457-1.14 1.106-1.254l.366.938-1.472.316Z" fill="#fff"/><path fill-rule="evenodd" clip-rule="evenodd" d="m17.119 13.097.055-.054h2.368l.056.054v.394l-.014.036-1.814 1.991h1.793l.055.055v.393l-.055.054H17.13l-.055-.054v-.393l.014-.037 1.813-1.991h-1.73l-.054-.054v-.394Zm.11.055v.284h1.798l.04.09-1.88 2.068v.318h2.32v-.285h-1.86l-.042-.09 1.882-2.067v-.318H17.23Z" fill="#fff"/><path d="M17.131 15.966h2.432v-.393h-1.916l1.895-2.082v-.394h-2.369v.394h1.854l-1.896 2.082v.393Z" fill="#fff"/><path fill-rule="evenodd" clip-rule="evenodd" d="m20.854 13.117.052-.074h.456l.052.035 1.123 2.868-.052.074h-.456l-.052-.034-.138-.35-1.998.429-.067-.048a2.88 2.88 0 0 1-.016-.264c0-.919.58-1.666 1.393-1.873l-.297-.763Zm.132.035.29.747-.039.072c-.792.173-1.369.887-1.369 1.782 0 .06.005.126.01.192l1.984-.425.063.033.141.358h.339l-1.08-2.76h-.339Zm-.66 2.315 1.336-.287-.327-.836c-.573.12-.959.558-1.01 1.123Zm-.115.066c.026-.664.476-1.186 1.15-1.304l.06.034.367.937-.04.073-1.47.315-.067-.055Z" fill="#fff"/><path d="m22.485 15.966-1.122-2.869h-.457l.32.82c-.82.18-1.414.918-1.414 1.836 0 .082.009.172.017.258l2.045-.438.154.393h.457Zm-2.22-.43c.026-.64.458-1.14 1.106-1.254l.366.938-1.472.316Z" fill="#fff"/><path fill-rule="evenodd" clip-rule="evenodd" d="m11.241 18.22.055-.054h2.493l.055.054v.393l-.055.055h-.984v2.42l-.055.055h-.415l-.055-.054v-2.421h-.984l-.055-.055v-.393Zm.11.054v.285h.984l.055.054v2.421h.305v-2.42l.055-.055h.984v-.285H11.35Z" fill="#fff"/><path d="M13.79 18.22h-2.494v.393h1.039v2.475h.415v-2.475h1.04v-.393Z" fill="#fff"/><path fill-rule="evenodd" clip-rule="evenodd" d="m14.17 18.22.056-.054h2.243l.056.054v.124c0 .648-.327 1.144-.824 1.433l1.033 1.278-.043.088h-.508l-.044-.02-.912-1.149c-.171.045-.35.073-.538.082v1.033l-.056.054h-.407l-.055-.054V18.22Zm.111.054v2.76h.297v-1.03l.054-.055a2.46 2.46 0 0 0 .601-.09l.059.02.917 1.155h.367l-1.002-1.24.017-.08c.496-.267.823-.74.823-1.37v-.07h-2.133Zm.297.304.055-.055h1.405l.054.063c-.108.673-.672 1.1-1.459 1.1l-.055-.055v-1.053Zm.11.054v.944c.688-.019 1.164-.384 1.283-.944H14.69Z" fill="#fff"/><path d="M16.184 21.088h.507l-1.073-1.327a1.56 1.56 0 0 0 .853-1.418v-.123h-2.245v2.868h.407v-1.085c.216-.004.42-.037.616-.09l.935 1.175Zm-1.55-1.458v-1.054h1.404c-.103.644-.64 1.054-1.405 1.054Z" fill="#fff"/><path fill-rule="evenodd" clip-rule="evenodd" d="m17.816 18.24.051-.074h.457l.051.034 1.123 2.87-.051.073h-.457l-.051-.035-.138-.35-1.998.43-.067-.048a2.88 2.88 0 0 1-.017-.264c0-.919.58-1.666 1.394-1.874l-.297-.762Zm.132.034.29.747-.039.073c-.792.173-1.37.887-1.37 1.782 0 .06.005.126.011.192l1.983-.426.064.034.141.358h.338l-1.08-2.76h-.338Zm-.66 2.316 1.335-.287-.326-.836c-.573.119-.96.558-1.01 1.123Zm-.115.066c.025-.664.476-1.186 1.15-1.305l.06.034.367.938-.04.073-1.47.315-.067-.055Z" fill="#fff"/><path d="m19.447 21.088-1.122-2.868h-.458l.32.82c-.819.18-1.413.918-1.413 1.835 0 .082.008.173.017.259l2.045-.439.153.393h.458Zm-2.22-.43c.025-.64.457-1.139 1.106-1.254l.365.939-1.471.315Z" fill="#fff"/><path fill-rule="evenodd" clip-rule="evenodd" d="m19.837 18.22.055-.054h.415l.056.054v2.869l-.056.054h-.415l-.055-.054V18.22Zm.11.054v2.76h.305v-2.76h-.305Z" fill="#fff"/><path d="M19.892 18.22h.415v2.868h-.415V18.22Z" fill="#fff"/><path fill-rule="evenodd" clip-rule="evenodd" d="m21 18.22.055-.054h.416l.04.017 1.61 1.729V18.22l.055-.054h.415l.055.054v2.869l-.056.054h-.415l-.055-.054v-.462l-1.594-1.71v2.172l-.055.054h-.416L21 21.09V18.22Zm.11.054v2.76h.306v-2.256l.096-.037 1.704 1.828.015.037v.428h.304v-2.76h-.304v1.778l-.096.037-1.688-1.815h-.336Z" fill="#fff"/><path d="M23.175 18.22v1.832l-1.704-1.832h-.416v2.868h.416v-2.311l1.704 1.828v.483h.416V18.22h-.416Z" fill="#fff"/><path fill-rule="evenodd" clip-rule="evenodd" d="m24.284 18.22.055-.054h1.954l.055.054v.385l-.055.055H24.81v.747h1.357l.055.055v.385l-.055.054H24.81v.748h1.483l.055.055v.385l-.055.054h-1.954l-.055-.054V18.22Zm.11.054v2.76h1.844v-.276h-1.483l-.055-.054v-.857l.055-.054h1.357v-.277h-1.357l-.055-.054v-.857l.055-.054h1.483v-.277h-1.843Z" fill="#fff"/><path d="M26.293 18.605v-.385h-1.954v2.868h1.954v-.385h-1.539v-.856h1.414v-.385h-1.414v-.857h1.538Z" fill="#fff"/><path fill-rule="evenodd" clip-rule="evenodd" d="m26.861 18.22.055-.054h1.954l.055.054v.385l-.055.055h-1.483v.747h1.358l.055.055v.385l-.055.054h-1.358v.748h1.483l.055.055v.385l-.055.054h-1.954l-.055-.054V18.22Zm.11.054v2.76h1.844v-.276H27.33l-.055-.054v-.857l.055-.054h1.358v-.277h-1.358l-.055-.054v-.857l.055-.054h1.484v-.277h-1.843Z" fill="#fff"/><path d="M28.87 18.605v-.385h-1.954v2.868h1.954v-.385H27.33v-.856h1.414v-.385H27.33v-.857h1.539Z" fill="#fff"/><path fill-rule="evenodd" clip-rule="evenodd" d="m11.511 23.342.056-.054h.415l.055.054v1c0 .459.14.812.399 1.05.258.24.642.371 1.142.371h.052v-2.42l.055-.055h.415l.056.054v2.87l-.056.054h-.522c-.648 0-1.166-.173-1.522-.504-.357-.33-.545-.814-.545-1.42v-1Zm.11.055v.945c0 .584.18 1.035.51 1.341.33.306.818.474 1.447.474h.467v-2.76h-.305v2.42l-.055.055h-.107c-.519 0-.933-.136-1.218-.4-.285-.264-.433-.65-.433-1.13v-.945h-.305Z" fill="#fff"/><path d="M13.686 23.342v2.476h-.108c-1.019 0-1.596-.537-1.596-1.476v-1h-.416v1c0 1.189.736 1.87 2.011 1.87h.524v-2.87h-.415Z" fill="#fff"/><path fill-rule="evenodd" clip-rule="evenodd" d="m14.795 23.342.055-.054h.407l.055.054v1.2h.261c.335 0 .607-.104.795-.302.19-.198.3-.497.3-.898l.056-.054h.416l.055.054c0 .6-.238 1.166-.737 1.413.533.25.795.83.795 1.456l-.056.055h-.416l-.055-.055c0-.355-.102-.654-.294-.864-.19-.209-.477-.335-.858-.335h-.262v1.2l-.055.054h-.407l-.055-.055v-2.869Zm.11.055v2.76h.297v-1.199l.055-.054h.316c.408 0 .726.135.941.37.205.223.312.53.322.883h.305c-.015-.623-.303-1.16-.842-1.35l-.001-.102c.506-.183.77-.707.786-1.308h-.306c-.01.394-.125.704-.329.918-.213.224-.517.337-.876.337h-.316l-.055-.055v-1.2h-.297Z" fill="#fff"/><path d="M16.317 24.756c.553-.2.823-.778.823-1.414h-.416c0 .82-.457 1.254-1.151 1.254h-.316v-1.254h-.408v2.87h.408v-1.255h.316c.79 0 1.21.525 1.21 1.254h.415c0-.66-.295-1.25-.881-1.454Z" fill="#fff"/><path fill-rule="evenodd" clip-rule="evenodd" d="m17.704 23.342.055-.054h2.244l.055.054v.124c0 .648-.326 1.144-.824 1.433l1.033 1.278-.043.089h-.508l-.043-.021-.913-1.149a2.57 2.57 0 0 1-.539.082v1.033l-.055.055h-.407l-.055-.055v-2.869Zm.11.055v2.76h.297v-1.032l.054-.054a2.46 2.46 0 0 0 .601-.089l.059.019.918 1.156h.366l-1.002-1.24.017-.082c.497-.265.824-.739.824-1.37v-.068h-2.133Zm.297.303.055-.055h1.405l.055.064c-.11.673-.673 1.099-1.46 1.099l-.055-.055V23.7Zm.11.055v.943c.688-.018 1.164-.384 1.284-.944H18.22Z" fill="#fff"/><path d="M19.717 26.211h.507l-1.072-1.328a1.56 1.56 0 0 0 .852-1.418v-.123h-2.245v2.87h.407v-1.087a2.51 2.51 0 0 0 .616-.09l.935 1.176Zm-1.55-1.459V23.7h1.404c-.104.643-.64 1.053-1.405 1.053Z" fill="#fff"/><path fill-rule="evenodd" clip-rule="evenodd" d="m21.349 23.362.051-.074h.457l.052.035 1.122 2.869-.052.074h-.456l-.052-.035-.137-.35-1.998.429-.067-.048a2.751 2.751 0 0 1-.017-.264c0-.918.58-1.666 1.394-1.873l-.297-.763Zm.132.035.29.747-.039.072c-.793.173-1.37.887-1.37 1.782 0 .06.005.126.01.192l1.984-.425.063.033.141.359h.339l-1.08-2.76h-.338Zm-.66 2.315 1.336-.287-.327-.835c-.573.118-.96.557-1.01 1.122Zm-.116.066c.026-.664.476-1.186 1.15-1.304l.062.034.366.938-.04.072-1.47.316-.067-.056Z" fill="#fff"/><path d="m22.98 26.211-1.123-2.869H21.4l.32.82c-.819.18-1.413.918-1.413 1.836 0 .082.008.172.017.258l2.045-.438.154.393h.457Zm-2.22-.43c.025-.64.457-1.14 1.106-1.254l.366.938-1.472.316Z" fill="#fff"/><path fill-rule="evenodd" clip-rule="evenodd" d="m23.37 23.342.055-.054h.415l.055.054v2.87l-.055.054h-.415l-.056-.055v-2.869Zm.11.055v2.76h.305v-2.76h-.305Z" fill="#fff"/><path d="M23.424 23.342h.416v2.87h-.416v-2.87Z" fill="#fff"/><path fill-rule="evenodd" clip-rule="evenodd" d="m24.533 23.342.055-.054h.416l.04.018 1.61 1.728v-1.692l.055-.054h.415l.055.054v2.87l-.055.054h-.415l-.055-.055v-.461l-1.595-1.71v2.171l-.055.055h-.416l-.055-.055v-2.869Zm.11.055v2.76h.306V23.9l.096-.037 1.704 1.829.015.037v.428h.305v-2.76h-.305v1.777l-.096.037-1.688-1.814h-.337Z" fill="#fff"/><path d="M26.708 23.342v1.832l-1.704-1.832h-.416v2.87h.416V23.9l1.704 1.828v.483h.416v-2.869h-.416Z" fill="#fff"/><path fill-rule="evenodd" clip-rule="evenodd" d="m27.817 23.342.055-.054h1.954l.055.054v.386l-.055.054h-1.483v.748H29.7l.055.054v.385l-.055.055h-1.358v.747h1.483l.055.055v.385l-.055.055h-1.954l-.055-.055v-2.869Zm.11.055v2.76h1.843v-.277h-1.482l-.056-.054v-.857l.056-.054h1.357v-.276h-1.357l-.056-.055v-.856l.056-.055h1.482v-.276h-1.843Z" fill="#fff"/><path d="M29.825 23.728v-.386h-1.953v2.87h1.953v-.386h-1.537v-.857H29.7v-.385h-1.413v-.856h1.537Z" fill="#fff"/></svg>