<svg width="80" height="80" viewBox="0 0 80 80" fill="none" xmlns="http://www.w3.org/2000/svg">
<g clip-path="url(#clip0_7800_51907)">
<rect width="80" height="80" rx="40" fill="#C7E1FF"/>
<rect x="-2" y="36" width="100" height="100" rx="50" fill="#FFDC69"/>
<rect x="-2" y="36" width="100" height="100" rx="50" fill="#66DD88"/>
<path d="M34.8196 51.692C34.8196 55.2632 31.8639 58.1751 28.1969 58.1751C24.5299 58.1751 21.5742 55.2632 21.5742 51.692C21.5742 48.1208 24.5299 45.209 28.1969 45.209C31.8639 45.209 34.8196 48.1208 34.8196 51.692Z" stroke="#1E1E1E"/>
<path d="M30.2089 51.5904C30.2089 52.6094 29.3635 53.4523 28.2998 53.4523C27.236 53.4523 26.3906 52.6094 26.3906 51.5904C26.3906 50.5714 27.236 49.7285 28.2998 49.7285C29.3635 49.7285 30.2089 50.5714 30.2089 51.5904Z" stroke="#1E1E1E"/>
<path d="M28.4062 45.0176V49.6387" stroke="#1E1E1E" stroke-width="0.75"/>
<path d="M23.5898 46.9688L26.9228 50.2364" stroke="#1E1E1E" stroke-width="0.75"/>
<path d="M23.5898 56.3965L26.9228 53.1288" stroke="#1E1E1E" stroke-width="0.75"/>
<path d="M33.207 46.9688L29.8741 50.2364" stroke="#1E1E1E" stroke-width="0.75"/>
<path d="M33.207 56.3965L29.8741 53.1288" stroke="#1E1E1E" stroke-width="0.75"/>
<path d="M28.4062 53.9512V58.5723" stroke="#1E1E1E" stroke-width="0.75"/>
<path d="M30.7109 51.6934H35.1102" stroke="#1E1E1E" stroke-width="0.75"/>
<path d="M21.2852 51.6934H25.9987" stroke="#1E1E1E" stroke-width="0.75"/>
<path d="M58.2844 51.692C58.2844 55.2632 55.3287 58.1751 51.6617 58.1751C47.9948 58.1751 45.0391 55.2632 45.0391 51.692C45.0391 48.1208 47.9948 45.209 51.6617 45.209C55.3287 45.209 58.2844 48.1208 58.2844 51.692Z" stroke="#1E1E1E"/>
<path d="M53.6777 51.5904C53.6777 52.6094 52.8323 53.4523 51.7685 53.4523C50.7047 53.4523 49.8594 52.6094 49.8594 51.5904C49.8594 50.5714 50.7047 49.7285 51.7685 49.7285C52.8323 49.7285 53.6777 50.5714 53.6777 51.5904Z" stroke="#1E1E1E"/>
<path d="M51.8711 45.0176V49.6387" stroke="#1E1E1E" stroke-width="0.75"/>
<path d="M47.0547 46.9688L50.3877 50.2364" stroke="#1E1E1E" stroke-width="0.75"/>
<path d="M47.0547 56.3965L50.3877 53.1288" stroke="#1E1E1E" stroke-width="0.75"/>
<path d="M56.6719 46.9688L53.3389 50.2364" stroke="#1E1E1E" stroke-width="0.75"/>
<path d="M56.6719 56.3965L53.3389 53.1288" stroke="#1E1E1E" stroke-width="0.75"/>
<path d="M51.8711 53.9512V58.5723" stroke="#1E1E1E" stroke-width="0.75"/>
<path d="M54.1758 51.6934H58.5751" stroke="#1E1E1E" stroke-width="0.75"/>
<path d="M44.75 51.6934H49.4635" stroke="#1E1E1E" stroke-width="0.75"/>
<path d="M29.907 14.7813C30.0267 13.8252 31.1434 13.3605 31.9281 13.9402L41.2006 20.7905L28.492 26.0792L29.907 14.7813Z" fill="#F2B441"/>
<path d="M19.964 24.1986C19.5623 23.3142 20.2918 22.3297 21.2739 22.4309L32.7879 23.6174L24.6729 34.5677L19.964 24.1986Z" fill="#F2B441"/>
<path d="M17.7937 36.1388C16.9357 35.6531 16.9357 34.417 17.7937 33.9313L27.8001 28.2673L27.8001 41.8027L17.7937 36.1388Z" fill="#F2B441"/>
<path d="M22.4334 47.9205C21.4535 48.0385 20.7071 47.0674 21.0929 46.1764L24.7537 37.7211C25.1379 36.8338 26.3579 36.6912 26.952 37.4643L32.5906 44.8001C33.1847 45.5732 32.7087 46.6836 31.7328 46.8011L22.4334 47.9205Z" fill="#F2B441"/>
<path d="M33.0725 54.9909C32.2878 55.5707 31.1711 55.1059 31.0514 54.1498L29.9096 45.0331C29.7886 44.067 30.7741 43.3254 31.6787 43.7018L40.3028 47.2907C41.2073 47.6672 41.3477 48.8774 40.5548 49.4631L33.0725 54.9909Z" fill="#F2B441"/>
<path d="M49.5344 15.4434C49.4147 14.4873 48.298 14.0226 47.5133 14.6023L38.2408 21.4526L50.9494 26.7413L49.5344 15.4434Z" fill="#F2B441"/>
<path d="M59.4775 24.8607C59.8791 23.9763 59.1496 22.9919 58.1675 23.093L46.6535 24.2795L54.7685 35.2299L59.4775 24.8607Z" fill="#F2B441"/>
<path d="M61.6477 36.8009C62.5057 36.3152 62.5057 35.0791 61.6477 34.5934L51.6413 28.9295V42.4648L61.6477 36.8009Z" fill="#F2B441"/>
<path d="M57.008 48.5826C57.9879 48.7006 58.7343 47.7295 58.3485 46.8385L54.6877 38.3832C54.3035 37.4959 53.0835 37.3533 52.4894 38.1264L46.8508 45.4622C46.2567 46.2353 46.7327 47.3457 47.7086 47.4632L57.008 48.5826Z" fill="#F2B441"/>
<path d="M46.3689 55.653C47.1536 56.2328 48.2703 55.7681 48.39 54.8119L49.5318 45.6952C49.6528 44.7291 48.6673 43.9875 47.7628 44.3639L39.1386 47.9528C38.2341 48.3293 38.0937 49.5395 38.8866 50.1252L46.3689 55.653Z" fill="#F2B441"/>
<ellipse cx="39.6017" cy="35.407" rx="14.6134" ry="14.3269" fill="#F2B441"/>
<path d="M36.8664 33.2449C39.1075 33.2449 40.9243 31.6275 40.9243 29.6322C40.9243 27.637 39.1075 26.0195 36.8664 26.0195C34.6253 26.0195 32.8086 27.637 32.8086 29.6322C32.8086 31.6275 34.6253 33.2449 36.8664 33.2449Z" fill="#FDFDFD"/>
<path d="M36.8665 31.3552C37.7851 31.3552 38.5298 30.6251 38.5298 29.7245C38.5298 28.8239 37.7851 28.0938 36.8665 28.0938C35.9478 28.0938 35.2031 28.8239 35.2031 29.7245C35.2031 30.6251 35.9478 31.3552 36.8665 31.3552Z" fill="#1E1E1E"/>
<path d="M35.4414 29.7241C35.4414 29.7241 36.0133 29.6419 36.0824 29.4961C36.0824 29.4961 36.2584 29.9726 36.2898 30.0096C36.2898 30.0096 35.7661 30.4491 35.653 30.4018C35.5399 30.3546 35.4414 29.7241 35.4414 29.7241Z" fill="#FDFDFD"/>
<path d="M43.9875 33.2449C46.2286 33.2449 48.0454 31.6275 48.0454 29.6322C48.0454 27.637 46.2286 26.0195 43.9875 26.0195C41.7464 26.0195 39.9297 27.637 39.9297 29.6322C39.9297 31.6275 41.7464 33.2449 43.9875 33.2449Z" fill="#FDFDFD"/>
<path d="M43.9876 31.3552C44.9062 31.3552 45.6509 30.6251 45.6509 29.7245C45.6509 28.8239 44.9062 28.0938 43.9876 28.0938C43.0689 28.0938 42.3242 28.8239 42.3242 29.7245C42.3242 30.6251 43.0689 31.3552 43.9876 31.3552Z" fill="#1E1E1E"/>
<path d="M42.5625 29.7241C42.5625 29.7241 43.1344 29.6419 43.2035 29.4961C43.2035 29.4961 43.3795 29.9726 43.4109 30.0096C43.4109 30.0096 42.8872 30.4491 42.7741 30.4018C42.661 30.3546 42.5625 29.7241 42.5625 29.7241Z" fill="#FDFDFD"/>
<path d="M36.2886 36.0703C42.0023 36.6766 43.4395 36.3866 45.9034 35.022C48.3663 33.6553 49.5738 34.3622 49.5738 34.3622C49.5738 34.3622 50.981 34.592 45.9611 40.1335C42.1005 44.3952 40.0482 43.6235 37.0657 41.7647C34.9516 40.4471 33.6202 37.3412 33.9927 36.2442C34.3656 35.1457 34.6568 35.8978 36.2896 36.0724L36.2886 36.0703Z" fill="#1E1E1E"/>
<mask id="mask0_7800_51907" style="mask-type:alpha" maskUnits="userSpaceOnUse" x="33" y="34" width="17" height="10">
<path d="M36.2886 36.0703C42.0023 36.6766 43.4395 36.3866 45.9034 35.022C48.3663 33.6553 49.5738 34.3622 49.5738 34.3622C49.5738 34.3622 50.981 34.592 45.9611 40.1335C42.1005 44.3952 40.0482 43.6235 37.0657 41.7647C34.9516 40.4471 33.6202 37.3412 33.9927 36.2442C34.3656 35.1457 34.6568 35.8978 36.2896 36.0724L36.2886 36.0703Z" fill="#282828"/>
</mask>
<g mask="url(#mask0_7800_51907)">
<ellipse cx="1.26638" cy="2.43134" rx="1.26638" ry="2.43134" transform="matrix(0.350554 0.936543 0.971373 -0.237561 39.0898 41.752)" fill="#E00000"/>
<path d="M34.6914 35.3557C34.6914 35.3557 36.6272 39.0064 37.9385 39.058C39.2831 39.1109 38.6717 36.1772 38.6717 36.1772L34.6914 35.3557Z" fill="#FDFDFD"/>
<path d="M37.31 33.7126C37.31 33.7126 39.2458 37.3634 40.5571 37.415C41.9018 37.4679 43.3853 35.3557 43.3853 35.3557L37.31 33.7126Z" fill="#FDFDFD"/>
<path d="M40.8714 32.8965C40.8714 32.8965 42.8071 36.5472 44.1185 36.5988C45.4631 36.6517 46.9466 34.5396 46.9466 34.5396L40.8714 32.8965Z" fill="#FDFDFD"/>
<path d="M34.6914 35.3557C34.6914 35.3557 36.6272 39.0064 37.9385 39.058C39.2831 39.1109 38.6717 36.1772 38.6717 36.1772L34.6914 35.3557Z" stroke="#FDFDFD" stroke-width="0.25"/>
<path d="M37.31 33.7126C37.31 33.7126 39.2458 37.3634 40.5571 37.415C41.9018 37.4679 43.3853 35.3557 43.3853 35.3557L37.31 33.7126Z" stroke="#FDFDFD" stroke-width="0.25"/>
<path d="M40.8714 32.8965C40.8714 32.8965 42.8071 36.5472 44.1185 36.5988C45.4631 36.6517 46.9466 34.5396 46.9466 34.5396L40.8714 32.8965Z" stroke="#FDFDFD" stroke-width="0.25"/>
</g>
</g>
<defs>
<clipPath id="clip0_7800_51907">
<rect width="80" height="80" rx="40" fill="white"/>
</clipPath>
</defs>
</svg>
