<svg width="339" height="212" fill="none" xmlns="http://www.w3.org/2000/svg"><g filter="url(#a)" fill="#FDFDFD"><path d="M69 8.739c1.457-2.731 3.278-4.825 5.463-6.281C76.83.819 79.197 0 81.563 0c2.914 0 5.463 1.365 7.648 4.096 2.367 2.55 3.641 6.828 3.823 12.836v132.176h6.828c2.003 0 3.641.729 4.916 2.185 1.457 1.275 2.185 2.822 2.185 4.643 0 1.82-.728 3.459-2.185 4.915-1.275 1.275-2.913 1.912-4.916 1.912h-6.828v19.117c0 5.643-2.094 10.559-6.281 14.747-4.188 4.005-9.741 6.008-16.66 6.008-7.101 0-12.745-2.003-16.933-6.008-4.188-4.188-6.282-9.104-6.282-14.747v-11.743c0-2.003-.364-3.642-1.092-4.916-.728-1.457-1.82-2.185-3.277-2.185H14.105c-3.823 0-6.464-1.001-7.92-3.004-1.457-2.185-2.185-4.551-2.185-7.1v-1.093c0-.546.091-1.092.273-1.638l.546-3.277c.364-1.093.82-2.003 1.366-2.731L69 8.739ZM29.947 149.108h11.197c2.003 0 3.46-.819 4.37-2.457.91-1.821 1.365-4.461 1.365-7.92v-18.57c0-2.003-.455-3.46-1.365-4.37-.728-.91-1.639-1.365-2.731-1.365-.364 0-.728.091-1.093.273-.182 0-.455.091-.819.273-.91.364-1.82 1.092-2.731 2.185-.91.91-1.73 2.093-2.458 3.55L28.307 136a21.345 21.345 0 0 0-1.639 4.369c-.364 1.457-.546 2.731-.546 3.824 0 1.456.273 2.64.82 3.55.728.91 1.729 1.365 3.004 1.365ZM117.384 32.771c0-7.282 5.007-13.655 15.021-19.116 10.014-5.644 22.213-8.466 36.597-8.466s26.583 4.187 36.597 12.562c10.014 8.375 15.021 19.39 15.021 33.044V158.94c0 13.472-4.461 24.396-13.383 32.771-8.739 8.193-21.484 12.289-38.235 12.289-16.569 0-29.314-2.731-38.236-8.193-8.921-5.644-13.382-12.016-13.382-19.116V32.771Zm67.185-6.281c-5.826 0-10.833 2.367-15.021 7.1-4.006 4.734-6.008 10.469-6.008 17.205V158.94c0 6.736 2.093 12.471 6.281 17.205 4.188 4.733 9.104 7.1 14.748 7.1 5.826 0 10.834-2.367 15.021-7.1 4.37-4.734 6.555-10.469 6.555-17.205V50.795c0-6.736-2.094-12.471-6.282-17.205-4.187-4.733-9.285-7.1-15.294-7.1ZM297.038 8.739c1.456-2.731 3.277-4.825 5.462-6.281C304.867.819 307.234 0 309.601 0c2.913 0 5.462 1.365 7.647 4.096 2.367 2.55 3.641 6.828 3.823 12.836v132.176h6.828c2.003 0 3.642.729 4.916 2.185 1.457 1.275 2.185 2.822 2.185 4.643 0 1.82-.728 3.459-2.185 4.915-1.274 1.275-2.913 1.912-4.916 1.912h-6.828v19.117c0 5.643-2.094 10.559-6.281 14.747-4.188 4.005-9.741 6.008-16.66 6.008-7.101 0-12.745-2.003-16.933-6.008-4.188-4.188-6.281-9.104-6.281-14.747v-11.743c0-2.003-.365-3.642-1.093-4.916-.728-1.457-1.821-2.185-3.277-2.185h-28.404c-3.823 0-6.463-1.001-7.92-3.004-1.457-2.185-2.185-4.551-2.185-7.1v-1.093c0-.546.091-1.092.273-1.638l.546-3.277c.365-1.093.82-2.003 1.366-2.731L297.038 8.739Zm-39.055 140.369h11.197c2.003 0 3.46-.819 4.37-2.457.91-1.821 1.366-4.461 1.366-7.92v-18.57c0-2.003-.456-3.46-1.366-4.37-.728-.91-1.639-1.365-2.731-1.365a2.43 2.43 0 0 0-1.093.273c-.182 0-.455.091-.819.273-.91.364-1.821 1.092-2.731 2.185-.91.91-1.73 2.093-2.458 3.55L256.344 136a21.352 21.352 0 0 0-1.639 4.369c-.364 1.457-.546 2.731-.546 3.824 0 1.456.273 2.64.819 3.55.729.91 1.73 1.365 3.005 1.365Z"/></g><defs><filter id="a" x="0" y="0" width="339" height="212" filterUnits="userSpaceOnUse" color-interpolation-filters="sRGB"><feFlood flood-opacity="0" result="BackgroundImageFix"/><feColorMatrix in="SourceAlpha" values="0 0 0 0 0 0 0 0 0 0 0 0 0 0 0 0 0 0 127 0" result="hardAlpha"/><feOffset dy="4"/><feGaussianBlur stdDeviation="2"/><feComposite in2="hardAlpha" operator="out"/><feColorMatrix values="0 0 0 0 0 0 0 0 0 0 0 0 0 0 0 0 0 0 0.25 0"/><feBlend in2="BackgroundImageFix" result="effect1_dropShadow_5235_59875"/><feBlend in="SourceGraphic" in2="effect1_dropShadow_5235_59875" result="shape"/></filter></defs></svg>