<svg width="143" height="112" viewBox="0 0 143 112" fill="none" xmlns="http://www.w3.org/2000/svg">
<path d="M27.8403 100.8C27.8403 76.9409 47.1817 57.5996 71.0404 57.5996C94.8992 57.5996 114.241 76.9409 114.241 100.8V106.472C114.241 109.172 112.052 111.36 109.353 111.36H32.7276C30.0284 111.36 27.8403 109.172 27.8403 106.472V100.8Z" fill="#9B90C5"/>
<path d="M53.7604 62.8838C46.7987 57.2062 34.2524 51.2727 39.7605 72.9596L53.7604 62.8838Z" fill="#9B90C5"/>
<path d="M88.3206 62.8838C95.2823 57.2062 107.829 51.2727 102.321 72.9596L88.3206 62.8838Z" fill="#9B90C5"/>
<circle cx="59.5198" cy="81.6009" r="6.72001" fill="#FDFDFD"/>
<circle cx="82.5599" cy="81.6009" r="6.72001" fill="#FDFDFD"/>
<circle cx="59.5197" cy="80.1613" r="4.80001" fill="#1E1E1E"/>
<circle cx="82.5598" cy="80.1613" r="4.80001" fill="#1E1E1E"/>
<rect width="1.92" height="1.92" transform="matrix(0.866818 0.498625 -0.501376 0.86523 61.4399 77.7607)" fill="#FDFDFD"/>
<rect width="1.92" height="1.92" transform="matrix(0.866818 0.498625 -0.501376 0.86523 84.48 77.7607)" fill="#FDFDFD"/>
<path d="M65.2798 97.9211C67.2095 92.1353 75.8932 93.513 76.7998 97.9208" stroke="#1E1E1E" stroke-width="1.44" stroke-linecap="round"/>
</svg>
