<svg width="391" height="630" fill="none" xmlns="http://www.w3.org/2000/svg"><g filter="url(#a)"><path d="M613.479 553.445c0 150.015-121.607 271.622-271.622 271.622a271.396 271.396 0 0 1-192.137-79.486 271.392 271.392 0 0 1-79.486-192.136c0-150.002 121.607-271.623 271.623-271.623a271.578 271.578 0 0 1 271.622 271.623Z" fill="#939393" style="mix-blend-mode:multiply" opacity=".75"/><path d="M609.245 550.622c0 150.016-121.607 271.623-271.623 271.623a271.395 271.395 0 0 1-192.136-79.486A271.382 271.382 0 0 1 66 550.622C66 400.621 187.607 279 337.622 279a271.557 271.557 0 0 1 103.952 20.665A271.566 271.566 0 0 1 588.58 446.67a271.602 271.602 0 0 1 20.665 103.952Z" fill="#FFE8D6"/><path d="M498.236 331.555c-62.292 0-124.641 18.84-176.067 54.093-67.33 46.12-115.129 119.815-129.721 200.157-13.337 73.244 1.114 151.102 39.331 215.031A271.676 271.676 0 0 1 66 550.623C66 400.621 187.607 279 337.622 279a270.357 270.357 0 0 1 160.614 52.555Z" fill="#F2DDCB"/><path d="M147.005 517.74c14.045 0 25.43-9.054 25.43-20.223 0-11.169-11.385-20.223-25.43-20.223s-25.431 9.054-25.431 20.223c0 11.169 11.386 20.223 25.431 20.223Z" fill="#939393" style="mix-blend-mode:multiply" opacity=".58"/><path d="M142.77 514.918c14.045 0 25.431-9.054 25.431-20.223 0-11.169-11.386-20.223-25.431-20.223-14.044 0-25.43 9.054-25.43 20.223 0 11.169 11.386 20.223 25.43 20.223Z" fill="#E6C9B3"/><path d="M182.26 552.429c5.424 0 9.822-4.398 9.822-9.823 0-5.424-4.398-9.822-9.822-9.822-5.425 0-9.822 4.398-9.822 9.822 0 5.425 4.397 9.823 9.822 9.823Z" fill="#939393" style="mix-blend-mode:multiply" opacity=".58"/><path d="M178.025 549.606c5.425 0 9.823-4.397 9.823-9.822 0-5.424-4.398-9.822-9.823-9.822-5.424 0-9.822 4.398-9.822 9.822 0 5.425 4.398 9.822 9.822 9.822Z" fill="#E6C9B3"/><path d="M351.609 311.995c22.345 0 40.46-4.915 40.46-10.979 0-6.064-18.115-10.98-40.46-10.98-22.346 0-40.461 4.916-40.461 10.98s18.115 10.979 40.461 10.979Z" fill="#939393" style="mix-blend-mode:multiply" opacity=".58"/><path d="M347.374 309.173c22.346 0 40.461-4.916 40.461-10.98 0-6.063-18.115-10.979-40.461-10.979-22.345 0-40.46 4.916-40.46 10.979 0 6.064 18.115 10.98 40.46 10.98Z" fill="#E6C9B3"/><path d="M404.479 482.968c6.972-29.843-11.568-59.687-41.411-66.659-29.842-6.973-59.687 11.568-66.659 41.411-6.972 29.842 11.568 59.687 41.411 66.659 29.843 6.972 59.687-11.569 66.659-41.411Z" fill="#939393" style="mix-blend-mode:multiply" opacity=".58"/><path d="M400.245 480.141c6.972-29.843-11.568-59.687-41.411-66.66-29.843-6.972-59.687 11.569-66.659 41.411-6.972 29.843 11.568 59.687 41.411 66.66 29.843 6.972 59.687-11.569 66.659-41.411Z" fill="#E6C9B3"/><path d="M328.971 561.348a8.92 8.92 0 1 1-8.919-8.919 8.892 8.892 0 0 1 6.311 2.608 8.912 8.912 0 0 1 2.608 6.311Z" fill="#939393" style="mix-blend-mode:multiply" opacity=".58"/><path d="M324.737 558.526a8.92 8.92 0 1 1-17.16-3.414 8.925 8.925 0 0 1 14.551-2.897 8.916 8.916 0 0 1 2.609 6.311Z" fill="#E6C9B3"/><path d="M243.477 381.893c6.999-6.999 6.999-18.347 0-25.347-6.999-6.999-18.347-6.999-25.347 0-6.999 7-6.999 18.348 0 25.347 7 6.999 18.348 6.999 25.347 0Z" fill="#939393" style="mix-blend-mode:multiply" opacity=".58"/><path d="M239.25 379.067c7-6.999 7-18.347 0-25.347-6.999-6.999-18.347-6.999-25.346 0-6.999 7-6.999 18.348 0 25.347 6.999 6.999 18.347 6.999 25.346 0Z" fill="#E6C9B3"/><path d="M264.238 438.429a4.875 4.875 0 0 1-2.999 4.509 4.87 4.87 0 1 1-1.856-9.364 4.859 4.859 0 0 1 4.855 4.855Z" fill="#939393" style="mix-blend-mode:multiply" opacity=".58"/><path d="M260.003 435.607a4.869 4.869 0 1 1-4.854-4.855 4.85 4.85 0 0 1 4.854 4.855Z" fill="#E6C9B3"/></g><path d="M220.77 319.753c7.828 16.544 29.424 38.376 53.176-6.647 29.69-56.279-7.09-68.243 5.318-109.455 12.407-41.212 33.678-52.29 16.839-67.8-13.472-12.408-20.384-28.804-22.157-35.451" stroke="#fff" stroke-width="5"/><g clip-path="url(#b)" filter="url(#c)"><path d="M252.317 110.122a28.862 28.862 0 0 0 28.154 27.564c1.223.031 2.881-.55 2.662-1.733.199-.611.29-1.012.489-1.623a16.732 16.732 0 0 1-9.901-9.162 16.723 16.723 0 0 1 .082-13.49M268.587 48.16a28.853 28.853 0 0 1 38.059-10.185c1.078.575 2.26 1.9 1.452 2.817l-.379 1.654a16.723 16.723 0 0 0-19.677 14.912M215.185 49.669c-12.699 5.148-20.278 11.784-20.278 11.784s3.304 9.39 11.726 20.04a43.165 43.165 0 0 0 8.552-31.824Z" fill="#D33737"/><path d="M215.186 49.67a43.166 43.166 0 0 1-8.553 31.823c12.251 15.484 35.334 33.626 74.877 29.457l6.57-25.038 6.571-25.038c-32.266-22.967-61.178-18.622-79.465-11.205Z" fill="#fff"/><path d="M304.303 104.908a30.408 30.408 0 0 0 25.276 10.86l-9.997-9.854a55.257 55.257 0 0 0 45.448-2.664 60.91 60.91 0 0 0-24.555-19.975l6.812.713c-7.501-10.542-22.373-15.121-34.503-10.636" fill="#FF9324"/><path d="M304.811 98.842a16.763 16.763 0 0 0 9.966 7.446l-3.005-8.689a55.309 55.309 0 0 0 34.414 2.087 69.88 69.88 0 0 0-24.887-13.325l12.993.669a25.622 25.622 0 0 0-23.328-7.66" fill="#FD0"/><path d="M243.294 55.511c-9.208-4.141-20.03-.034-24.171 9.174-4.141 9.208-.034 20.03 9.174 24.17 9.207 4.142 20.029.035 24.17-9.173 4.142-9.208.034-20.03-9.173-24.17Z" fill="#424242"/><path d="M239.228 59.085a13.542 13.542 0 0 1 8.279 6.26 13.536 13.536 0 0 1 1.411 10.283 13.8 13.8 0 0 1-1.186 3.037 13.5 13.5 0 0 1-4.411 4.808 13.695 13.695 0 0 1-6.849 2.25 13.542 13.542 0 0 1-12.969-19.149 13.446 13.446 0 0 1 4.633-5.521 13.5 13.5 0 0 1 11.124-1.956l-.032-.012Z" fill="#A1DDFF"/><path d="m302.622 112.772-18.641-11.345 8.638-32.902 21.809-.728-11.806 44.975Z" fill="#fff"/><path d="m283.983 101.428 8.637-32.903 4.673-.155-9.346 35.608-3.964-2.55Z" fill="#BABABA"/><path d="M234.207 58.733 247.7 78.658a13.497 13.497 0 0 1-4.41 4.808l-15.185-22.425a13.487 13.487 0 0 1 6.102-2.308ZM225.305 63.615l14.555 21.472c-1.107.353-2.255.56-3.415.614l-12.97-19.148a13.054 13.054 0 0 1 1.83-2.938Z" fill="#fff"/><path d="M302.915 86.624a3.232 3.232 0 0 1 .302 5.225 3.234 3.234 0 0 1-1.862.727c-14.147.836-44.247-.694-40.783-13.885 3.464-13.191 30.438.245 42.343 7.933Z" fill="#D33737"/></g><ellipse cx="149.285" cy="341.472" rx="102.687" ry="105.576" transform="rotate(-6.355 149.285 341.472)" fill="#C1C1C1"/><g filter="url(#d)"><path d="M124.728 272.349c-36.475 10.792-57.307 49.066-46.53 85.488l37.963 128.287c2.741 6.443 10.036 9.918 16.922 7.88 6.886-2.037 11.027-8.895 9.82-15.792l.174-.052c2.711 6.452 9.7 10.018 16.321 8.059 6.62-1.959 10.543-8.753 9.308-15.642l.173-.051c2.741 6.443 9.948 9.944 16.833 7.907 6.886-2.037 11.027-8.896 9.821-15.793l.173-.051c2.712 6.451 9.7 10.017 16.321 8.058 6.621-1.959 10.544-8.753 9.308-15.641l.173-.052c2.742 6.443 9.948 9.944 16.834 7.907 6.885-2.037 11.115-8.922 9.909-15.819l-37.963-128.287c-10.778-36.421-49.084-57.198-85.56-46.406Z" fill="#E6E6E6"/><path d="M188.013 383.581c-27.246 11.369-34.756 12.009-48.919 8.754-14.161-3.267-19.06 2.039-19.06 2.039s-6.59 3.204 26.364 23.69c25.345 15.754 34.309 8.891 46.241-4.781 8.458-9.692 10.405-27.215 6.942-32.176-3.468-4.967-3.786-.77-11.57 2.486l.002-.012Z" fill="#282828"/><path d="M188.013 383.581c-27.246 11.369-34.756 12.009-48.919 8.754-14.161-3.267-19.06 2.039-19.06 2.039s-6.59 3.204 26.364 23.69c32.955 20.485 46.241-4.781 46.241-4.781s10.405-27.215 6.942-32.176c-3.468-4.967-3.786-.77-11.57 2.486l.002-.012Z" fill="#000"/><path d="M135.99 391.727s-5.99 6.217 9.918 11.505c2.675.89 5.321-.927 5.509-3.739.096-1.438.197-3.233.293-5.453l-7.83-.726-7.89-1.587ZM165.129 391.98c.075 6.181.27 3.396.077 6.392-.12 1.864 1.798 3.123 3.422 2.201 4.027-2.286 10.422-6.297 14.333-10.666l6.042-6.751-11.618 4.728-12.256 4.096ZM179.749 368.447c11.268-3.333 17.951-14.317 14.928-24.532-3.022-10.215-14.607-15.794-25.875-12.46-11.267 3.334-17.951 14.317-14.928 24.533 3.023 10.215 14.608 15.793 25.875 12.459Z" fill="#fff"/><path d="M176.886 358.772c4.616-1.366 7.253-6.21 5.889-10.82-1.364-4.609-6.212-7.239-10.829-5.873-4.616 1.366-7.253 6.21-5.889 10.819 1.364 4.61 6.213 7.24 10.829 5.874Z" fill="#1D1D1B"/><path d="M167.265 352.541s2.743-1.271 2.875-2.117c0 0 1.61 2.18 1.82 2.319 0 0-1.964 3.036-2.605 2.956-.641-.079-2.087-3.148-2.087-3.148l-.003-.01ZM142.338 371.997c11.04-3.267 17.588-14.029 14.626-24.04-2.963-10.01-14.313-15.477-25.353-12.21-11.039 3.266-17.587 14.029-14.625 24.039 2.962 10.01 14.313 15.477 25.352 12.211Z" fill="#fff"/><path d="M139.533 362.517c4.525-1.339 7.11-6.087 5.773-10.606-1.338-4.518-6.09-7.096-10.615-5.757-4.525 1.339-7.11 6.087-5.773 10.606 1.337 4.518 6.09 7.096 10.615 5.757Z" fill="#1D1D1B"/><path d="M130.095 356.412s2.695-1.246 2.819-2.079c0 0 1.574 2.135 1.784 2.274 0 0-1.927 2.969-2.555 2.897-.627-.073-2.048-3.092-2.048-3.092Z" fill="#fff"/><path d="M74.566 318.68a3.23 3.23 0 0 1 2.792-2.765l128.325-16.347c1.57-.2 3.053.766 3.502 2.282l4.35 14.702a3.226 3.226 0 0 1-2.661 4.11L75.907 339.094c-2.115.289-3.922-1.515-3.633-3.628l2.292-16.786Z" fill="#D33737"/></g><g filter="url(#e)"><path d="M243.901 330.914c6.015 54.012-31.831 102.241-84.111 108.063-52.28 5.822-99.81-32.898-105.825-86.91-6.015-54.012 31.832-102.241 84.111-108.063 52.28-5.823 99.81 32.898 105.825 86.91Z" fill="#C7E1FF" fill-opacity=".25" stroke="#fff" stroke-width="15"/><path d="M164.82 263.769c16.587 2.905 37.013 17.28 45.785 31.413" stroke="#fff" stroke-width="8" stroke-linecap="round"/><ellipse cx="13.332" cy="39.889" rx="13.332" ry="39.889" transform="matrix(-.98799 .15453 .23812 .97124 52.066 334.44)" fill="#D7D7D7"/><ellipse cx="11.497" cy="39.889" rx="11.497" ry="39.889" transform="matrix(-.98799 .15453 .23812 .97124 47.645 334.104)" fill="#fff"/><ellipse cx="13.332" cy="39.889" rx="13.332" ry="39.889" transform="matrix(.9262 -.37704 .29678 .95495 222.5 267.385)" fill="#D7D7D7"/><ellipse cx="11.497" cy="39.889" rx="11.497" ry="39.889" transform="matrix(.9262 -.37704 .29678 .95495 226.117 264.817)" fill="#fff"/></g><defs><filter id="a" x="62" y="279" width="555.479" height="554.067" filterUnits="userSpaceOnUse" color-interpolation-filters="sRGB"><feFlood flood-opacity="0" result="BackgroundImageFix"/><feColorMatrix in="SourceAlpha" values="0 0 0 0 0 0 0 0 0 0 0 0 0 0 0 0 0 0 127 0" result="hardAlpha"/><feOffset dy="4"/><feGaussianBlur stdDeviation="2"/><feComposite in2="hardAlpha" operator="out"/><feColorMatrix values="0 0 0 0 0 0 0 0 0 0 0 0 0 0 0 0 0 0 0.25 0"/><feBlend in2="BackgroundImageFix" result="effect1_dropShadow_5578_46417"/><feBlend in="SourceGraphic" in2="effect1_dropShadow_5578_46417" result="shape"/></filter><filter id="c" x="164" y="0" width="220.973" height="167.122" filterUnits="userSpaceOnUse" color-interpolation-filters="sRGB"><feFlood flood-opacity="0" result="BackgroundImageFix"/><feColorMatrix in="SourceAlpha" values="0 0 0 0 0 0 0 0 0 0 0 0 0 0 0 0 0 0 127 0" result="hardAlpha"/><feOffset dy="4"/><feGaussianBlur stdDeviation="2"/><feComposite in2="hardAlpha" operator="out"/><feColorMatrix values="0 0 0 0 0 0 0 0 0 0 0 0 0 0 0 0 0 0 0.25 0"/><feBlend in2="BackgroundImageFix" result="effect1_dropShadow_5578_46417"/><feBlend in="SourceGraphic" in2="effect1_dropShadow_5578_46417" result="shape"/></filter><filter id="d" x="62.244" y="259.497" width="196.211" height="245.09" filterUnits="userSpaceOnUse" color-interpolation-filters="sRGB"><feFlood flood-opacity="0" result="BackgroundImageFix"/><feColorMatrix in="SourceAlpha" values="0 0 0 0 0 0 0 0 0 0 0 0 0 0 0 0 0 0 127 0" result="hardAlpha"/><feOffset/><feGaussianBlur stdDeviation="5"/><feComposite in2="hardAlpha" operator="out"/><feColorMatrix values="0 0 0 0 0 0 0 0 0 0 0 0 0 0 0 0 0 0 0.31 0"/><feBlend in2="BackgroundImageFix" result="effect1_dropShadow_5578_46417"/><feBlend in="SourceGraphic" in2="effect1_dropShadow_5578_46417" result="shape"/></filter><filter id="e" x="20.977" y="225.923" width="253.551" height="231.135" filterUnits="userSpaceOnUse" color-interpolation-filters="sRGB"><feFlood flood-opacity="0" result="BackgroundImageFix"/><feColorMatrix in="SourceAlpha" values="0 0 0 0 0 0 0 0 0 0 0 0 0 0 0 0 0 0 127 0" result="hardAlpha"/><feOffset/><feGaussianBlur stdDeviation="5"/><feComposite in2="hardAlpha" operator="out"/><feColorMatrix values="0 0 0 0 0 0 0 0 0 0 0 0 0 0 0 0 0 0 0.31 0"/><feBlend in2="BackgroundImageFix" result="effect1_dropShadow_5578_46417"/><feBlend in="SourceGraphic" in2="effect1_dropShadow_5578_46417" result="shape"/></filter><clipPath id="b"><path fill="#fff" transform="rotate(-77.094 157.066 -47.21)" d="M0 0h119.451v191.121H0z"/></clipPath></defs></svg>