<svg width="278" height="284" fill="none" xmlns="http://www.w3.org/2000/svg"><g filter="url(#a)"><path d="M275.74 275.722c0 75.008-60.804 135.812-135.812 135.812a135.705 135.705 0 0 1-125.505-83.82 135.694 135.694 0 0 1-10.306-51.992c0-75 60.804-135.811 135.811-135.811a135.786 135.786 0 0 1 125.479 83.835 135.813 135.813 0 0 1 10.333 51.976Z" fill="#939393" style="mix-blend-mode:multiply" opacity=".75"/><path d="M273.622 274.311c0 75.008-60.803 135.811-135.811 135.811a135.696 135.696 0 0 1-96.068-39.743A135.69 135.69 0 0 1 2 274.311c0-75 60.803-135.811 135.811-135.811a135.786 135.786 0 0 1 125.479 83.835 135.79 135.79 0 0 1 10.332 51.976Z" fill="#FFE8D6"/><path d="M218.118 164.778c-31.146 0-62.321 9.42-88.033 27.046-33.666 23.06-57.565 59.907-64.861 100.079-6.668 36.621.557 75.551 19.665 107.515A135.831 135.831 0 0 1 2 274.311c0-75 60.803-135.811 135.811-135.811a135.175 135.175 0 0 1 80.307 26.278Z" fill="#F2DDCB"/><path d="M42.504 257.871c7.023 0 12.716-4.527 12.716-10.112 0-5.584-5.693-10.112-12.716-10.112-7.022 0-12.715 4.528-12.715 10.112 0 5.585 5.693 10.112 12.715 10.112Z" fill="#939393" style="mix-blend-mode:multiply" opacity=".58"/><path d="M40.387 256.459c7.023 0 12.715-4.527 12.715-10.111 0-5.585-5.692-10.112-12.715-10.112-7.022 0-12.715 4.527-12.715 10.112 0 5.584 5.693 10.111 12.715 10.111Z" fill="#E6C9B3"/><path d="M60.13 275.215a4.911 4.911 0 1 0 0-9.822 4.911 4.911 0 0 0 0 9.822Z" fill="#939393" style="mix-blend-mode:multiply" opacity=".58"/><path d="M58.013 273.804a4.911 4.911 0 1 0 0-9.822 4.911 4.911 0 0 0 0 9.822Z" fill="#E6C9B3"/><path d="M144.804 154.998c11.173 0 20.231-2.458 20.231-5.49s-9.058-5.489-20.231-5.489c-11.172 0-20.23 2.457-20.23 5.489s9.058 5.49 20.23 5.49Z" fill="#939393" style="mix-blend-mode:multiply" opacity=".58"/><path d="M142.687 153.587c11.173 0 20.23-2.458 20.23-5.49s-9.057-5.49-20.23-5.49-20.23 2.458-20.23 5.49 9.057 5.49 20.23 5.49Z" fill="#E6C9B3"/><path d="M171.242 240.483c3.486-14.921-5.784-29.843-20.706-33.329-14.921-3.486-29.843 5.784-33.329 20.705-3.486 14.922 5.784 29.844 20.705 33.33 14.921 3.486 29.844-5.784 33.33-20.706Z" fill="#939393" style="mix-blend-mode:multiply" opacity=".58"/><path d="M169.124 239.07c3.486-14.921-5.784-29.843-20.705-33.329-14.921-3.486-29.844 5.784-33.33 20.705-3.486 14.922 5.785 29.844 20.706 33.33 14.921 3.486 29.843-5.784 33.329-20.706Z" fill="#E6C9B3"/><path d="M133.485 279.675a4.46 4.46 0 1 1-4.459-4.459 4.468 4.468 0 0 1 1.708.337 4.46 4.46 0 0 1 2.751 4.122Z" fill="#939393" style="mix-blend-mode:multiply" opacity=".58"/><path d="M131.368 278.263a4.462 4.462 0 0 1-2.753 4.12 4.454 4.454 0 0 1-4.86-.966 4.467 4.467 0 0 1-.966-4.86 4.458 4.458 0 0 1 5.827-2.416 4.454 4.454 0 0 1 2.752 4.122Z" fill="#E6C9B3"/><path d="M209.821 275.215a4.91 4.91 0 1 0 0-9.821 4.91 4.91 0 0 0 0 9.821Z" fill="#939393" style="mix-blend-mode:multiply" opacity=".58"/><path d="M207.704 273.804a4.911 4.911 0 1 0 0-9.823 4.911 4.911 0 0 0 0 9.823Z" fill="#E6C9B3"/><path d="M90.74 189.947c3.5-3.5 3.5-9.174 0-12.673a8.96 8.96 0 0 0-12.673 0 8.961 8.961 0 0 0 0 12.673 8.96 8.96 0 0 0 12.674 0Z" fill="#939393" style="mix-blend-mode:multiply" opacity=".58"/><path d="M88.627 188.534c3.5-3.5 3.5-9.174 0-12.673a8.96 8.96 0 0 0-12.673 0 8.96 8.96 0 0 0 0 12.673 8.96 8.96 0 0 0 12.673 0Z" fill="#E6C9B3"/><path d="M101.119 218.214a2.44 2.44 0 0 1-1.5 2.255 2.433 2.433 0 0 1-3.182-3.182 2.437 2.437 0 0 1 3.971-.789c.455.455.711 1.073.711 1.716Z" fill="#939393" style="mix-blend-mode:multiply" opacity=".58"/><path d="M99.002 216.803a2.434 2.434 0 1 1-2.428-2.427 2.428 2.428 0 0 1 2.428 2.427Z" fill="#E6C9B3"/><path d="M206.645 210.481c6.702 0 12.136-5.433 12.136-12.136 0-6.703-5.434-12.137-12.136-12.137-6.703 0-12.137 5.434-12.137 12.137s5.434 12.136 12.137 12.136Z" fill="#939393" style="mix-blend-mode:multiply" opacity=".58"/><path d="M204.527 209.07c6.703 0 12.137-5.433 12.137-12.136 0-6.703-5.434-12.137-12.137-12.137s-12.136 5.434-12.136 12.137 5.433 12.136 12.136 12.136Z" fill="#E6C9B3"/></g><path d="M173.914 159.877c3.914 8.272 14.712 19.188 26.588-3.324 14.845-28.139-3.545-34.121 2.659-54.727 6.204-20.606 16.839-26.145 8.42-33.9-6.736-6.204-10.192-14.402-11.079-17.726" stroke="#fff" stroke-width="2.5"/><g clip-path="url(#b)" filter="url(#c)"><path d="M189.688 55.062a14.43 14.43 0 0 0 14.077 13.782c.612.015 1.44-.275 1.331-.867.099-.305.145-.506.244-.811a8.356 8.356 0 0 1-4.95-4.581 8.362 8.362 0 0 1 .041-6.745M197.821 24.08a14.426 14.426 0 0 1 19.029-5.092c.54.287 1.13.95.726 1.409l-.189.826a8.365 8.365 0 0 0-8.822 4.163 8.368 8.368 0 0 0-1.017 3.293M171.122 24.83c-6.35 2.575-10.139 5.892-10.139 5.892s1.652 4.695 5.863 10.02a21.585 21.585 0 0 0 4.276-15.912Z" fill="#D33737"/><path d="M171.124 24.83a21.585 21.585 0 0 1-4.276 15.912c6.125 7.742 17.667 16.813 37.438 14.728l3.285-12.519 3.286-12.519c-16.133-11.483-30.589-9.31-39.733-5.602Z" fill="#fff"/><path d="M215.681 52.454a15.203 15.203 0 0 0 12.638 5.43l-4.999-4.927a27.625 27.625 0 0 0 22.724-1.332 30.454 30.454 0 0 0-12.277-9.987l3.406.356c-3.751-5.271-11.187-7.56-17.252-5.318" fill="#FF9324"/><path d="M215.933 49.422a8.38 8.38 0 0 0 4.983 3.723l-1.502-4.345a27.647 27.647 0 0 0 17.206 1.044 34.933 34.933 0 0 0-12.443-6.663l6.496.335a12.808 12.808 0 0 0-11.663-3.83" fill="#FD0"/><path d="M185.174 27.755a9.14 9.14 0 0 0-12.085 4.587 9.14 9.14 0 0 0 4.587 12.086 9.14 9.14 0 0 0 12.085-4.587 9.14 9.14 0 0 0-4.587-12.086Z" fill="#424242"/><path d="M183.144 29.543a6.77 6.77 0 0 1 4.844 8.272 6.898 6.898 0 0 1-.593 1.518 6.74 6.74 0 0 1-2.205 2.404 6.849 6.849 0 0 1-3.424 1.125 6.772 6.772 0 0 1-6.485-9.574 6.718 6.718 0 0 1 2.316-2.76 6.756 6.756 0 0 1 5.562-.979l-.015-.006Z" fill="#A1DDFF"/><path d="m214.84 56.386-9.32-5.672 4.319-16.451 10.904-.364-5.903 22.487Z" fill="#fff"/><path d="m205.519 50.714 4.318-16.451 2.337-.078-4.673 17.804-1.982-1.275Z" fill="#BABABA"/><path d="m180.633 29.367 6.746 9.963a6.74 6.74 0 0 1-2.205 2.404l-7.592-11.213a6.742 6.742 0 0 1 3.051-1.154ZM176.18 31.807l7.277 10.736a6.642 6.642 0 0 1-1.707.307l-6.485-9.574a6.51 6.51 0 0 1 .915-1.469Z" fill="#fff"/><path d="M214.987 43.312a1.619 1.619 0 0 1-.78 2.976c-7.074.418-22.124-.347-20.392-6.943 1.732-6.595 15.219.123 21.172 3.967Z" fill="#D33737"/></g><ellipse cx="138.171" cy="146.736" rx="51.343" ry="52.788" transform="rotate(-6.355 138.171 146.736)" fill="#C1C1C1"/><g filter="url(#d)"><path d="M125.897 112.175c-18.238 5.396-28.654 24.533-23.265 42.744l18.981 64.143c1.371 3.222 5.018 4.959 8.461 3.941a6.992 6.992 0 0 0 4.91-7.897l.087-.025c1.356 3.225 4.85 5.008 8.161 4.029 3.31-.98 5.271-4.377 4.654-7.821l.086-.026a6.994 6.994 0 0 0 8.417 3.954 6.993 6.993 0 0 0 4.91-7.897l.087-.025c1.356 3.226 4.85 5.008 8.16 4.029 3.311-.98 5.272-4.377 4.654-7.821l.087-.025a6.993 6.993 0 0 0 8.417 3.953c3.442-1.019 5.557-4.461 4.954-7.91l-18.981-64.143c-5.389-18.211-24.542-28.599-42.78-23.203Z" fill="#E6E6E6"/><path d="M157.539 167.791c-13.623 5.685-17.378 6.004-24.459 4.377-7.081-1.634-9.53 1.019-9.53 1.019s-3.295 1.602 13.182 11.845c12.672 7.878 17.154 4.446 23.12-2.39 4.229-4.846 5.203-13.608 3.471-16.088-1.734-2.484-1.893-.385-5.785 1.243l.001-.006Z" fill="#282828"/><path d="M157.539 167.791c-13.623 5.685-17.378 6.004-24.459 4.377-7.081-1.634-9.53 1.019-9.53 1.019s-3.295 1.602 13.182 11.845 23.12-2.39 23.12-2.39 5.203-13.608 3.471-16.088c-1.734-2.484-1.893-.385-5.785 1.243l.001-.006Z" fill="#000"/><path d="M131.527 171.864s-2.994 3.108 4.96 5.753c1.337.444 2.66-.464 2.754-1.87.048-.719.099-1.617.147-2.727l-3.915-.362-3.946-.794ZM146.097 171.99c.038 3.091.135 1.699.039 3.197-.061.931.899 1.561 1.711 1.1 2.013-1.143 5.211-3.148 7.166-5.333l3.021-3.376-5.809 2.364-6.128 2.048ZM153.407 160.224c5.634-1.667 8.976-7.159 7.464-12.266-1.511-5.108-7.303-7.897-12.937-6.23-5.634 1.667-8.976 7.159-7.464 12.266 1.511 5.108 7.304 7.897 12.937 6.23Z" fill="#fff"/><path d="M151.976 155.386a4.355 4.355 0 0 0 2.944-5.41 4.355 4.355 0 0 0-5.414-2.936 4.356 4.356 0 0 0-2.945 5.41 4.356 4.356 0 0 0 5.415 2.936Z" fill="#1D1D1B"/><path d="M147.165 152.271s1.372-.636 1.438-1.059c0 0 .805 1.09.91 1.16 0 0-.982 1.518-1.303 1.478-.32-.04-1.043-1.574-1.043-1.574l-.002-.005ZM134.702 161.999c5.52-1.633 8.794-7.015 7.312-12.02-1.481-5.005-7.156-7.738-12.676-6.105-5.52 1.633-8.793 7.014-7.312 12.019 1.481 5.005 7.156 7.739 12.676 6.106Z" fill="#fff"/><path d="M133.299 157.259a4.269 4.269 0 0 0 2.886-5.303 4.27 4.27 0 0 0-5.307-2.879 4.269 4.269 0 0 0-2.886 5.303 4.27 4.27 0 0 0 5.307 2.879Z" fill="#1D1D1B"/><path d="M128.58 154.206s1.348-.623 1.41-1.039c0 0 .787 1.067.892 1.137 0 0-.964 1.484-1.278 1.448-.313-.036-1.024-1.546-1.024-1.546Z" fill="#fff"/><path d="M100.816 135.34a1.613 1.613 0 0 1 1.396-1.382l64.162-8.174c.785-.1 1.527.383 1.751 1.141l2.175 7.351a1.613 1.613 0 0 1-1.33 2.056l-67.484 9.215a1.611 1.611 0 0 1-1.817-1.813l1.147-8.394Z" fill="#D33737"/></g><g filter="url(#e)"><path d="M185.483 141.457c3.008 27.006-15.915 51.121-42.055 54.032-26.14 2.911-49.905-16.449-52.913-43.455-3.007-27.006 15.916-51.121 42.056-54.032 26.14-2.91 49.905 16.449 52.912 43.455Z" fill="#C7E1FF" fill-opacity=".25" stroke="#fff" stroke-width="7.5"/><path d="M145.941 107.885c8.293 1.452 18.506 8.64 22.892 15.706" stroke="#fff" stroke-width="4" stroke-linecap="round"/><ellipse cx="6.666" cy="19.944" rx="6.666" ry="19.944" transform="matrix(-.98799 .15453 .23812 .97124 89.566 143.219)" fill="#D7D7D7"/><ellipse cx="5.748" cy="19.944" rx="5.748" ry="19.944" transform="matrix(-.98799 .15453 .23812 .97124 87.355 143.051)" fill="#fff"/><ellipse cx="6.666" cy="19.944" rx="6.666" ry="19.944" transform="matrix(.9262 -.37704 .29678 .95495 174.769 109.691)" fill="#D7D7D7"/><ellipse cx="5.748" cy="19.944" rx="5.748" ry="19.944" transform="matrix(.9262 -.37704 .29678 .95495 176.578 108.407)" fill="#fff"/></g><defs><filter id="a" x="0" y="138.5" width="277.74" height="277.033" filterUnits="userSpaceOnUse" color-interpolation-filters="sRGB"><feFlood flood-opacity="0" result="BackgroundImageFix"/><feColorMatrix in="SourceAlpha" values="0 0 0 0 0 0 0 0 0 0 0 0 0 0 0 0 0 0 127 0" result="hardAlpha"/><feOffset dy="2"/><feGaussianBlur stdDeviation="1"/><feComposite in2="hardAlpha" operator="out"/><feColorMatrix values="0 0 0 0 0 0 0 0 0 0 0 0 0 0 0 0 0 0 0.25 0"/><feBlend in2="BackgroundImageFix" result="effect1_dropShadow_5578_46418"/><feBlend in="SourceGraphic" in2="effect1_dropShadow_5578_46418" result="shape"/></filter><filter id="c" x="145.531" y="0" width="110.487" height="83.561" filterUnits="userSpaceOnUse" color-interpolation-filters="sRGB"><feFlood flood-opacity="0" result="BackgroundImageFix"/><feColorMatrix in="SourceAlpha" values="0 0 0 0 0 0 0 0 0 0 0 0 0 0 0 0 0 0 127 0" result="hardAlpha"/><feOffset dy="2"/><feGaussianBlur stdDeviation="1"/><feComposite in2="hardAlpha" operator="out"/><feColorMatrix values="0 0 0 0 0 0 0 0 0 0 0 0 0 0 0 0 0 0 0.25 0"/><feBlend in2="BackgroundImageFix" result="effect1_dropShadow_5578_46418"/><feBlend in="SourceGraphic" in2="effect1_dropShadow_5578_46418" result="shape"/></filter><filter id="d" x="94.654" y="105.749" width="98.106" height="122.545" filterUnits="userSpaceOnUse" color-interpolation-filters="sRGB"><feFlood flood-opacity="0" result="BackgroundImageFix"/><feColorMatrix in="SourceAlpha" values="0 0 0 0 0 0 0 0 0 0 0 0 0 0 0 0 0 0 127 0" result="hardAlpha"/><feOffset/><feGaussianBlur stdDeviation="2.5"/><feComposite in2="hardAlpha" operator="out"/><feColorMatrix values="0 0 0 0 0 0 0 0 0 0 0 0 0 0 0 0 0 0 0.31 0"/><feBlend in2="BackgroundImageFix" result="effect1_dropShadow_5578_46418"/><feBlend in="SourceGraphic" in2="effect1_dropShadow_5578_46418" result="shape"/></filter><filter id="e" x="74.021" y="88.962" width="126.762" height="115.567" filterUnits="userSpaceOnUse" color-interpolation-filters="sRGB"><feFlood flood-opacity="0" result="BackgroundImageFix"/><feColorMatrix in="SourceAlpha" values="0 0 0 0 0 0 0 0 0 0 0 0 0 0 0 0 0 0 127 0" result="hardAlpha"/><feOffset/><feGaussianBlur stdDeviation="2.5"/><feComposite in2="hardAlpha" operator="out"/><feColorMatrix values="0 0 0 0 0 0 0 0 0 0 0 0 0 0 0 0 0 0 0.31 0"/><feBlend in2="BackgroundImageFix" result="effect1_dropShadow_5578_46418"/><feBlend in="SourceGraphic" in2="effect1_dropShadow_5578_46418" result="shape"/></filter><clipPath id="b"><path fill="#fff" transform="rotate(-77.094 110.298 -63.472)" d="M0 0h59.725v95.561H0z"/></clipPath></defs></svg>