<svg width="472" height="622" fill="none" xmlns="http://www.w3.org/2000/svg"><g filter="url(#a)"><path d="M547.648 303.303c73.056 102.983 41.667 252.814-70.109 334.663-26.569 19.488-56.308 33.959-87.516 42.584-31.207 8.625-63.27 11.235-94.354 7.681-31.084-3.554-60.579-13.203-86.797-28.394-26.218-15.191-48.644-35.627-65.996-60.137-73.048-102.973-41.667-252.814 70.11-334.663 26.576-19.466 56.315-33.918 87.518-42.53 31.203-8.613 63.259-11.216 94.336-7.663 31.078 3.554 60.568 13.195 86.788 28.373 26.219 15.178 48.653 35.595 66.02 60.086Z" fill="#939393" style="mix-blend-mode:multiply" opacity=".75"/><path d="M543.16 303.465c73.055 102.983 41.667 252.814-70.109 334.663-26.569 19.488-56.308 33.959-87.516 42.584-31.207 8.625-63.27 11.235-94.354 7.681-31.084-3.555-60.579-13.203-86.797-28.394-26.218-15.192-48.644-35.627-65.996-60.137-73.049-102.974-41.667-252.814 70.109-334.663 26.576-19.466 56.315-33.918 87.518-42.531 31.203-8.612 63.259-11.216 94.337-7.662 31.077 3.553 60.568 13.195 86.787 28.373 26.219 15.178 48.653 35.595 66.021 60.086Z" fill="#FFE8D6"/><path d="M355.327 213.515c-46.623 34.138-84.072 81.299-105.317 133.792-27.832 68.701-27.557 145.714.824 209.112 25.848 57.814 74.751 103.582 134.628 126.721-46.972 12.593-95.398 11.561-139.233-2.966-43.836-14.527-81.137-41.905-107.246-78.717-73.378-103.434-41.856-253.945 70.423-336.159 43.198-31.73 94.337-49.878 145.921-51.783Z" fill="#F2DDCB"/><path d="M155.869 547.977c10.41-7.62 14.462-19.979 9.051-27.604s-18.236-7.629-28.646-.009c-10.409 7.62-14.462 19.979-9.051 27.604s18.236 7.629 28.646.009Z" fill="#939393" style="mix-blend-mode:multiply" opacity=".58"/><path d="M151.381 548.141c10.41-7.62 14.462-19.979 9.051-27.604s-18.236-7.629-28.646-.009c-10.41 7.62-14.462 19.979-9.051 27.604s18.236 7.629 28.646.009Z" fill="#E6C9B3"/><path d="M199.362 555.011c4.042-2.959 5.177-8.378 2.535-12.102-2.642-3.724-8.06-4.343-12.102-1.383-4.042 2.959-5.177 8.378-2.535 12.102 2.642 3.724 8.06 4.343 12.102 1.383Z" fill="#939393" style="mix-blend-mode:multiply" opacity=".58"/><path d="M194.875 555.176c4.042-2.96 5.177-8.378 2.536-12.102-2.642-3.724-8.06-4.344-12.102-1.384-4.042 2.96-5.177 8.378-2.535 12.102 2.641 3.724 8.06 4.343 12.101 1.384Z" fill="#E6C9B3"/><path d="M227.231 273.021c16.245-11.827 27.074-24.693 24.188-28.738-2.886-4.046-18.395 2.263-34.64 14.089-16.245 11.827-27.074 24.694-24.188 28.739 2.886 4.045 18.395-2.263 34.64-14.09Z" fill="#939393" style="mix-blend-mode:multiply" opacity=".58"/><path d="M222.742 273.185c16.245-11.828 27.075-24.694 24.19-28.739-2.886-4.044-18.395 2.265-34.64 14.092-16.246 11.827-27.076 24.694-24.19 28.738 2.886 4.045 18.395-2.264 34.64-14.091Z" fill="#E6C9B3"/><path d="M355.481 366.984c-9.446-24.009-38.122-34.261-64.049-22.897-25.927 11.363-39.287 40.039-29.841 64.049 9.447 24.009 38.122 34.261 64.049 22.897 25.927-11.363 39.287-40.039 29.841-64.049Z" fill="#939393" style="mix-blend-mode:multiply" opacity=".58"/><path d="M350.991 367.143c-9.447-24.01-38.122-34.262-64.049-22.898-25.927 11.363-39.287 40.039-29.841 64.049 9.446 24.009 38.122 34.261 64.049 22.897 25.927-11.363 39.287-40.039 29.841-64.048Z" fill="#E6C9B3"/><path d="M340.373 463.544c.859 1.211 1.309 2.68 1.293 4.222-.016 1.541-.497 3.086-1.383 4.439a9.02 9.02 0 0 1-3.592 3.16c-1.457.708-3.055.992-4.591.816-1.537-.176-2.944-.803-4.043-1.803a6.929 6.929 0 0 1-2.132-3.815c-.29-1.487-.117-3.067.499-4.54a8.912 8.912 0 0 1 2.96-3.735 8.838 8.838 0 0 1 2.873-1.4 8.144 8.144 0 0 1 3.099-.253 7.326 7.326 0 0 1 2.851.933 6.855 6.855 0 0 1 2.166 1.976Z" fill="#939393" style="mix-blend-mode:multiply" opacity=".58"/><path d="M335.883 463.707c.859 1.211 1.309 2.68 1.293 4.222-.016 1.542-.497 3.086-1.383 4.439a9.018 9.018 0 0 1-3.592 3.16c-1.457.708-3.055.992-4.592.816-1.537-.176-2.943-.803-4.042-1.803a6.929 6.929 0 0 1-2.132-3.815c-.29-1.487-.117-3.067.499-4.54a8.904 8.904 0 0 1 2.96-3.735 8.829 8.829 0 0 1 2.873-1.4 8.144 8.144 0 0 1 3.099-.253 7.333 7.333 0 0 1 2.85.933 6.87 6.87 0 0 1 2.167 1.976Z" fill="#E6C9B3"/><path d="M246.462 619.931a3.93 3.93 0 0 1 .712 2.325 4.573 4.573 0 0 1-.761 2.444 4.962 4.962 0 0 1-1.978 1.74 4.601 4.601 0 0 1-2.528.449 3.953 3.953 0 0 1-2.226-.992 3.81 3.81 0 0 1-1.174-2.101 4.335 4.335 0 0 1 .274-2.5 4.918 4.918 0 0 1 3.213-2.825 4.493 4.493 0 0 1 1.705-.139 4.045 4.045 0 0 1 1.569.513c.474.274.88.644 1.194 1.086Z" fill="#939393" style="mix-blend-mode:multiply" opacity=".58"/><path d="M241.974 620.096a3.93 3.93 0 0 1 .712 2.325 4.575 4.575 0 0 1-.761 2.444 4.966 4.966 0 0 1-1.979 1.74 4.6 4.6 0 0 1-2.528.449 3.958 3.958 0 0 1-2.226-.993 3.809 3.809 0 0 1-1.173-2.1 4.335 4.335 0 0 1 .274-2.5 4.91 4.91 0 0 1 1.63-2.057c.97-.711 2.153-1.037 3.288-.907 1.135.13 2.129.705 2.763 1.599Z" fill="#E6C9B3"/><path d="M484.983 507.09c11.417-8.361 14.624-23.666 7.161-34.185-7.462-10.519-22.767-12.269-34.184-3.909-11.417 8.361-14.624 23.666-7.161 34.185 7.462 10.519 22.767 12.269 34.184 3.909Z" fill="#939393" style="mix-blend-mode:multiply" opacity=".58"/><path d="M480.491 507.25c11.417-8.361 14.623-23.665 7.161-34.185-7.462-10.519-22.767-12.269-34.184-3.908-11.418 8.36-14.624 23.665-7.162 34.184 7.463 10.519 22.768 12.269 34.185 3.909Z" fill="#E6C9B3"/><path d="M429.137 600.217c.859 1.212 1.309 2.682 1.293 4.224-.017 1.542-.498 3.087-1.385 4.44a9.01 9.01 0 0 1-3.595 3.159c-1.457.707-3.056.99-4.593.813-1.537-.177-2.944-.806-4.042-1.807a6.925 6.925 0 0 1-2.128-3.818c-.289-1.489-.113-3.069.505-4.542a8.922 8.922 0 0 1 2.966-3.733 8.861 8.861 0 0 1 2.872-1.395 8.146 8.146 0 0 1 3.096-.249 7.326 7.326 0 0 1 2.847.934 6.865 6.865 0 0 1 2.164 1.974Z" fill="#939393" style="mix-blend-mode:multiply" opacity=".58"/><path d="M424.646 600.379c.86 1.212 1.31 2.681 1.293 4.223-.016 1.543-.498 3.088-1.384 4.441a9.017 9.017 0 0 1-3.595 3.159c-1.458.707-3.056.99-4.593.813-1.537-.177-2.944-.806-4.042-1.807a6.931 6.931 0 0 1-2.128-3.819c-.289-1.488-.113-3.068.505-4.541a8.914 8.914 0 0 1 2.966-3.733 8.841 8.841 0 0 1 2.872-1.395 8.146 8.146 0 0 1 3.096-.249 7.33 7.33 0 0 1 2.847.933 6.864 6.864 0 0 1 2.163 1.975Z" fill="#E6C9B3"/><path d="M303.887 599.016c.859 1.211 1.309 2.68 1.293 4.222-.016 1.542-.497 3.086-1.383 4.439a9.025 9.025 0 0 1-3.592 3.16c-1.457.708-3.055.992-4.592.816-1.537-.176-2.944-.803-4.043-1.803a6.933 6.933 0 0 1-2.131-3.815c-.291-1.487-.117-3.067.498-4.54a8.914 8.914 0 0 1 2.961-3.735c1.762-1.291 3.91-1.884 5.971-1.648s3.866 1.28 5.018 2.904Z" fill="#939393" style="mix-blend-mode:multiply" opacity=".58"/><path d="M299.398 599.179c.859 1.211 1.309 2.681 1.293 4.222-.015 1.542-.497 3.087-1.382 4.439a9.02 9.02 0 0 1-3.593 3.16c-1.456.708-3.054.992-4.591.816-1.537-.176-2.944-.803-4.043-1.803a6.924 6.924 0 0 1-2.131-3.815c-.291-1.487-.117-3.067.498-4.54a8.92 8.92 0 0 1 2.96-3.735c1.763-1.291 3.911-1.883 5.972-1.648 2.06.236 3.865 1.281 5.017 2.904Z" fill="#E6C9B3"/><path d="M444.555 378.359c4.042-2.96 5.177-8.378 2.535-12.102-2.641-3.724-8.06-4.343-12.102-1.384-4.041 2.96-5.177 8.378-2.535 12.102 2.642 3.724 8.06 4.344 12.102 1.384Z" fill="#939393" style="mix-blend-mode:multiply" opacity=".58"/><path d="M440.067 378.524c4.042-2.96 5.177-8.378 2.535-12.102-2.642-3.724-8.06-4.344-12.102-1.384-4.042 2.96-5.177 8.378-2.535 12.102 2.642 3.724 8.06 4.343 12.102 1.384Z" fill="#E6C9B3"/><path d="M185.686 378.73c1.737-8.996-3.574-17.123-11.863-18.152-8.288-1.029-16.415 5.429-18.151 14.425-1.737 8.996 3.574 17.122 11.862 18.151 8.289 1.03 16.415-5.429 18.152-14.424Z" fill="#939393" style="mix-blend-mode:multiply" opacity=".58"/><path d="M150.409 401.076c1.736-8.994-3.578-17.121-11.868-18.152-8.289-1.031-16.416 5.424-18.151 14.418-1.735 8.994 3.578 17.121 11.868 18.152 8.29 1.031 16.416-5.424 18.151-14.418Z" fill="#E6C9B3"/><path d="M230.473 409.037c.472.66.72 1.462.713 2.305a4.527 4.527 0 0 1-.751 2.427 4.92 4.92 0 0 1-1.962 1.729 4.57 4.57 0 0 1-2.509.447 3.924 3.924 0 0 1-2.209-.987 3.778 3.778 0 0 1-1.163-2.086 4.307 4.307 0 0 1 .277-2.481 4.863 4.863 0 0 1 1.623-2.038c.959-.703 2.128-1.025 3.25-.897 1.122.128 2.104.697 2.731 1.581Z" fill="#939393" style="mix-blend-mode:multiply" opacity=".58"/><path d="M225.983 409.201c.472.66.72 1.462.713 2.305a4.528 4.528 0 0 1-.752 2.427 4.925 4.925 0 0 1-1.961 1.729 4.564 4.564 0 0 1-2.51.446 3.925 3.925 0 0 1-2.209-.986 3.783 3.783 0 0 1-1.162-2.086 4.298 4.298 0 0 1 .277-2.481 4.869 4.869 0 0 1 1.622-2.038c.96-.703 2.129-1.025 3.251-.897 1.121.128 2.104.697 2.731 1.581Z" fill="#E6C9B3"/><path d="M372.786 288.49c9.989-7.314 12.794-20.704 6.266-29.907-6.529-9.203-19.919-10.734-29.907-3.419-9.989 7.314-12.794 20.704-6.266 29.907 6.529 9.202 19.919 10.733 29.907 3.419Z" fill="#939393" style="mix-blend-mode:multiply" opacity=".58"/><path d="M368.3 288.654c9.989-7.314 12.794-20.704 6.265-29.907-6.528-9.203-19.918-10.734-29.907-3.42-9.988 7.314-12.793 20.704-6.265 29.907 6.529 9.203 19.918 10.734 29.907 3.42Z" fill="#E6C9B3"/></g><path d="M204.5 280.829c5.86 12.202 22.024 28.304 39.803-4.902 22.223-41.508-5.307-50.332 3.98-80.728 9.287-30.395 25.209-38.566 12.604-50.005-10.083-9.151-15.257-21.244-16.584-26.146" stroke="#fff" stroke-width="3.55"/><g clip-path="url(#b)" filter="url(#c)"><path d="M228.109 126.22c.244 5.389 2.556 10.485 6.468 14.259a21.764 21.764 0 0 0 14.605 6.07c.916.022 2.156-.406 1.992-1.278.149-.451.218-.747.367-1.197a12.57 12.57 0 0 1-4.428-2.61 12.342 12.342 0 0 1-2.984-4.148 12.177 12.177 0 0 1 .062-9.949M240.284 80.52c2.898-4.576 7.452-7.897 12.74-9.292a21.884 21.884 0 0 1 15.747 1.78c.808.425 1.692 1.402 1.087 2.079l-.283 1.22a12.7 12.7 0 0 0-5.158.13 12.59 12.59 0 0 0-4.666 2.17 12.381 12.381 0 0 0-3.382 3.84 12.199 12.199 0 0 0-1.522 4.858M200.315 81.63c-9.505 3.798-15.179 8.692-15.179 8.692s2.474 6.925 8.778 14.78c5.2-6.682 7.501-15.121 6.401-23.471Z" fill="#D33737"/><path d="M200.316 81.632c1.1 8.35-1.202 16.79-6.401 23.471 9.169 11.42 26.447 24.8 56.045 21.726l4.918-18.467 4.918-18.466c-24.151-16.94-45.792-13.735-59.48-8.264Z" fill="#fff"/><path d="M267.019 122.373a22.746 22.746 0 0 0 8.487 6.234 23.06 23.06 0 0 0 10.432 1.776l-7.483-7.268a41.924 41.924 0 0 0 17.224 2.631 41.829 41.829 0 0 0 16.794-4.596 45.455 45.455 0 0 0-18.379-14.732l5.099.526c-5.614-7.775-16.746-11.153-25.826-7.845" fill="#FF9324"/><path d="M267.4 117.899a12.523 12.523 0 0 0 7.459 5.491l-2.249-6.408a41.968 41.968 0 0 0 25.759 1.539 52.564 52.564 0 0 0-18.628-9.827l9.725.493a19.205 19.205 0 0 0-7.999-5.02 19.45 19.45 0 0 0-9.462-.629" fill="#FD0"/><path d="M221.352 85.942c-6.892-3.054-14.992-.025-18.092 6.766-3.1 6.79-.026 14.772 6.866 17.827 6.892 3.054 14.992.025 18.092-6.766 3.1-6.791.026-14.773-6.866-17.827Z" fill="#424242"/><path d="M218.309 88.577c1.29.33 2.502.908 3.565 1.7a10.027 10.027 0 0 1 2.631 2.918 9.878 9.878 0 0 1 1.295 3.688 9.83 9.83 0 0 1-.239 3.896c-.205.778-.503 1.53-.887 2.239a10.002 10.002 0 0 1-3.302 3.546 10.341 10.341 0 0 1-5.126 1.659 10.257 10.257 0 0 1-5.02-1.042 10.102 10.102 0 0 1-3.859-3.332 9.86 9.86 0 0 1-.829-9.748 9.95 9.95 0 0 1 3.468-4.073 10.188 10.188 0 0 1 4.003-1.62 10.255 10.255 0 0 1 4.324.178l-.024-.009Z" fill="#A1DDFF"/><path d="m265.763 128.172-13.952-8.367 6.465-24.267 16.324-.537-8.837 33.171Z" fill="#fff"/><path d="m251.809 119.807 6.465-24.267 3.497-.114-6.995 26.262-2.967-1.881Z" fill="#BABABA"/><path d="m214.551 88.318 10.1 14.695a10.008 10.008 0 0 1-3.301 3.546l-11.366-16.54a10.18 10.18 0 0 1 4.567-1.701ZM207.887 91.918l10.894 15.836c-.828.261-1.688.413-2.556.454l-9.708-14.123a9.62 9.62 0 0 1 1.37-2.167Z" fill="#fff"/><path d="M265.978 108.89c.431.272.762.671.948 1.14.186.47.216.985.086 1.472a2.377 2.377 0 0 1-.808 1.241 2.439 2.439 0 0 1-1.393.536c-10.59.617-33.119-.511-30.527-10.24 2.593-9.73 22.784.18 31.694 5.851Z" fill="#D33737"/></g><ellipse cx="76.861" cy="79.024" rx="76.861" ry="79.024" transform="rotate(-6.355 2282.012 -315.146)" fill="#C1C1C1"/><g filter="url(#d)"><path d="M115.657 268.938c-27.302 8.078-42.895 36.727-34.828 63.988l28.415 96.024c2.052 4.823 7.512 7.423 12.666 5.899 5.154-1.525 8.254-6.659 7.351-11.821l.13-.039c2.029 4.829 7.26 7.498 12.216 6.032 4.955-1.466 7.892-6.552 6.967-11.708l.129-.038c2.052 4.823 7.446 7.443 12.6 5.918 5.154-1.525 8.254-6.658 7.351-11.821l.129-.038c2.03 4.829 7.261 7.498 12.217 6.031 4.955-1.466 7.892-6.551 6.967-11.707l.129-.039c2.052 4.823 7.446 7.444 12.6 5.919 5.154-1.525 8.32-6.678 7.417-11.841l-28.415-96.023c-8.067-27.262-36.739-42.813-64.041-34.736Z" fill="#E6E6E6"/><path d="M163.025 352.196c-20.393 8.51-26.014 8.989-36.615 6.552-10.6-2.445-14.267 1.527-14.267 1.527s-4.933 2.398 19.734 17.731c18.97 11.793 25.68 6.656 34.611-3.578 6.331-7.254 7.788-20.37 5.196-24.083-2.596-3.719-2.834-.577-8.66 1.86l.001-.009Z" fill="#282828"/><path d="M163.025 352.196c-20.393 8.51-26.014 8.989-36.615 6.552-10.6-2.445-14.267 1.527-14.267 1.527s-4.933 2.398 19.734 17.731c24.666 15.334 34.611-3.578 34.611-3.578s7.788-20.37 5.196-24.083c-2.596-3.719-2.834-.577-8.66 1.86l.001-.009Z" fill="#000"/><path d="M124.086 358.293s-4.531 4.703 7.612 8.674c1.902.623 3.785-.666 3.922-2.662.076-1.108.156-2.515.233-4.28l-5.861-.543-5.906-1.189ZM145.897 358.483c.057 4.729.208 2.446.047 4.94-.086 1.324 1.279 2.222 2.434 1.57 3.004-1.697 7.894-4.741 10.865-8.062l4.523-5.053-8.696 3.539-9.173 3.066ZM156.84 340.868c8.433-2.495 13.436-10.716 11.174-18.362-2.263-7.646-10.934-11.822-19.368-9.326-8.433 2.495-13.436 10.716-11.174 18.362 2.263 7.646 10.934 11.822 19.368 9.326Z" fill="#fff"/><path d="M154.697 333.626a6.519 6.519 0 0 0 4.407-8.098 6.519 6.519 0 0 0-8.105-4.396c-3.455 1.022-5.429 4.648-4.408 8.098a6.52 6.52 0 0 0 8.106 4.396Z" fill="#1D1D1B"/><path d="M147.495 328.963s2.054-.952 2.152-1.585c0 0 1.205 1.631 1.362 1.736 0 0-1.47 2.272-1.949 2.212-.48-.059-1.563-2.356-1.563-2.356l-.002-.007ZM128.838 343.525c8.263-2.445 13.164-10.501 10.947-17.993-2.217-7.493-10.713-11.585-18.976-9.14-8.263 2.445-13.165 10.501-10.947 17.993 2.217 7.493 10.713 11.585 18.976 9.14Z" fill="#fff"/><path d="M126.738 336.43c3.387-1.003 5.322-4.557 4.321-7.939a6.391 6.391 0 0 0-7.945-4.309c-3.387 1.002-5.322 4.556-4.321 7.938a6.392 6.392 0 0 0 7.945 4.31Z" fill="#1D1D1B"/><path d="M119.674 331.86s2.017-.933 2.11-1.556c0 0 1.178 1.598 1.335 1.702 0 0-1.443 2.222-1.912 2.168-.47-.054-1.533-2.314-1.533-2.314Z" fill="#fff"/><path d="M78.11 303.618a2.417 2.417 0 0 1 2.09-2.07l96.051-12.236a2.414 2.414 0 0 1 2.621 1.708l3.256 11.005a2.414 2.414 0 0 1-1.991 3.076L79.114 318.897a2.412 2.412 0 0 1-2.72-2.715l1.716-12.564Z" fill="#D33737"/></g><g filter="url(#e)"><path d="M205.144 312.742c4.519 40.581-23.916 76.829-63.212 81.205-39.297 4.376-75.01-24.727-79.529-65.308-4.52-40.58 23.916-76.828 63.212-81.204 39.296-4.377 75.009 24.727 79.529 65.307Z" fill="#C7E1FF" fill-opacity=".25" stroke="#fff" stroke-width="10.65"/><path d="M145.666 262.516c12.415 2.175 27.704 12.934 34.27 23.513" stroke="#fff" stroke-width="5.68" stroke-linecap="round"/><ellipse cx="9.979" cy="29.857" rx="9.979" ry="29.857" transform="matrix(-.98799 .15454 .23811 .97124 61.27 315.412)" fill="#D7D7D7"/><ellipse cx="8.605" cy="29.857" rx="8.605" ry="29.857" transform="matrix(-.98799 .15454 .23811 .97124 57.96 315.161)" fill="#fff"/><ellipse cx="9.979" cy="29.857" rx="9.979" ry="29.857" transform="matrix(.9262 -.37704 .29678 .95495 188.84 265.221)" fill="#D7D7D7"/><ellipse cx="8.605" cy="29.857" rx="8.605" ry="29.857" transform="matrix(.9262 -.37704 .29678 .95495 191.549 263.299)" fill="#fff"/></g><defs><filter id="a" x="96.129" y="213.302" width="493.782" height="489.858" filterUnits="userSpaceOnUse" color-interpolation-filters="sRGB"><feFlood flood-opacity="0" result="BackgroundImageFix"/><feColorMatrix in="SourceAlpha" values="0 0 0 0 0 0 0 0 0 0 0 0 0 0 0 0 0 0 127 0" result="hardAlpha"/><feOffset dy="2.84"/><feGaussianBlur stdDeviation="1.42"/><feComposite in2="hardAlpha" operator="out"/><feColorMatrix values="0 0 0 0 0 0 0 0 0 0 0 0 0 0 0 0 0 0 0.25 0"/><feBlend in2="BackgroundImageFix" result="effect1_dropShadow_5578_46416"/><feBlend in="SourceGraphic" in2="effect1_dropShadow_5578_46416" result="shape"/></filter><filter id="c" x="162.16" y="45" width="165.092" height="123.038" filterUnits="userSpaceOnUse" color-interpolation-filters="sRGB"><feFlood flood-opacity="0" result="BackgroundImageFix"/><feColorMatrix in="SourceAlpha" values="0 0 0 0 0 0 0 0 0 0 0 0 0 0 0 0 0 0 127 0" result="hardAlpha"/><feOffset dy="2.84"/><feGaussianBlur stdDeviation="1.42"/><feComposite in2="hardAlpha" operator="out"/><feColorMatrix values="0 0 0 0 0 0 0 0 0 0 0 0 0 0 0 0 0 0 0.25 0"/><feBlend in2="BackgroundImageFix" result="effect1_dropShadow_5578_46416"/><feBlend in="SourceGraphic" in2="effect1_dropShadow_5578_46416" result="shape"/></filter><filter id="d" x="69.271" y="259.704" width="146.095" height="182.68" filterUnits="userSpaceOnUse" color-interpolation-filters="sRGB"><feFlood flood-opacity="0" result="BackgroundImageFix"/><feColorMatrix in="SourceAlpha" values="0 0 0 0 0 0 0 0 0 0 0 0 0 0 0 0 0 0 127 0" result="hardAlpha"/><feOffset/><feGaussianBlur stdDeviation="3.55"/><feComposite in2="hardAlpha" operator="out"/><feColorMatrix values="0 0 0 0 0 0 0 0 0 0 0 0 0 0 0 0 0 0 0.31 0"/><feBlend in2="BackgroundImageFix" result="effect1_dropShadow_5578_46416"/><feBlend in="SourceGraphic" in2="effect1_dropShadow_5578_46416" result="shape"/></filter><filter id="e" x="38.384" y="234.573" width="189.014" height="172.236" filterUnits="userSpaceOnUse" color-interpolation-filters="sRGB"><feFlood flood-opacity="0" result="BackgroundImageFix"/><feColorMatrix in="SourceAlpha" values="0 0 0 0 0 0 0 0 0 0 0 0 0 0 0 0 0 0 127 0" result="hardAlpha"/><feOffset/><feGaussianBlur stdDeviation="3.55"/><feComposite in2="hardAlpha" operator="out"/><feColorMatrix values="0 0 0 0 0 0 0 0 0 0 0 0 0 0 0 0 0 0 0.31 0"/><feBlend in2="BackgroundImageFix" result="effect1_dropShadow_5578_46416"/><feBlend in="SourceGraphic" in2="effect1_dropShadow_5578_46416" result="shape"/></filter><clipPath id="b"><path fill="#fff" transform="matrix(.22651 -.974 .97544 .22025 165 130.874)" d="M0 0h88.165v142.952H0z"/></clipPath></defs></svg>