<svg width="659" height="812" fill="none" xmlns="http://www.w3.org/2000/svg"><g filter="url(#a)"><path d="M752.834 376.524c108.889 151.202 74.398 362.231-77.039 471.355a338.13 338.13 0 0 1-119.93 54.864 337.572 337.572 0 0 1-131.723 4.784 336.902 336.902 0 0 1-123.419-46.025 336.513 336.513 0 0 1-96.284-89.813c-108.878-151.188-74.398-362.231 77.04-471.355a338.356 338.356 0 0 1 119.937-54.788 337.831 337.831 0 0 1 131.699-4.76 337.166 337.166 0 0 1 123.404 45.995 336.757 336.757 0 0 1 96.315 89.743Z" fill="#939393" style="mix-blend-mode:multiply" opacity=".75"/><path d="M746.514 376.753c108.889 151.203 74.398 362.232-77.04 471.356a338.124 338.124 0 0 1-119.929 54.863 337.573 337.573 0 0 1-131.723 4.785 336.903 336.903 0 0 1-123.419-46.026 336.496 336.496 0 0 1-96.284-89.812C89.24 620.73 123.721 409.687 275.158 300.564a338.392 338.392 0 0 1 119.937-54.789 337.836 337.836 0 0 1 131.7-4.759 337.153 337.153 0 0 1 123.404 45.994 336.757 336.757 0 0 1 96.315 89.743Z" fill="#FFE8D6"/><path d="M475.486 236.625c-62.889 45.316-112.158 109.664-138.485 182.609-34.496 95.47-29.256 204.526 14.334 296.126 39.705 83.531 110.814 151.499 195.804 188.138-64.733 14.787-132.356 10.19-194.424-13.217a336.976 336.976 0 0 1-154.577-118.397c-108.89-151.201-74.406-362.26 77.046-471.392 58.263-42.127 128.461-64.51 200.302-63.867Z" fill="#F2DDCB"/><path d="M212.766 710.926c14.177-10.216 19.098-27.622 10.991-38.878-8.106-11.257-26.169-12.1-40.346-1.885-14.176 10.216-19.097 27.622-10.991 38.878 8.106 11.257 26.169 12.1 40.346 1.885Z" fill="#939393" style="mix-blend-mode:multiply" opacity=".58"/><path d="M206.446 711.155c14.176-10.215 19.097-27.622 10.991-38.878-8.106-11.256-26.17-12.1-40.346-1.884-14.177 10.215-19.098 27.622-10.992 38.878 8.106 11.256 26.17 12.1 40.347 1.884Z" fill="#E6C9B3"/><path d="M273.542 720.301c5.476-3.946 6.723-11.578 2.785-17.045-3.937-5.468-11.568-6.701-17.044-2.755-5.477 3.946-6.724 11.577-2.786 17.045 3.937 5.467 11.569 6.701 17.045 2.755Z" fill="#939393" style="mix-blend-mode:multiply" opacity=".58"/><path d="M267.221 720.531c5.476-3.946 6.724-11.577 2.786-17.045-3.937-5.467-11.569-6.701-17.045-2.755-5.476 3.946-6.723 11.577-2.786 17.045 3.938 5.468 11.569 6.701 17.045 2.755Z" fill="#E6C9B3"/><path d="M313 323.473c22.546-16.246 37.257-34.369 32.858-40.477-4.4-6.109-26.243 2.109-48.789 18.355-22.546 16.246-37.257 34.368-32.857 40.477 4.399 6.108 26.242-2.11 48.788-18.355Z" fill="#939393" style="mix-blend-mode:multiply" opacity=".58"/><path d="M306.68 323.703c22.546-16.246 37.257-34.368 32.857-40.477-4.399-6.109-26.242 2.109-48.788 18.355-22.546 16.246-37.257 34.368-32.858 40.477 4.4 6.109 26.243-2.109 48.789-18.355Z" fill="#E6C9B3"/><path d="M490.636 457.472c-14.627-35.144-55.015-51.735-90.21-37.057-35.195 14.678-51.868 55.066-37.242 90.21 14.627 35.143 55.015 51.734 90.21 37.056 35.195-14.677 51.869-55.066 37.242-90.209Z" fill="#939393" style="mix-blend-mode:multiply" opacity=".58"/><path d="M484.312 457.696c-14.627-35.143-55.015-51.734-90.21-37.057-35.195 14.678-51.869 55.066-37.242 90.21 14.627 35.144 55.015 51.735 90.21 37.057 35.195-14.678 51.868-55.066 37.242-90.21Z" fill="#E6C9B3"/><path d="M471.395 591.438a11.067 11.067 0 0 1 2.08 6.088 11.11 11.11 0 0 1-12.872 11.344 11.062 11.062 0 0 1-9.007-8.391 11.077 11.077 0 0 1 .411-6.424 11.112 11.112 0 0 1 3.911-5.119 11.095 11.095 0 0 1 8.264-1.962 11.024 11.024 0 0 1 7.213 4.464Z" fill="#939393" style="mix-blend-mode:multiply" opacity=".58"/><path d="M465.071 591.665a11.069 11.069 0 0 1 2.079 6.088 11.114 11.114 0 0 1-12.871 11.344 11.056 11.056 0 0 1-9.007-8.39 11.085 11.085 0 0 1 .41-6.424 11.128 11.128 0 0 1 12.175-7.081 11.04 11.04 0 0 1 7.214 4.463Z" fill="#E6C9B3"/><path d="M339.285 811.537a6.097 6.097 0 0 1 .233 6.778 6.12 6.12 0 0 1-6.176 2.82 6.086 6.086 0 0 1-4.959-4.62 6.101 6.101 0 0 1 .226-3.537 6.123 6.123 0 0 1 4.322-3.809 6.101 6.101 0 0 1 6.354 2.368Z" fill="#939393" style="mix-blend-mode:multiply" opacity=".58"/><path d="M332.965 811.766a6.102 6.102 0 0 1 .232 6.779 6.122 6.122 0 0 1-6.175 2.82 6.1 6.1 0 0 1-4.96-4.62 6.114 6.114 0 0 1 10.903-4.979Z" fill="#E6C9B3"/><path d="M676.536 653.539c15.468-11.146 18.991-32.702 7.869-48.147-11.122-15.444-32.678-18.929-48.147-7.782-15.468 11.146-18.992 32.702-7.869 48.147 11.122 15.444 32.678 18.929 48.147 7.782Z" fill="#939393" style="mix-blend-mode:multiply" opacity=".58"/><path d="M670.212 653.767c15.468-11.147 18.991-32.703 7.869-48.147-11.123-15.445-32.679-18.929-48.147-7.783-15.469 11.147-18.992 32.703-7.869 48.147 11.122 15.445 32.678 18.929 48.147 7.783Z" fill="#E6C9B3"/><path d="M596.419 783.933a11.065 11.065 0 0 1 2.079 6.09 11.113 11.113 0 0 1-12.88 11.341 11.058 11.058 0 0 1-9.002-8.402 11.093 11.093 0 0 1 .419-6.426 11.123 11.123 0 0 1 3.92-5.115 11.1 11.1 0 0 1 8.259-1.95 11.048 11.048 0 0 1 7.205 4.462Z" fill="#939393" style="mix-blend-mode:multiply" opacity=".58"/><path d="M590.094 784.16a11.068 11.068 0 0 1 2.08 6.09 11.094 11.094 0 0 1-1.659 6.225 11.106 11.106 0 0 1-11.222 5.116 11.065 11.065 0 0 1-9.001-8.402 11.09 11.09 0 0 1 .419-6.425 11.12 11.12 0 0 1 3.92-5.116 11.098 11.098 0 0 1 8.258-1.95 11.04 11.04 0 0 1 7.205 4.462Z" fill="#E6C9B3"/><path d="M420.005 782.24a11.069 11.069 0 0 1 2.079 6.088 11.101 11.101 0 0 1-6.49 10.483 11.096 11.096 0 0 1-6.382.862 11.062 11.062 0 0 1-9.007-8.391 11.107 11.107 0 0 1 4.322-11.543 11.104 11.104 0 0 1 8.263-1.955 11.066 11.066 0 0 1 7.215 4.456Z" fill="#939393" style="mix-blend-mode:multiply" opacity=".58"/><path d="M413.684 782.471a11.067 11.067 0 0 1 2.08 6.088 11.11 11.11 0 0 1-12.872 11.344 11.063 11.063 0 0 1-9.007-8.39 11.11 11.11 0 0 1 12.584-13.498 11.064 11.064 0 0 1 7.215 4.456Z" fill="#E6C9B3"/><path d="M618.878 471.495c5.476-3.946 6.723-11.577 2.785-17.045-3.937-5.468-11.568-6.701-17.045-2.755-5.476 3.946-6.723 11.577-2.785 17.045 3.937 5.468 11.568 6.701 17.045 2.755Z" fill="#939393" style="mix-blend-mode:multiply" opacity=".58"/><path d="M612.557 471.724c5.476-3.946 6.724-11.577 2.786-17.044-3.937-5.468-11.569-6.702-17.045-2.756-5.476 3.946-6.723 11.578-2.786 17.045 3.938 5.468 11.569 6.702 17.045 2.755Z" fill="#E6C9B3"/><path d="M254.724 472.548c1.983-12.155-6.248-23.601-18.384-25.566-12.136-1.964-23.582 6.297-25.565 18.452-1.984 12.155 6.247 23.601 18.383 25.565 12.136 1.965 23.582-6.296 25.566-18.451Z" fill="#939393" style="mix-blend-mode:multiply" opacity=".58"/><path d="M205.036 504.018c1.983-12.155-6.247-23.601-18.383-25.566-12.137-1.964-23.583 6.297-25.566 18.452-1.983 12.155 6.247 23.601 18.384 25.565 12.136 1.965 23.582-6.296 25.565-18.451Z" fill="#E6C9B3"/><path d="M316.772 514.499a6.05 6.05 0 0 1 .245 6.727 6.06 6.06 0 0 1-9.284 1.257 6.048 6.048 0 0 1-1.53-6.553 6.058 6.058 0 0 1 2.144-2.792 6.041 6.041 0 0 1 4.498-1.064 6.026 6.026 0 0 1 3.927 2.425Z" fill="#939393" style="mix-blend-mode:multiply" opacity=".58"/><path d="M310.447 514.73a6.057 6.057 0 0 1 .246 6.727 6.07 6.07 0 0 1-6.127 2.803 6.041 6.041 0 0 1-4.688-8.099 6.075 6.075 0 0 1 2.145-2.793 6.043 6.043 0 0 1 4.497-1.064 6.023 6.023 0 0 1 3.927 2.426Z" fill="#E6C9B3"/><path d="M518.378 345.513c13.533-9.752 16.615-28.611 6.885-42.123-9.731-13.512-28.59-16.56-42.123-6.809-13.533 9.752-16.615 28.611-6.884 42.123 9.73 13.512 28.589 16.56 42.122 6.809Z" fill="#939393" style="mix-blend-mode:multiply" opacity=".58"/><path d="M512.058 345.743c13.533-9.752 16.615-28.611 6.884-42.123-9.73-13.511-28.589-16.56-42.122-6.808-13.533 9.752-16.615 28.61-6.885 42.122 9.731 13.512 28.59 16.561 42.123 6.809Z" fill="#E6C9B3"/></g><path d="M282.633 332.154c8.253 17.186 31.02 39.865 56.06-6.904 31.3-58.462-7.475-70.89 5.606-113.701 13.081-42.81 35.505-54.318 17.752-70.429-14.202-12.889-21.489-29.921-23.358-36.826" stroke="#fff" stroke-width="5"/><g clip-path="url(#b)" filter="url(#c)"><path d="M315.89 114.394c.344 7.59 3.6 14.769 9.11 20.084 5.509 5.315 12.862 8.371 20.57 8.549 1.29.031 3.038-.572 2.807-1.801.209-.634.306-1.051.516-1.686a17.678 17.678 0 0 1-6.237-3.675 17.383 17.383 0 0 1-4.202-5.842 17.148 17.148 0 0 1 .087-14.013M333.041 50.029c4.082-6.446 10.495-11.124 17.944-13.088a30.823 30.823 0 0 1 22.179 2.507c1.137.598 2.383 1.974 1.531 2.928l-.4 1.717a17.881 17.881 0 0 0-7.264.184 17.738 17.738 0 0 0-6.572 3.056 17.442 17.442 0 0 0-4.763 5.409 17.18 17.18 0 0 0-2.144 6.842M276.744 51.595c-13.388 5.349-21.378 12.242-21.378 12.242s3.483 9.753 12.362 20.816c7.324-9.41 10.565-21.297 9.016-33.058Z" fill="#D33737"/><path d="M276.743 51.595c1.55 11.76-1.692 23.647-9.016 33.058 12.915 16.084 37.249 34.93 78.937 30.599l6.927-26.009 6.927-26.009c-34.016-23.858-64.496-19.344-83.775-11.639Z" fill="#fff"/><path d="M370.694 108.976a32.023 32.023 0 0 0 11.954 8.78 32.479 32.479 0 0 0 14.693 2.501l-10.539-10.236a59.036 59.036 0 0 0 47.912-2.768c-6.622-9.043-15.552-16.201-25.886-20.749l7.181.74c-7.907-10.95-23.585-15.707-36.374-11.048" fill="#FF9324"/><path d="M371.232 102.675c2.365 3.811 6.126 6.58 10.505 7.734l-3.167-9.025a59.121 59.121 0 0 0 36.28 2.168 74.026 74.026 0 0 0-26.237-13.842l13.698.694a27.056 27.056 0 0 0-11.266-7.07 27.393 27.393 0 0 0-13.327-.886" fill="#FD0"/><path d="M306.375 57.663c-9.707-4.302-21.116-.035-25.482 9.53-4.366 9.564-.036 20.806 9.671 25.108 9.707 4.302 21.116.035 25.482-9.53s.036-20.806-9.671-25.108Z" fill="#424242"/><path d="M302.09 61.377a14.355 14.355 0 0 1 5.021 2.394 14.126 14.126 0 0 1 3.706 4.11 13.874 13.874 0 0 1 1.488 10.682 14.213 14.213 0 0 1-1.251 3.153 14.09 14.09 0 0 1-4.65 4.995 14.578 14.578 0 0 1-7.22 2.336c-2.445.116-4.88-.39-7.071-1.468a14.22 14.22 0 0 1-5.435-4.693 13.942 13.942 0 0 1-2.406-6.715 13.898 13.898 0 0 1 1.239-7.015 14.023 14.023 0 0 1 4.884-5.735 14.355 14.355 0 0 1 5.638-2.282 14.441 14.441 0 0 1 6.09.25l-.033-.013Z" fill="#A1DDFF"/><path d="m368.923 117.145-19.651-11.784 9.106-34.179 22.991-.756-12.446 46.719Z" fill="#fff"/><path d="m349.271 105.362 9.106-34.179 4.926-.16-9.852 36.988-4.18-2.649Z" fill="#BABABA"/><path d="m296.797 61.012 14.225 20.697a14.099 14.099 0 0 1-4.65 4.995l-16.008-23.295a14.344 14.344 0 0 1 6.433-2.397ZM287.412 66.082l15.344 22.305a14.208 14.208 0 0 1-3.601.638l-13.673-19.89a13.54 13.54 0 0 1 1.93-3.053Z" fill="#fff"/><path d="M369.232 89.984a3.373 3.373 0 0 1 1.335 1.607c.262.66.304 1.386.122 2.073a3.359 3.359 0 0 1-1.138 1.747 3.44 3.44 0 0 1-1.963.755c-14.915.87-46.647-.72-42.995-14.423 3.652-13.703 32.089.254 44.639 8.241Z" fill="#D33737"/></g><ellipse cx="178.394" cy="403.897" rx="108.255" ry="111.301" transform="rotate(-6.355 178.394 403.897)" fill="#C1C1C1"/><g filter="url(#d)"><path d="M152.505 331.026c-38.453 11.378-60.415 51.727-49.053 90.124l40.021 135.244c2.89 6.792 10.581 10.455 17.84 8.308 7.259-2.148 11.625-9.379 10.353-16.65l.182-.054c2.859 6.802 10.227 10.561 17.207 8.496 6.979-2.065 11.115-9.228 9.812-16.49l.183-.054c2.89 6.793 10.487 10.483 17.746 8.336 7.259-2.148 11.625-9.379 10.353-16.65l.183-.054c2.859 6.802 10.226 10.561 17.206 8.496 6.98-2.066 11.115-9.228 9.812-16.49l.183-.054c2.89 6.792 10.488 10.483 17.747 8.336 7.259-2.148 11.717-9.406 10.446-16.677l-40.022-135.244c-11.362-38.397-51.745-60.3-90.199-48.923Z" fill="#E6E6E6"/><path d="M219.221 448.29c-28.723 11.986-36.64 12.66-51.571 9.229-14.929-3.444-20.094 2.15-20.094 2.15s-6.948 3.377 27.794 24.974c26.719 16.609 36.169 9.373 48.749-5.041 8.916-10.217 10.969-28.69 7.318-33.92-3.656-5.236-3.992-.811-12.197 2.621l.001-.013Z" fill="#282828"/><path d="M219.221 448.29c-28.723 11.986-36.64 12.66-51.571 9.229-14.929-3.444-20.094 2.15-20.094 2.15s-6.948 3.377 27.794 24.974c34.742 21.596 48.749-5.041 48.749-5.041s10.969-28.69 7.318-33.92c-3.656-5.236-3.992-.811-12.197 2.621l.001-.013Z" fill="#000"/><path d="M164.377 456.878s-6.381 6.623 10.721 12.217c2.68.876 5.332-.938 5.524-3.75.107-1.561.22-3.542.328-6.029l-8.254-.765-8.319-1.673ZM195.097 457.144c.08 6.661.294 3.446.066 6.959-.12 1.864 1.802 3.13 3.428 2.211 4.231-2.39 11.118-6.677 15.304-11.355l6.37-7.117-12.248 4.984-12.92 4.318ZM210.51 432.336c11.878-3.515 18.924-15.094 15.737-25.863-3.186-10.769-15.399-16.65-27.278-13.135-11.878 3.514-18.924 15.093-15.738 25.862 3.187 10.769 15.4 16.65 27.279 13.136Z" fill="#fff"/><path d="M207.491 422.136c4.867-1.44 7.646-6.547 6.208-11.407-1.438-4.859-6.549-7.631-11.415-6.191-4.867 1.439-7.647 6.546-6.209 11.406 1.438 4.859 6.549 7.631 11.416 6.192Z" fill="#1D1D1B"/><path d="M197.348 415.567s2.893-1.34 3.031-2.232c0 0 1.698 2.298 1.919 2.445 0 0-2.071 3.2-2.746 3.116-.676-.083-2.201-3.318-2.201-3.318l-.003-.011ZM171.07 436.078c11.638-3.444 18.541-14.79 15.418-25.343-3.123-10.553-15.089-16.317-26.727-12.873-11.638 3.443-18.541 14.79-15.418 25.343 3.123 10.553 15.089 16.316 26.727 12.873Z" fill="#fff"/><path d="M168.113 426.084c4.77-1.412 7.495-6.418 6.085-11.181-1.409-4.764-6.42-7.481-11.19-6.07-4.771 1.412-7.495 6.418-6.086 11.181 1.41 4.764 6.42 7.481 11.191 6.07Z" fill="#1D1D1B"/><path d="M158.162 419.647s2.842-1.313 2.973-2.19c0 0 1.659 2.25 1.88 2.397 0 0-2.032 3.129-2.693 3.053-.661-.076-2.16-3.26-2.16-3.26Z" fill="#fff"/><path d="M99.622 379.87a3.405 3.405 0 0 1 2.944-2.915l135.283-17.234a3.4 3.4 0 0 1 3.692 2.406l4.587 15.5a3.402 3.402 0 0 1-2.805 4.333l-142.287 19.431c-2.23.304-4.134-1.597-3.83-3.825l2.416-17.696Z" fill="#D33737"/></g><g filter="url(#e)"><path d="M278.546 392.722c6.365 57.155-33.685 108.208-89.032 114.372-55.347 6.164-105.648-34.827-112.013-91.982-6.365-57.155 33.685-108.209 89.032-114.373 55.347-6.163 105.647 34.828 112.013 91.983Z" fill="#C7E1FF" fill-opacity=".25" stroke="#fff" stroke-width="15"/><path d="M194.773 321.98c17.487 3.063 39.02 18.218 48.268 33.117" stroke="#fff" stroke-width="8" stroke-linecap="round"/><ellipse cx="14.055" cy="42.052" rx="14.055" ry="42.052" transform="matrix(-.98799 .15453 .23812 .97124 75.902 396.483)" fill="#D7D7D7"/><ellipse cx="12.12" cy="42.052" rx="12.12" ry="42.052" transform="matrix(-.98799 .15453 .23812 .97124 71.242 396.128)" fill="#fff"/><ellipse cx="14.055" cy="42.052" rx="14.055" ry="42.052" transform="matrix(.9262 -.37704 .29678 .95495 255.578 325.791)" fill="#D7D7D7"/><ellipse cx="12.12" cy="42.052" rx="12.12" ry="42.052" transform="matrix(.9262 -.37704 .29678 .95495 259.395 323.083)" fill="#fff"/></g><defs><filter id="a" x="130.574" y="236.461" width="689.809" height="692.873" filterUnits="userSpaceOnUse" color-interpolation-filters="sRGB"><feFlood flood-opacity="0" result="BackgroundImageFix"/><feColorMatrix in="SourceAlpha" values="0 0 0 0 0 0 0 0 0 0 0 0 0 0 0 0 0 0 127 0" result="hardAlpha"/><feOffset dy="4"/><feGaussianBlur stdDeviation="2"/><feComposite in2="hardAlpha" operator="out"/><feColorMatrix values="0 0 0 0 0 0 0 0 0 0 0 0 0 0 0 0 0 0 0.25 0"/><feBlend in2="BackgroundImageFix" result="effect1_dropShadow_5575_46415"/><feBlend in="SourceGraphic" in2="effect1_dropShadow_5575_46415" result="shape"/></filter><filter id="c" x="223" y="0" width="232.523" height="173.294" filterUnits="userSpaceOnUse" color-interpolation-filters="sRGB"><feFlood flood-opacity="0" result="BackgroundImageFix"/><feColorMatrix in="SourceAlpha" values="0 0 0 0 0 0 0 0 0 0 0 0 0 0 0 0 0 0 127 0" result="hardAlpha"/><feOffset dy="4"/><feGaussianBlur stdDeviation="2"/><feComposite in2="hardAlpha" operator="out"/><feColorMatrix values="0 0 0 0 0 0 0 0 0 0 0 0 0 0 0 0 0 0 0.25 0"/><feBlend in2="BackgroundImageFix" result="effect1_dropShadow_5575_46415"/><feBlend in="SourceGraphic" in2="effect1_dropShadow_5575_46415" result="shape"/></filter><filter id="d" x="87.176" y="318.02" width="205.766" height="257.296" filterUnits="userSpaceOnUse" color-interpolation-filters="sRGB"><feFlood flood-opacity="0" result="BackgroundImageFix"/><feColorMatrix in="SourceAlpha" values="0 0 0 0 0 0 0 0 0 0 0 0 0 0 0 0 0 0 127 0" result="hardAlpha"/><feOffset/><feGaussianBlur stdDeviation="5"/><feComposite in2="hardAlpha" operator="out"/><feColorMatrix values="0 0 0 0 0 0 0 0 0 0 0 0 0 0 0 0 0 0 0.31 0"/><feBlend in2="BackgroundImageFix" result="effect1_dropShadow_5575_46415"/><feBlend in="SourceGraphic" in2="effect1_dropShadow_5575_46415" result="shape"/></filter><filter id="e" x="43.672" y="282.624" width="266.215" height="242.585" filterUnits="userSpaceOnUse" color-interpolation-filters="sRGB"><feFlood flood-opacity="0" result="BackgroundImageFix"/><feColorMatrix in="SourceAlpha" values="0 0 0 0 0 0 0 0 0 0 0 0 0 0 0 0 0 0 127 0" result="hardAlpha"/><feOffset/><feGaussianBlur stdDeviation="5"/><feComposite in2="hardAlpha" operator="out"/><feColorMatrix values="0 0 0 0 0 0 0 0 0 0 0 0 0 0 0 0 0 0 0.31 0"/><feBlend in2="BackgroundImageFix" result="effect1_dropShadow_5575_46415"/><feBlend in="SourceGraphic" in2="effect1_dropShadow_5575_46415" result="shape"/></filter><clipPath id="b"><path fill="#fff" transform="matrix(.22651 -.974 .97544 .22025 227 120.949)" d="M0 0h124.176v201.339H0z"/></clipPath></defs></svg>