<svg width="936" height="584" fill="none" xmlns="http://www.w3.org/2000/svg"><ellipse cx="56.226" cy="533.201" rx="4.075" ry="4.048" transform="rotate(-2.184 56.226 533.201)" fill="#7791FA"/><ellipse cx="195.762" cy="510.721" rx="6.52" ry="6.477" transform="rotate(-2.184 195.762 510.721)" fill="#8BA5FF"/><ellipse cx="508.226" cy="321.201" rx="4.075" ry="4.048" transform="rotate(-2.184 508.226 321.201)" fill="#7791FA"/><ellipse cx="398.226" cy="289.387" rx="4.075" ry="4.048" transform="rotate(-2.184 398.226 289.387)" fill="#8BA5FF"/><ellipse cx="595.254" cy="155.2" rx="4.075" ry="4.048" transform="rotate(-2.184 595.254 155.2)" fill="#7791FA"/><ellipse cx="702.77" cy="167.721" rx="6.52" ry="6.477" transform="rotate(-2.184 702.77 167.721)" fill="#FFFF91"/><ellipse cx="464.762" cy="223.721" rx="6.52" ry="6.477" transform="rotate(-2.184 464.762 223.721)" fill="#FFFF91"/><ellipse cx="206.754" cy="82.941" rx="4.075" ry="4.048" transform="rotate(-2.184 206.754 82.941)" fill="#7791FA"/><ellipse cx="504.157" cy="96.866" rx="6.52" ry="6.477" transform="rotate(-2.184 504.157 96.866)" fill="#8BA5FF"/><ellipse cx="11.762" cy="148.721" rx="6.52" ry="6.477" transform="rotate(-2.184 11.762 148.721)" fill="#8BA5FF"/><ellipse cx="348.226" cy="567.202" rx="4.075" ry="4.048" transform="rotate(-2.184 348.226 567.202)" fill="#7791FA"/><ellipse cx="561.773" cy="24.546" rx="4.075" ry="4.048" transform="rotate(-2.184 561.773 24.546)" fill="#7791FA"/><ellipse cx="915.226" cy="131.201" rx="4.075" ry="4.048" transform="rotate(-2.184 915.226 131.201)" fill="#7791FA"/><ellipse cx="826.789" cy="23.393" rx="6.52" ry="6.477" transform="rotate(-2.184 826.789 23.393)" fill="#B3CDFF"/><ellipse cx="400.344" cy="26.608" rx="6.52" ry="6.477" transform="rotate(-2.184 400.344 26.608)" fill="#FFFF91"/><ellipse cx="511.226" cy="542.202" rx="4.075" ry="4.048" transform="rotate(-2.184 511.226 542.202)" fill="#7791FA"/><ellipse cx="435.762" cy="504.72" rx="6.52" ry="6.477" transform="rotate(-2.184 435.762 504.72)" fill="#FFFF91"/><ellipse cx="591.789" cy="449.719" rx="6.52" ry="6.477" transform="rotate(-2.184 591.789 449.719)" fill="#FFFF91"/><ellipse cx="96.164" cy="48.812" rx="6.52" ry="6.477" transform="rotate(-2.184 96.164 48.812)" fill="#FFFFB9"/></svg>