<svg width="1290" height="780" fill="none" xmlns="http://www.w3.org/2000/svg"><ellipse cx="565.512" cy="36.345" rx="9.183" ry="9.123" transform="rotate(-2.184 565.512 36.345)" fill="#FFFF91"/><ellipse cx="292.851" cy="115.689" rx="5.739" ry="5.702" transform="rotate(-2.184 292.851 115.689)" fill="#7791FA"/><ellipse cx="687.577" cy="737.013" rx="5.739" ry="5.702" transform="rotate(-2.184 687.577 737.013)" fill="#7791FA"/><ellipse cx="488.429" cy="756.096" rx="5.739" ry="5.702" transform="rotate(-2.184 488.429 756.096)" fill="#7791FA"/><ellipse cx="711.723" cy="135.3" rx="9.183" ry="9.123" transform="rotate(-2.184 711.723 135.3)" fill="#8BA5FF"/><ellipse cx="792.843" cy="33.441" rx="5.739" ry="5.702" transform="rotate(-2.184 792.843 33.44)" fill="#7791FA"/><ellipse cx="1166.11" cy="31.819" rx="9.183" ry="9.123" transform="rotate(-2.184 1166.11 31.819)" fill="#B3CDFF"/><ellipse cx="986.336" cy="167.33" rx="9.183" ry="9.123" transform="rotate(-2.184 986.336 167.33)" fill="#FFFFB9"/><ellipse cx="629.629" cy="663.387" rx="9.183" ry="9.123" transform="rotate(-2.184 629.629 663.387)" fill="#FFFF91"/><ellipse cx="796.418" cy="578.915" rx="9.183" ry="9.123" transform="rotate(-2.184 796.418 578.915)" fill="#FFFF91"/><ellipse cx="137.09" cy="67.617" rx="9.183" ry="9.123" transform="rotate(-2.184 137.09 67.617)" fill="#FFFFB9"/><ellipse cx="78.939" cy="749.436" rx="5.748" ry="5.711" transform="rotate(-2.184 78.939 749.436)" fill="#7791FA"/><ellipse cx="275.777" cy="717.724" rx="9.198" ry="9.137" transform="rotate(-2.184 275.777 717.724)" fill="#8BA5FF"/><ellipse cx="15.539" cy="207.481" rx="9.198" ry="9.137" transform="rotate(-2.184 15.54 207.481)" fill="#8BA5FF"/><ellipse cx="716.571" cy="437.368" rx="5.748" ry="5.711" transform="rotate(-2.184 716.571 437.368)" fill="#7791FA"/><ellipse cx="561.397" cy="405.489" rx="5.75" ry="5.712" transform="rotate(-2.184 561.397 405.489)" fill="#8BA5FF"/><ellipse cx="839.333" cy="199.191" rx="5.748" ry="5.711" transform="rotate(-2.184 839.333 199.191)" fill="#7791FA"/><ellipse cx="1262.96" cy="172.926" rx="5.748" ry="5.711" transform="rotate(-2.184 1262.96 172.926)" fill="#7791FA"/><ellipse cx="655.258" cy="282.853" rx="9.198" ry="9.137" transform="rotate(-2.184 655.258 282.853)" fill="#FFFF91"/></svg>