<svg xmlns="http://www.w3.org/2000/svg" width="79" height="48" viewBox="0 0 79 48" fill="none">
  <path fill-rule="evenodd" clip-rule="evenodd" d="M50.4391 17.749L42.1455 12L33.8519 17.749L25.9775 24.0922L28.7261 33.9885L32.1532 43.6578L37.1455 43.8413V48H47.1455V43.8413L52.1378 43.6578L55.5649 33.9885L58.3135 24.0922L50.4391 17.749Z" fill="#FF8C4B"/>
  <path d="M35.8744 20.4535L42.1455 16.1065L48.4166 20.4535L54.4675 25.3279L52.3445 32.9719L49.7227 40.3693L42.1455 40.6477L34.5683 40.3693L31.9465 32.9719L29.8235 25.3279L35.8744 20.4535Z" fill="white" stroke="#FF8C4B" stroke-width="6.74996"/>
  <path d="M46.681 35.4368C49.2174 33.1137 49.6553 28.8723 48.6343 27.4629C48.6343 29.7088 47.3518 30.862 46.3851 30.4372C44.7467 29.7171 45.6156 27.7057 45.6748 27.1594C45.734 26.6131 46.4087 23.6025 43.1888 22C43.544 23.2949 43.7926 25.8605 41.9458 25.7633C40.0991 25.6662 39.7953 23.821 39.8742 22.9105C39.2823 23.4163 38.572 24.0638 39.2231 26.7952C39.8328 29.3531 36.9739 29.2232 36.678 28.0092C36.382 26.7952 36.5596 25.8847 36.678 25.1563C34.8986 27.4489 34.1743 32.4101 37.2699 35.1477C37.0923 34.3059 37.2107 32.1974 38.6312 30.9834C38.6707 31.7118 39.3331 33.0135 40.3477 32.7437C41.9458 32.3188 42.0642 30.1944 41.6499 28.7983C42.4194 28.7174 43.4848 29.3446 43.8991 32.0153C44.3134 34.6861 46.8586 33.4114 46.2075 32.0153C46.681 32.3593 47.6281 33.4114 46.681 35.4368Z" fill="#FF8C4B"/>
  <path d="M41.1172 36.8712C43.5675 37.3003 45.3943 36.6154 46.681 35.4368C47.6281 33.4114 46.681 32.3593 46.2075 32.0153C46.8586 33.4114 44.3134 34.6861 43.8991 32.0153C43.4848 29.3446 42.4194 28.7174 41.6499 28.7983C42.0642 30.1944 41.9458 32.3188 40.3477 32.7437C39.3331 33.0135 38.6707 31.7118 38.6312 30.9834C37.2107 32.1974 37.0923 34.3059 37.2699 35.1477C38.1903 35.9617 39.4485 36.5791 41.1172 36.8712Z" fill="#FDCB31"/>
  <path d="M11.1453 8.9678L13.7832 12.6897L8.58733 12.7455L11.1453 8.9678Z" fill="#FFC700"/>
  <path d="M28.1453 12.9678L30.7832 16.6897L25.5873 16.7455L28.1453 12.9678Z" fill="#FFA927"/>
  <path d="M66.9628 2.96903L70.6823 5.60111L65.8026 7.38679L66.9628 2.96903Z" fill="#FFE51E"/>
  <path d="M52.9628 6.96903L56.6823 9.60111L51.8026 11.3868L52.9628 6.96903Z" fill="#EBB30A"/>
  <path d="M64.9628 15.969L68.6823 18.6011L63.8026 20.3868L64.9628 15.969Z" fill="#FFC700"/>
  <path d="M73.9901 11.953L75.2708 16.337L70.3439 14.6863L73.9901 11.953Z" fill="#FFA927"/>
  <path d="M65.9901 32.953L67.2708 37.337L62.3439 35.6863L65.9901 32.953Z" fill="#FFCD4B"/>
  <path d="M75.9901 5.95304L77.2708 10.337L72.3439 8.68628L75.9901 5.95304Z" fill="#FFB473"/>
  <path d="M70.769 40.5227L69.029 44.7484L66.217 40.3789L70.769 40.5227Z" fill="#FF8C4B"/>
  <path d="M75.769 27.5227L74.029 31.7484L71.217 27.3789L75.769 27.5227Z" fill="#FFBE7D"/>
  <path d="M19.1482 37.1259L16.3962 33.4882L21.5878 33.2701L19.1482 37.1259Z" fill="#FFC700"/>
  <path d="M10.1482 41.1259L7.39621 37.4882L12.5878 37.2701L10.1482 41.1259Z" fill="#FFBE7D"/>
  <path d="M22.8232 3.3527L23.4621 7.87675L18.8241 5.5338L22.8232 3.3527Z" fill="#FF8C4B"/>
  <path d="M2.57291 25.4567L2.26273 20.8977L6.7186 23.5707L2.57291 25.4567Z" fill="#FFA927"/>
  <path d="M17.4274 27.4567L17.1172 22.8977L21.5731 25.5707L17.4274 27.4567Z" fill="#FF8C4B"/>
  <path d="M39.7788 2.41573L38.3082 6.7429L35.2272 2.55873L39.7788 2.41573Z" fill="#FFC700"/>
</svg>