<svg xmlns="http://www.w3.org/2000/svg" width="24" height="24" viewBox="0 0 24 24" fill="none">
<mask id="mask0_5739_18647" style="mask-type:alpha" maskUnits="userSpaceOnUse" x="0" y="0" width="24" height="24">
<rect width="24" height="24" fill="#D9D9D9"/>
</mask>
<g mask="url(#mask0_5739_18647)">
<path d="M9.9998 13.5998L15.8998 7.6998C16.0831 7.51647 16.3165 7.4248 16.5998 7.4248C16.8831 7.4248 17.1165 7.51647 17.2998 7.6998C17.4831 7.88314 17.5748 8.11647 17.5748 8.3998C17.5748 8.68314 17.4831 8.91647 17.2998 9.0998L10.6998 15.6998C10.4998 15.8998 10.2665 15.9998 9.9998 15.9998C9.73314 15.9998 9.4998 15.8998 9.2998 15.6998L6.6998 13.0998C6.51647 12.9165 6.4248 12.6831 6.4248 12.3998C6.4248 12.1165 6.51647 11.8831 6.6998 11.6998C6.88314 11.5165 7.11647 11.4248 7.3998 11.4248C7.68314 11.4248 7.91647 11.5165 8.0998 11.6998L9.9998 13.5998Z" fill="#52C974"/>
</g>
</svg>