<svg width="25" height="24" fill="none" xmlns="http://www.w3.org/2000/svg"><mask id="a" style="mask-type:alpha" maskUnits="userSpaceOnUse" x="0" y="0" width="25" height="24"><path fill="#D9D9D9" d="M.5 0h24v24H.5z"/></mask><g mask="url(#a)"><path d="M3.5 22a1 1 0 0 1-1-1v-3.32a1 1 0 0 1 .197-.595L11.25 5.55 10.095 4A1 1 0 0 1 11.7 2.802l.8 1.072.8-1.072a1 1 0 0 1 1.605 1.196L13.75 5.55l8.553 11.535a1 1 0 0 1 .197.595V21a1 1 0 0 1-1 1h-18Zm9.401-14.234a.5.5 0 0 0-.802 0L4.5 18v1.5a.5.5 0 0 0 .5.5h2.5l2.5-3.5 1.686-2.36a1 1 0 0 1 1.628 0L17.5 20H20a.5.5 0 0 0 .5-.5V18L12.901 7.766ZM9.95 20h5.1l-2.144-2.985a.5.5 0 0 0-.812 0L9.95 20Z" fill="#1E1E1E"/></g></svg>