<svg width="407" height="1780" viewBox="0 0 407 1780" fill="none" xmlns="http://www.w3.org/2000/svg">
<path d="M89.3011 4C132.673 49.3623 167.524 69.4684 228.505 84.3097C279.874 96.8118 316.025 61.8446 363.884 84.3097C470.541 134.375 330.23 384.132 330.23 384.132C330.23 384.132 -3.23514 602.107 5.16719 811.686C9.09181 909.577 18.4885 980.322 89.3011 1048.03C153.898 1109.79 281.801 1210.82 304.99 1124.51C315.524 1085.3 311.906 1051.86 283.574 1022.79C230.653 968.474 147.601 1082.4 144.371 1158.16C141.719 1220.35 228.505 1293.54 228.505 1293.54C228.505 1293.54 375.408 1363.79 363.884 1441.16C352.826 1515.4 272.335 1517.34 203.264 1546.71C130.428 1577.69 -16.5535 1665.65 5.16719 1589.54C17.6322 1545.86 47.2779 1526.47 89.3011 1509.23C184.531 1470.16 105.182 1841.56 34.2316 1766.99" stroke="#E3F0FF" stroke-opacity="0.5" stroke-width="6.11883" stroke-linecap="round" stroke-dasharray="15.3 15.3"/>
</svg>
