<svg width="82" height="45" fill="none" xmlns="http://www.w3.org/2000/svg"><path d="M7.316 5.3c-.86 2.425-1.56 2.126-2.156 3.638C.392 21.032-.71 38.348 11.4 37.25" stroke="#9B90C5" stroke-width="3.2" stroke-linecap="round"/><path fill-rule="evenodd" clip-rule="evenodd" d="M12.625 11.902a1.575 1.575 0 0 0-.505-2.825L6.443 7.64a1.575 1.575 0 0 0-1.93 1.846l-.373 1.393a4.5 4.5 0 0 0 3.182 5.51l.66.178c.079.034.162.06.25.08l.295.066.153.04c.083.023.166.039.25.05l1.1.244a1.4 1.4 0 0 0 1.703-1.426 1.572 1.572 0 0 0 .54-1.553 1.57 1.57 0 0 0 .352-2.166Z" fill="#9B90C5"/><path d="M9.84 36.1c0-19.883 16.119-36 36-36 19.883 0 36 16.117 36 36v4.727a4.073 4.073 0 0 1-4.072 4.073H13.914a4.073 4.073 0 0 1-4.073-4.073V36.1Z" fill="#9B90C5"/><path d="M31.44 4.503C25.64-.228 15.185-5.173 19.775 12.9l11.667-8.397ZM60.241 4.503C66.042-.228 76.498-5.173 71.908 12.9L60.24 4.503Z" fill="#9B90C5"/><circle cx="36.641" cy="20.099" r="5.6" fill="#FDFDFD"/><circle cx="55.841" cy="20.099" r="5.6" fill="#FDFDFD"/><circle cx="36.641" cy="20.099" r="4" fill="#1E1E1E"/><circle cx="55.841" cy="20.099" r="4" fill="#1E1E1E"/><path fill="#FDFDFD" d="m34.843 17.698 1.732 1-.6 1.04-1.732-1zM54.04 17.698l1.731 1-.6 1.04-1.732-1z"/><path d="M53.826 30.499H38.603c-.616 0-1.078.538-.913 1.132.615 2.206 2.597 6.868 8.374 6.868 5.744 0 7.94-4.608 8.664-6.83.197-.602-.269-1.17-.902-1.17Z" fill="#1E1E1E"/><path d="m42.507 33.699-1.866-3.2h3.2l-1.334 3.2Z" fill="#FDFDFD"/></svg>