<svg width="156" height="51" viewBox="0 0 156 51" fill="none" xmlns="http://www.w3.org/2000/svg">
<g clip-path="url(#clip0_3443_13317)">
<path d="M67.3181 26.0309C67.3181 29.0452 66.1254 31.936 64.0025 34.0674C61.8795 36.1989 59.0002 37.3963 55.9979 37.3963C52.9956 37.3963 50.1163 36.1989 47.9933 34.0674C45.8704 31.936 44.6777 29.0452 44.6777 26.0309C44.6777 23.0166 45.8704 20.1258 47.9933 17.9944C50.1163 15.8629 52.9956 14.6655 55.9979 14.6655C59.0002 14.6655 61.8795 15.8629 64.0025 17.9944C66.1254 20.1258 67.3181 23.0166 67.3181 26.0309ZM62.5872 26.0309C62.5872 24.2763 61.893 22.5936 60.6572 21.353C59.4215 20.1123 57.7455 19.4153 55.9979 19.4153C54.2503 19.4153 52.5743 20.1123 51.3386 21.353C50.1028 22.5936 49.4086 24.2763 49.4086 26.0309C49.4086 27.7855 50.1028 29.4682 51.3386 30.7089C52.5743 31.9495 54.2503 32.6465 55.9979 32.6465C57.7455 32.6465 59.4215 31.9495 60.6572 30.7089C61.893 29.4682 62.5872 27.7855 62.5872 26.0309Z" fill="#FDFDFD"/>
<path d="M17.9544 32.9157L14.5055 32.8033C14.459 32.8016 14.4151 32.7825 14.3828 32.7501C14.3506 32.7177 14.3326 32.6746 14.3325 32.6297L14.3223 16.7256C14.3201 16.6121 14.3687 16.5849 14.4682 16.6439C17.9069 18.7243 18.2223 22.6262 18.3919 26.5009C18.3937 26.5548 18.3789 26.607 18.3502 26.6478C18.3214 26.6885 18.2808 26.715 18.2359 26.7223L17.7543 26.804C17.6945 26.8145 17.6398 26.8332 17.5945 26.8586C17.5492 26.884 17.5146 26.9154 17.4932 26.9504C16.8376 28.0195 17.1507 28.722 18.4326 29.058C18.5275 29.0828 18.6282 29.0723 18.7161 29.0285C18.8039 28.9847 18.8731 28.9106 18.9108 28.8196C19.6331 27.0832 20.3623 25.3671 20.3996 23.4434C20.438 21.6343 20.3826 19.681 20.2334 17.5836C20.1678 16.6825 20.3996 15.8449 20.9286 15.0709C20.9401 15.0543 20.9552 15.0406 20.9729 15.0309C20.9905 15.0212 21.0102 15.0159 21.0303 15.0152C21.0504 15.0145 21.0704 15.0186 21.0887 15.0271C21.1069 15.0356 21.123 15.0482 21.1355 15.0641C21.7301 15.829 21.9743 16.7551 21.868 17.8424C21.478 21.8703 21.4305 25.2173 23.3263 28.8231C23.3608 28.889 23.4156 28.9419 23.4822 28.9738C23.5489 29.0058 23.6239 29.015 23.6959 29.0001C25.3407 28.6869 25.2796 26.7972 23.7909 26.678C23.7461 26.6742 23.7044 26.6542 23.6752 26.6223C23.6459 26.5903 23.6314 26.5491 23.6349 26.5078C24.052 22.0883 24.1469 18.7481 27.6671 16.5656C27.7643 16.5043 27.813 16.5327 27.813 16.6507L27.8672 32.456C27.8672 32.5656 27.8241 32.6707 27.7472 32.7486C27.6704 32.8264 27.566 32.8705 27.4569 32.8714L24.3301 32.9191C24.2814 32.9201 24.2342 32.9364 24.1947 32.9656C24.1553 32.9948 24.1256 33.0356 24.1096 33.0825C23.5625 34.7032 22.6378 36.0686 21.3356 37.1785C21.2974 37.2109 21.2499 37.2301 21.2004 37.2332C21.1508 37.2362 21.1019 37.223 21.0609 37.1956C19.6049 36.1968 18.6395 34.8281 18.1647 33.0893C18.1518 33.0408 18.1244 32.9977 18.0865 32.9665C18.0487 32.9352 18.0024 32.9174 17.9544 32.9157ZM25.0151 25.8098C25.4051 26.2728 25.6527 26.283 25.9376 26.8823C25.9898 26.9915 26.0699 27.0732 26.1614 27.1104C26.5299 27.2557 26.713 27.1456 26.7108 26.7801C26.7063 24.197 26.7063 21.6422 26.7108 19.1158C26.7108 18.8162 26.6339 18.7958 26.4802 19.0545C25.3814 20.8932 25.127 22.6126 24.9303 25.4999C24.926 25.5613 24.9313 25.6204 24.9459 25.6737C24.9605 25.7269 24.984 25.7732 25.0151 25.8098ZM16.703 26.2149L17.171 25.8608C17.206 25.8339 17.2329 25.7926 17.249 25.7411C17.2651 25.6896 17.2698 25.6298 17.2626 25.568C16.971 22.9531 16.9065 21.0634 15.6992 19.1056C15.6857 19.0837 15.6702 19.0652 15.6541 19.0521C15.638 19.0389 15.622 19.0316 15.6076 19.0307L15.5432 19.0273C15.5292 19.0263 15.5151 19.0292 15.5019 19.036C15.4887 19.0428 15.4766 19.0532 15.4665 19.0666C15.4563 19.0801 15.4482 19.0962 15.4427 19.1141C15.4372 19.1319 15.4345 19.151 15.4347 19.1703L15.4313 26.8653C15.4314 26.9289 15.4423 26.989 15.463 27.0401C15.4837 27.0912 15.5136 27.1317 15.55 27.1581C15.6359 27.2148 15.7376 27.2364 15.8552 27.2228C15.9088 27.2175 15.9607 27.199 16.0067 27.1688C16.0527 27.1387 16.0914 27.0976 16.1197 27.0491L16.4792 26.4431C16.5222 26.3704 16.5968 26.2944 16.703 26.2149ZM20.9218 26.9197L19.9723 29.0886C19.9539 29.1302 19.951 29.1774 19.9639 29.2225C19.9769 29.2677 20.0049 29.3081 20.0435 29.3372L20.9049 29.9977C20.9444 30.0272 20.9912 30.044 21.0387 30.0459C21.0862 30.0477 21.1319 30.0344 21.1694 30.0079L22.102 29.344C22.1393 29.3175 22.1661 29.2785 22.1779 29.2338C22.1896 29.1891 22.1856 29.1413 22.1664 29.0988L21.1829 26.9231C21.0948 26.7279 21.0077 26.7268 20.9218 26.9197ZM18.0799 30.0965C17.1597 29.8649 16.5256 29.3542 16.1774 28.5643C16.1516 28.506 16.1194 28.4546 16.0827 28.4131C16.046 28.3716 16.0056 28.3408 15.9637 28.3225C15.8077 28.2567 15.671 28.2737 15.5534 28.3736C15.5176 28.4031 15.4885 28.4448 15.4686 28.4956C15.4486 28.5463 15.4381 28.6048 15.4381 28.6664L15.4415 31.5231C15.4415 31.571 15.4597 31.6169 15.4921 31.6507C15.5246 31.6845 15.5686 31.7036 15.6144 31.7036L17.7611 31.6865C17.8004 31.6863 17.8395 31.6683 17.8716 31.6354C17.9038 31.6025 17.927 31.5568 17.9375 31.5061L18.185 30.3042C18.1944 30.2575 18.1887 30.2097 18.169 30.171C18.1494 30.1323 18.1175 30.1055 18.0799 30.0965ZM24.4827 31.7308L26.4429 31.7036C26.4882 31.7027 26.5313 31.6836 26.563 31.6505C26.5947 31.6174 26.6125 31.5729 26.6124 31.5265L26.6158 28.5813C26.6157 28.5229 26.6006 28.4671 26.573 28.4228C26.5454 28.3785 26.5068 28.348 26.4632 28.3362C26.2903 28.2885 26.0766 28.4349 25.9715 28.6017C25.5351 29.2986 24.9281 29.8036 24.1503 30.1169C24.102 30.1363 24.0603 30.1681 24.0302 30.2086C24.0001 30.249 23.983 30.2964 23.9808 30.345C23.9649 30.7922 24.0486 31.2042 24.2317 31.581C24.2538 31.6266 24.2892 31.665 24.3336 31.6915C24.3781 31.7181 24.4298 31.7317 24.4827 31.7308ZM19.5382 30.4233C19.5173 30.414 19.4948 30.4091 19.472 30.4089C19.4492 30.4087 19.4266 30.4132 19.4056 30.4221C19.3846 30.4311 19.3657 30.4443 19.35 30.4609C19.3343 30.4775 19.3221 30.4971 19.3143 30.5187C18.9277 31.556 19.216 31.9305 20.1791 31.6423C20.2406 31.6233 20.2923 31.5811 20.3233 31.5245C20.3543 31.468 20.3622 31.4015 20.3453 31.3392C20.2232 30.9102 19.9542 30.6049 19.5382 30.4233ZM22.0172 31.6865C22.9396 31.884 23.2177 31.5265 22.8515 30.614C22.8329 30.5673 22.7997 30.5282 22.7572 30.5029C22.7148 30.4776 22.6656 30.4675 22.6175 30.4744C21.9822 30.5584 21.7154 30.8943 21.8171 31.4822C21.8248 31.5319 21.8481 31.5781 21.8839 31.6147C21.9197 31.6512 21.9662 31.6763 22.0172 31.6865ZM20.2673 32.9429C18.3037 32.4594 19.9044 34.4819 20.2673 34.9926C20.3871 35.1606 20.4459 35.1413 20.4436 34.9348L20.4301 33.154C20.4289 33.1043 20.4123 33.0565 20.3828 33.0183C20.3534 32.9801 20.3127 32.9536 20.2673 32.9429ZM21.8307 34.8973C22.3032 34.323 22.6401 33.7351 22.8413 33.1336C22.8481 33.1127 22.8505 33.0907 22.8484 33.0689C22.8464 33.0472 22.8398 33.0261 22.8293 33.0072C22.8187 32.9882 22.8044 32.9718 22.7872 32.959C22.77 32.9462 22.7503 32.9372 22.7294 32.9327C22.4196 32.8646 22.1076 32.8703 21.7934 32.9497C21.7459 32.9612 21.7037 32.989 21.6735 33.0286C21.6433 33.0681 21.627 33.1171 21.6272 33.1676V34.8292C21.6272 35.038 21.695 35.0607 21.8307 34.8973Z" fill="#FDFDFD"/>
<path d="M106.381 19.6434C102.759 20.481 102.227 15.4725 105.917 15.5338C106.387 15.5428 106.626 15.8368 106.632 16.4156C106.632 16.4359 106.628 16.4558 106.619 16.4741C106.61 16.4924 106.598 16.5086 106.582 16.5215C106.567 16.5345 106.549 16.5439 106.529 16.5491C106.51 16.5543 106.489 16.5553 106.47 16.5518C103.394 15.9594 103.831 19.5413 106.48 18.8297C106.499 18.8245 106.518 18.824 106.538 18.8281C106.557 18.8323 106.574 18.841 106.589 18.8535C106.604 18.8659 106.615 18.8818 106.622 18.8996C106.629 18.9174 106.632 18.9367 106.629 18.9556L106.571 19.4357C106.565 19.4855 106.544 19.5323 106.51 19.5695C106.476 19.6067 106.431 19.6326 106.381 19.6434Z" fill="#FDFDFD"/>
<path d="M108.42 16.5316C107.599 16.6723 107.291 16.426 107.494 15.7927C107.508 15.7473 107.537 15.7075 107.578 15.6793C107.618 15.6511 107.667 15.636 107.718 15.6361L110.543 15.5884C110.594 15.5875 110.644 15.602 110.684 15.6297C110.724 15.6573 110.753 15.6967 110.767 15.7416C110.97 16.4113 110.661 16.6598 109.838 16.4873C109.817 16.4833 109.795 16.4837 109.775 16.4884C109.754 16.4932 109.735 16.5022 109.719 16.5149C109.702 16.5275 109.689 16.5435 109.679 16.5616C109.67 16.5798 109.665 16.5998 109.665 16.6201L109.621 19.5176C109.621 19.5418 109.616 19.5657 109.608 19.588C109.6 19.6103 109.587 19.6306 109.572 19.6476C109.556 19.6647 109.538 19.6782 109.518 19.6875C109.498 19.6967 109.476 19.7015 109.454 19.7015L108.796 19.7083C108.758 19.708 108.72 19.6883 108.692 19.6533C108.664 19.6183 108.648 19.5708 108.647 19.521L108.607 16.6644C108.606 16.6438 108.6 16.6238 108.59 16.6056C108.58 16.5874 108.566 16.5714 108.548 16.5588C108.53 16.5462 108.51 16.5373 108.488 16.5326C108.466 16.5279 108.443 16.5275 108.42 16.5316Z" fill="#FDFDFD"/>
<path d="M112.952 17.2428L113.875 17.1815C113.936 17.1774 113.993 17.1835 114.041 17.1991C114.089 17.2148 114.125 17.2393 114.146 17.27C114.259 17.438 114.284 17.6207 114.221 17.8182C114.205 17.8658 114.175 17.9075 114.133 17.9374C114.091 17.9674 114.04 17.984 113.987 17.985L113.03 18.0191C112.975 18.0201 112.923 18.0351 112.881 18.0619C112.838 18.0887 112.807 18.1261 112.793 18.1689C112.723 18.3732 112.722 18.5741 112.789 18.7715C112.804 18.8133 112.835 18.8495 112.878 18.8752C112.922 18.9008 112.975 18.9146 113.03 18.9145H114.119C114.172 18.9144 114.223 18.9302 114.267 18.96C114.31 18.9897 114.344 19.0321 114.363 19.0814C114.453 19.3288 114.42 19.5331 114.261 19.6943C114.228 19.7285 114.184 19.7559 114.132 19.7747C114.08 19.7934 114.021 19.8032 113.959 19.8032L112.016 19.7862C111.969 19.7853 111.924 19.7666 111.891 19.7341C111.858 19.7017 111.84 19.658 111.84 19.6125V15.8161C111.84 15.7689 111.858 15.7235 111.89 15.6897C111.923 15.656 111.967 15.6366 112.013 15.6357L114.102 15.5676C114.155 15.5654 114.206 15.5817 114.245 15.6129C114.283 15.6442 114.306 15.6878 114.309 15.7344L114.339 16.269C114.34 16.2915 114.337 16.3141 114.328 16.3354C114.319 16.3567 114.306 16.3764 114.288 16.3932C114.271 16.41 114.25 16.4236 114.227 16.4332C114.204 16.4429 114.178 16.4484 114.153 16.4494L112.949 16.4869C112.9 16.4878 112.854 16.5054 112.819 16.536C112.785 16.5665 112.766 16.6076 112.766 16.6503V17.0521C112.766 17.078 112.771 17.1037 112.78 17.1275C112.79 17.1513 112.804 17.1728 112.821 17.1907C112.839 17.2085 112.859 17.2223 112.882 17.2313C112.904 17.2403 112.928 17.2442 112.952 17.2428Z" fill="#FDFDFD"/>
<path d="M115.703 19.5211L115.72 15.7281C115.72 15.7016 115.726 15.6753 115.737 15.6513C115.748 15.6273 115.765 15.6061 115.785 15.5891C115.805 15.5722 115.828 15.56 115.853 15.5535C115.879 15.5469 115.905 15.5461 115.93 15.5511C116.938 15.7315 118.233 15.3536 118.606 16.6611C118.925 17.7711 117.782 18.4078 116.829 18.3601C116.779 18.3583 116.73 18.3722 116.691 18.3994C116.651 18.4266 116.624 18.4656 116.612 18.5099C116.542 18.7823 116.543 19.0479 116.615 19.3066C116.632 19.3623 116.634 19.419 116.624 19.4699C116.613 19.5207 116.589 19.5634 116.554 19.5926C116.367 19.7515 116.126 19.7867 115.832 19.6982C115.794 19.6876 115.761 19.6645 115.738 19.6324C115.714 19.6004 115.702 19.5612 115.703 19.5211ZM116.646 17.3523C116.653 17.4015 116.677 17.4467 116.713 17.4793C116.75 17.5119 116.797 17.5296 116.846 17.5293C117.475 17.5338 117.735 17.3023 117.626 16.8347C117.614 16.7837 117.59 16.7354 117.556 16.6936C117.521 16.6517 117.477 16.6173 117.426 16.593C116.786 16.2797 116.526 16.5328 116.646 17.3523Z" fill="#FDFDFD"/>
<path d="M122.181 19.69C118.115 20.3641 118.997 14.3988 122.419 15.7267C122.472 15.7476 122.519 15.7796 122.556 15.82C122.592 15.8603 122.617 15.9078 122.629 15.9582C122.672 16.1285 122.663 16.2874 122.602 16.4349C122.585 16.4769 122.551 16.5104 122.506 16.5287C122.462 16.5469 122.41 16.5487 122.361 16.5337C121.828 16.377 121.311 16.4066 120.811 16.6222C120.763 16.6436 120.72 16.6753 120.684 16.7152C120.649 16.7551 120.622 16.8022 120.604 16.8537C120.105 18.4699 120.719 19.1191 122.446 18.8013C122.493 18.7932 122.541 18.8021 122.58 18.8261C122.619 18.8502 122.646 18.8876 122.656 18.9307C122.751 19.3688 122.593 19.6219 122.181 19.69Z" fill="#FDFDFD"/>
<path d="M124.442 16.5311C123.691 16.6491 123.384 16.3926 123.519 15.7616C123.529 15.7162 123.555 15.6754 123.594 15.6463C123.633 15.6171 123.682 15.6013 123.733 15.6016L126.531 15.6118C126.584 15.6117 126.636 15.6254 126.68 15.6514C126.724 15.6773 126.758 15.7144 126.778 15.7582C127.093 16.4346 126.794 16.6764 125.883 16.4834C125.862 16.4788 125.84 16.4787 125.819 16.483C125.798 16.4873 125.778 16.4959 125.761 16.5083C125.744 16.5207 125.731 16.5365 125.721 16.5546C125.712 16.5727 125.707 16.5926 125.707 16.6128L125.673 19.4593C125.672 19.5156 125.655 19.5693 125.627 19.6097C125.598 19.6501 125.559 19.6741 125.517 19.6772L124.825 19.7316C124.807 19.7335 124.788 19.7298 124.77 19.7209C124.752 19.712 124.736 19.698 124.722 19.6798C124.708 19.6616 124.697 19.6395 124.689 19.6151C124.681 19.5906 124.676 19.5642 124.676 19.5376L124.632 16.6639C124.631 16.6434 124.626 16.6234 124.615 16.6052C124.605 16.587 124.59 16.5711 124.572 16.5585C124.554 16.5459 124.533 16.5369 124.511 16.5322C124.488 16.5275 124.465 16.5271 124.442 16.5311Z" fill="#FDFDFD"/>
<path d="M136.087 17.6745C136.087 18.2317 135.867 18.766 135.474 19.16C135.082 19.554 134.55 19.7753 133.995 19.7753C133.44 19.7753 132.908 19.554 132.515 19.16C132.123 18.766 131.902 18.2317 131.902 17.6745C131.902 17.1174 132.123 16.583 132.515 16.189C132.908 15.7951 133.44 15.5737 133.995 15.5737C134.55 15.5737 135.082 15.7951 135.474 16.189C135.867 16.583 136.087 17.1174 136.087 17.6745ZM135.199 17.6881C135.199 17.3712 135.073 17.0672 134.85 16.8431C134.627 16.619 134.324 16.493 134.008 16.493C133.693 16.493 133.39 16.619 133.167 16.8431C132.943 17.0672 132.818 17.3712 132.818 17.6881C132.818 18.0051 132.943 18.3091 133.167 18.5332C133.39 18.7573 133.693 18.8832 134.008 18.8832C134.324 18.8832 134.627 18.7573 134.85 18.5332C135.073 18.3091 135.199 18.0051 135.199 17.6881Z" fill="#FDFDFD"/>
<path d="M90.2258 17.8937C90.2914 18.0253 90.3581 18.0276 90.4259 17.9005L91.5416 15.8269C91.5692 15.7736 91.6062 15.7287 91.6487 15.6969C91.6911 15.665 91.7374 15.6476 91.7824 15.6465L92.403 15.626C92.4253 15.6251 92.4476 15.6294 92.4685 15.6385C92.4894 15.6477 92.5085 15.6616 92.5247 15.6794C92.5408 15.6972 92.5537 15.7185 92.5625 15.7421C92.5713 15.7657 92.5759 15.7911 92.576 15.8167V19.4429C92.5758 19.4948 92.5599 19.545 92.5306 19.5861C92.5013 19.6272 92.4601 19.657 92.4132 19.671C92.221 19.7277 92.0277 19.7436 91.8333 19.7187C91.7846 19.712 91.7401 19.6881 91.7082 19.6517C91.6763 19.6153 91.6593 19.5688 91.6603 19.5212L91.6909 17.6451C91.6913 17.6241 91.6884 17.6028 91.6823 17.5831C91.6763 17.5634 91.6674 17.5457 91.6562 17.5315C91.645 17.5173 91.6319 17.5069 91.6179 17.5012C91.6039 17.4955 91.5894 17.4947 91.5756 17.4987L91.5043 17.5191C91.4947 17.5214 91.4815 17.5327 91.4664 17.5514C91.4514 17.5702 91.4351 17.5956 91.4196 17.6247L90.7413 18.8879C90.4496 19.4259 90.1625 19.4088 89.8799 18.8368L89.2322 17.5225C89.2158 17.4885 89.193 17.4597 89.1672 17.4406C89.1415 17.4215 89.1143 17.4132 89.0897 17.417C88.9168 17.4476 88.9609 19.2488 88.9575 19.4633C88.9564 19.5165 88.9403 19.5675 88.9116 19.6086C88.8829 19.6496 88.8431 19.6787 88.7981 19.6914C88.6059 19.7482 88.4216 19.7448 88.2453 19.6812C88.2008 19.6654 88.1623 19.6341 88.135 19.5914C88.1077 19.5487 88.0929 19.4968 88.0927 19.4429L88.0723 16.0244C88.0713 15.9686 88.0821 15.9143 88.104 15.8663C88.1258 15.8183 88.158 15.7779 88.1978 15.7486C89.2186 15.003 89.9104 17.2467 90.2258 17.8937Z" fill="#FDFDFD"/>
<path d="M94.7941 15.6315L94.1565 15.6337C94.0722 15.634 94.0041 15.7029 94.0044 15.7875L94.0175 19.5464C94.0178 19.631 94.0864 19.6994 94.1706 19.6991L94.8082 19.6969C94.8925 19.6966 94.9606 19.6277 94.9603 19.5431L94.9472 15.7842C94.9469 15.6996 94.8784 15.6312 94.7941 15.6315Z" fill="#FDFDFD"/>
<path d="M97.4395 17.1432L98.8401 17.15C98.8862 17.15 98.9306 17.1314 98.9636 17.0983C98.9965 17.0652 99.0155 17.0202 99.0164 16.9729L99.0334 15.8221C99.0343 15.7721 99.0519 15.7243 99.0831 15.6874C99.1142 15.6505 99.1568 15.627 99.2029 15.6212C99.429 15.5917 99.6461 15.6064 99.8541 15.6655C99.896 15.6771 99.933 15.7057 99.9594 15.747C99.9858 15.7882 100 15.8398 99.9999 15.8936V19.2371C99.9999 19.3048 99.9929 19.3674 99.9795 19.4213C99.9661 19.4752 99.9465 19.5191 99.9219 19.5504C99.7478 19.7638 99.4968 19.8114 99.169 19.6934C99.1254 19.6787 99.0875 19.6481 99.0607 19.6059C99.0339 19.5637 99.0196 19.5121 99.0198 19.4585L99.0164 18.1919C99.0164 18.1691 99.0119 18.1465 99.0032 18.1254C98.9945 18.1043 98.9818 18.0852 98.9657 18.0691C98.9497 18.0529 98.9306 18.0402 98.9096 18.0314C98.8887 18.0227 98.8662 18.0182 98.8434 18.0182H97.4293C97.384 18.0182 97.3405 18.0364 97.3082 18.0689C97.2758 18.1014 97.2572 18.1455 97.2563 18.1919L97.2394 19.4448C97.2387 19.5034 97.2217 19.5593 97.1915 19.6015C97.1614 19.6437 97.1204 19.6692 97.0766 19.673L96.4899 19.7172C96.4683 19.7192 96.4465 19.7155 96.426 19.7062C96.4054 19.6969 96.3866 19.6824 96.3706 19.6635C96.3546 19.6446 96.3419 19.6217 96.3333 19.5964C96.3246 19.5711 96.3202 19.5438 96.3203 19.5163V15.8153C96.3203 15.7665 96.3382 15.7197 96.37 15.6853C96.4018 15.6508 96.4449 15.6314 96.4899 15.6314L97.063 15.628C97.1083 15.6281 97.1518 15.6474 97.1841 15.6818C97.2165 15.7161 97.2351 15.7628 97.236 15.8119L97.2597 16.9661C97.2615 17.0137 97.2812 17.0587 97.3147 17.0917C97.3482 17.1247 97.3929 17.1432 97.4395 17.1432Z" fill="#FDFDFD"/>
<path d="M102.195 15.6255L101.564 15.6199C101.483 15.6192 101.417 15.6842 101.417 15.7651L101.384 19.5511C101.383 19.632 101.448 19.6981 101.528 19.6988L102.159 19.7043C102.24 19.705 102.305 19.64 102.306 19.5592L102.339 15.7731C102.34 15.6923 102.275 15.6262 102.195 15.6255Z" fill="#FDFDFD"/>
<path d="M130.508 17.6241C132.346 19.7862 129.087 19.6908 128.059 19.7351C128.036 19.736 128.013 19.7325 127.992 19.7249C127.971 19.7173 127.951 19.7056 127.935 19.6907C127.918 19.6757 127.905 19.6578 127.896 19.6379C127.887 19.618 127.883 19.5967 127.883 19.5751V15.8467C127.883 15.8 127.901 15.7548 127.933 15.7197C127.966 15.6845 128.011 15.6619 128.059 15.6561C129.094 15.5301 131.613 15.6901 130.498 17.3585C130.47 17.3988 130.457 17.4465 130.459 17.4944C130.46 17.5422 130.478 17.5878 130.508 17.6241ZM129.273 16.446C129.23 16.4339 129.184 16.4313 129.139 16.4383C129.095 16.4453 129.052 16.4617 129.014 16.4865C128.976 16.5113 128.944 16.5439 128.92 16.5821C128.896 16.6203 128.88 16.6633 128.873 16.7082C128.68 18.0667 130.589 16.8137 129.273 16.446ZM129.494 18.0122C128.976 17.8465 128.759 18.0735 128.843 18.6932C128.849 18.7428 128.871 18.7891 128.905 18.8257C128.939 18.8623 128.984 18.8874 129.032 18.8975C129.751 19.0382 129.983 18.8146 129.728 18.2267C129.705 18.1764 129.673 18.1313 129.633 18.0944C129.592 18.0575 129.545 18.0295 129.494 18.0122Z" fill="#FDFDFD"/>
<path d="M36.6942 15.7246H36.5518C36.4487 15.7246 36.3652 15.8085 36.3652 15.9119V36.3614C36.3652 36.4648 36.4487 36.5487 36.5518 36.5487H36.6942C36.7972 36.5487 36.8807 36.4648 36.8807 36.3614V15.9119C36.8807 15.8085 36.7972 15.7246 36.6942 15.7246Z" fill="#FDFDFD"/>
<path d="M80.8793 15.7139H72.0686C72.0199 15.7139 71.9805 15.7535 71.9805 15.8024V23.4565C71.9805 23.5054 72.0199 23.545 72.0686 23.545H80.8793C80.9279 23.545 80.9674 23.5054 80.9674 23.4565V15.8024C80.9674 15.7535 80.9279 15.7139 80.8793 15.7139Z" fill="#FDFDFD"/>
<path d="M92.3734 25.8576C92.3734 26.4139 92.1533 26.9474 91.7615 27.3407C91.3698 27.7341 90.8384 27.955 90.2844 27.955C90.01 27.955 89.7384 27.9008 89.4849 27.7954C89.2315 27.69 89.0012 27.5355 88.8072 27.3407C88.6132 27.146 88.4593 26.9147 88.3543 26.6603C88.2493 26.4058 88.1953 26.1331 88.1953 25.8576C88.1953 25.5822 88.2493 25.3095 88.3543 25.055C88.4593 24.8005 88.6132 24.5693 88.8072 24.3746C89.0012 24.1798 89.2315 24.0253 89.4849 23.9199C89.7384 23.8145 90.01 23.7603 90.2844 23.7603C90.8384 23.7603 91.3698 23.9812 91.7615 24.3746C92.1533 24.7679 92.3734 25.3014 92.3734 25.8576ZM90.1092 27.0834C90.4081 27.1283 90.7139 27.0425 90.9594 26.845C91.2048 26.6474 91.3698 26.3543 91.4181 26.0301C91.4664 25.7059 91.3939 25.3772 91.2167 25.1163C91.0395 24.8553 90.772 24.6835 90.4731 24.6387C90.1742 24.5938 89.8684 24.6796 89.6229 24.8771C89.3774 25.0747 89.2124 25.3678 89.1642 25.692C89.1159 26.0162 89.1884 26.3449 89.3656 26.6058C89.5428 26.8668 89.8103 27.0386 90.1092 27.0834Z" fill="#FDFDFD"/>
<path d="M93.6362 26.9735C91.8422 24.253 96.7359 22.6902 96.5629 24.5663C96.5587 24.611 96.5364 24.6522 96.5009 24.6809C96.4653 24.7096 96.4193 24.7235 96.373 24.7195C95.515 24.6548 94.518 24.4096 94.2806 25.5809C94.0364 26.7794 95.2471 27.3038 96.2611 27.0212C96.3091 27.0079 96.3597 27.0109 96.4038 27.0296C96.4479 27.0483 96.4826 27.0815 96.5019 27.1233C97.0852 28.4069 94.3179 28.0086 93.6362 26.9735Z" fill="#FDFDFD"/>
<path d="M100.505 25.7888C101.018 26.3109 101.115 26.8137 100.796 27.2972C100.271 28.1007 98.9414 27.9543 98.0766 27.9135C98.0302 27.9119 97.986 27.8931 97.9522 27.8604C97.9185 27.8278 97.8976 27.7837 97.8935 27.7364C97.7963 26.4902 97.8144 25.2475 97.9478 24.0081C97.952 23.964 97.9738 23.9234 98.0086 23.8948C98.0434 23.8662 98.0885 23.8519 98.1343 23.8549C98.9143 23.8957 101.682 23.6983 100.481 25.5301C100.455 25.5695 100.443 25.6166 100.448 25.6636C100.452 25.7107 100.472 25.7549 100.505 25.7888ZM99.6672 24.8253C99.4908 24.6528 99.2839 24.5892 99.0465 24.6346C98.9977 24.6438 98.9525 24.6685 98.9168 24.7055C98.8811 24.7426 98.8566 24.7902 98.8465 24.8423C98.7583 25.3439 98.9855 25.5221 99.5281 25.3769C99.8966 25.277 99.943 25.0931 99.6672 24.8253ZM99.813 26.8784C99.8522 26.8336 99.8804 26.7802 99.8953 26.7225C99.9102 26.6648 99.9115 26.6044 99.899 26.5462C99.8864 26.4879 99.8605 26.4334 99.8231 26.387C99.7858 26.3406 99.7382 26.3037 99.6841 26.2791C98.9787 25.9591 98.6927 26.1532 98.8261 26.8614C98.8365 26.9171 98.8595 26.9684 98.8928 27.0103C98.9262 27.0522 98.9687 27.083 99.016 27.0997C99.3212 27.2109 99.5869 27.1372 99.813 26.8784Z" fill="#FDFDFD"/>
<path d="M103.005 23.8442H102.252C102.204 23.8442 102.164 23.8839 102.164 23.9328V27.8551C102.164 27.904 102.204 27.9437 102.252 27.9437H103.005C103.054 27.9437 103.093 27.904 103.093 27.8551V23.9328C103.093 23.8839 103.054 23.8442 103.005 23.8442Z" fill="#FDFDFD"/>
<path d="M105.109 24.6998C104.282 24.8383 103.982 24.5999 104.211 23.9848C104.225 23.9429 104.256 23.9066 104.298 23.8809C104.34 23.8553 104.391 23.8416 104.445 23.8418L107.168 23.852C107.221 23.852 107.272 23.866 107.315 23.8921C107.357 23.9182 107.389 23.9553 107.405 23.9984C107.629 24.5863 107.338 24.8065 106.53 24.659C106.509 24.655 106.487 24.6555 106.466 24.6604C106.445 24.6654 106.426 24.6746 106.409 24.6876C106.392 24.7006 106.379 24.7169 106.369 24.7355C106.36 24.754 106.355 24.7744 106.354 24.7952L106.317 27.6144C106.316 27.6717 106.299 27.7262 106.269 27.7672C106.24 27.8082 106.2 27.8327 106.157 27.8357L105.493 27.8902C105.474 27.892 105.455 27.8882 105.438 27.8789C105.42 27.8697 105.404 27.8552 105.39 27.8363C105.376 27.8175 105.364 27.7947 105.356 27.7694C105.348 27.7441 105.344 27.7168 105.343 27.6893L105.299 24.8394C105.299 24.8182 105.294 24.7974 105.284 24.7784C105.274 24.7593 105.259 24.7426 105.241 24.7294C105.223 24.7161 105.202 24.7066 105.179 24.7015C105.157 24.6964 105.133 24.6958 105.109 24.6998Z" fill="#FDFDFD"/>
<path d="M115.698 23.8179H114.993C114.931 23.8179 114.881 23.8682 114.881 23.9302V27.8322C114.881 27.8942 114.931 27.9445 114.993 27.9445H115.698C115.76 27.9445 115.81 27.8942 115.81 27.8322V23.9302C115.81 23.8682 115.76 23.8179 115.698 23.8179Z" fill="#FDFDFD"/>
<path d="M119.482 25.3165L120.883 25.3199C120.929 25.3208 120.973 25.3026 121.006 25.2694C121.039 25.2362 121.058 25.1907 121.059 25.1429L121.08 24.0703C121.079 24.0286 121.097 23.9877 121.129 23.9552C121.16 23.9227 121.204 23.9007 121.253 23.8933L121.805 23.815C121.833 23.8111 121.862 23.8129 121.889 23.8203C121.916 23.8277 121.941 23.8405 121.963 23.8579C121.984 23.8752 122.002 23.8968 122.014 23.9211C122.026 23.9454 122.032 23.9719 122.033 23.9988L122.043 27.5331C122.043 27.5899 122.031 27.6442 122.007 27.6904C121.984 27.7365 121.951 27.7727 121.911 27.7952C121.721 27.8997 121.507 27.9451 121.27 27.9314C121.223 27.9288 121.18 27.9075 121.147 27.8716C121.115 27.8358 121.095 27.7879 121.093 27.7374L121.039 26.3959C121.037 26.3463 121.019 26.2992 120.986 26.2644C120.954 26.2296 120.911 26.2096 120.866 26.2086L119.547 26.1882C119.496 26.1871 119.446 26.2049 119.409 26.238C119.372 26.271 119.349 26.3166 119.347 26.3652L119.279 27.6182C119.276 27.6731 119.26 27.7246 119.234 27.766C119.208 27.8073 119.173 27.8366 119.133 27.8497C118.93 27.9133 118.73 27.9303 118.533 27.9008C118.486 27.8942 118.443 27.8699 118.412 27.8324C118.381 27.7948 118.363 27.7466 118.363 27.6965V24.0737C118.363 24.0496 118.368 24.0257 118.376 24.0034C118.385 23.9811 118.397 23.9608 118.413 23.9437C118.429 23.9267 118.447 23.9131 118.468 23.9039C118.489 23.8946 118.511 23.8899 118.533 23.8899L119.106 23.8865C119.151 23.8866 119.195 23.9062 119.227 23.9412C119.259 23.9763 119.278 24.0238 119.279 24.0737L119.303 25.1361C119.304 25.1845 119.324 25.2304 119.358 25.264C119.391 25.2977 119.436 25.3165 119.482 25.3165Z" fill="#FDFDFD"/>
<path d="M129.341 25.694C129.687 25.2877 129.927 24.8122 130.063 24.2674C130.077 24.2112 130.1 24.1594 130.131 24.115C130.162 24.0705 130.2 24.0344 130.243 24.0086C130.503 23.8566 130.772 23.8044 131.05 23.852C131.07 23.8554 131.09 23.8637 131.106 23.8762C131.123 23.8887 131.137 23.9052 131.146 23.9242C131.156 23.9433 131.161 23.9645 131.161 23.9862C131.161 24.0079 131.157 24.0296 131.148 24.0495C130.472 25.6634 129.924 26.8063 129.503 27.4782C128.974 28.3226 127.53 28.0162 127.988 27.2296C128.009 27.193 128.046 27.1644 128.094 27.1479C128.142 27.1315 128.198 27.1279 128.255 27.1377C129.28 27.3182 127.618 24.5262 127.475 24.2061C127.455 24.1605 127.452 24.1098 127.465 24.0639C127.478 24.0179 127.507 23.98 127.547 23.9576C127.748 23.8486 127.956 23.8157 128.171 23.8588C128.222 23.8684 128.271 23.8914 128.314 23.9257C128.356 23.9601 128.391 24.0048 128.415 24.0563L129.161 25.66C129.169 25.6771 129.18 25.6922 129.195 25.7038C129.21 25.7155 129.227 25.7234 129.245 25.7268C129.263 25.7302 129.281 25.729 129.298 25.7232C129.314 25.7175 129.329 25.7075 129.341 25.694Z" fill="#FDFDFD"/>
<path d="M132.927 23.8027L132.201 23.7989C132.143 23.7986 132.095 23.8456 132.095 23.9039L132.075 27.7649C132.075 27.8232 132.122 27.8707 132.18 27.871L132.905 27.8749C132.963 27.8752 133.011 27.8281 133.011 27.7699L133.031 23.9088C133.031 23.8505 132.985 23.803 132.927 23.8027Z" fill="#FDFDFD"/>
<path d="M134.384 25.8972C134.723 26.417 135.169 26.8074 135.723 27.0685C135.773 27.0928 135.817 27.1268 135.85 27.1677C135.883 27.2086 135.905 27.2551 135.913 27.3034C135.999 27.8096 135.825 28.0309 135.391 27.9673C134.682 27.8652 133.644 26.4658 133.264 25.8904C133.237 25.8482 133.223 25.799 133.225 25.7491C133.226 25.6993 133.242 25.6512 133.271 25.6112C133.949 24.6715 134.628 23.4729 135.618 23.8339C135.636 23.8406 135.651 23.8516 135.664 23.866C135.676 23.8805 135.684 23.8979 135.689 23.9168C135.693 23.9358 135.693 23.9557 135.688 23.9751C135.684 23.9944 135.675 24.0125 135.662 24.0279L134.394 25.6146C134.363 25.6535 134.346 25.7017 134.344 25.7524C134.342 25.803 134.356 25.8537 134.384 25.8972Z" fill="#FDFDFD"/>
<path d="M111.341 25.2303C110.795 25.2099 109.916 28.2573 108.689 27.8487C108.642 27.834 108.602 27.8033 108.573 27.7611C108.545 27.7188 108.529 27.6672 108.529 27.6137V24.151C108.529 24.0991 108.545 24.0488 108.575 24.0077C108.604 23.9666 108.645 23.9369 108.692 23.9229C108.884 23.8661 109.078 23.8502 109.272 23.8752C109.321 23.8811 109.365 23.905 109.397 23.9421C109.429 23.9793 109.446 24.027 109.445 24.0761L109.408 26.3914C109.405 26.5548 109.452 26.573 109.547 26.4459L111.314 24.0352C111.348 23.9879 111.39 23.9493 111.437 23.9226C111.484 23.896 111.533 23.8821 111.581 23.882L112.07 23.8854C112.117 23.8863 112.162 23.9064 112.195 23.9415C112.228 23.9765 112.246 24.0236 112.246 24.0727V27.6886C112.246 27.7383 112.229 27.7861 112.197 27.8231C112.166 27.8601 112.123 27.8837 112.077 27.8895C111.882 27.9145 111.698 27.9009 111.524 27.8487C111.477 27.8337 111.436 27.803 111.408 27.7611C111.38 27.7193 111.366 27.6687 111.368 27.6171L111.459 25.4006C111.46 25.379 111.458 25.3575 111.453 25.3372C111.447 25.317 111.439 25.2984 111.428 25.2826C111.417 25.2667 111.403 25.254 111.388 25.245C111.373 25.236 111.357 25.2311 111.341 25.2303Z" fill="#FDFDFD"/>
<path d="M124.204 24.4954C124.458 23.8587 124.733 23.6681 125.404 23.903C125.451 23.9202 125.495 23.9492 125.532 23.9879C125.57 24.0267 125.6 24.0743 125.621 24.1277L127.012 27.6211C127.02 27.6419 127.024 27.6642 127.024 27.6865C127.024 27.7089 127.019 27.7309 127.01 27.7513C127.001 27.7716 126.988 27.7899 126.972 27.8049C126.956 27.82 126.937 27.8316 126.917 27.839C126.306 28.0478 125.943 27.8503 125.828 27.2466C125.818 27.1949 125.793 27.1484 125.759 27.1148C125.724 27.0813 125.681 27.0629 125.638 27.0627L124.309 27.0525C124.265 27.0523 124.221 27.0707 124.184 27.1046C124.148 27.1385 124.12 27.186 124.105 27.2397C123.961 27.7913 123.603 28.0138 123.034 27.9071C123.013 27.9033 122.993 27.8948 122.976 27.8822C122.959 27.8696 122.945 27.8533 122.935 27.8344C122.925 27.8155 122.919 27.7945 122.918 27.773C122.917 27.7514 122.921 27.7297 122.929 27.7096C123.354 26.6337 123.779 25.5623 124.204 24.4954ZM124.892 25.2683C124.408 26.1718 124.517 26.4918 125.218 26.2285C125.261 26.2124 125.296 26.1798 125.316 26.1377C125.336 26.0957 125.338 26.0476 125.323 26.0038L125.072 25.2785C125.024 25.1378 124.964 25.1344 124.892 25.2683Z" fill="#FDFDFD"/>
<path d="M137.915 26.2968C138.559 25.6544 139.11 24.9292 139.566 24.1211C139.6 24.064 139.639 24.0158 139.682 23.9812C139.725 23.9466 139.769 23.9267 139.811 23.9236L140.567 23.8793C140.587 23.8784 140.606 23.8828 140.625 23.8923C140.644 23.9018 140.66 23.9163 140.675 23.9347C140.689 23.9532 140.7 23.9754 140.708 23.9998C140.716 24.0242 140.72 24.0504 140.719 24.0768L140.692 27.4068C140.691 27.4753 140.683 27.5386 140.669 27.5926C140.655 27.6465 140.635 27.6899 140.611 27.72C140.441 27.9334 140.194 27.9822 139.868 27.8664C139.823 27.8505 139.784 27.8192 139.756 27.777C139.729 27.7348 139.715 27.6839 139.716 27.6315L139.719 25.4966C139.721 25.2333 139.647 25.2106 139.495 25.4286L137.908 27.6996C137.872 27.7494 137.829 27.7903 137.782 27.8193C137.735 27.8482 137.685 27.8644 137.637 27.8664L137.053 27.8834C137.032 27.8844 137.012 27.8802 136.992 27.8712C136.972 27.8622 136.954 27.8486 136.939 27.8311C136.924 27.8136 136.912 27.7927 136.903 27.7695C136.895 27.7463 136.891 27.7214 136.891 27.6962L136.918 24.1279C136.918 24.076 136.933 24.026 136.961 23.9854C136.989 23.9448 137.029 23.916 137.074 23.9032C137.279 23.8442 137.482 23.8476 137.681 23.9134C137.722 23.9281 137.758 23.9592 137.783 24.002C137.808 24.0448 137.821 24.0972 137.82 24.1517L137.783 26.2491C137.78 26.3694 137.824 26.3853 137.915 26.2968Z" fill="#FDFDFD"/>
<path d="M80.8793 28.4785H72.0686C72.0199 28.4785 71.9805 28.5182 71.9805 28.567V36.2211C71.9805 36.27 72.0199 36.3097 72.0686 36.3097H80.8793C80.9279 36.3097 80.9674 36.27 80.9674 36.2211V28.567C80.9674 28.5182 80.9279 28.4785 80.8793 28.4785Z" fill="#FDFDFD"/>
<path d="M106.276 31.4858C105.781 31.7627 105.567 31.5902 105.635 30.9682C105.641 30.9182 105.664 30.8719 105.699 30.8371C105.734 30.8023 105.78 30.7813 105.829 30.7776C106.229 30.7503 106.431 30.9001 106.436 31.227C106.437 31.2775 106.422 31.3283 106.394 31.3739C106.366 31.4194 106.325 31.4581 106.276 31.4858Z" fill="#FDFDFD"/>
<path d="M107.017 30.9806C107.35 30.7082 107.56 30.782 107.648 31.2019C107.659 31.2527 107.654 31.3057 107.633 31.3533C107.612 31.4009 107.577 31.4409 107.533 31.4675C107.153 31.699 106.942 31.6309 106.899 31.2632C106.892 31.2111 106.9 31.1579 106.921 31.1084C106.941 31.0589 106.975 31.0149 107.017 30.9806Z" fill="#FDFDFD"/>
<path d="M90.5031 33.94L91.2831 32.3056C91.3114 32.245 91.3459 32.1925 91.3821 32.1548C91.4184 32.1172 91.4548 32.0962 91.4866 32.0945L92.2293 32.0503C92.2481 32.0487 92.2665 32.053 92.2828 32.0627C92.2991 32.0724 92.3126 32.0872 92.3222 32.1057C92.3317 32.1242 92.3369 32.1457 92.3373 32.1682C92.3376 32.1907 92.3331 32.2134 92.3242 32.2341C91.7341 33.6029 90.7914 36.4289 89.4484 36.1803C89.3959 36.1711 89.3468 36.1479 89.3063 36.1132C89.2657 36.0785 89.2352 36.0335 89.2178 35.9829C89.0211 35.4335 89.2167 35.1861 89.8045 35.2406C89.9175 35.252 89.9503 35.2077 89.9028 35.1078L88.5599 32.2954C88.5499 32.2747 88.5441 32.2519 88.5431 32.2291C88.5421 32.2063 88.5459 32.184 88.5542 32.164C88.5625 32.1441 88.575 32.1271 88.5907 32.1144C88.6064 32.1018 88.6249 32.0938 88.6447 32.0911L89.2212 32.0026C89.2695 31.9954 89.3203 32.0067 89.3666 32.0348C89.4129 32.0629 89.4522 32.1065 89.4789 32.1592L90.3369 33.9195C90.3957 34.0398 90.4511 34.0466 90.5031 33.94Z" fill="#FDFDFD"/>
<path d="M94.2624 33.5457C94.9068 33.0112 95.4596 31.748 96.4159 32.0237C96.4353 32.0291 96.453 32.0393 96.4674 32.0534C96.4819 32.0675 96.4926 32.0851 96.4986 32.1046C96.5047 32.1242 96.5058 32.145 96.5021 32.1654C96.4983 32.1857 96.4897 32.2049 96.477 32.2212L95.3137 33.7194C95.2802 33.762 95.2585 33.8116 95.2513 33.8623C95.2441 33.913 95.2516 33.9626 95.273 34.0054C95.5715 34.6137 96.0282 35.0087 96.6431 35.1903C96.693 35.2052 96.737 35.2335 96.7691 35.2713C96.8013 35.309 96.8201 35.3544 96.8229 35.4014C96.9517 37.5907 94.7338 34.8498 94.276 34.2199C94.1991 34.1155 94.1596 34.1268 94.1573 34.2539L94.1132 35.8985C94.1123 35.9511 94.0975 36.0012 94.0712 36.0412C94.0449 36.0812 94.0084 36.1088 93.9674 36.1198C93.7503 36.1743 93.5378 36.1731 93.3298 36.1164C93.2854 36.1049 93.2459 36.077 93.2177 36.0369C93.1895 35.9969 93.174 35.947 93.1738 35.8951V32.3029C93.1737 32.246 93.1895 32.1914 93.2182 32.1495C93.2469 32.1075 93.2866 32.081 93.3298 32.0748L93.9097 31.9999C93.9305 31.9966 93.9518 31.999 93.9721 32.0069C93.9925 32.0148 94.0114 32.028 94.0277 32.0457C94.0441 32.0634 94.0574 32.0851 94.0669 32.1095C94.0763 32.1339 94.0817 32.1604 94.0827 32.1872L94.1302 33.481C94.1324 33.5945 94.1765 33.6161 94.2624 33.5457Z" fill="#FDFDFD"/>
<path d="M98.8427 34.9622C99.0846 35.8361 98.8234 36.1857 98.0593 36.0109C98.013 36.0001 97.9717 35.9734 97.9421 35.935C97.9125 35.8967 97.8965 35.849 97.8965 35.7998L97.9304 32.2315C97.9302 32.1838 97.9464 32.1377 97.9761 32.101C98.0059 32.0643 98.0473 32.0394 98.0932 32.0306C98.586 31.9467 99.0699 31.9455 99.5447 32.0272C100.901 32.2588 101.318 33.5356 100.223 34.4924C100.15 34.5545 100.046 34.5983 99.9245 34.6183L98.958 34.7681C98.9376 34.7713 98.9183 34.779 98.9012 34.7907C98.8842 34.8025 98.8697 34.818 98.8588 34.8364C98.8479 34.8547 98.8409 34.8754 98.8381 34.8971C98.8353 34.9187 98.8368 34.941 98.8427 34.9622ZM99.8058 33.3517C99.7673 32.9182 99.513 32.7377 99.0427 32.8104C98.9948 32.817 98.9503 32.8403 98.9159 32.8766C98.8816 32.9129 98.8594 32.9602 98.8528 33.0112C98.7375 34.0123 99.0145 34.2211 99.6837 33.6377C99.7258 33.6008 99.7588 33.5556 99.78 33.5059C99.8013 33.4562 99.8101 33.4034 99.8058 33.3517Z" fill="#FDFDFD"/>
<path d="M106.955 31.9941L106.359 31.9972C106.271 31.9977 106.2 32.0697 106.2 32.1581L106.22 35.9783C106.22 36.0666 106.292 36.1379 106.38 36.1374L106.977 36.1343C107.065 36.1338 107.136 36.0618 107.136 35.9734L107.116 32.1533C107.115 32.0649 107.043 31.9936 106.955 31.9941Z" fill="#FDFDFD"/>
<path d="M109.645 33.5724L111.141 33.5758C111.185 33.5757 111.228 33.5572 111.26 33.5241C111.291 33.491 111.31 33.446 111.311 33.3987L111.328 32.2411C111.328 32.1921 111.347 32.1454 111.378 32.111C111.41 32.0766 111.453 32.0573 111.497 32.0572H111.992C112.037 32.0572 112.08 32.0769 112.112 32.1121C112.144 32.1472 112.162 32.1948 112.162 32.2445V35.7821C112.162 35.8359 112.147 35.8877 112.119 35.9304C112.091 35.9732 112.051 36.0046 112.006 36.0205C111.825 36.0863 111.645 36.0931 111.467 36.0409C111.425 36.0291 111.389 36.0003 111.362 35.9587C111.335 35.917 111.319 35.8647 111.317 35.8094L111.294 34.5632C111.293 34.5147 111.273 34.4684 111.239 34.4341C111.205 34.3998 111.159 34.3802 111.11 34.3793L109.72 34.3589C109.667 34.3578 109.615 34.3762 109.576 34.4099C109.538 34.4437 109.515 34.4902 109.513 34.5394L109.459 35.7345C109.456 35.794 109.443 35.8494 109.42 35.8945C109.398 35.9396 109.368 35.9726 109.333 35.9898C109.119 36.0942 108.899 36.1113 108.676 36.0409C108.63 36.0262 108.591 35.9952 108.563 35.9524C108.535 35.9096 108.52 35.8571 108.52 35.8025L108.526 32.3194C108.526 32.2648 108.54 32.2121 108.567 32.1679C108.593 32.1237 108.631 32.0899 108.676 32.0708C108.884 31.9846 109.096 31.9823 109.313 32.064C109.355 32.0798 109.391 32.1109 109.417 32.1535C109.443 32.196 109.458 32.2479 109.459 32.3024L109.466 33.3953C109.467 33.4426 109.486 33.4876 109.52 33.5207C109.553 33.5538 109.598 33.5724 109.645 33.5724Z" fill="#FDFDFD"/>
<path d="M102.804 32.1254C103.091 32.0051 103.388 31.9892 103.696 32.0778C103.742 32.0916 103.786 32.1185 103.824 32.1563C103.861 32.1941 103.892 32.2418 103.913 32.2957L105.31 35.7891C105.319 35.8099 105.323 35.8321 105.324 35.8543C105.324 35.8766 105.321 35.8985 105.313 35.9188C105.306 35.9391 105.294 35.9573 105.28 35.9724C105.265 35.9876 105.248 35.9993 105.229 36.007C104.612 36.2453 104.253 36.0614 104.154 35.4554C104.144 35.3998 104.12 35.3493 104.086 35.3126C104.052 35.2759 104.01 35.2554 103.967 35.2545L102.577 35.2443C102.535 35.2439 102.491 35.2636 102.453 35.3004C102.414 35.3372 102.383 35.3892 102.363 35.4486C102.198 35.9548 101.848 36.1579 101.312 36.058C101.292 36.0543 101.272 36.0459 101.256 36.0335C101.239 36.0211 101.225 36.005 101.216 35.9864C101.206 35.9678 101.2 35.9472 101.199 35.926C101.198 35.9048 101.202 35.8836 101.21 35.864L102.59 32.3604C102.634 32.2513 102.711 32.1668 102.804 32.1254ZM103.201 33.3342C102.545 34.2966 102.641 34.6496 103.489 34.3931C103.511 34.387 103.531 34.3766 103.548 34.3623C103.566 34.3481 103.58 34.3303 103.591 34.31C103.602 34.2898 103.608 34.2674 103.611 34.2443C103.613 34.2211 103.611 34.1976 103.604 34.1752L103.35 33.3546C103.316 33.2434 103.266 33.2366 103.201 33.3342Z" fill="#FDFDFD"/>
<path d="M116.45 33.4122L116.396 33.419C116.383 33.4201 116.368 33.4266 116.353 33.4378C116.338 33.4491 116.324 33.4649 116.311 33.4837C115.603 34.5936 114.517 36.4323 113.761 36.0475C113.717 36.0251 113.681 35.989 113.655 35.9434C113.629 35.8977 113.615 35.8442 113.615 35.7888V32.3226C113.615 32.2716 113.63 32.2222 113.658 32.1817C113.686 32.1413 113.726 32.1119 113.771 32.0979C113.968 32.0389 114.166 32.0219 114.365 32.0468C114.411 32.0527 114.454 32.0763 114.486 32.1132C114.517 32.1502 114.534 32.198 114.534 32.2477L114.548 34.4268C114.548 34.6697 114.619 34.6935 114.761 34.4983L116.372 32.2545C116.445 32.1557 116.536 32.088 116.63 32.0638C116.834 32.0162 117.035 32.0241 117.234 32.0877C117.277 32.1023 117.315 32.133 117.342 32.1752C117.369 32.2173 117.383 32.269 117.383 32.3226L117.346 35.8058C117.346 35.8622 117.33 35.916 117.302 35.9569C117.274 35.9977 117.235 36.0228 117.193 36.0271L116.634 36.0986C116.611 36.1018 116.589 36.0993 116.568 36.0914C116.547 36.0835 116.527 36.0703 116.511 36.0528C116.494 36.0353 116.481 36.0139 116.472 35.99C116.464 35.9662 116.46 35.9405 116.461 35.9147L116.549 33.5381C116.549 33.5209 116.547 33.5037 116.542 33.4876C116.537 33.4715 116.53 33.457 116.521 33.445C116.511 33.4331 116.5 33.4239 116.488 33.4182C116.476 33.4126 116.463 33.4105 116.45 33.4122Z" fill="#FDFDFD"/>
</g>
<defs>
<clipPath id="clip0_3443_13317">
<rect width="156" height="50.3918" fill="white" transform="translate(0 0.304199)"/>
</clipPath>
</defs>
</svg>
