<svg width="360" height="326" viewBox="0 0 360 326" fill="none" xmlns="http://www.w3.org/2000/svg">
<path d="M54.2002 294.6C54.2002 225.012 110.612 168.6 180.2 168.6V168.6C249.788 168.6 306.2 225.012 306.2 294.6V311.145C306.2 319.018 299.818 325.4 291.946 325.4H68.4547C60.5822 325.4 54.2002 319.018 54.2002 311.145V294.6Z" fill="#9B90C5"/>
<path d="M129.8 184.012C109.495 167.452 72.9016 150.146 88.967 213.4L129.8 184.012Z" fill="#9B90C5"/>
<path d="M230.6 184.012C250.905 167.452 287.499 150.146 271.433 213.4L230.6 184.012Z" fill="#9B90C5"/>
<path d="M206.748 274.999H153.47C151.314 274.999 149.694 276.883 150.273 278.96C152.425 286.682 159.363 302.999 179.583 302.999C199.687 302.999 207.371 286.87 209.908 279.095C210.596 276.986 208.966 274.999 206.748 274.999Z" fill="#1E1E1E"/>
<path d="M167.133 286.199L160.6 274.999H171.8L167.133 286.199Z" fill="#FDFDFD"/>
<circle cx="146.6" cy="238.599" r="19.6" fill="#FDFDFD"/>
<circle cx="213.8" cy="238.599" r="19.6" fill="#FDFDFD"/>
<circle cx="146.6" cy="234.399" r="14" fill="#1E1E1E"/>
<circle cx="213.8" cy="234.399" r="14" fill="#1E1E1E"/>
<rect width="5.6" height="5.6" transform="matrix(0.866818 0.498625 -0.501376 0.86523 152.2 227.399)" fill="#FDFDFD"/>
<rect width="5.6" height="5.6" transform="matrix(0.866818 0.498625 -0.501376 0.86523 219.4 227.399)" fill="#FDFDFD"/>
<rect width="28.2152" height="11.3249" transform="matrix(0.75969 0.650285 -0.636206 0.771519 254.246 99.9092)" fill="#EA5858"/>
<rect width="28.1318" height="11.3586" transform="matrix(0.852582 0.522593 -0.506055 0.862501 304.613 118.462)" fill="#F2B441"/>
<rect width="28.1231" height="11.3616" transform="matrix(-0.861657 0.50749 -0.493001 -0.870028 325.603 75.6465)" fill="#52C974"/>
<rect width="28.4043" height="11.2489" transform="matrix(-0.492547 -0.870286 0.862587 -0.505908 265.436 84.21)" fill="#7791FA"/>
<rect width="28.2152" height="11.3249" transform="matrix(-0.75969 0.650285 0.636206 0.771519 106.152 100.348)" fill="#52C974"/>
<rect width="28.1318" height="11.3586" transform="matrix(-0.852582 0.522593 0.506055 0.862501 55.7852 118.902)" fill="#7791FA"/>
<rect width="28.1231" height="11.3616" transform="matrix(0.861657 0.50749 0.493001 -0.870028 34.7959 76.0859)" fill="#F2B441"/>
<rect width="28.4043" height="11.2489" transform="matrix(0.492547 -0.870286 -0.862587 -0.505908 94.9639 84.6484)" fill="#EA5858"/>
</svg>
