<svg width="296" height="232" viewBox="0 0 296 232" fill="none" xmlns="http://www.w3.org/2000/svg">
<path d="M58 210C58 160.294 98.2944 120 148 120C197.706 120 238 160.294 238 210V221.818C238 227.441 233.441 232 227.818 232H68.1818C62.5586 232 58 227.441 58 221.818V210Z" fill="#9B90C5"/>
<path d="M112 131.009C97.4965 119.18 71.3583 106.819 82.8336 152L112 131.009Z" fill="#9B90C5"/>
<path d="M184 131.009C198.504 119.18 224.642 106.819 213.166 152L184 131.009Z" fill="#9B90C5"/>
<circle cx="124" cy="170" r="14" fill="#FDFDFD"/>
<circle cx="172" cy="170" r="14" fill="#FDFDFD"/>
<circle cx="124" cy="167" r="10" fill="#1E1E1E"/>
<circle cx="172" cy="167" r="10" fill="#1E1E1E"/>
<rect width="4" height="4" transform="matrix(0.866818 0.498625 -0.501376 0.86523 128 162)" fill="#FDFDFD"/>
<rect width="4" height="4" transform="matrix(0.866818 0.498625 -0.501376 0.86523 176 162)" fill="#FDFDFD"/>
<path d="M137 200C147.311 195.469 162.507 193.92 160.879 200" stroke="#1E1E1E" stroke-width="3" stroke-linecap="round"/>
<path d="M143.45 78.3544C143.194 78.6294 142.905 78.7358 142.581 78.6737C142.413 78.642 142.25 78.5429 142.11 78.3876C141.97 78.2324 141.859 78.0273 141.79 77.7955C139.976 71.8162 141.274 67.1499 145.685 63.7966C148.673 61.5344 152.39 59.0061 148.775 55.5197C145.685 52.5522 138.469 54.495 135.046 55.9721C134.856 56.053 134.651 56.0869 134.447 56.0711C134.242 56.0553 134.045 55.9903 133.871 55.8813C133.696 55.7724 133.55 55.6225 133.444 55.444C133.337 55.2656 133.274 55.0635 133.258 54.8543L132.505 44.089C132.475 43.6762 132.581 43.2643 132.806 42.9194C133.03 42.5744 133.361 42.3162 133.744 42.1861C144.088 38.6465 166.055 37.6484 168.315 53.1111C170.116 65.3801 158.264 68.2012 153.769 77.5693C153.679 77.7515 153.547 77.9062 153.386 78.0182C153.225 78.1301 153.04 78.1956 152.849 78.208C149.674 78.4653 146.54 78.5141 143.45 78.3544Z" fill="#9FB9FF"/>
<path d="M148 96C152.142 96 155.5 93.037 155.5 89.3819C155.5 85.7267 152.142 82.7637 148 82.7637C143.858 82.7637 140.5 85.7267 140.5 89.3819C140.5 93.037 143.858 96 148 96Z" fill="#9FB9FF"/>
</svg>
