<svg width="1316" height="228" viewBox="0 0 1316 228" fill="none" xmlns="http://www.w3.org/2000/svg">
<path d="M516.228 99.4304L449.996 104.433C446.406 104.803 445.518 105.865 445.051 108.608L448.059 110.608L441.699 123.437L437.216 123.654C435.344 124.52 434.956 126.489 435.771 129.09L541.817 199.599L600.007 187.117C602.26 186.572 603.993 186.337 605.212 184.181C605.212 184.181 613.047 169.135 612.265 165.417C613.479 161.96 608.215 158.459 608.215 158.459L516.228 99.4304Z" fill="#FDFDFD" stroke="white" stroke-width="3"/>
<path d="M452.275 109.419L444.909 129.289L545.598 194.355L552.877 174.739L452.275 109.419Z" fill="#FDFDFD"/>
<path d="M453.723 115.895L548.074 178.564C548.074 178.564 500.409 150.626 453.723 115.895Z" fill="#E3F0FF"/>
<path d="M451.667 125.962L481.6 145.437C481.6 145.437 463.232 136.295 451.667 125.962Z" fill="#E3F0FF"/>
<path d="M502.448 158.994L545.362 185.729C530.141 178.378 515.754 169.415 502.448 158.994Z" fill="#E3F0FF"/>
<path d="M478.909 139.052L521.832 165.78C506.61 158.429 492.22 149.469 478.909 139.052Z" fill="#E3F0FF"/>
<path d="M552.877 174.739L606.213 165.397L599.609 183.217L545.598 194.355L552.877 174.739Z" fill="#FDFDFD"/>
<path d="M551.033 183.76L582.31 178.827C572.227 182.177 561.659 183.844 551.033 183.76Z" fill="#E3F0FF"/>
<path d="M553.868 179.286L602.28 170.077C602.28 170.077 583.728 177.441 553.868 179.286Z" fill="#E3F0FF"/>
<path d="M599.003 180.365L575.456 185.121C575.456 185.121 590.086 179.925 599.003 180.365Z" fill="#E3F0FF"/>
<path d="M440.14 126.731C439.886 127.346 439.853 128.03 440.047 128.666C440.241 129.302 440.65 129.851 441.203 130.22L543.905 198.915L597.297 187.728C598.828 187.429 600.288 186.839 601.597 185.991C601.925 185.78 602.239 185.547 602.536 185.295C603.732 184.278 604.646 182.969 605.187 181.495L609.73 169.249C610.162 168.097 610.354 166.87 610.297 165.642C610.236 164.414 609.931 163.211 609.399 162.102C609.078 161.431 608.678 160.8 608.207 160.223L516.545 100.84L452.924 105.256C451.952 105.329 451.038 105.744 450.345 106.429C449.904 106.877 449.569 107.418 449.367 108.013L448.897 109.438L518.769 155.25L538.84 168.409L551.994 177.039L598.756 167.745L600.864 167.33L605.849 166.338L599.647 183.19L545.927 193.544L441.02 124.507L440.14 126.731Z" fill="#637DE6"/>
<path d="M449.404 107.985L448.935 109.411L518.806 155.222L538.878 168.381L552.032 177.012L598.793 167.718L600.902 167.303C598.958 166.1 596.64 165.651 594.387 166.04L552.661 173.489L450.392 106.394C449.946 106.843 449.609 107.387 449.404 107.985Z" fill="#132D96"/>
<path d="M442.262 125.434L545.637 194.545L601.764 183.453L545.222 195.77L442.262 125.434Z" fill="#132D96"/>
<path d="M605.886 166.31L599.647 183.19C600.374 184.148 601.37 184.868 602.508 185.258C603.704 184.24 604.617 182.931 605.159 181.457L609.702 169.211C610.133 168.06 610.326 166.832 610.268 165.604C608.791 165.725 607.326 165.961 605.886 166.31Z" fill="#132D96"/>
<path d="M441.049 124.485L446.814 124.151L445.587 127.477L441.049 124.485Z" fill="#132D96"/>
<g style="mix-blend-mode:multiply" opacity="0.5">
<path d="M547.691 168.622L459.355 110.816C459.291 110.779 459.241 110.723 459.212 110.655C459.183 110.588 459.176 110.513 459.194 110.441C459.201 110.369 459.23 110.3 459.277 110.245C459.324 110.189 459.387 110.149 459.457 110.129C459.792 110.067 460.108 109.93 460.381 109.727C460.654 109.524 460.877 109.262 461.034 108.959C461.116 108.649 461.128 108.324 461.067 108.009C461.007 107.693 460.876 107.396 460.685 107.138C460.652 107.082 460.634 107.019 460.631 106.955C460.629 106.89 460.643 106.826 460.672 106.768C460.696 106.704 460.738 106.648 460.793 106.607C460.848 106.566 460.914 106.543 460.982 106.539L512.236 103.82C512.303 103.813 512.371 103.825 512.431 103.855C512.492 103.884 512.543 103.93 512.579 103.987C513.443 105.278 514.735 106.222 516.227 106.653C517.72 107.084 519.317 106.975 520.736 106.344C520.795 106.318 520.859 106.307 520.922 106.314C520.986 106.32 521.047 106.343 521.099 106.381L597.729 156.606C597.781 156.643 597.823 156.692 597.852 156.749C597.882 156.805 597.897 156.868 597.898 156.931C597.9 156.993 597.885 157.053 597.857 157.107C597.828 157.161 597.787 157.208 597.735 157.241C597.304 157.531 596.972 157.945 596.783 158.428C596.656 158.863 596.632 159.321 596.711 159.767C596.79 160.213 596.97 160.635 597.238 161C597.272 161.053 597.291 161.113 597.293 161.175C597.296 161.237 597.282 161.298 597.253 161.353C597.226 161.408 597.187 161.456 597.138 161.493C597.089 161.529 597.032 161.553 596.971 161.562L557.65 170.21C557.578 170.226 557.502 170.22 557.433 170.194C557.365 170.167 557.305 170.121 557.262 170.061C556.227 168.661 554.68 167.728 552.959 167.462C551.237 167.197 549.481 167.622 548.072 168.645C548.02 168.682 547.961 168.705 547.899 168.713C547.836 168.721 547.773 168.714 547.714 168.692L547.691 168.622ZM557.721 169.444L596.254 160.989C596.034 160.566 595.903 160.104 595.869 159.629C595.834 159.155 595.896 158.678 596.052 158.229C596.216 157.769 596.489 157.357 596.848 157.027L520.842 107.211C519.304 107.838 517.6 107.928 516.005 107.467C514.41 107.006 513.017 106.02 512.052 104.669L461.624 107.343C461.785 107.635 461.883 107.959 461.908 108.292C461.934 108.625 461.889 108.96 461.774 109.274C461.66 109.588 461.479 109.874 461.245 110.112C461.01 110.35 460.727 110.535 460.415 110.655L547.925 167.939C549.466 166.929 551.33 166.533 553.149 166.83C554.967 167.126 556.609 168.093 557.749 169.54L557.721 169.444Z" fill="#132D96"/>
</g>
<path d="M1235.44 78.9692L1282.14 129.093C1284.6 131.887 1284.53 133.339 1282.99 135.818L1279.32 135.289L1275.24 149.792L1278.48 153.09C1279.3 155.074 1278.23 156.89 1275.81 158.363L1146.58 139.724L1111.16 89.3406C1109.83 87.3417 1108.68 85.9485 1109.25 83.4063C1109.25 83.4063 1113.75 66.1344 1116.93 63.7621C1118.4 60.2025 1124.82 61.1278 1124.82 61.1278L1235.44 78.9692Z" fill="#FDFDFD" stroke="#FDFDFD" stroke-width="3"/>
<path d="M1277.68 132.524L1269.43 152.48L1149.11 131.535L1157.24 111.843L1277.68 132.524Z" fill="#FDFDFD"/>
<path d="M1272.11 136.358L1158.19 118.006C1158.19 118.006 1213.17 130.069 1272.11 136.358Z" fill="#E3F0FF"/>
<path d="M1266.72 145.294L1230.89 139.189C1230.89 139.189 1250.94 145.043 1266.72 145.294Z" fill="#E3F0FF"/>
<path d="M1205.84 134.924L1155.27 125.255C1171.74 130.27 1188.69 133.511 1205.84 134.924Z" fill="#E3F0FF"/>
<path d="M1237.26 136.271L1186.68 126.613C1203.15 131.627 1220.1 134.866 1237.26 136.271Z" fill="#E3F0FF"/>
<path d="M1157.24 111.843L1123.81 67.9815L1116.42 85.8835L1149.11 131.534L1157.24 111.843Z" fill="#FDFDFD"/>
<path d="M1152.37 119.853L1132.38 94.5125C1137.61 104 1144.36 112.562 1152.37 119.853Z" fill="#E3F0FF"/>
<path d="M1153.35 114.55L1123.5 74.1866C1123.5 74.1866 1132.31 92.5762 1153.35 114.55Z" fill="#E3F0FF"/>
<path d="M1118.85 84.2036L1133.18 104.043C1133.18 104.043 1125.82 89.9996 1118.85 84.2036Z" fill="#E3F0FF"/>
<path d="M1118.56 68.4905L1113.48 80.8095C1113.03 81.9004 1112.79 83.0641 1112.77 84.242C1112.75 85.0371 1112.84 85.831 1113.03 86.6027C1113.22 87.3711 1113.49 88.1192 1113.82 88.8362C1114.14 89.5571 1114.54 90.2434 1115 90.8846L1146.36 134.957C1146.9 135.701 1147.71 136.206 1148.62 136.365L1271.56 155.742C1272.22 155.851 1272.91 155.725 1273.49 155.386C1274.08 155.047 1274.53 154.516 1274.76 153.883L1275.62 151.598L1149.41 130.793L1116.39 85.9241L1123.46 68.8469L1156.32 114.074L1171.79 116.667L1280.16 134.792L1280.78 133.406C1280.95 133.027 1281.07 132.623 1281.12 132.208C1281.19 131.61 1281.13 131.003 1280.94 130.431C1280.75 129.858 1280.44 129.334 1280.03 128.895L1236.86 83.069C1236.02 82.1753 1234.92 81.5778 1233.71 81.366L1128.91 63.2772L1127.54 63.0393L1125.94 62.7639C1124.91 62.8943 1123.9 63.2007 1122.97 63.6697C1122.21 64.0595 1121.5 64.5526 1120.86 65.1352C1120.36 65.6004 1119.91 66.1218 1119.52 66.6893C1119.14 67.2548 1118.82 67.8584 1118.56 68.4905Z" fill="#F2B441"/>
<path d="M1122.56 71.0139L1123.43 68.8868L1156.3 114.113L1171.77 116.707L1280.16 134.792L1280.78 133.406C1280.95 133.027 1281.07 132.623 1281.12 132.208L1157.4 111.311L1122.94 63.6767C1122.17 64.0664 1121.46 64.5595 1120.83 65.1422C1120.33 65.6073 1119.88 66.1287 1119.49 66.6961L1122.56 71.0139Z" fill="#DEA02D"/>
<path d="M1273.61 152.068L1148.48 132.303L1114.17 85.2122L1147.93 133.5L1273.61 152.068Z" fill="#DEA02D"/>
<path d="M1118.56 68.4907L1113.48 80.8097C1113.03 81.9007 1112.79 83.0643 1112.77 84.2422C1113.74 85.2131 1115.03 85.809 1116.39 85.9244L1123.46 68.8472C1123.05 67.3552 1122.14 66.0509 1120.88 65.1585C1119.87 66.0863 1119.08 67.2238 1118.56 68.4907Z" fill="#DEA02D"/>
<path d="M1275.64 151.558L1271.58 147.313L1270.19 150.657L1275.64 151.558Z" fill="#DEA02D"/>
<g style="mix-blend-mode:multiply" opacity="0.5">
<path d="M1165.28 110.821L1165.34 110.866L1271.37 128.646C1271.45 128.655 1271.52 128.644 1271.59 128.613C1271.66 128.582 1271.72 128.533 1271.76 128.471C1271.8 128.411 1271.82 128.339 1271.83 128.265C1271.83 128.192 1271.81 128.118 1271.77 128.055C1271.57 127.777 1271.43 127.455 1271.37 127.114C1271.31 126.774 1271.32 126.424 1271.42 126.091C1271.58 125.803 1271.79 125.553 1272.05 125.358C1272.32 125.163 1272.62 125.029 1272.94 124.965C1273.01 124.948 1273.07 124.914 1273.12 124.866C1273.17 124.818 1273.2 124.758 1273.22 124.691C1273.24 124.626 1273.24 124.557 1273.22 124.491C1273.2 124.425 1273.17 124.365 1273.12 124.316L1236.68 86.8562C1236.63 86.8058 1236.57 86.7684 1236.5 86.7477C1236.44 86.7269 1236.37 86.7234 1236.3 86.7376C1234.76 87.1079 1233.14 86.9231 1231.73 86.2159C1230.31 85.5087 1229.19 84.3247 1228.57 82.8731C1228.54 82.8142 1228.49 82.7641 1228.44 82.7277C1228.38 82.6913 1228.32 82.6696 1228.25 82.6648L1136.26 67.2541C1136.2 67.2446 1136.13 67.2505 1136.07 67.2711C1136 67.2917 1135.95 67.3266 1135.9 67.373C1135.86 67.4204 1135.83 67.4774 1135.81 67.539C1135.8 67.6007 1135.8 67.6652 1135.81 67.727C1135.93 68.2392 1135.9 68.7767 1135.71 69.2692C1135.5 69.6861 1135.2 70.0508 1134.83 70.3365C1134.47 70.6221 1134.04 70.8214 1133.58 70.9197C1133.52 70.9372 1133.47 70.9683 1133.42 71.0106C1133.38 71.0528 1133.34 71.1051 1133.32 71.1631C1133.3 71.2229 1133.3 71.2862 1133.31 71.3485C1133.32 71.4107 1133.34 71.4701 1133.37 71.5224L1156.78 105.164C1156.83 105.228 1156.89 105.277 1156.96 105.306C1157.03 105.335 1157.11 105.343 1157.19 105.329C1158.92 104.989 1160.71 105.344 1162.18 106.317C1163.65 107.29 1164.68 108.802 1165.04 110.526C1165.05 110.591 1165.08 110.652 1165.12 110.703C1165.16 110.755 1165.21 110.795 1165.28 110.821ZM1270.81 127.784L1165.74 110.113C1165.28 108.293 1164.15 106.709 1162.59 105.673C1161.02 104.637 1159.12 104.223 1157.27 104.513L1134.3 71.5005C1134.76 71.342 1135.19 71.0885 1135.56 70.7562C1135.92 70.4239 1136.21 70.0199 1136.41 69.5696C1136.6 69.1103 1136.67 68.615 1136.63 68.1219L1227.98 83.41C1228.69 84.9421 1229.9 86.1879 1231.41 86.9449C1232.92 87.7019 1234.65 87.9254 1236.3 87.5792L1272.18 124.454C1271.86 124.574 1271.57 124.756 1271.32 124.989C1271.07 125.223 1270.87 125.503 1270.73 125.814C1270.5 126.449 1270.52 127.151 1270.79 127.771L1270.81 127.784Z" fill="#DEA02D"/>
</g>
<path d="M131.528 56.9968L206.405 66.0137C210.458 66.6162 211.416 67.8866 211.818 71.0789L208.312 73.2429L214.926 88.3756L220 88.8461C222.082 89.9372 222.43 92.2316 221.385 95.1971L97.8315 171.48L32.4246 154.214C29.8945 153.475 27.9407 153.119 26.6585 150.568C26.6585 150.568 18.476 132.801 19.5361 128.544C18.3209 124.49 24.4547 120.703 24.4547 120.703L131.528 56.9968Z" fill="#FDFDFD" stroke="#FDFDFD" stroke-width="3"/>
<path d="M206.246 71.3896L213.638 94.654L94.2461 164.043L86.9482 141.075L206.246 71.3896Z" fill="#FDFDFD"/>
<path d="M204.213 78.7637L92.2534 145.731C92.2534 145.731 148.617 116.197 204.213 78.7637Z" fill="#E3F0FF"/>
<path d="M206.057 90.4287L170.55 111.217C170.55 111.217 192.215 101.664 206.057 90.4287Z" fill="#E3F0FF"/>
<path d="M145.817 125.723L94.9873 154.14C112.897 146.508 129.937 136.981 145.817 125.723Z" fill="#E3F0FF"/>
<path d="M173.985 104.032L123.155 132.45C141.065 124.818 158.105 115.291 173.985 104.032Z" fill="#E3F0FF"/>
<path d="M86.9483 141.075L26.0742 127.432L32.7123 148.301L94.2462 164.044L86.9483 141.075Z" fill="#FDFDFD"/>
<path d="M88.5643 151.557L52.8154 144.156C64.2429 148.573 76.3216 151.073 88.5643 151.557Z" fill="#E3F0FF"/>
<path d="M85.5477 146.255L30.3423 133.028C30.3423 133.028 51.3338 142.541 85.5477 146.255Z" fill="#E3F0FF"/>
<path d="M33.6006 145.085L60.4358 151.813C60.4358 151.813 43.8472 145.031 33.6006 145.085Z" fill="#E3F0FF"/>
<path d="M21.9003 131.67L26.4514 146C26.8533 147.273 27.498 148.457 28.3499 149.485C28.9193 150.184 29.5753 150.808 30.3023 151.342C31.0257 151.862 31.7966 152.312 32.6048 152.687C33.4122 153.074 34.2555 153.38 35.1227 153.602L94.3675 168.968C94.8705 169.094 95.3934 169.12 95.9063 169.044C96.4192 168.968 96.912 168.791 97.3567 168.524L217.866 95.8653C218.52 95.4718 219.018 94.8644 219.276 94.1459C219.534 93.4275 219.535 92.6422 219.28 91.9229L218.351 89.2318L93.9501 163.129L32.7125 148.328L26.411 128.522L87.7832 143.766L103.052 134.751L210.083 71.5784L209.626 69.9233C209.492 69.4705 209.292 69.0398 209.033 68.645C208.663 68.0713 208.171 67.5867 207.591 67.2261C207.011 66.8655 206.359 66.6378 205.68 66.5595L132.836 58.0557L27.0842 119.681L25.7377 120.475L24.1489 121.39C22.6653 123.004 21.7237 125.041 21.456 127.216C21.2744 128.723 21.4167 130.25 21.8734 131.697L21.9003 131.67Z" fill="#FF7878"/>
<path d="M27.1917 130.97L26.4107 128.495L87.783 143.74L103.052 134.724L210.083 71.5514L209.625 69.8964C209.492 69.4436 209.292 69.0129 209.033 68.6182L86.7597 140.524L22.2367 124.377C21.8523 125.288 21.5985 126.248 21.4827 127.23C21.3951 127.994 21.3951 128.766 21.4827 129.531L27.1917 130.97Z" fill="#E00000"/>
<path d="M216.95 91.2637L94.259 165.161L30.2881 149.351L94.663 166.6L216.95 91.2637Z" fill="#E00000"/>
<path d="M21.9005 131.67L26.4516 146C26.8536 147.274 27.4983 148.457 28.3502 149.485C29.8986 149.618 31.4439 149.198 32.7127 148.301L26.4112 128.495C24.9738 127.49 23.2321 127.015 21.4831 127.149C21.2874 128.669 21.4299 130.213 21.9005 131.67Z" fill="#E00000"/>
<path d="M218.336 89.3393L211.725 88.6396L212.964 92.5282L218.336 89.3393Z" fill="#E00000"/>
<g style="mix-blend-mode:multiply" opacity="0.5">
<path d="M92.7242 134.294C91.7522 133.532 90.609 133.019 89.3936 132.798C88.1782 132.578 86.9273 132.657 85.7495 133.029C84.327 133.477 83.0707 134.339 82.1409 135.505C82.0859 135.569 82.0139 135.618 81.933 135.644C81.8522 135.67 81.7657 135.673 81.6831 135.653L36.9129 123.543C36.8434 123.526 36.779 123.493 36.7251 123.446C36.6712 123.399 36.6294 123.34 36.6032 123.274C36.5733 123.211 36.5577 123.142 36.5577 123.072C36.5577 123.002 36.5733 122.933 36.6032 122.87C36.924 122.453 37.1474 121.97 37.2569 121.455C37.3664 120.94 37.3593 120.408 37.2361 119.896C37.0337 119.354 36.6724 118.885 36.1993 118.551C36.1422 118.504 36.0967 118.444 36.0663 118.376C36.036 118.309 36.0216 118.235 36.0242 118.161C36.0332 118.09 36.057 118.023 36.0942 117.963C36.1313 117.902 36.1809 117.851 36.2397 117.811L127.154 64.1911C127.217 64.1545 127.289 64.1353 127.362 64.1353C127.436 64.1353 127.507 64.1545 127.571 64.1911C129.172 64.9893 131.004 65.199 132.744 64.7832C134.485 64.3674 136.023 63.3528 137.09 61.9172C137.133 61.8541 137.192 61.8034 137.26 61.7703C137.329 61.7373 137.405 61.7229 137.481 61.7288L196.322 67.6492C196.396 67.6617 196.466 67.6913 196.527 67.7357C196.588 67.7801 196.637 67.838 196.672 67.9048C196.711 67.9723 196.731 68.0489 196.731 68.1269C196.731 68.2048 196.711 68.2814 196.672 68.3489C196.439 68.6349 196.273 68.9696 196.187 69.3283C196.101 69.6869 196.096 70.0604 196.174 70.421C196.335 70.7785 196.575 71.095 196.875 71.3467C197.176 71.5983 197.53 71.7787 197.911 71.8742C197.991 71.8981 198.062 71.9455 198.115 72.0103C198.167 72.0751 198.2 72.1542 198.207 72.2375C198.215 72.3222 198.198 72.4073 198.16 72.4834C198.122 72.5594 198.064 72.6234 197.991 72.6681L93.2089 134.374H93.1282C93.059 134.391 92.9871 134.392 92.9174 134.378C92.8478 134.364 92.7819 134.335 92.7242 134.294ZM195.339 70.6363C195.132 69.8912 195.224 69.0948 195.595 68.4162L137.696 62.59C136.516 64.0943 134.86 65.1542 132.999 65.5966C131.138 66.0389 129.182 65.8376 127.45 65.0254L37.2361 118.228C37.63 118.63 37.925 119.119 38.0978 119.654C38.2506 120.189 38.2911 120.749 38.217 121.3C38.1429 121.851 37.9556 122.381 37.6669 122.857L81.5889 134.724C82.9784 133.117 84.9193 132.088 87.0298 131.839C89.1403 131.59 91.2677 132.139 92.9935 133.379L196.766 72.2644C196.103 71.9228 195.597 71.34 195.352 70.6363H195.339Z" fill="#E00000"/>
</g>
<path d="M908.436 150.352L946.629 131.485C948.676 130.404 948.958 129.552 948.6 127.789L946.35 127.305L947.159 118.062L949.772 116.858C950.684 115.889 950.459 114.611 949.373 113.24L870.046 96.1917L838.363 117.634C837.15 118.502 836.175 119.058 835.95 120.647C835.95 120.647 834.777 131.579 836.102 133.629C836.181 136 840.12 136.847 840.12 136.847L908.436 150.352Z" fill="#FDFDFD" stroke="white" stroke-width="3"/>
<path d="M943.494 128.86L943.094 115.426L868.372 101.14L868.772 114.404L943.494 128.86Z" fill="white"/>
<path d="M941.098 125.401L870.687 111.015C870.687 111.015 905.368 116.087 941.098 125.401Z" fill="#BEE3F2"/>
<path d="M939.925 119.004L917.688 114.68C917.688 114.68 930.675 115.685 939.925 119.004Z" fill="#BEE3F2"/>
<path d="M902.174 111.655L870.57 106.155C881.271 106.852 891.867 108.696 902.174 111.655Z" fill="#BEE3F2"/>
<path d="M920.771 117.784L889.161 112.279C899.864 112.979 910.461 114.824 920.771 117.784Z" fill="#BEE3F2"/>
<path d="M868.772 114.404L839.628 132.595L839.268 120.538L868.372 101.14L868.772 114.404Z" fill="white"/>
<path d="M867.704 108.664L850.47 119.027C855.606 114.65 861.429 111.149 867.704 108.664Z" fill="#BEE3F2"/>
<path d="M867.103 111.967L840.837 128.909C840.837 128.909 850.027 120.153 867.103 111.967Z" fill="#BEE3F2"/>
<path d="M840.334 122.037L853.02 113.672C853.02 113.672 845.655 120.211 840.334 122.037Z" fill="#BEE3F2"/>
<path d="M836.688 131.164L836.432 122.887C836.411 122.151 836.529 121.417 836.78 120.724C836.951 120.254 837.183 119.808 837.469 119.398C837.751 118.988 838.069 118.605 838.421 118.254C838.773 117.91 839.155 117.597 839.561 117.319L867.533 98.5551C867.769 98.3962 868.035 98.2859 868.314 98.2309C868.593 98.1759 868.88 98.1772 869.159 98.2348L945.05 114C945.464 114.083 945.837 114.307 946.104 114.634C946.371 114.961 946.517 115.37 946.516 115.793L946.511 117.328L868.388 101.664L839.264 120.544L839.611 131.979L868.724 112.867L878.304 114.766L945.448 128.063L945.51 129.006C945.527 129.265 945.503 129.525 945.438 129.776C945.351 130.141 945.183 130.482 944.948 130.774C944.712 131.066 944.414 131.302 944.075 131.465L907.777 149.176L841.576 136.456L840.707 136.28L839.716 136.084C839.143 135.776 838.626 135.374 838.185 134.895C837.82 134.49 837.511 134.038 837.266 133.551C836.898 132.803 836.695 131.984 836.669 131.151L836.688 131.164Z" fill="#B96DFF"/>
<path d="M839.588 130.524L839.628 131.955L868.741 112.843L878.321 114.742L945.449 128.063L945.51 129.006C945.528 129.265 945.504 129.525 945.439 129.776L868.78 114.733L838.204 134.908C837.839 134.503 837.529 134.051 837.285 133.564C837.097 133.181 836.952 132.779 836.85 132.365L839.588 130.524Z" fill="#9A3BC2"/>
<path d="M945.434 116.578L868.173 100.553L837.815 120.438L868.128 99.7297L945.434 116.578Z" fill="#9A3BC2"/>
<path d="M836.692 131.157L836.437 122.881C836.413 122.147 836.529 121.415 836.78 120.724C837.562 120.383 838.438 120.321 839.26 120.55L839.606 131.985C839.037 132.766 838.215 133.325 837.28 133.57C836.911 132.818 836.71 131.995 836.692 131.157Z" fill="#9A3BC2"/>
<path d="M946.504 117.324L943.195 118.897L943.133 116.649L946.504 117.324Z" fill="#9A3BC2"/>
<g style="mix-blend-mode:multiply" opacity="0.5">
<path d="M873.011 116.863C872.418 117.787 871.486 118.442 870.414 118.685C869.343 118.929 868.219 118.743 867.284 118.167C867.244 118.141 867.196 118.128 867.148 118.128C867.1 118.128 867.053 118.143 867.013 118.169L845.975 132.636C845.942 132.653 845.913 132.678 845.892 132.709C845.87 132.74 845.857 132.776 845.853 132.813C845.852 132.852 845.859 132.89 845.876 132.925C845.893 132.96 845.918 132.991 845.949 133.014C846.193 133.171 846.397 133.381 846.548 133.628C846.699 133.875 846.792 134.154 846.82 134.442C846.826 134.771 846.729 135.095 846.542 135.367C846.52 135.4 846.507 135.438 846.503 135.478C846.499 135.518 846.505 135.558 846.52 135.594C846.54 135.629 846.568 135.658 846.601 135.68C846.633 135.703 846.67 135.718 846.71 135.725L903.766 147.025C903.805 147.035 903.847 147.035 903.886 147.024C903.925 147.013 903.961 146.992 903.989 146.963C904.673 146.254 905.585 145.809 906.566 145.707C907.546 145.605 908.53 145.852 909.346 146.404C909.382 146.428 909.423 146.444 909.465 146.448C909.508 146.452 909.551 146.445 909.591 146.428L939.079 132.623C939.118 132.605 939.152 132.577 939.176 132.542C939.201 132.506 939.215 132.465 939.218 132.422C939.223 132.379 939.216 132.336 939.199 132.297C939.181 132.258 939.153 132.225 939.118 132.2C938.945 132.095 938.798 131.953 938.687 131.783C938.576 131.613 938.505 131.421 938.479 131.22C938.496 131.004 938.562 130.795 938.673 130.609C938.784 130.423 938.937 130.266 939.119 130.149C939.157 130.121 939.185 130.081 939.199 130.037C939.214 129.992 939.215 129.944 939.201 129.899C939.191 129.853 939.168 129.811 939.135 129.779C939.101 129.746 939.059 129.724 939.013 129.715L873.276 116.766L873.239 116.741C873.193 116.734 873.146 116.742 873.105 116.764C873.063 116.786 873.031 116.821 873.011 116.863ZM937.959 131.231C937.986 131.655 938.177 132.052 938.493 132.337L909.471 145.923C908.682 145.416 907.757 145.162 906.82 145.195C905.65 145.229 904.536 145.702 903.7 146.521L847.139 135.337C847.275 135.058 847.339 134.749 847.326 134.439C847.309 134.133 847.228 133.834 847.09 133.561C846.951 133.287 846.758 133.045 846.521 132.85L867.18 118.671C868.196 119.253 869.394 119.433 870.536 119.174C871.679 118.916 872.682 118.238 873.348 117.275L938.435 130.109C938.139 130.412 937.974 130.82 937.977 131.243L937.959 131.231Z" fill="#9A3BC2"/>
</g>
</svg>
