<svg width="723" height="176" viewBox="0 0 723 176" fill="none" xmlns="http://www.w3.org/2000/svg">
<path d="M55.5367 38.4523L20.9946 49.2901C19.1334 49.9305 18.7814 50.611 18.8403 52.144L20.6581 52.8499L18.7206 60.5329L16.3691 61.2013C15.4737 61.897 15.4883 63.0041 16.2106 64.303L80.2892 89.1867L109.734 75.3149C110.867 74.7449 111.759 74.4052 112.164 73.0956C112.164 73.0956 114.636 64.0383 113.806 62.1344C114.063 60.1255 110.882 58.8901 110.882 58.8901L55.5367 38.4523Z" fill="#FDFDFD" stroke="#FDFDFD" stroke-width="2" stroke-linejoin="round"/>
<path d="M21.0004 51.4356L18.916 63.2484L80.6633 85.9896L82.7201 74.3321L21.0004 51.4356Z" fill="#FDFDFD"/>
<path d="M22.4359 54.7853L80.4649 77.0334C80.4649 77.0334 51.5282 67.8227 22.4359 54.7853Z" fill="#E3F0FF"/>
<path d="M22.2922 60.5561L40.6646 67.3851C40.6646 67.3851 29.6615 64.7199 22.2922 60.5561Z" fill="#E3F0FF"/>
<path d="M53.4652 72.1604L79.6812 81.3005C70.5943 79.2225 61.8055 76.1583 53.4652 72.1604Z" fill="#E3F0FF"/>
<path d="M38.56 64.25L64.7664 73.3816C55.683 71.306 46.8974 68.2446 38.56 64.25Z" fill="#E3F0FF"/>
<path d="M80.7089 74.3349L109.095 62.4134L107.223 73.0116L78.6522 85.9918L80.7089 74.3349Z" fill="#FDFDFD"/>
<path d="M80.5914 79.5015L97.2862 72.8088C92.0775 75.9292 86.437 78.1903 80.5914 79.5015Z" fill="#E3F0FF"/>
<path d="M81.7017 76.6966L107.378 65.478C107.378 65.478 97.9093 71.8899 81.7017 76.6966Z" fill="#E3F0FF"/>
<path d="M106.59 71.5398L94.1197 77.1533C94.1197 77.1533 101.666 72.4268 106.59 71.5398Z" fill="#E3F0FF"/>
<path d="M16.0432 62.4591C15.9718 62.8266 16.0275 63.2011 16.2007 63.5195C16.3739 63.8378 16.6542 64.0807 16.9942 64.2071L80.1954 88.6867L108.427 75.7531C109.231 75.3824 109.966 74.8667 110.594 74.2328C111.392 73.4403 111.923 72.421 112.109 71.3293L113.395 64.0486C113.514 63.3636 113.497 62.6685 113.345 62.0043C113.192 61.3401 112.908 60.7201 112.508 60.1808C112.266 59.8536 111.982 59.5609 111.662 59.3097L55.4232 38.5408L20.9631 49.0568C20.5314 49.193 20.1421 49.4513 19.8433 49.7999C19.5444 50.1486 19.349 50.5723 19.281 51.019L19.186 51.8338L62.0916 67.9843L74.4178 72.6216L82.4965 75.6644L107.268 64.609L108.385 64.1127L111.026 62.9333L109.247 72.9861L80.7403 85.5299L16.3205 61.1145L16.0432 62.4591Z" fill="#52C974"/>
<path d="M19.2802 51.0185L19.1852 51.8333L62.0911 67.9839L74.4173 72.6212L82.4961 75.664L107.268 64.6085L108.385 64.1121C107.198 63.7024 105.881 63.7526 104.681 64.2531L82.4806 73.6713L19.6746 50.0212C19.469 50.3221 19.3339 50.6637 19.2802 51.0185Z" fill="#006510"/>
<path d="M17.0732 61.5528L80.686 86.1745L110.429 72.9435L80.5837 86.9017L17.0732 61.5528Z" fill="#006510"/>
<path d="M108.995 62.9557L107.217 73.0082C107.712 73.4388 108.332 73.7038 108.997 73.7691C109.553 73.0591 109.925 72.2266 110.078 71.3514L111.364 64.071C111.485 63.3855 111.467 62.6896 111.31 62.0259C110.519 62.2767 109.745 62.5875 108.995 62.9557Z" fill="#006510"/>
<path d="M16.3233 61.1117L19.4616 60.1878L19.1116 62.1691L16.3233 61.1117Z" fill="#006510"/>
<g style="mix-blend-mode:multiply" opacity="0.5">
<path d="M79.2639 71.6478L25.0256 51.2967C24.9889 51.2818 24.9577 51.2567 24.9354 51.2241C24.9132 51.1915 24.9008 51.1528 24.8996 51.1124C24.8993 51.071 24.9101 51.0297 24.9309 50.9928C24.9518 50.956 24.9818 50.925 25.018 50.9032C25.1957 50.8265 25.3558 50.7108 25.4859 50.565C25.616 50.4192 25.7127 50.247 25.7686 50.0617C25.783 49.8818 25.7565 49.703 25.6914 49.5389C25.6262 49.3748 25.524 49.2297 25.3925 49.1145C25.3668 49.0879 25.3491 49.0542 25.3415 49.0173C25.3338 48.9803 25.3364 48.9415 25.349 48.9048C25.3568 48.8683 25.3742 48.8341 25.3994 48.8058C25.4246 48.7776 25.4566 48.7564 25.492 48.7446L53.3945 40.7073C53.4308 40.6965 53.4687 40.6952 53.5047 40.7036C53.5406 40.712 53.5732 40.7298 53.5994 40.7552C54.1985 41.3542 55.0009 41.7084 55.8634 41.7547C56.726 41.8011 57.5927 41.5365 58.3092 41.0083C58.3394 40.9865 58.3741 40.9723 58.4102 40.9669C58.4463 40.9615 58.4827 40.965 58.5163 40.9771L105.576 58.6744C105.609 58.6824 105.64 58.6985 105.666 58.7214C105.692 58.7443 105.711 58.7732 105.723 58.8059C105.729 58.8403 105.727 58.8763 105.716 58.9105C105.705 58.9446 105.685 58.9759 105.66 59.0013C105.452 59.2151 105.31 59.4839 105.254 59.7723C105.229 60.0261 105.262 60.2792 105.35 60.5128C105.437 60.7463 105.576 60.9544 105.758 61.1216C105.781 61.1453 105.797 61.1748 105.805 61.2074C105.814 61.2399 105.813 61.2744 105.805 61.3078C105.796 61.3413 105.779 61.3725 105.756 61.3987C105.732 61.4249 105.703 61.4453 105.671 61.458L84.9279 71.2141C84.8883 71.2317 84.8451 71.2381 84.8033 71.2326C84.7615 71.2271 84.7226 71.2098 84.6911 71.1827C83.9928 70.5476 83.0593 70.2283 82.093 70.2939C81.1266 70.3594 80.2052 70.8047 79.5285 71.5331C79.5039 71.5596 79.4736 71.58 79.4401 71.5924C79.4066 71.6049 79.3711 71.6091 79.3365 71.6047L79.2639 71.6478ZM84.8599 70.8116L105.216 61.2408C105.053 61.0387 104.935 60.8034 104.869 60.549C104.802 60.2947 104.788 60.0267 104.828 59.7613C104.875 59.4876 104.986 59.2257 105.151 58.9972L58.4708 41.4493C57.6025 42.0507 56.5578 42.313 55.5439 42.1841C54.7339 42.0731 53.9876 41.7203 53.3996 41.1706L25.9599 49.072C26.181 49.3656 26.2755 49.7402 26.2234 50.1167C26.1471 50.4874 25.9298 50.8204 25.6187 51.0434L79.3566 71.2089C80.1034 70.4597 81.0882 70.0052 82.1166 69.9352C83.1449 69.8652 84.1421 70.1846 84.9114 70.8305L84.8599 70.8116Z" fill="#006510"/>
</g>
<path d="M55.2634 38.6309L20.7715 49.2932C18.9133 49.9237 18.5634 50.5984 18.6267 52.1211L20.4457 52.8274L18.5316 60.4516L16.1832 61.1085C15.2904 61.7968 15.3082 62.8963 16.0339 64.1883L80.1503 89.0867L109.538 75.3966C110.67 74.8338 111.56 74.499 111.961 73.1997C111.961 73.1997 114.405 64.2122 113.57 62.3191C113.821 60.3248 110.638 59.0887 110.638 59.0887L55.2634 38.6309Z" fill="#FDFDFD" stroke="#FDFDFD" stroke-width="2" stroke-linejoin="round"/>
<path d="M21.0004 51.4353L18.916 63.2482L80.6633 85.9894L82.7201 74.3318L21.0004 51.4353Z" fill="#FDFDFD"/>
<path d="M22.4359 54.785L80.4649 77.0331C80.4649 77.0331 51.5282 67.8225 22.4359 54.785Z" fill="#E3F0FF"/>
<path d="M22.2922 60.5559L40.6646 67.3848C40.6646 67.3848 29.6615 64.7196 22.2922 60.5559Z" fill="#E3F0FF"/>
<path d="M53.4652 72.1602L79.6812 81.3003C70.5943 79.2223 61.8055 76.1581 53.4652 72.1602Z" fill="#E3F0FF"/>
<path d="M38.56 64.2498L64.7664 73.3814C55.683 71.3057 46.8974 68.2444 38.56 64.2498Z" fill="#E3F0FF"/>
<path d="M80.7089 74.3347L109.095 62.4132L107.223 73.0114L78.6522 85.9915L80.7089 74.3347Z" fill="#FDFDFD"/>
<path d="M80.5914 79.5013L97.2862 72.8086C92.0775 75.9289 86.437 78.1901 80.5914 79.5013Z" fill="#E3F0FF"/>
<path d="M81.7017 76.6963L107.378 65.4778C107.378 65.4778 97.9093 71.8896 81.7017 76.6963Z" fill="#E3F0FF"/>
<path d="M106.59 71.5395L94.1197 77.153C94.1197 77.153 101.666 72.4265 106.59 71.5395Z" fill="#E3F0FF"/>
<path d="M16.0432 62.4589C15.9718 62.8264 16.0275 63.2008 16.2007 63.5192C16.3739 63.8376 16.6542 64.0805 16.9942 64.2069L80.1954 88.6865L108.427 75.7529C109.231 75.3821 109.966 74.8665 110.594 74.2326C111.392 73.4401 111.923 72.4207 112.109 71.329L113.395 64.0484C113.514 63.3633 113.497 62.6683 113.345 62.004C113.192 61.3398 112.908 60.7198 112.508 60.1806C112.266 59.8533 111.982 59.5606 111.662 59.3095L55.4232 38.5405L20.9631 49.0565C20.5314 49.1928 20.1421 49.4511 19.8433 49.7997C19.5444 50.1483 19.349 50.572 19.281 51.0188L19.186 51.8336L62.0916 67.984L74.4178 72.6213L82.4965 75.6641L107.268 64.6087L108.385 64.1124L111.026 62.933L109.247 72.9859L80.7403 85.5296L16.3205 61.1143L16.0432 62.4589Z" fill="#52C974"/>
<path d="M19.2802 51.0183L19.1852 51.8331L62.0911 67.9836L74.4173 72.6209L82.4961 75.6637L107.268 64.6082L108.385 64.1119C107.198 63.7022 105.881 63.7523 104.681 64.2528L82.4806 73.671L19.6746 50.021C19.469 50.3219 19.3339 50.6634 19.2802 51.0183Z" fill="#006510"/>
<path d="M17.0732 61.5525L80.686 86.1742L110.429 72.9433L80.5837 86.9015L17.0732 61.5525Z" fill="#006510"/>
<path d="M108.995 62.9554L107.217 73.008C107.712 73.4386 108.332 73.7035 108.997 73.7688C109.553 73.0589 109.925 72.2264 110.078 71.3512L111.364 64.0707C111.485 63.3853 111.467 62.6893 111.31 62.0257C110.519 62.2765 109.745 62.5873 108.995 62.9554Z" fill="#006510"/>
<path d="M16.3233 61.1115L19.4616 60.1875L19.1116 62.1688L16.3233 61.1115Z" fill="#006510"/>
<g style="mix-blend-mode:multiply" opacity="0.5">
<path d="M79.2639 71.6476L25.0256 51.2965C24.9889 51.2816 24.9577 51.2564 24.9354 51.2238C24.9132 51.1913 24.9008 51.1526 24.8996 51.1122C24.8993 51.0708 24.9101 51.0294 24.9309 50.9926C24.9518 50.9558 24.9818 50.9248 25.018 50.9029C25.1957 50.8263 25.3558 50.7106 25.4859 50.5648C25.616 50.4189 25.7127 50.2468 25.7686 50.0615C25.783 49.8815 25.7565 49.7027 25.6914 49.5386C25.6262 49.3745 25.524 49.2294 25.3925 49.1143C25.3668 49.0876 25.3491 49.054 25.3415 49.017C25.3338 48.9801 25.3364 48.9412 25.349 48.9046C25.3568 48.8681 25.3742 48.8338 25.3994 48.8056C25.4246 48.7774 25.4566 48.7562 25.492 48.7443L53.3945 40.7071C53.4308 40.6963 53.4687 40.695 53.5047 40.7034C53.5406 40.7118 53.5732 40.7296 53.5994 40.755C54.1985 41.3539 55.0009 41.7081 55.8634 41.7545C56.726 41.8008 57.5927 41.5363 58.3092 41.008C58.3394 40.9863 58.3741 40.9721 58.4102 40.9667C58.4463 40.9612 58.4827 40.9648 58.5163 40.9769L105.576 58.6741C105.609 58.6822 105.64 58.6983 105.666 58.7211C105.692 58.744 105.711 58.773 105.723 58.8056C105.729 58.8401 105.727 58.8761 105.716 58.9102C105.705 58.9444 105.685 58.9756 105.66 59.001C105.452 59.2149 105.31 59.4837 105.254 59.7721C105.229 60.0259 105.262 60.279 105.35 60.5125C105.437 60.7461 105.576 60.9542 105.758 61.1213C105.781 61.1451 105.797 61.1746 105.805 61.2071C105.814 61.2396 105.813 61.2742 105.805 61.3075C105.796 61.3411 105.779 61.3723 105.756 61.3985C105.732 61.4247 105.703 61.445 105.671 61.4578L84.9279 71.2138C84.8883 71.2315 84.8451 71.2379 84.8033 71.2324C84.7615 71.2268 84.7226 71.2095 84.6911 71.1825C83.9928 70.5474 83.0593 70.228 82.093 70.2936C81.1266 70.3592 80.2052 70.8044 79.5285 71.5328C79.5039 71.5593 79.4736 71.5797 79.4401 71.5922C79.4066 71.6047 79.3711 71.6089 79.3365 71.6044L79.2639 71.6476ZM84.8599 70.8114L105.216 61.2406C105.053 61.0385 104.935 60.8031 104.869 60.5488C104.802 60.2945 104.788 60.0265 104.828 59.7611C104.875 59.4874 104.986 59.2255 105.151 58.9969L58.4708 41.449C57.6025 42.0504 56.5578 42.3128 55.5439 42.1839C54.7339 42.0729 53.9876 41.7201 53.3996 41.1704L25.9599 49.0718C26.181 49.3654 26.2755 49.74 26.2234 50.1164C26.1471 50.4872 25.9298 50.8202 25.6187 51.0431L79.3566 71.2086C80.1034 70.4594 81.0882 70.005 82.1166 69.9349C83.1449 69.8649 84.1421 70.1844 84.9114 70.8303L84.8599 70.8114Z" fill="#006510"/>
</g>
<path d="M673.212 91.7285L701.917 122.358C703.431 124.065 703.396 124.948 702.457 126.451L700.213 126.119L697.761 134.929L699.755 136.944C700.261 138.154 699.611 139.255 698.135 140.144L619.056 128.42L597.247 97.6659C596.428 96.446 595.722 95.5951 596.063 94.0504C596.063 94.0504 598.764 83.5575 600.696 82.1239C601.59 79.963 605.516 80.545 605.516 80.545L673.212 91.7285Z" fill="#FDFDFD" stroke="white" stroke-width="2"/>
<path d="M698.388 123.798L693.371 136.056L619.543 123.394L624.501 111.293L698.388 123.798Z" fill="white"/>
<path d="M693.982 126.16L624.094 115.082C624.094 115.082 657.821 122.396 693.982 126.16Z" fill="#BEE3F2"/>
<path d="M690.687 131.659L668.691 127.958C668.691 127.958 681.012 131.522 690.687 131.659Z" fill="#BEE3F2"/>
<path d="M654.342 125.382L623.304 119.526C633.41 122.584 643.816 124.547 654.342 125.382Z" fill="#BEE3F2"/>
<path d="M673.606 126.159L642.561 120.305C652.67 123.362 663.078 125.325 673.606 126.159Z" fill="#BEE3F2"/>
<path d="M624.502 111.293L603.929 84.4258L599.426 95.4269L619.543 123.394L624.502 111.293Z" fill="white"/>
<path d="M621.53 116.219L609.228 100.695C612.448 106.511 616.604 111.756 621.53 116.219Z" fill="#BEE3F2"/>
<path d="M622.118 112.964L603.767 88.2446C603.767 88.2446 609.21 99.5033 622.118 112.964Z" fill="#BEE3F2"/>
<path d="M600.926 94.4116L609.726 106.519C609.726 106.519 605.2 97.937 600.926 94.4116Z" fill="#BEE3F2"/>
<path d="M600.722 84.7286L597.623 92.2776C597.349 92.95 597.204 93.6681 597.196 94.3944C597.19 94.8872 597.25 95.3785 597.372 95.856C597.489 96.3316 597.65 96.7955 597.853 97.2415C598.059 97.6804 598.303 98.1007 598.581 98.4978L617.875 125.488C618.037 125.717 618.244 125.91 618.482 126.058C618.721 126.205 618.986 126.303 619.263 126.346L694.68 138.048C695.09 138.114 695.511 138.037 695.871 137.827C696.231 137.618 696.506 137.291 696.651 136.901L697.178 135.482L619.739 122.915L599.423 95.4193L603.699 84.9867L623.925 112.693L633.413 114.255L699.913 125.208L700.296 124.36C700.402 124.127 700.47 123.879 700.497 123.625C700.542 123.257 700.506 122.885 700.39 122.533C700.273 122.182 700.08 121.861 699.825 121.594L672.491 92.6957L607.06 81.5354L606.198 81.3969L605.217 81.2353C604.582 81.3215 603.966 81.5134 603.394 81.8031C602.917 82.0504 602.476 82.3606 602.081 82.7255C601.484 83.289 601.013 83.9738 600.701 84.7339L600.722 84.7286Z" fill="#B96DFF"/>
<path d="M603.175 86.322L603.707 85.0148L623.932 112.721L633.421 114.283L699.914 125.208L700.297 124.359C700.402 124.127 700.47 123.878 700.497 123.624L624.622 110.991L603.416 81.7976C602.939 82.0448 602.497 82.3551 602.103 82.72C601.798 83.0085 601.525 83.3291 601.288 83.6763L603.175 86.322Z" fill="#9A3BC2"/>
<path d="M695.927 135.802L619.157 123.867L598.052 95.0171L618.831 124.611L695.927 135.802Z" fill="#9A3BC2"/>
<path d="M600.725 84.7359L597.626 92.2849C597.349 92.9543 597.204 93.6704 597.196 94.3946C597.799 94.9799 598.585 95.3394 599.422 95.4124L603.698 84.9799C603.443 84.0629 602.879 83.2621 602.102 82.7134C601.501 83.2797 601.032 83.9698 600.725 84.7359Z" fill="#9A3BC2"/>
<path d="M695.173 135.484L692.666 132.887L691.831 134.94L695.173 135.484Z" fill="#9A3BC2"/>
<g style="mix-blend-mode:multiply" opacity="0.5">
<path d="M629.26 110.488C629.033 109.43 628.4 108.504 627.497 107.908C626.594 107.313 625.493 107.096 624.432 107.304C624.386 107.314 624.337 107.31 624.293 107.293C624.249 107.276 624.21 107.247 624.182 107.209L609.795 86.5817C609.769 86.5546 609.751 86.5215 609.742 86.4856C609.733 86.4496 609.734 86.412 609.743 86.3762C609.755 86.3399 609.776 86.307 609.803 86.2804C609.831 86.2539 609.864 86.2345 609.901 86.2239C610.18 86.1633 610.441 86.0405 610.666 85.8644C610.89 85.6884 611.072 85.4639 611.198 85.2076C611.318 84.9056 611.34 84.5735 611.262 84.2581C611.253 84.2198 611.254 84.1799 611.264 84.1419C611.274 84.1039 611.294 84.069 611.32 84.0402C611.351 84.0158 611.386 83.9982 611.424 83.9887C611.462 83.9792 611.502 83.9781 611.54 83.9854L668.049 93.2924C668.089 93.2965 668.127 93.3112 668.159 93.3349C668.192 93.3585 668.217 93.3904 668.233 93.4271C668.618 94.3178 669.306 95.0439 670.174 95.4772C671.042 95.9106 672.035 96.0235 672.978 95.7959C673.019 95.7855 673.062 95.7857 673.103 95.7966C673.144 95.8074 673.182 95.8286 673.212 95.858L695.62 118.797C695.65 118.827 695.671 118.864 695.681 118.905C695.692 118.947 695.691 118.99 695.678 119.03C695.668 119.071 695.647 119.109 695.617 119.139C695.588 119.169 695.551 119.19 695.51 119.2C695.314 119.237 695.128 119.318 694.968 119.436C694.807 119.555 694.675 119.708 694.582 119.884C694.522 120.089 694.511 120.305 694.549 120.515C694.587 120.725 694.673 120.923 694.801 121.094C694.825 121.133 694.838 121.179 694.836 121.225C694.834 121.271 694.818 121.316 694.79 121.353C694.765 121.391 694.729 121.422 694.687 121.441C694.645 121.459 694.598 121.465 694.552 121.457L629.471 110.669L629.428 110.68C629.383 110.67 629.343 110.646 629.312 110.612C629.282 110.577 629.264 110.534 629.26 110.488ZM694.105 119.694C694.277 119.312 694.591 119.012 694.98 118.858L672.927 96.2831C672.024 96.478 671.084 96.3923 670.231 96.0374C669.164 95.6018 668.301 94.7797 667.813 93.7352L611.802 84.4922C611.83 84.7967 611.783 85.1034 611.663 85.385C611.542 85.6614 611.364 85.9096 611.142 86.1141C610.92 86.3185 610.657 86.4748 610.372 86.5731L624.51 106.803C625.648 106.617 626.815 106.866 627.778 107.499C628.742 108.133 629.433 109.105 629.714 110.224L694.156 120.893C693.988 120.511 693.977 120.079 694.126 119.689L694.105 119.694Z" fill="#9A3BC2"/>
</g>
</svg>
