<svg width="1089" height="206" viewBox="0 0 1089 206" fill="none" xmlns="http://www.w3.org/2000/svg">
<path d="M75.2798 51.2478L28.3246 65.7787C25.7948 66.6379 25.3184 67.557 25.4042 69.6306L27.88 70.592L25.2722 80.9759L22.0753 81.8713C20.8597 82.8089 20.8836 84.3062 21.8711 86.0657L109.143 119.956L149.151 101.303C150.691 100.536 151.903 100.08 152.45 98.3101C152.45 98.3101 155.779 86.0695 154.643 83.4916C154.986 80.7754 150.653 79.0929 150.653 79.0929L75.2798 51.2478Z" fill="#FDFDFD" stroke="#FDFDFD" stroke-width="6.11353" stroke-linejoin="round"/>
<path d="M28.1686 69.1798L25.3097 85.382L110 116.573L112.821 100.584L28.1686 69.1798Z" fill="#FDFDFD"/>
<path d="M30.1371 73.7739L109.728 104.289C109.728 104.289 70.0391 91.6557 30.1371 73.7739Z" fill="#E3F0FF"/>
<path d="M29.9404 81.6876L55.1394 91.0539C55.1394 91.0539 40.0479 87.3984 29.9404 81.6876Z" fill="#E3F0FF"/>
<path d="M72.6957 97.6056L108.653 110.142C96.1894 107.292 84.135 103.089 72.6957 97.6056Z" fill="#E3F0FF"/>
<path d="M52.2524 86.755L88.1963 99.2797C75.7378 96.4328 63.6878 92.2339 52.2524 86.755Z" fill="#E3F0FF"/>
<path d="M112.819 100.588L151.753 84.2368L149.185 98.773L109.998 116.576L112.819 100.588Z" fill="#FDFDFD"/>
<path d="M112.658 107.673L135.556 98.4937C128.412 102.773 120.676 105.875 112.658 107.673Z" fill="#E3F0FF"/>
<path d="M114.181 103.826L149.397 88.4393C149.397 88.4393 136.411 97.2336 114.181 103.826Z" fill="#E3F0FF"/>
<path d="M148.317 96.7527L131.213 104.452C131.213 104.452 141.564 97.9693 148.317 96.7527Z" fill="#E3F0FF"/>
<path d="M21.3692 84.2979C21.2714 84.8019 21.3477 85.3155 21.5853 85.7522C21.8229 86.1888 22.2073 86.5219 22.6737 86.6953L109.358 120.271L148.08 102.532C149.182 102.023 150.191 101.316 151.053 100.446C152.146 99.3593 152.875 97.9612 153.13 96.4639L154.894 86.478C155.057 85.5384 155.034 84.585 154.825 83.674C154.616 82.763 154.225 81.9126 153.677 81.173C153.345 80.7242 152.955 80.3227 152.517 79.9782L75.3816 51.4922L28.1173 65.9156C27.5251 66.1025 26.9912 66.4568 26.5813 66.9349C26.1714 67.4131 25.9033 67.9942 25.8101 68.607L25.6798 69.7245L84.5278 91.876L101.434 98.2363L112.515 102.41L146.49 87.2465L148.023 86.5658L151.644 84.9482L149.205 98.7363L110.106 115.941L21.7496 82.4536L21.3692 84.2979Z" fill="#52C974"/>
<path d="M25.809 68.6064L25.6787 69.7239L84.5271 91.8755L101.433 98.2359L112.514 102.409L146.49 87.2459L148.022 86.5651C146.395 86.0031 144.587 86.0719 142.943 86.7585L112.493 99.6761L26.35 67.2385C26.068 67.6511 25.8827 68.1196 25.809 68.6064Z" fill="#006510"/>
<path d="M22.7826 83.0541L110.032 116.824L150.827 98.6772L109.891 117.822L22.7826 83.0541Z" fill="#006510"/>
<path d="M151.616 84.9789L149.177 98.7667C149.856 99.3573 150.707 99.7207 151.619 99.8103C152.381 98.8365 152.891 97.6947 153.101 96.4943L154.865 86.5087C155.031 85.5685 155.006 84.614 154.791 83.7037C153.706 84.0477 152.644 84.474 151.616 84.9789Z" fill="#006510"/>
<path d="M21.7534 82.4495L26.0578 81.1821L25.5777 83.8997L21.7534 82.4495Z" fill="#006510"/>
<g style="mix-blend-mode:multiply" opacity="0.5">
<path d="M108.081 96.9009L33.6898 68.9879C33.6396 68.9675 33.5967 68.933 33.5662 68.8883C33.5357 68.8436 33.5187 68.7906 33.5171 68.7352C33.5166 68.6784 33.5314 68.6217 33.56 68.5712C33.5886 68.5206 33.6299 68.4781 33.6794 68.4482C33.9232 68.3431 34.1427 68.1844 34.3212 67.9844C34.4996 67.7843 34.6323 67.5482 34.709 67.2941C34.7287 67.0472 34.6924 66.802 34.6031 66.5769C34.5137 66.3519 34.3735 66.1529 34.1932 65.995C34.1579 65.9584 34.1336 65.9122 34.1231 65.8616C34.1126 65.8109 34.1162 65.7576 34.1335 65.7073C34.1441 65.6572 34.168 65.6103 34.2026 65.5715C34.2371 65.5328 34.2811 65.5038 34.3296 65.4875L72.5998 54.4639C72.6495 54.449 72.7016 54.4473 72.7509 54.4588C72.8002 54.4703 72.8449 54.4947 72.8808 54.5296C73.7026 55.3511 74.803 55.8369 75.9861 55.9004C77.1692 55.964 78.358 55.6012 79.3406 54.8766C79.3821 54.8468 79.4297 54.8274 79.4792 54.8199C79.5287 54.8125 79.5787 54.8173 79.6247 54.8339L144.17 79.1069C144.216 79.1179 144.258 79.14 144.294 79.1714C144.329 79.2028 144.356 79.2425 144.372 79.2873C144.381 79.3345 144.377 79.3839 144.362 79.4307C144.347 79.4776 144.32 79.5204 144.285 79.5553C144 79.8486 143.806 80.2173 143.728 80.6128C143.695 80.961 143.74 81.3081 143.86 81.6284C143.979 81.9487 144.171 82.2341 144.419 82.4634C144.451 82.496 144.473 82.5365 144.485 82.5811C144.496 82.6257 144.496 82.673 144.484 82.7188C144.472 82.7648 144.449 82.8076 144.417 82.8436C144.385 82.8795 144.345 82.9074 144.301 82.9249L115.85 96.306C115.796 96.3302 115.737 96.339 115.679 96.3314C115.622 96.3238 115.568 96.3001 115.525 96.263C114.568 95.3919 113.287 94.9539 111.962 95.0438C110.636 95.1338 109.372 95.7445 108.444 96.7435C108.411 96.7799 108.369 96.8078 108.323 96.8249C108.277 96.842 108.228 96.8478 108.181 96.8417L108.081 96.9009ZM115.757 95.754L143.676 82.627C143.454 82.3498 143.292 82.027 143.2 81.6781C143.109 81.3293 143.09 80.9618 143.144 80.5978C143.209 80.2223 143.361 79.8631 143.587 79.5497L79.5623 55.4815C78.3714 56.3064 76.9384 56.6662 75.5478 56.4894C74.4369 56.3371 73.4132 55.8533 72.6068 55.0993L34.9713 65.9366C35.2746 66.3393 35.4042 66.8531 35.3328 67.3694C35.2281 67.878 34.9301 68.3347 34.5034 68.6405L108.209 96.2988C109.233 95.2713 110.584 94.648 111.994 94.5519C113.405 94.4558 114.772 94.894 115.827 95.7799L115.757 95.754Z" fill="#006510"/>
</g>
<path d="M1020.71 88.8125L1060.3 131.047C1062.39 133.401 1062.34 134.619 1061.05 136.692L1057.95 136.233L1054.57 148.381L1057.32 151.16C1058.02 152.828 1057.12 154.347 1055.08 155.572L946.01 139.406L915.929 96.9997C914.8 95.3175 913.825 94.1442 914.296 92.0142C914.296 92.0142 918.022 77.5455 920.687 75.5688C921.919 72.5891 927.334 73.3917 927.334 73.3917L1020.71 88.8125Z" fill="#FDFDFD" stroke="white" stroke-width="3"/>
<path d="M1055.43 133.033L1048.51 149.937L946.682 132.476L953.522 115.79L1055.43 133.033Z" fill="white"/>
<path d="M1050.74 136.292L954.338 121.016C954.338 121.016 1000.86 131.102 1050.74 136.292Z" fill="#BEE3F2"/>
<path d="M1046.19 143.873L1015.85 138.77C1015.85 138.77 1032.85 143.684 1046.19 143.873Z" fill="#BEE3F2"/>
<path d="M994.682 135.218L951.871 127.144C965.811 131.361 980.163 134.068 994.682 135.218Z" fill="#BEE3F2"/>
<path d="M1021.25 136.29L978.433 128.218C992.376 132.433 1006.73 135.139 1021.25 136.29Z" fill="#BEE3F2"/>
<path d="M953.521 115.79L925.145 78.7434L918.934 93.9128L946.682 132.476L953.521 115.79Z" fill="white"/>
<path d="M949.424 122.585L932.456 101.179C936.897 109.198 942.63 116.43 949.424 122.585Z" fill="#BEE3F2"/>
<path d="M950.235 118.095L924.923 84.0098C924.923 84.0098 932.43 99.5343 950.235 118.095Z" fill="#BEE3F2"/>
<path d="M921.004 92.5137L933.142 109.208C933.142 109.208 926.899 97.3749 921.004 92.5137Z" fill="#BEE3F2"/>
<path d="M920.723 79.1618L916.449 89.571C916.07 90.4982 915.87 91.4885 915.859 92.4899C915.852 93.1694 915.933 93.847 916.102 94.5052C916.264 95.1612 916.486 95.8008 916.766 96.4158C917.05 97.0209 917.386 97.6005 917.769 98.1481L944.382 135.365C944.606 135.68 944.891 135.947 945.22 136.15C945.548 136.353 945.915 136.489 946.296 136.548L1050.32 152.683C1050.89 152.775 1051.47 152.668 1051.96 152.379C1052.46 152.091 1052.84 151.639 1053.04 151.102L1053.77 149.145L946.953 131.817L918.931 93.9031L924.829 79.5177L952.726 117.722L965.814 119.875L1057.54 134.979L1058.07 133.809C1058.21 133.488 1058.31 133.146 1058.34 132.795C1058.41 132.289 1058.36 131.775 1058.2 131.291C1058.03 130.807 1057.77 130.364 1057.42 129.995L1019.71 90.1476L929.465 74.7587L928.276 74.5677L926.922 74.3448C926.047 74.4637 925.197 74.7284 924.409 75.1279C923.751 75.4688 923.142 75.8966 922.598 76.3998C921.773 77.1768 921.124 78.1209 920.694 79.1691L920.723 79.1618Z" fill="#B96DFF"/>
<path d="M924.106 81.3593L924.839 79.5568L952.737 117.761L965.824 119.914L1057.54 134.979L1058.07 133.809C1058.21 133.488 1058.31 133.146 1058.34 132.795L953.688 115.375L924.438 75.1206C923.78 75.4615 923.171 75.8893 922.628 76.3925C922.207 76.7903 921.83 77.2324 921.503 77.7111L924.106 81.3593Z" fill="#9A3BC2"/>
<path d="M1052.04 149.587L946.149 133.128L917.039 93.3477L945.699 134.154L1052.04 149.587Z" fill="#9A3BC2"/>
<path d="M920.726 79.1711L916.451 89.5804C916.07 90.5035 915.869 91.4909 915.859 92.4895C916.69 93.2965 917.775 93.7922 918.929 93.8929L924.827 79.5076C924.475 78.243 923.697 77.1389 922.625 76.3823C921.797 77.1632 921.149 78.1148 920.726 79.1711Z" fill="#9A3BC2"/>
<path d="M1053.76 149.148L1050.3 145.567L1049.15 148.398L1053.76 149.148Z" fill="#9A3BC2"/>
<g style="mix-blend-mode:multiply" opacity="0.5">
<path d="M960.085 114.682C959.772 113.223 958.899 111.946 957.654 111.125C956.408 110.304 954.89 110.005 953.426 110.292C953.362 110.305 953.295 110.299 953.234 110.276C953.173 110.253 953.12 110.212 953.082 110.16L933.236 81.7174C933.202 81.68 933.177 81.6344 933.165 81.5848C933.152 81.5353 933.153 81.4834 933.166 81.434C933.182 81.3839 933.21 81.3386 933.248 81.3019C933.286 81.2653 933.333 81.2386 933.383 81.2241C933.768 81.1405 934.128 80.9711 934.438 80.7284C934.748 80.4857 934.999 80.176 935.172 79.8227C935.337 79.4062 935.368 78.9483 935.26 78.5134C935.248 78.4605 935.249 78.4055 935.263 78.3531C935.278 78.3008 935.304 78.2527 935.341 78.213C935.383 78.1792 935.432 78.1549 935.484 78.1419C935.537 78.1288 935.591 78.1273 935.644 78.1374L1013.59 90.9707C1013.64 90.9764 1013.69 90.9967 1013.74 91.0293C1013.78 91.0619 1013.82 91.1058 1013.84 91.1565C1014.37 92.3847 1015.32 93.3858 1016.52 93.9834C1017.72 94.581 1019.09 94.7366 1020.39 94.4228C1020.44 94.4084 1020.5 94.4087 1020.56 94.4237C1020.62 94.4387 1020.67 94.4679 1020.71 94.5085L1051.62 126.138C1051.66 126.18 1051.69 126.232 1051.7 126.288C1051.72 126.345 1051.71 126.405 1051.7 126.461C1051.68 126.517 1051.65 126.569 1051.61 126.61C1051.57 126.651 1051.52 126.681 1051.46 126.695C1051.19 126.746 1050.94 126.857 1050.72 127.02C1050.49 127.184 1050.31 127.395 1050.18 127.638C1050.1 127.92 1050.09 128.218 1050.14 128.507C1050.19 128.797 1050.31 129.07 1050.49 129.306C1050.52 129.36 1050.54 129.423 1050.53 129.487C1050.53 129.551 1050.51 129.612 1050.47 129.663C1050.44 129.716 1050.39 129.759 1050.33 129.784C1050.27 129.81 1050.21 129.818 1050.14 129.807L960.376 114.931L960.317 114.946C960.255 114.933 960.199 114.9 960.157 114.853C960.115 114.805 960.09 114.745 960.085 114.682ZM1049.53 127.376C1049.76 126.849 1050.2 126.436 1050.73 126.224L1020.32 95.0945C1019.07 95.3634 1017.77 95.2452 1016.6 94.7559C1015.13 94.1552 1013.93 93.0216 1013.26 91.5813L936.005 78.8361C936.044 79.256 935.979 79.679 935.814 80.0672C935.646 80.4483 935.401 80.7906 935.095 81.0726C934.788 81.3545 934.427 81.57 934.033 81.7056L953.534 109.601C955.104 109.344 956.713 109.687 958.042 110.56C959.371 111.434 960.324 112.775 960.711 114.318L1049.6 129.03C1049.37 128.503 1049.35 127.906 1049.56 127.369L1049.53 127.376Z" fill="#9A3BC2"/>
</g>
</svg>
