<svg width="360" height="191" viewBox="0 0 360 191" fill="none" xmlns="http://www.w3.org/2000/svg">
<path d="M68.4498 35.5412L27.9921 38.297C25.7997 38.5062 25.2615 39.1476 24.9878 40.8123L26.835 42.0405L23.0027 49.8075L20.2637 49.9205C19.1234 50.4382 18.8949 51.6331 19.4039 53.2169L84.518 96.5107L120.029 89.1761C121.404 88.8551 122.461 88.7195 123.197 87.4149C123.197 87.4149 127.922 78.3068 127.428 76.0445C128.155 73.9492 124.922 71.7998 124.922 71.7998L68.4498 35.5412Z" fill="#FDFDFD" stroke="#FDFDFD" stroke-width="3"/>
<path d="M27.9446 41.6436L24.1506 53.6968L86.7219 93.5453L90.4713 81.6464L27.9446 41.6436Z" fill="#FDFDFD"/>
<path d="M29.0828 45.2821L87.2041 83.3583C87.2041 83.3583 57.9611 66.3641 29.0828 45.2821Z" fill="#E3F0FF"/>
<path d="M27.2994 52.7L45.9113 63.878C45.9113 63.878 34.5054 58.7339 27.2994 52.7Z" fill="#E3F0FF"/>
<path d="M59.3501 71.6704L85.8639 88.2283C76.5399 83.6447 67.651 78.0936 59.3501 71.6704Z" fill="#E3F0FF"/>
<path d="M45.0688 60.0063L71.5826 76.5643C62.2601 71.9788 53.3714 66.4278 45.0688 60.0063Z" fill="#E3F0FF"/>
<path d="M90.7297 80.7754L122.921 74.9585L119.389 85.8833L86.8361 92.801L90.7297 80.7754Z" fill="#FDFDFD"/>
<path d="M89.895 86.5655L108.84 83.5858C102.787 85.6317 96.3864 86.6384 89.895 86.5655Z" fill="#E3F0FF"/>
<path d="M91.7928 83.3864L121.086 77.6007C121.086 77.6007 109.961 82.1714 91.7928 83.3864Z" fill="#E3F0FF"/>
<path d="M119.062 83.8779L105.118 86.875C105.118 86.875 113.733 83.6725 119.062 83.8779Z" fill="#E3F0FF"/>
<path d="M21.1926 51.9794C21.0554 52.3548 21.0542 52.772 21.1892 53.1598C21.3242 53.5476 21.5869 53.8821 21.9328 54.1062L86.0711 95.8586L118.13 88.9512C119.05 88.7664 119.919 88.4046 120.689 87.8853C120.882 87.7557 121.066 87.6133 121.239 87.4589C121.936 86.8364 122.454 86.0364 122.742 85.1364L125.16 77.658C125.39 76.9548 125.473 76.2058 125.405 75.4566C125.335 74.7077 125.117 73.974 124.764 73.2987C124.551 72.8894 124.291 72.5051 123.989 72.1539L66.7983 36.0656L28.3536 38.858C27.7664 38.9035 27.2234 39.1584 26.8219 39.5771C26.567 39.851 26.3792 40.1819 26.2726 40.545L26.0269 41.4152L69.6374 69.2574L82.1649 77.2546L90.3751 82.4997L118.467 76.7576L119.733 76.5011L122.728 75.888L119.43 86.1792L87.1499 92.5787L21.6653 50.6209L21.1926 51.9794Z" fill="#637DE6"/>
<path d="M26.7291 40.659L26.4897 41.5266L70.0704 69.5906L82.5893 77.6515L90.794 82.9384L118.725 77.3696L119.984 77.1209C118.774 76.384 117.362 76.1056 116.014 76.3381L91.0649 80.7928L27.2756 39.6913C27.0209 39.964 26.834 40.2949 26.7291 40.659Z" fill="#132D96"/>
<path d="M21.9274 51.1896L86.6837 93.532L120.406 86.7762L86.4681 94.281L21.9274 51.1896Z" fill="#132D96"/>
<path d="M122.173 75.2996L118.56 85.8414C119.027 86.4249 119.658 86.8572 120.372 87.0832C121.1 86.4367 121.648 85.6134 121.961 84.693L124.593 77.045C124.843 76.3258 124.944 75.563 124.888 74.8029C123.971 74.898 123.064 75.0641 122.173 75.2996Z" fill="#132D96"/>
<path d="M21.2934 51.9782L24.7866 51.6747L24.0785 53.6966L21.2934 51.9782Z" fill="#132D96"/>
<g style="mix-blend-mode:multiply" opacity="0.5">
<path d="M87.7504 77.1903L32.4793 41.7226C32.4394 41.7003 32.4072 41.6658 32.3874 41.6244C32.3677 41.5831 32.3615 41.5371 32.3699 41.4933C32.3722 41.4491 32.3878 41.4073 32.4145 41.3733C32.4413 41.3394 32.4781 41.3149 32.52 41.303C32.7208 41.2656 32.9081 41.1819 33.0675 41.0582C33.2269 40.9346 33.3542 40.7744 33.4397 40.5899C33.4802 40.4002 33.4773 40.2016 33.4311 40.0086C33.385 39.8157 33.2967 39.6335 33.173 39.4755C33.1514 39.4415 33.1384 39.403 33.1351 39.3635C33.1319 39.3241 33.1385 39.2849 33.1543 39.2497C33.1666 39.2104 33.1903 39.1762 33.2224 39.1513C33.2545 39.1264 33.2936 39.1119 33.335 39.1096L64.3034 37.5178C64.3439 37.5137 64.3852 37.5212 64.4228 37.5394C64.4604 37.5576 64.4928 37.5857 64.5162 37.6207C65.0788 38.4108 65.8903 38.9898 66.8075 39.2555C67.7248 39.5212 68.6889 39.4566 69.5298 39.073C69.5643 39.0569 69.6029 39.0506 69.6416 39.0546C69.6804 39.0587 69.7179 39.0729 69.7504 39.0959L117.7 69.9118C117.733 69.9347 117.76 69.9646 117.779 69.9992C117.799 70.0338 117.81 70.0721 117.813 70.111C117.815 70.1485 117.808 70.1855 117.793 70.2186C117.777 70.2517 117.753 70.2798 117.723 70.3004C117.471 70.4767 117.282 70.7295 117.182 71.0248C117.119 71.2906 117.118 71.5707 117.179 71.8435C117.241 72.1163 117.363 72.3745 117.536 72.5982C117.558 72.6302 117.571 72.667 117.575 72.7049C117.578 72.7428 117.572 72.7805 117.556 72.814C117.541 72.8477 117.519 72.8769 117.49 72.8991C117.462 72.9213 117.428 72.9358 117.392 72.9413L93.8321 78.1746C93.7889 78.1844 93.7431 78.1809 93.7006 78.1646C93.658 78.1483 93.6205 78.1199 93.5929 78.083C92.9229 77.226 91.9575 76.6529 90.9066 76.4884C89.8558 76.324 88.8046 76.5814 87.9819 77.2048C87.9519 77.227 87.9167 77.2412 87.8791 77.2462C87.8416 77.2511 87.8029 77.2467 87.7665 77.2332L87.7504 77.1903ZM93.8521 77.7064L116.94 72.5897C116.794 72.3312 116.7 72.0482 116.665 71.758C116.629 71.4678 116.653 71.1764 116.733 70.9017C116.819 70.6212 116.972 70.3695 117.179 70.168L69.6202 39.6034C68.7077 39.9847 67.6779 40.0374 66.6974 39.7531C65.717 39.4689 64.8433 38.8642 64.2177 38.037L33.748 39.6024C33.8549 39.7814 33.9236 39.9794 33.9494 40.1831C33.9753 40.3868 33.9577 40.5915 33.8978 40.7832C33.838 40.975 33.7373 41.1495 33.6025 41.2948C33.4677 41.4401 33.302 41.553 33.1166 41.6257L87.8719 76.7727C88.7748 76.1575 89.8918 75.9181 91.0026 76.1018C92.1134 76.2855 93.1371 76.879 93.8717 77.765L93.8521 77.7064Z" fill="#132D96"/>
</g>
<path d="M312.657 38.4176L340.56 68.5005C342.085 70.1766 342.053 71.0412 341.116 72.5089L338.865 72.1752L336.438 80.789L338.445 82.769C338.957 83.9549 338.309 85.0305 336.831 85.8949L256.471 74.1324L236.485 43.953C235.659 42.756 234.947 41.9206 235.285 40.41C235.285 40.41 238.956 30.1498 240.888 28.7537C241.776 26.642 244.716 27.2259 244.716 27.2259L312.657 38.4176Z" fill="#FDFDFD" stroke="#FDFDFD" stroke-width="3"/>
<path d="M337.276 69.5865L331.815 81.9399L258.879 70.0522L264.264 57.863L337.276 69.5865Z" fill="#FDFDFD"/>
<path d="M334.266 72.1162L264.934 62.5124C264.934 62.5124 298.299 69.1569 334.266 72.1162Z" fill="#E3F0FF"/>
<path d="M330.195 78.7129L308.564 75.6574C308.564 75.6574 320.584 78.8964 330.195 78.7129Z" fill="#E3F0FF"/>
<path d="M293.272 71.2119L262.491 65.8682C272.461 68.775 282.781 70.5665 293.272 71.2119Z" fill="#E3F0FF"/>
<path d="M312.261 72.4131L281.479 67.0694C291.45 69.9776 301.769 71.7691 312.261 72.4131Z" fill="#E3F0FF"/>
<path d="M264.023 57.1129L244.823 30.4968L239.882 41.6125L258.586 69.3396L264.023 57.1129Z" fill="#FDFDFD"/>
<path d="M260.907 62.2916L248.803 46.7453C251.947 52.5514 256.037 57.8039 260.907 62.2916Z" fill="#E3F0FF"/>
<path d="M261.066 59.4795L243.701 34.2202C243.701 34.2202 248.626 45.8134 261.066 59.4795Z" fill="#E3F0FF"/>
<path d="M241.021 40.3976L249.591 52.3338C249.591 52.3338 245.201 43.9099 241.021 40.3976Z" fill="#E3F0FF"/>
<path d="M240.633 31.3681L237.221 39.0815C236.922 39.7645 236.747 40.4906 236.705 41.2233C236.675 41.7179 236.711 42.2107 236.811 42.6885C236.909 43.1644 237.053 43.6268 237.241 44.0692C237.422 44.5141 237.649 44.9368 237.917 45.3307L256.129 72.4093C256.446 72.8662 256.933 73.1715 257.487 73.261L332.531 84.0269C332.938 84.088 333.361 84.0028 333.728 83.7858C334.096 83.5689 334.384 83.2338 334.544 82.8377L335.122 81.4076L258.1 69.788L238.89 42.2315L243.635 31.5386L262.745 59.3191L272.186 60.7704L338.311 70.9098L338.725 70.0418C338.841 69.804 338.922 69.5515 338.963 69.2932C339.021 68.9204 338.998 68.5438 338.896 68.1898C338.794 67.8359 338.615 67.5131 338.372 67.2443L312.947 39.1987C312.453 38.6517 311.787 38.2917 311.051 38.1726L247.112 28.0183L246.279 27.8846L245.304 27.73C244.666 27.8219 244.042 28.0229 243.46 28.3243C242.98 28.5746 242.532 28.8887 242.129 29.2576C241.808 29.5521 241.519 29.8811 241.268 30.2379C241.019 30.5936 240.807 30.9723 240.633 31.3681Z" fill="#F2B441"/>
<path d="M242.918 32.9355L243.502 31.6085L262.732 59.4264L272.176 60.9174L338.34 71.3101L338.75 70.4455C338.865 70.2086 338.944 69.957 338.985 69.6993L263.47 57.6785L243.309 28.3787C242.83 28.6265 242.383 28.9379 241.983 29.3044C241.663 29.597 241.375 29.924 241.126 30.2792L242.918 32.9355Z" fill="#DEA02D"/>
<path d="M334.163 81.8516L257.76 70.4943L237.664 41.5417L257.404 71.2401L334.163 81.8516Z" fill="#DEA02D"/>
<path d="M240.331 30.5454L236.876 38.3559C236.573 39.0476 236.395 39.7826 236.352 40.5241C236.929 41.1238 237.71 41.484 238.555 41.5408L243.36 30.7132C243.146 29.7791 242.613 28.9688 241.852 28.4218C241.204 29.0173 240.685 29.7422 240.331 30.5454Z" fill="#DEA02D"/>
<path d="M335.726 82.6536L333.717 80.3973L332.84 82.3013L335.726 82.6536Z" fill="#DEA02D"/>
<g style="mix-blend-mode:multiply" opacity="0.5">
<path d="M268.857 57.2749L268.898 57.3025L333.584 67.262C333.63 67.2669 333.676 67.2589 333.718 67.239C333.761 67.219 333.798 67.1879 333.825 67.149C333.852 67.111 333.869 67.0662 333.873 67.0202C333.876 66.9742 333.866 66.9289 333.844 66.8898C333.725 66.7188 333.647 66.5199 333.617 66.3086C333.588 66.0972 333.608 65.8791 333.675 65.6712C333.776 65.4903 333.915 65.3321 334.081 65.2081C334.247 65.0842 334.436 64.9974 334.634 64.9542C334.675 64.9433 334.714 64.9215 334.745 64.8911C334.776 64.8606 334.799 64.8227 334.811 64.7812C334.824 64.7402 334.826 64.6972 334.817 64.6565C334.808 64.6157 334.789 64.5785 334.761 64.5485L313.27 41.6132C313.242 41.5823 313.206 41.5597 313.166 41.5474C313.126 41.5352 313.083 41.5338 313.041 41.5433C312.088 41.7898 311.098 41.6917 310.247 41.2663C309.395 40.8409 308.736 40.1156 308.387 39.2186C308.369 39.1823 308.342 39.1516 308.309 39.1295C308.275 39.1075 308.236 39.0947 308.196 39.0923L252.075 30.461C252.035 30.4558 251.993 30.4601 251.954 30.4736C251.915 30.4871 251.879 30.5094 251.849 30.5388C251.822 30.5687 251.802 30.6045 251.791 30.6431C251.78 30.6816 251.778 30.7218 251.786 30.7601C251.85 31.0776 251.816 31.4125 251.69 31.721C251.551 31.9827 251.358 32.2128 251.125 32.3945C250.892 32.5761 250.624 32.7046 250.342 32.7706C250.305 32.7821 250.271 32.802 250.242 32.8288C250.214 32.8556 250.191 32.8885 250.177 32.9248C250.164 32.9622 250.159 33.0017 250.163 33.0403C250.166 33.0789 250.179 33.1157 250.199 33.1479L263.776 53.8431C263.802 53.8819 263.839 53.9118 263.882 53.9293C263.926 53.9466 263.974 53.9508 264.021 53.9412C265.091 53.7118 266.184 53.914 267.064 54.504C267.943 55.0941 268.538 56.0245 268.72 57.0939C268.725 57.1341 268.741 57.1717 268.764 57.2033C268.788 57.235 268.82 57.2596 268.857 57.2749ZM333.261 66.7309L269.157 56.8298C268.918 55.7014 268.266 54.7274 267.328 54.099C266.391 53.4705 265.235 53.2329 264.088 53.4326L250.767 33.1246C251.058 33.021 251.327 32.8588 251.559 32.6482C251.79 32.4375 251.979 32.183 252.112 31.9007C252.236 31.6129 252.294 31.3038 252.282 30.9973L308.01 39.559C308.412 40.5052 309.126 41.268 310.036 41.7234C310.946 42.1787 311.999 42.2999 313.024 42.0671L334.179 64.6441C333.98 64.722 333.797 64.8383 333.639 64.9863C333.481 65.1342 333.352 65.3108 333.26 65.5058C333.1 65.9035 333.096 66.34 333.249 66.723L333.261 66.7309Z" fill="#DEA02D"/>
</g>
<path d="M197.111 161.794L220.584 150.372C221.842 149.717 222.015 149.199 221.792 148.125L220.406 147.828L220.89 142.204L222.496 141.475C223.056 140.887 222.915 140.109 222.245 139.273L173.403 128.776L153.939 141.776C153.194 142.302 152.595 142.639 152.459 143.606C152.459 143.606 151.754 150.257 152.573 151.507C152.625 152.95 155.05 153.471 155.05 153.471L197.111 161.794Z" fill="#FDFDFD" stroke="#FDFDFD" stroke-width="3"/>
<path d="M217.902 149.05L218.154 140.812L173.299 131.664L173.053 139.798L217.902 149.05Z" fill="#FDFDFD"/>
<path d="M216.54 147.21L174.255 138.036C174.255 138.036 195.158 141.317 216.54 147.21Z" fill="#BEE3F2"/>
<path d="M217.206 143.289L203.18 140.705C203.18 140.705 211.459 141.21 217.206 143.289Z" fill="#BEE3F2"/>
<path d="M193.603 138.607L174.366 134.772C180.912 135.356 187.362 136.642 193.603 138.607Z" fill="#BEE3F2"/>
<path d="M204.494 141.983L185.257 138.148C191.803 138.733 198.252 140.019 204.494 141.983Z" fill="#BEE3F2"/>
<path d="M173.857 138.694L155.398 149.636L155.579 142.206L174.053 130.52L173.857 138.694Z" fill="#FDFDFD"/>
<path d="M172.709 135.146L162.137 141.249C165.333 138.66 168.905 136.598 172.709 135.146Z" fill="#BEE3F2"/>
<path d="M172.247 137.448L155.898 148.093C155.898 148.093 161.776 142.654 172.247 137.448Z" fill="#BEE3F2"/>
<path d="M156.073 142.998L163.845 137.398C163.845 137.398 159.186 141.655 156.073 142.998Z" fill="#BEE3F2"/>
<path d="M153.666 149.657L153.834 144.547C153.85 144.092 153.951 143.64 154.132 143.213C154.254 142.923 154.413 142.649 154.604 142.397C154.792 142.144 155.001 141.909 155.23 141.693C155.459 141.482 155.704 141.29 155.962 141.12L173.776 129.628C173.927 129.53 174.093 129.463 174.266 129.43C174.438 129.397 174.614 129.399 174.782 129.435L220.503 139.412C220.752 139.464 220.971 139.604 221.122 139.807C221.272 140.009 221.345 140.262 221.328 140.523L221.264 141.471L174.177 131.549L155.655 143.11L155.419 150.17L173.943 138.466L179.718 139.669L220.196 148.094L220.196 148.676C220.197 148.836 220.172 148.996 220.123 149.151C220.055 149.376 219.939 149.586 219.784 149.766C219.628 149.945 219.437 150.09 219.224 150.19L196.368 161.005L156.444 152.94L155.92 152.828L155.323 152.704C154.985 152.512 154.685 152.262 154.435 151.965C154.228 151.714 154.056 151.434 153.926 151.132C153.731 150.669 153.639 150.163 153.656 149.649L153.666 149.657Z" fill="#B96DFF"/>
<path d="M155.059 148.915L155.028 149.803L173.655 138.046L179.465 139.26L220.179 147.777L220.18 148.362C220.181 148.523 220.156 148.684 220.107 148.839L173.605 139.22L154.038 151.631C153.83 151.378 153.657 151.097 153.526 150.793C153.426 150.555 153.352 150.305 153.306 150.047L155.059 148.915Z" fill="#9A3BC2"/>
<path d="M219.924 141.2L173.297 130.754L154.075 142.732L173.298 130.249L219.924 141.2Z" fill="#9A3BC2"/>
<path d="M153.117 148.944L153.331 144.104C153.349 143.674 153.448 143.246 153.623 142.841C154.086 142.638 154.591 142.599 155.053 142.73L154.753 149.418C154.393 149.876 153.896 150.206 153.349 150.352C153.17 149.914 153.091 149.433 153.117 148.944Z" fill="#9A3BC2"/>
<path d="M220.9 142.597L218.76 143.573L218.805 142.148L220.9 142.597Z" fill="#9A3BC2"/>
<g style="mix-blend-mode:multiply" opacity="0.5">
<path d="M175.693 141.143C175.297 141.708 174.704 142.106 174.04 142.25C173.377 142.393 172.696 142.272 172.146 141.911C172.122 141.895 172.094 141.886 172.064 141.886C172.035 141.886 172.005 141.895 171.98 141.911L158.598 150.694C158.577 150.704 158.558 150.72 158.544 150.738C158.53 150.757 158.521 150.779 158.517 150.802C158.515 150.826 158.518 150.85 158.527 150.872C158.536 150.893 158.55 150.912 158.568 150.927C158.711 151.025 158.829 151.155 158.912 151.309C158.995 151.462 159.042 151.634 159.049 151.812C159.041 152.015 158.97 152.213 158.846 152.38C158.831 152.4 158.821 152.423 158.817 152.448C158.814 152.472 158.816 152.497 158.824 152.52C158.835 152.541 158.851 152.559 158.87 152.573C158.889 152.587 158.911 152.597 158.935 152.601L193.398 159.91C193.422 159.916 193.447 159.916 193.472 159.91C193.496 159.903 193.518 159.891 193.537 159.873C193.981 159.44 194.554 159.172 195.157 159.115C195.76 159.058 196.353 159.216 196.831 159.561C196.852 159.576 196.877 159.586 196.903 159.589C196.929 159.592 196.955 159.588 196.98 159.578L215.503 151.254C215.528 151.243 215.549 151.226 215.565 151.204C215.582 151.182 215.592 151.157 215.595 151.13C215.6 151.104 215.597 151.078 215.588 151.054C215.579 151.03 215.563 151.009 215.542 150.993C215.44 150.928 215.355 150.839 215.294 150.734C215.232 150.629 215.196 150.51 215.187 150.386C215.205 150.253 215.253 150.124 215.328 150.011C215.403 149.897 215.502 149.801 215.617 149.73C215.641 149.712 215.66 149.689 215.67 149.661C215.681 149.634 215.683 149.604 215.676 149.576C215.672 149.548 215.659 149.522 215.64 149.502C215.621 149.481 215.596 149.468 215.568 149.462L175.859 141.085L175.837 141.069C175.809 141.064 175.78 141.069 175.754 141.082C175.728 141.096 175.707 141.117 175.693 141.143ZM214.869 150.389C214.87 150.65 214.973 150.896 215.155 151.074L196.925 159.266C196.461 158.948 195.905 158.786 195.331 158.801C194.615 158.815 193.917 159.1 193.376 159.599L159.212 152.365C159.304 152.194 159.355 152.004 159.358 151.813C159.359 151.624 159.32 151.44 159.246 151.27C159.171 151.101 159.061 150.951 158.924 150.829L172.064 142.221C172.664 142.586 173.389 142.704 174.097 142.552C174.805 142.399 175.442 141.988 175.884 141.399L215.2 149.701C215.008 149.886 214.893 150.136 214.879 150.397L214.869 150.389Z" fill="#9A3BC2"/>
</g>
</svg>
