<svg width="811" height="168" viewBox="0 0 811 168" fill="none" xmlns="http://www.w3.org/2000/svg">
<path d="M55.2628 37.6328L20.7709 48.2951C18.9126 48.9256 18.5628 49.6004 18.6261 51.123L20.445 51.8293L18.5309 59.4535L16.1826 60.1105C15.2898 60.7988 15.3075 61.8982 16.0332 63.1903L80.1497 88.0887L109.538 74.3985C110.669 73.8358 111.559 73.501 111.961 72.2016C111.961 72.2016 114.404 63.2142 113.57 61.3211C113.821 59.3267 110.638 58.0907 110.638 58.0907L55.2628 37.6328Z" fill="#FDFDFD" stroke="#FDFDFD" stroke-width="2" stroke-linejoin="round"/>
<path d="M20.9998 50.4377L18.9154 62.2505L80.6626 84.9917L82.7195 73.3342L20.9998 50.4377Z" fill="#FDFDFD"/>
<path d="M22.4353 53.7872L80.4643 76.0353C80.4643 76.0353 51.5276 66.8247 22.4353 53.7872Z" fill="#E3F0FF"/>
<path d="M22.2916 59.5578L40.6639 66.3868C40.6639 66.3868 29.6608 63.7216 22.2916 59.5578Z" fill="#E3F0FF"/>
<path d="M53.4646 71.162L79.6805 80.3021C70.5936 78.2241 61.8048 75.1599 53.4646 71.162Z" fill="#E3F0FF"/>
<path d="M38.5594 63.2519L64.7658 72.3835C55.6824 70.3078 46.8968 67.2465 38.5594 63.2519Z" fill="#E3F0FF"/>
<path d="M80.7082 73.3367L109.095 61.4152L107.222 72.0134L78.6515 84.9936L80.7082 73.3367Z" fill="#FDFDFD"/>
<path d="M80.5907 78.5032L97.2855 71.8105C92.0768 74.9309 86.4364 77.1921 80.5907 78.5032Z" fill="#E3F0FF"/>
<path d="M81.7012 75.6984L107.377 64.4798C107.377 64.4798 97.9088 70.8917 81.7012 75.6984Z" fill="#E3F0FF"/>
<path d="M106.589 70.5417L94.1192 76.1552C94.1192 76.1552 101.666 71.4287 106.589 70.5417Z" fill="#E3F0FF"/>
<path d="M16.0424 61.4608C15.9711 61.8283 16.0267 62.2028 16.2 62.5212C16.3732 62.8395 16.6535 63.0824 16.9935 63.2088L80.1947 87.6884L108.426 74.7549C109.23 74.3841 109.965 73.8684 110.594 73.2345C111.391 72.442 111.922 71.4227 112.108 70.331L113.394 63.0503C113.513 62.3653 113.496 61.6702 113.344 61.006C113.192 60.3418 112.907 59.7218 112.507 59.1825C112.265 58.8553 111.981 58.5626 111.662 58.3114L55.4224 37.5425L20.9624 48.0585C20.5306 48.1947 20.1414 48.453 19.8425 48.8016C19.5437 49.1503 19.3482 49.574 19.2802 50.0207L19.1853 50.8355L62.0909 66.986L74.417 71.6233L82.4958 74.6661L107.267 63.6107L108.384 63.1144L111.025 61.935L109.247 71.9878L80.7395 84.5316L16.3198 60.1162L16.0424 61.4608Z" fill="#52C974"/>
<path d="M19.2794 50.0203L19.1845 50.835L62.0903 66.9856L74.4166 71.6229L82.4954 74.6657L107.267 63.6102L108.384 63.1138C107.197 62.7041 105.88 62.7543 104.681 63.2548L82.4799 72.673L19.6739 49.0229C19.4683 49.3238 19.3332 49.6654 19.2794 50.0203Z" fill="#006510"/>
<path d="M17.0726 60.5546L80.6853 85.1763L110.429 71.9454L80.583 85.9036L17.0726 60.5546Z" fill="#006510"/>
<path d="M108.994 61.9574L107.216 72.0099C107.712 72.4405 108.332 72.7055 108.996 72.7708C109.552 72.0608 109.924 71.2283 110.077 70.3531L111.363 63.0727C111.485 62.3872 111.466 61.6913 111.309 61.0276C110.518 61.2784 109.744 61.5892 108.994 61.9574Z" fill="#006510"/>
<path d="M16.3226 60.1136L19.461 59.1896L19.1109 61.1709L16.3226 60.1136Z" fill="#006510"/>
<g style="mix-blend-mode:multiply" opacity="0.5">
<path d="M79.2634 70.6495L25.0251 50.2984C24.9884 50.2835 24.9572 50.2584 24.9349 50.2258C24.9127 50.1932 24.9003 50.1545 24.8992 50.1141C24.8988 50.0727 24.9096 50.0314 24.9304 49.9945C24.9513 49.9577 24.9814 49.9267 25.0175 49.9049C25.1952 49.8282 25.3553 49.7126 25.4854 49.5667C25.6155 49.4209 25.7122 49.2487 25.7681 49.0634C25.7825 48.8835 25.7561 48.7047 25.6909 48.5406C25.6258 48.3765 25.5236 48.2314 25.392 48.1163C25.3663 48.0896 25.3487 48.0559 25.341 48.019C25.3333 47.982 25.3359 47.9432 25.3486 47.9066C25.3563 47.87 25.3737 47.8358 25.3989 47.8075C25.4241 47.7793 25.4561 47.7581 25.4915 47.7463L53.394 39.709C53.4303 39.6982 53.4683 39.6969 53.5042 39.7053C53.5401 39.7137 53.5728 39.7315 53.5989 39.7569C54.198 40.3559 55.0004 40.7101 55.8629 40.7564C56.7255 40.8028 57.5923 40.5382 58.3087 40.01C58.3389 39.9882 58.3736 39.9741 58.4097 39.9686C58.4458 39.9632 58.4823 39.9667 58.5158 39.9788L105.575 57.6761C105.609 57.6841 105.64 57.7002 105.665 57.7231C105.691 57.746 105.711 57.7749 105.722 57.8076C105.729 57.842 105.726 57.878 105.715 57.9122C105.704 57.9463 105.685 57.9776 105.659 58.003C105.452 58.2168 105.31 58.4856 105.253 58.774C105.229 59.0278 105.262 59.2809 105.349 59.5145C105.436 59.748 105.576 59.9561 105.757 60.1233C105.78 60.147 105.797 60.1765 105.805 60.2091C105.813 60.2416 105.813 60.2761 105.805 60.3095C105.796 60.343 105.779 60.3742 105.755 60.4004C105.732 60.4266 105.703 60.447 105.671 60.4597L84.9274 70.2158C84.8878 70.2334 84.8447 70.2398 84.8028 70.2343C84.761 70.2288 84.7221 70.2115 84.6906 70.1844C83.9924 69.5493 83.0589 69.23 82.0925 69.2956C81.1261 69.3611 80.2047 69.8064 79.528 70.5348C79.5034 70.5613 79.4731 70.5817 79.4396 70.5941C79.4061 70.6066 79.3706 70.6108 79.336 70.6064L79.2634 70.6495ZM84.8594 69.8133L105.215 60.2425C105.053 60.0404 104.935 59.8051 104.868 59.5507C104.801 59.2964 104.788 59.0284 104.827 58.7631C104.875 58.4893 104.985 58.2274 105.15 57.9989L58.4703 40.451C57.602 41.0524 56.5573 41.3147 55.5434 41.1858C54.7334 41.0748 53.9871 40.722 53.3991 40.1723L25.9594 48.0737C26.1805 48.3673 26.275 48.7419 26.2229 49.1184C26.1466 49.4891 25.9293 49.8222 25.6183 50.0451L79.3561 70.2106C80.1029 69.4614 81.0877 69.0069 82.1161 68.9369C83.1444 68.8669 84.1416 69.1863 84.9109 69.8322L84.8594 69.8133Z" fill="#006510"/>
</g>
<path d="M762.211 83.7289L790.916 114.358C792.431 116.065 792.396 116.949 791.456 118.452L789.213 118.119L786.761 126.929L788.755 128.945C789.261 130.154 788.611 131.256 787.135 132.144L708.056 120.42L686.247 89.6664C685.428 88.4465 684.721 87.5956 685.063 86.0509C685.063 86.0509 687.764 75.5579 689.696 74.1244C690.589 71.9635 694.515 72.5455 694.515 72.5455L762.211 83.7289Z" fill="#FDFDFD" stroke="white" stroke-width="2"/>
<path d="M787.388 115.798L782.37 128.056L708.542 115.394L713.501 103.293L787.388 115.798Z" fill="white"/>
<path d="M782.982 118.16L713.094 107.082C713.094 107.082 746.821 114.396 782.982 118.16Z" fill="#BEE3F2"/>
<path d="M779.687 123.659L757.691 119.958C757.691 119.958 770.012 123.522 779.687 123.659Z" fill="#BEE3F2"/>
<path d="M743.342 117.382L712.304 111.526C722.41 114.584 732.816 116.547 743.342 117.382Z" fill="#BEE3F2"/>
<path d="M762.606 118.159L731.561 112.305C741.67 115.362 752.078 117.325 762.606 118.159Z" fill="#BEE3F2"/>
<path d="M713.501 103.293L692.928 76.4258L688.425 87.4269L708.543 115.394L713.501 103.293Z" fill="white"/>
<path d="M710.53 108.219L698.228 92.6953C701.448 98.511 705.604 103.756 710.53 108.219Z" fill="#BEE3F2"/>
<path d="M711.118 104.964L692.767 80.2446C692.767 80.2446 698.209 91.5033 711.118 104.964Z" fill="#BEE3F2"/>
<path d="M689.926 86.4116L698.726 98.5185C698.726 98.5185 694.199 89.937 689.926 86.4116Z" fill="#BEE3F2"/>
<path d="M689.722 76.7286L686.623 84.2776C686.349 84.95 686.204 85.6681 686.195 86.3944C686.19 86.8872 686.249 87.3785 686.372 87.856C686.489 88.3316 686.65 88.7955 686.853 89.2415C687.059 89.6804 687.302 90.1007 687.58 90.4978L706.874 117.488C707.037 117.717 707.244 117.91 707.482 118.058C707.72 118.205 707.986 118.303 708.263 118.346L783.679 130.048C784.09 130.114 784.511 130.037 784.871 129.827C785.23 129.618 785.506 129.291 785.651 128.901L786.178 127.482L708.739 114.915L688.423 87.4193L692.699 76.9867L712.924 104.693L722.413 106.255L788.913 117.208L789.296 116.36C789.402 116.127 789.469 115.879 789.496 115.625C789.542 115.257 789.505 114.885 789.389 114.533C789.273 114.182 789.08 113.861 788.824 113.594L761.49 84.6957L696.06 73.5354L695.198 73.3969L694.216 73.2353C693.581 73.3215 692.965 73.5134 692.394 73.8031C691.917 74.0504 691.475 74.3606 691.081 74.7255C690.483 75.289 690.013 75.9738 689.701 76.7339L689.722 76.7286Z" fill="#B96DFF"/>
<path d="M692.174 78.322L692.706 77.0148L712.932 104.721L722.42 106.283L788.913 117.208L789.296 116.359C789.402 116.127 789.47 115.878 789.497 115.624L713.621 102.991L692.415 73.7976C691.939 74.0448 691.497 74.3551 691.103 74.72C690.797 75.0085 690.524 75.3291 690.288 75.6763L692.174 78.322Z" fill="#9A3BC2"/>
<path d="M784.926 127.802L708.156 115.867L687.051 87.0171L707.83 116.611L784.926 127.802Z" fill="#9A3BC2"/>
<path d="M689.724 76.7358L686.625 84.2848C686.349 84.9542 686.203 85.6703 686.196 86.3945C686.799 86.9798 687.585 87.3393 688.422 87.4123L692.698 76.9798C692.443 76.0627 691.879 75.262 691.101 74.7133C690.501 75.2796 690.031 75.9697 689.724 76.7358Z" fill="#9A3BC2"/>
<path d="M784.173 127.484L781.666 124.887L780.83 126.94L784.173 127.484Z" fill="#9A3BC2"/>
<g style="mix-blend-mode:multiply" opacity="0.5">
<path d="M718.26 102.488C718.033 101.43 717.4 100.504 716.497 99.9084C715.594 99.313 714.493 99.0961 713.432 99.3044C713.385 99.3139 713.337 99.3099 713.293 99.293C713.249 99.276 713.21 99.2467 713.182 99.2086L698.794 78.5817C698.769 78.5546 698.751 78.5215 698.742 78.4856C698.733 78.4496 698.734 78.412 698.743 78.3762C698.755 78.3399 698.775 78.307 698.803 78.2804C698.83 78.2539 698.864 78.2345 698.901 78.2239C699.18 78.1633 699.441 78.0405 699.666 77.8644C699.89 77.6884 700.072 77.4639 700.198 77.2076C700.318 76.9056 700.34 76.5735 700.262 76.2581C700.253 76.2198 700.254 76.1799 700.264 76.1419C700.274 76.1039 700.293 76.069 700.32 76.0402C700.351 76.0158 700.386 75.9982 700.424 75.9887C700.462 75.9792 700.501 75.9781 700.54 75.9854L757.049 85.2924C757.089 85.2965 757.127 85.3112 757.159 85.3349C757.191 85.3585 757.217 85.3904 757.233 85.4271C757.618 86.3178 758.305 87.0439 759.174 87.4772C760.042 87.9106 761.035 88.0235 761.978 87.7959C762.019 87.7855 762.062 87.7857 762.103 87.7966C762.144 87.8074 762.181 87.8286 762.212 87.858L784.62 110.797C784.65 110.827 784.671 110.864 784.681 110.905C784.691 110.947 784.69 110.99 784.678 111.03C784.668 111.071 784.647 111.109 784.617 111.139C784.587 111.169 784.55 111.19 784.51 111.2C784.313 111.237 784.128 111.318 783.967 111.436C783.807 111.555 783.675 111.708 783.581 111.884C783.522 112.089 783.511 112.305 783.549 112.515C783.587 112.725 783.673 112.923 783.8 113.094C783.825 113.133 783.837 113.179 783.836 113.225C783.834 113.271 783.818 113.316 783.79 113.353C783.765 113.391 783.729 113.422 783.687 113.441C783.645 113.459 783.598 113.465 783.552 113.457L718.471 102.669L718.428 102.68C718.383 102.67 718.342 102.646 718.312 102.612C718.282 102.577 718.263 102.534 718.26 102.488ZM783.105 111.694C783.277 111.312 783.591 111.012 783.98 110.858L761.927 88.2831C761.024 88.478 760.084 88.3923 759.231 88.0374C758.164 87.6018 757.301 86.7797 756.813 85.7352L700.802 76.4922C700.83 76.7967 700.783 77.1034 700.663 77.385C700.541 77.6614 700.364 77.9096 700.142 78.1141C699.919 78.3185 699.657 78.4748 699.372 78.5731L713.51 98.803C714.648 98.6171 715.815 98.8655 716.778 99.4992C717.742 100.133 718.433 101.105 718.713 102.224L783.156 112.893C782.988 112.511 782.977 112.079 783.126 111.689L783.105 111.694Z" fill="#9A3BC2"/>
</g>
</svg>
