<svg width="732" height="230" viewBox="0 0 732 230" fill="none" xmlns="http://www.w3.org/2000/svg">
<path d="M289.158 126.045L241.055 129.509C238.449 129.769 237.806 130.538 237.474 132.53L239.664 133.991L235.077 143.297L231.821 143.443C230.463 144.067 230.187 145.497 230.785 147.389L308.006 199.899L350.246 189.979C351.882 189.589 353.14 189.423 354.02 187.86C354.02 187.86 359.674 176.946 359.096 174.243C359.969 171.734 356.135 169.177 356.135 169.177L289.158 126.045Z" fill="#FDFDFD" stroke="white" stroke-width="2"/>
<path d="M242.692 133.117L237.369 147.521L310.126 194.689L315.385 180.469L242.692 133.117Z" fill="#FDFDFD"/>
<path d="M243.738 137.811L311.915 183.242C311.915 183.242 277.472 162.989 243.738 137.811Z" fill="#E3F0FF"/>
<path d="M242.252 145.109L263.881 159.227C263.881 159.227 250.609 152.6 242.252 145.109Z" fill="#E3F0FF"/>
<path d="M278.946 169.055L309.955 188.436C298.956 183.107 288.561 176.61 278.946 169.055Z" fill="#E3F0FF"/>
<path d="M261.937 154.598L292.952 173.974C281.953 168.645 271.555 162.15 261.937 154.598Z" fill="#E3F0FF"/>
<path d="M314.389 180.468L352.929 173.696L348.157 186.615L309.129 194.688L314.389 180.468Z" fill="#FDFDFD"/>
<path d="M313.057 187.008L335.658 183.432C328.371 185.86 320.736 187.069 313.057 187.008Z" fill="#E3F0FF"/>
<path d="M315.105 183.765L350.087 177.089C350.087 177.089 336.681 182.428 315.105 183.765Z" fill="#E3F0FF"/>
<path d="M347.719 184.547L330.704 187.995C330.704 187.995 341.276 184.228 347.719 184.547Z" fill="#E3F0FF"/>
<path d="M233.923 145.666C233.739 146.112 233.715 146.608 233.855 147.069C233.995 147.53 234.291 147.928 234.691 148.195L308.901 197.994L347.482 189.884C348.588 189.667 349.643 189.24 350.589 188.626C350.826 188.472 351.053 188.304 351.268 188.121C352.132 187.383 352.792 186.434 353.183 185.366L356.466 176.488C356.778 175.653 356.917 174.764 356.875 173.873C356.832 172.983 356.611 172.111 356.227 171.308C355.995 170.821 355.706 170.363 355.365 169.945L289.132 126.897L243.16 130.099C242.458 130.151 241.797 130.452 241.296 130.948C240.978 131.273 240.736 131.666 240.59 132.097L240.25 133.13L290.739 166.34L305.242 175.879L314.747 182.136L348.536 175.398L350.06 175.097L353.661 174.378L349.18 186.595L310.363 194.101L234.559 144.054L233.923 145.666Z" fill="#637DE6"/>
<path d="M240.617 132.076L240.277 133.109L290.766 166.319L305.269 175.859L314.774 182.115L348.563 175.378L350.087 175.077C348.682 174.205 347.008 173.879 345.38 174.161L315.229 179.561L241.33 130.923C241.009 131.248 240.765 131.642 240.617 132.076Z" fill="#132D96"/>
<path d="M235.456 144.725L310.154 194.825L350.71 186.784L309.854 195.713L235.456 144.725Z" fill="#132D96"/>
<path d="M352.692 174.357L348.184 186.594C348.709 187.289 349.429 187.81 350.251 188.093C351.116 187.356 351.775 186.407 352.167 185.338L355.449 176.461C355.761 175.626 355.901 174.736 355.859 173.846C354.792 173.934 353.733 174.105 352.692 174.357Z" fill="#132D96"/>
<path d="M234.579 144.039L238.745 143.797L237.858 146.207L234.579 144.039Z" fill="#132D96"/>
<g style="mix-blend-mode:multiply" opacity="0.5">
<path d="M311.637 176.034L247.807 134.129C247.761 134.102 247.724 134.061 247.703 134.012C247.682 133.963 247.677 133.909 247.69 133.857C247.695 133.805 247.716 133.755 247.75 133.715C247.784 133.674 247.83 133.645 247.88 133.631C248.122 133.586 248.351 133.486 248.548 133.339C248.745 133.192 248.907 133.002 249.02 132.783C249.079 132.558 249.088 132.322 249.044 132.094C249 131.865 248.906 131.649 248.768 131.462C248.744 131.422 248.731 131.376 248.729 131.33C248.727 131.283 248.738 131.236 248.759 131.195C248.776 131.148 248.806 131.107 248.846 131.078C248.885 131.048 248.933 131.031 248.982 131.028L286.018 129.057C286.066 129.052 286.115 129.061 286.159 129.082C286.203 129.104 286.24 129.137 286.266 129.178C286.89 130.114 287.824 130.798 288.902 131.111C289.98 131.423 291.134 131.344 292.16 130.887C292.202 130.868 292.249 130.86 292.295 130.865C292.34 130.87 292.384 130.886 292.422 130.914L347.794 167.323C347.831 167.35 347.862 167.386 347.883 167.426C347.904 167.467 347.915 167.513 347.916 167.559C347.917 167.603 347.907 167.647 347.886 167.687C347.866 167.726 347.835 167.759 347.798 167.784C347.487 167.993 347.247 168.294 347.11 168.644C347.019 168.959 347.001 169.292 347.058 169.615C347.115 169.938 347.245 170.244 347.439 170.509C347.463 170.547 347.477 170.59 347.479 170.635C347.481 170.68 347.471 170.725 347.45 170.765C347.431 170.805 347.402 170.839 347.367 170.866C347.331 170.892 347.29 170.909 347.246 170.916L318.833 177.185C318.781 177.196 318.727 177.192 318.677 177.173C318.627 177.154 318.584 177.12 318.553 177.077C317.805 176.062 316.687 175.386 315.443 175.193C314.2 175.001 312.93 175.309 311.912 176.051C311.875 176.077 311.832 176.094 311.787 176.1C311.742 176.106 311.696 176.101 311.654 176.085L311.637 176.034ZM318.885 176.629L346.728 170.5C346.569 170.194 346.475 169.859 346.45 169.515C346.425 169.171 346.47 168.825 346.582 168.499C346.701 168.167 346.898 167.868 347.157 167.628L292.236 131.516C291.125 131.97 289.894 132.036 288.741 131.701C287.588 131.367 286.582 130.652 285.885 129.673L249.446 131.611C249.563 131.823 249.633 132.058 249.652 132.299C249.671 132.541 249.637 132.783 249.555 133.011C249.472 133.238 249.341 133.446 249.172 133.618C249.003 133.791 248.798 133.925 248.573 134.012L311.806 175.539C312.92 174.807 314.267 174.52 315.581 174.735C316.895 174.949 318.081 175.65 318.905 176.699L318.885 176.629Z" fill="#132D96"/>
</g>
<path d="M673.868 57.9142L707.937 94.4759C709.734 96.5139 709.688 97.5734 708.558 99.3808L705.884 98.9947L702.909 109.572L705.276 111.977C705.873 113.425 705.091 114.749 703.325 115.823L609.055 102.214L583.213 65.4642C582.243 64.0061 581.405 62.9899 581.822 61.1359C581.822 61.1359 585.103 48.5395 587.416 46.8097C588.494 44.2138 593.174 44.8894 593.174 44.8894L673.868 57.9142Z" fill="#FDFDFD" stroke="#FDFDFD" stroke-width="2"/>
<path d="M704.69 96.9784L698.674 111.532L610.897 96.2422L616.828 81.8817L704.69 96.9784Z" fill="#FDFDFD"/>
<path d="M699.615 99.7744L616.516 86.3763C616.516 86.3763 656.622 95.1805 699.615 99.7744Z" fill="#E3F0FF"/>
<path d="M695.688 106.291L669.549 101.834C669.549 101.834 684.178 106.106 695.688 106.291Z" fill="#E3F0FF"/>
<path d="M651.279 98.7207L614.389 91.6631C626.399 95.3226 638.766 97.6886 651.279 98.7207Z" fill="#E3F0FF"/>
<path d="M674.198 99.7073L637.303 92.657C649.314 96.3163 661.683 98.6799 674.198 99.7073Z" fill="#E3F0FF"/>
<path d="M616.828 81.8815L592.438 49.8883L587.049 62.9439L610.897 96.2419L616.828 81.8815Z" fill="#FDFDFD"/>
<path d="M613.28 87.7228L598.695 69.2389C602.507 76.1589 607.435 82.404 613.28 87.7228Z" fill="#E3F0FF"/>
<path d="M613.992 83.8552L592.21 54.4134C592.21 54.4134 598.643 67.8264 613.992 83.8552Z" fill="#E3F0FF"/>
<path d="M588.825 61.7195L599.278 76.1904C599.278 76.1904 593.906 65.9474 588.825 61.7195Z" fill="#E3F0FF"/>
<path d="M588.607 50.2582L584.904 59.2421C584.579 60.0378 584.404 60.8864 584.388 61.7455C584.375 62.3254 584.44 62.9044 584.58 63.4672C584.718 64.0277 584.911 64.5733 585.155 65.0963C585.39 65.6221 585.679 66.1227 586.015 66.5904L608.893 98.7373C609.291 99.28 609.883 99.648 610.546 99.7642L700.222 113.91C700.709 113.99 701.208 113.899 701.635 113.651C702.061 113.404 702.389 113.017 702.561 112.555L703.183 110.888L611.116 95.7005L587.031 62.9727L592.182 50.5187L616.16 83.5075L627.446 85.4008L706.494 98.6318L706.947 97.6215C707.074 97.3448 707.158 97.0501 707.196 96.7478C707.248 96.3113 707.203 95.8689 707.066 95.4514C706.928 95.0339 706.701 94.6516 706.4 94.3312L674.906 60.9042C674.294 60.2523 673.486 59.8164 672.605 59.6618L596.155 46.4572L595.158 46.2835L593.993 46.0824C593.239 46.1774 592.507 46.4008 591.828 46.7428C591.269 47.027 590.751 47.3865 590.289 47.8114C589.921 48.1506 589.592 48.5308 589.31 48.9446C589.031 49.357 588.795 49.7972 588.607 50.2582Z" fill="#F2B441"/>
<path d="M591.523 52.0992L592.164 50.5479L616.141 83.5367L627.427 85.43L706.494 98.632L706.947 97.6216C707.075 97.3449 707.159 97.0502 707.196 96.7479L616.948 81.4928L591.804 46.748C591.245 47.0321 590.727 47.3917 590.266 47.8165C589.897 48.1557 589.568 48.5359 589.286 48.9497L591.523 52.0992Z" fill="#DEA02D"/>
<path d="M701.724 111.231L610.438 96.8017L585.409 62.453L610.044 97.6743L701.724 111.231Z" fill="#DEA02D"/>
<path d="M588.607 50.2584L584.903 59.2424C584.579 60.038 584.404 60.8866 584.388 61.7457C585.096 62.4539 586.032 62.8887 587.03 62.9729L592.182 50.5189C591.886 49.4307 591.221 48.4794 590.299 47.8284C589.564 48.505 588.986 49.3345 588.607 50.2584Z" fill="#DEA02D"/>
<path d="M700.187 110.86L697.22 107.763L696.208 110.201L700.187 110.86Z" fill="#DEA02D"/>
<g style="mix-blend-mode:multiply" opacity="0.5">
<path d="M622.69 81.1362L622.741 81.1694L700.086 94.1491C700.14 94.1557 700.195 94.1472 700.244 94.1247C700.294 94.1022 700.336 94.0664 700.367 94.0213C700.398 93.9773 700.415 93.9252 700.418 93.8713C700.42 93.8174 700.406 93.7641 700.378 93.7179C700.228 93.515 700.127 93.2802 700.082 93.0318C700.037 92.7833 700.051 92.528 700.121 92.2856C700.233 92.0755 700.391 91.8929 700.583 91.7508C700.774 91.6088 700.995 91.5109 701.229 91.4642C701.277 91.4523 701.322 91.4275 701.357 91.3925C701.393 91.3574 701.419 91.3133 701.431 91.2649C701.444 91.2171 701.445 91.1668 701.433 91.1188C701.42 91.0708 701.396 91.0268 701.361 90.9911L674.771 63.6665C674.737 63.6297 674.693 63.6024 674.645 63.5873C674.597 63.5721 674.545 63.5696 674.496 63.5799C673.374 63.8498 672.193 63.7148 671.162 63.1989C670.13 62.683 669.314 61.8193 668.858 60.7605C668.835 60.7176 668.802 60.6811 668.761 60.6545C668.72 60.6279 668.673 60.6121 668.625 60.6086L601.522 49.3586C601.474 49.3518 601.425 49.356 601.379 49.371C601.334 49.3861 601.292 49.4115 601.257 49.4453C601.227 49.4799 601.204 49.5214 601.193 49.5664C601.182 49.6114 601.182 49.6584 601.192 49.7035C601.283 50.0771 601.258 50.4691 601.121 50.8283C600.969 51.1323 600.75 51.3982 600.481 51.6065C600.212 51.8148 599.9 51.9601 599.567 52.0318C599.524 52.0445 599.484 52.0672 599.451 52.098C599.419 52.1288 599.394 52.167 599.378 52.2093C599.364 52.2529 599.36 52.2991 599.366 52.3444C599.373 52.3898 599.389 52.4332 599.415 52.4713L616.495 77.01C616.528 77.0561 616.573 77.0919 616.625 77.1132C616.678 77.1345 616.735 77.1403 616.79 77.1301C618.052 76.8825 619.361 77.1416 620.433 77.8512C621.506 78.5607 622.255 79.6637 622.52 80.9211C622.528 80.9684 622.548 81.0128 622.578 81.0504C622.607 81.088 622.646 81.1175 622.69 81.1362ZM699.678 93.5198L623.028 80.6203C622.692 79.2924 621.873 78.1373 620.729 77.3816C619.586 76.6258 618.201 76.3239 616.847 76.535L600.089 52.4554C600.43 52.3399 600.742 52.1551 601.008 51.9128C601.273 51.6704 601.486 51.3758 601.632 51.0474C601.766 50.7125 601.821 50.3513 601.793 49.9916L668.425 61.1521C668.946 62.2695 669.829 63.1783 670.932 63.7306C672.035 64.2828 673.292 64.4461 674.499 64.1937L700.673 91.0914C700.441 91.1788 700.228 91.3115 700.047 91.4818C699.866 91.6521 699.721 91.8565 699.62 92.0833C699.448 92.5464 699.464 93.0582 699.663 93.5103L699.678 93.5198Z" fill="#DEA02D"/>
</g>
<path d="M94.8705 60.0787L149.132 66.5975C152.07 67.0331 152.764 67.9515 153.055 70.2593L150.515 71.8238L155.308 82.764L158.985 83.1041C160.494 83.893 160.746 85.5517 159.988 87.6956L70.4507 142.844L23.0512 130.362C21.2176 129.828 19.8017 129.57 18.8726 127.726C18.8726 127.726 12.9428 114.882 13.7111 111.804C12.8304 108.873 17.2755 106.135 17.2755 106.135L94.8705 60.0787Z" fill="#FDFDFD" stroke="#FDFDFD" stroke-width="2"/>
<path d="M149.017 70.4841L154.374 87.3031L67.8524 137.468L62.5637 120.863L149.017 70.4841Z" fill="#FDFDFD"/>
<path d="M147.544 75.8152L66.4082 124.229C66.4082 124.229 107.254 102.877 147.544 75.8152Z" fill="#E3F0FF"/>
<path d="M146.882 84.249L121.151 99.2781C121.151 99.2781 136.852 92.3715 146.882 84.249Z" fill="#E3F0FF"/>
<path d="M105.225 109.764L68.3896 130.309C81.3686 124.791 93.7175 117.904 105.225 109.764Z" fill="#E3F0FF"/>
<path d="M123.64 94.0835L86.8047 114.628C99.7836 109.11 112.133 102.223 123.64 94.0835Z" fill="#E3F0FF"/>
<path d="M62.5639 120.864L18.4492 111L23.2598 126.087L67.8525 137.469L62.5639 120.864Z" fill="#FDFDFD"/>
<path d="M63.7344 128.441L37.8276 123.091C46.109 126.284 54.8623 128.092 63.7344 128.441Z" fill="#E3F0FF"/>
<path d="M61.5486 124.609L21.542 115.047C21.542 115.047 36.7543 121.924 61.5486 124.609Z" fill="#E3F0FF"/>
<path d="M23.9028 123.762L43.35 128.626C43.35 128.626 31.3285 123.724 23.9028 123.762Z" fill="#E3F0FF"/>
<path d="M15.4239 114.064L18.722 124.424C19.0133 125.344 19.4805 126.2 20.0978 126.943C20.5104 127.449 20.9859 127.9 21.5127 128.286C22.037 128.661 22.5956 128.987 23.1813 129.258C23.7664 129.538 24.3775 129.759 25.006 129.92L67.9399 141.029C68.3044 141.12 68.6834 141.138 69.0551 141.083C69.4268 141.028 69.7839 140.9 70.1061 140.708L157.438 88.1787C157.912 87.8942 158.273 87.4551 158.46 86.9357C158.646 86.4163 158.647 85.8486 158.462 85.3286L157.789 83.383L67.6374 136.807L23.2593 126.107L18.6927 111.788L63.1684 122.809L74.2336 116.291L151.798 70.6205L151.466 69.424C151.369 69.0966 151.224 68.7852 151.037 68.4998C150.769 68.0851 150.412 67.7347 149.992 67.474C149.571 67.2133 149.099 67.0487 148.607 66.9921L95.8177 60.8442L19.1806 105.397L18.2048 105.97L17.0534 106.632C15.9783 107.799 15.2959 109.271 15.1019 110.844C14.9703 111.933 15.0734 113.037 15.4044 114.083L15.4239 114.064Z" fill="#FF7878"/>
<path d="M19.2586 113.558L18.6926 111.768L63.1683 122.789L74.2336 116.272L151.798 70.6006L151.466 69.4041C151.369 69.0768 151.224 68.7654 151.037 68.48L62.4267 120.464L15.6677 108.791C15.3892 109.449 15.2053 110.144 15.1213 110.853C15.0579 111.406 15.0579 111.964 15.1213 112.517L19.2586 113.558Z" fill="#E00000"/>
<path d="M156.774 84.8518L67.8613 138.276L21.5024 126.846L68.1541 139.316L156.774 84.8518Z" fill="#E00000"/>
<path d="M15.4243 114.064L18.7224 124.423C19.0137 125.344 19.4809 126.199 20.0982 126.943C21.2204 127.038 22.3403 126.735 23.2597 126.087L18.6931 111.768C17.6514 111.041 16.3893 110.698 15.1218 110.795C14.98 111.893 15.0832 113.01 15.4243 114.064Z" fill="#E00000"/>
<path d="M155.781 83.4604L150.99 82.9546L151.887 85.7658L155.781 83.4604Z" fill="#E00000"/>
<g style="mix-blend-mode:multiply" opacity="0.5">
<path d="M66.7487 115.96C66.0443 115.41 65.2158 115.038 64.335 114.879C63.4542 114.72 62.5477 114.777 61.6942 115.046C60.6633 115.37 59.7529 115.993 59.0791 116.836C59.0392 116.883 58.987 116.917 58.9284 116.936C58.8698 116.955 58.8071 116.957 58.7473 116.943L26.3029 108.188C26.2526 108.176 26.2059 108.152 26.1668 108.118C26.1278 108.084 26.0975 108.041 26.0785 107.993C26.0568 107.948 26.0455 107.898 26.0455 107.847C26.0455 107.797 26.0568 107.747 26.0785 107.702C26.311 107.4 26.4728 107.05 26.5522 106.678C26.6316 106.307 26.6264 105.922 26.5371 105.552C26.3904 105.16 26.1286 104.821 25.7858 104.579C25.7444 104.545 25.7114 104.502 25.6894 104.453C25.6674 104.404 25.657 104.35 25.6589 104.297C25.6654 104.246 25.6827 104.197 25.7096 104.154C25.7365 104.11 25.7725 104.073 25.815 104.044L91.6991 65.2796C91.7451 65.2531 91.7973 65.2392 91.8504 65.2392C91.9035 65.2392 91.9556 65.2531 92.0016 65.2796C93.1621 65.8567 94.4893 66.0082 95.7507 65.7076C97.012 65.407 98.127 64.6735 98.9003 63.6356C98.9312 63.59 98.9737 63.5534 99.0234 63.5295C99.0731 63.5056 99.1283 63.4952 99.1833 63.4995L141.825 67.7796C141.878 67.7887 141.929 67.8101 141.973 67.8421C142.017 67.8742 142.053 67.9161 142.078 67.9644C142.106 68.0132 142.121 68.0686 142.121 68.1249C142.121 68.1813 142.106 68.2366 142.078 68.2854C141.909 68.4922 141.789 68.7342 141.727 68.9935C141.664 69.2528 141.661 69.5228 141.717 69.7835C141.834 70.042 142.008 70.2707 142.226 70.4527C142.444 70.6346 142.7 70.765 142.976 70.8341C143.034 70.8514 143.085 70.8857 143.124 70.9325C143.162 70.9793 143.185 71.0365 143.191 71.0967C143.196 71.1579 143.184 71.2195 143.157 71.2745C143.129 71.3294 143.087 71.3757 143.034 71.408L67.0999 116.019H67.0414C66.9912 116.03 66.9392 116.031 66.8887 116.021C66.8382 116.011 66.7905 115.99 66.7487 115.96ZM141.112 69.9391C140.962 69.4004 141.029 68.8247 141.298 68.3341L99.3394 64.122C98.484 65.2096 97.2839 65.9759 95.9352 66.2957C94.5864 66.6155 93.1688 66.4699 91.9138 65.8827L26.5371 104.346C26.8226 104.636 27.0364 104.989 27.1616 105.377C27.2723 105.763 27.3017 106.168 27.248 106.567C27.1943 106.965 27.0585 107.348 26.8494 107.692L58.679 116.272C59.686 115.11 61.0925 114.366 62.622 114.186C64.1515 114.006 65.6931 114.403 66.9438 115.299L142.147 71.1161C141.666 70.8692 141.299 70.4479 141.122 69.9391H141.112Z" fill="#E00000"/>
</g>
<path d="M486.919 141.514L514.738 127.661C516.229 126.867 516.436 126.244 516.178 124.956L514.542 124.606L515.145 117.846L517.048 116.962C517.713 116.252 517.551 115.318 516.763 114.317L459.068 101.974L435.981 117.7C435.097 118.336 434.387 118.744 434.22 119.906C434.22 119.906 433.351 127.9 434.312 129.397C434.366 131.131 437.23 131.744 437.23 131.744L486.919 141.514Z" fill="#FDFDFD" stroke="white" stroke-width="2"/>
<path d="M510.456 125.751L510.186 115.929L455.837 105.599L456.108 115.295L510.456 125.751Z" fill="white"/>
<path d="M508.718 123.225L457.506 112.814C457.506 112.814 482.734 116.47 508.718 123.225Z" fill="#BEE3F2"/>
<path d="M507.873 118.55L491.699 115.422C491.699 115.422 501.148 116.138 507.873 118.55Z" fill="#BEE3F2"/>
<path d="M480.416 113.235L457.428 109.262C465.214 109.755 472.92 111.087 480.416 113.235Z" fill="#BEE3F2"/>
<path d="M493.938 117.687L470.946 113.711C478.733 114.206 486.442 115.539 493.938 117.687Z" fill="#BEE3F2"/>
<path d="M458.113 115.291L436.879 128.636L436.636 119.822L457.842 105.594L458.113 115.291Z" fill="white"/>
<path d="M455.339 111.1L442.783 118.704C446.527 115.495 450.769 112.927 455.339 111.1Z" fill="#BEE3F2"/>
<path d="M454.897 113.516L435.759 125.943C435.759 125.943 442.46 119.528 454.897 113.516Z" fill="#BEE3F2"/>
<path d="M435.403 120.92L444.647 114.784C444.647 114.784 439.278 119.577 435.403 120.92Z" fill="#BEE3F2"/>
<path d="M434.742 127.594L434.569 121.544C434.554 121.005 434.641 120.468 434.825 119.961C434.95 119.617 435.119 119.291 435.329 118.991C435.534 118.691 435.766 118.41 436.023 118.153C436.28 117.901 436.558 117.672 436.853 117.468L457.236 103.706C457.408 103.589 457.601 103.508 457.804 103.468C458.008 103.427 458.217 103.428 458.419 103.469L513.616 114.88C513.918 114.94 514.188 115.103 514.382 115.342C514.576 115.581 514.682 115.88 514.68 116.188L514.674 117.311L457.853 105.978L436.633 119.826L436.867 128.186L458.08 114.168L465.048 115.542L513.885 125.162L513.928 125.851C513.94 126.04 513.922 126.23 513.875 126.414C513.811 126.681 513.688 126.93 513.516 127.144C513.344 127.358 513.127 127.531 512.88 127.651L486.442 140.655L438.291 131.457L437.658 131.329L436.938 131.187C436.521 130.963 436.145 130.67 435.826 130.32C435.56 130.025 435.336 129.695 435.159 129.339C434.892 128.792 434.746 128.194 434.728 127.585L434.742 127.594Z" fill="#B96DFF"/>
<path d="M436.853 127.122L436.88 128.168L458.093 114.15L465.061 115.524L513.885 125.161L513.928 125.85C513.941 126.039 513.923 126.229 513.875 126.413L458.118 115.532L435.839 130.329C435.574 130.034 435.35 129.704 435.172 129.348C435.037 129.068 434.931 128.775 434.858 128.472L436.853 127.122Z" fill="#9A3BC2"/>
<path d="M513.892 116.764L457.698 105.166L435.579 119.751L457.667 104.564L513.892 116.764Z" fill="#9A3BC2"/>
<path d="M434.745 127.589L434.572 121.539C434.555 121.002 434.641 120.466 434.825 119.961C435.395 119.71 436.032 119.664 436.63 119.83L436.864 128.19C436.449 128.762 435.85 129.172 435.169 129.352C434.902 128.803 434.757 128.202 434.745 127.589Z" fill="#9A3BC2"/>
<path d="M512.664 117.311L510.253 118.466L510.212 116.823L512.664 117.311Z" fill="#9A3BC2"/>
<g style="mix-blend-mode:multiply" opacity="0.5">
<path d="M459.187 117.088C458.755 117.764 458.075 118.244 457.295 118.424C456.516 118.604 455.698 118.469 455.019 118.05C454.989 118.031 454.955 118.021 454.92 118.021C454.885 118.022 454.85 118.032 454.821 118.051L439.491 128.661C439.467 128.673 439.446 128.692 439.43 128.714C439.415 128.737 439.405 128.763 439.402 128.791C439.401 128.819 439.407 128.847 439.419 128.873C439.431 128.898 439.449 128.921 439.472 128.937C439.648 129.052 439.797 129.205 439.907 129.386C440.016 129.566 440.083 129.769 440.103 129.98C440.107 130.221 440.036 130.458 439.9 130.657C439.884 130.681 439.874 130.709 439.871 130.738C439.868 130.767 439.872 130.796 439.883 130.823C439.898 130.848 439.918 130.87 439.942 130.886C439.965 130.902 439.992 130.913 440.021 130.918L481.52 139.093C481.548 139.101 481.579 139.1 481.607 139.092C481.636 139.084 481.662 139.069 481.682 139.047C482.181 138.528 482.846 138.202 483.559 138.125C484.272 138.049 484.988 138.228 485.581 138.631C485.607 138.648 485.637 138.659 485.668 138.662C485.699 138.666 485.73 138.661 485.759 138.648L507.237 128.51C507.265 128.497 507.29 128.476 507.308 128.45C507.326 128.424 507.336 128.394 507.338 128.362C507.342 128.331 507.337 128.3 507.324 128.271C507.312 128.243 507.292 128.218 507.266 128.2C507.14 128.124 507.033 128.02 506.953 127.896C506.873 127.772 506.821 127.632 506.803 127.485C506.815 127.327 506.864 127.174 506.945 127.038C507.026 126.902 507.137 126.786 507.27 126.7C507.297 126.68 507.318 126.651 507.328 126.618C507.339 126.586 507.34 126.551 507.33 126.518C507.323 126.484 507.306 126.454 507.282 126.43C507.257 126.406 507.227 126.39 507.193 126.384L459.38 117.017L459.354 116.998C459.32 116.993 459.286 116.999 459.256 117.015C459.226 117.031 459.202 117.057 459.187 117.088ZM506.424 127.493C506.443 127.803 506.582 128.093 506.811 128.301L485.673 138.279C485.1 137.909 484.427 137.725 483.745 137.751C482.894 137.777 482.082 138.125 481.472 138.724L440.334 130.634C440.433 130.43 440.48 130.204 440.471 129.977C440.459 129.754 440.401 129.535 440.301 129.335C440.2 129.136 440.06 128.959 439.888 128.817L454.942 118.418C455.68 118.842 456.552 118.972 457.383 118.781C458.215 118.591 458.946 118.094 459.432 117.389L506.772 126.673C506.556 126.895 506.436 127.193 506.437 127.502L506.424 127.493Z" fill="#9A3BC2"/>
</g>
</svg>
