<svg width="935" height="177" viewBox="0 0 935 177" fill="none" xmlns="http://www.w3.org/2000/svg">
<path d="M366.564 72.8755L318.572 76.5023C315.971 76.7703 315.328 77.5401 314.989 79.5287L317.169 80.9787L312.56 90.2784L309.312 90.4362C307.956 91.0634 307.675 92.4911 308.265 94.3767L385.106 145.49L427.271 136.442C428.904 136.047 430.159 135.876 431.043 134.314C431.043 134.314 436.72 123.406 436.154 120.711C437.033 118.205 433.218 115.667 433.218 115.667L366.564 72.8755Z" fill="#FDFDFD" stroke="white" stroke-width="2"/>
<path d="M320.225 80.1174L314.887 94.5219L387.847 141.69L393.121 127.47L320.225 80.1174Z" fill="#FDFDFD"/>
<path d="M321.274 84.8119L389.641 130.242C389.641 130.242 355.103 109.99 321.274 84.8119Z" fill="#E3F0FF"/>
<path d="M319.784 92.1099L341.473 106.227C341.473 106.227 328.164 99.6006 319.784 92.1099Z" fill="#E3F0FF"/>
<path d="M356.581 116.056L387.676 135.437C376.647 130.108 366.222 123.61 356.581 116.056Z" fill="#E3F0FF"/>
<path d="M339.523 101.599L370.625 120.975C359.595 115.646 349.168 109.15 339.523 101.599Z" fill="#E3F0FF"/>
<path d="M392.122 127.469L430.769 120.697L425.984 133.615L386.848 141.689L392.122 127.469Z" fill="#FDFDFD"/>
<path d="M390.787 134.009L413.45 130.432C406.144 132.861 398.486 134.069 390.787 134.009Z" fill="#E3F0FF"/>
<path d="M392.84 130.766L427.92 124.09C427.92 124.09 414.477 129.429 392.84 130.766Z" fill="#E3F0FF"/>
<path d="M425.546 131.548L408.483 134.995C408.483 134.995 419.084 131.229 425.546 131.548Z" fill="#E3F0FF"/>
<path d="M311.431 92.6669C311.247 93.1125 311.223 93.6081 311.364 94.0693C311.504 94.5304 311.8 94.9286 312.202 95.1959L386.619 144.995L425.307 136.885C426.417 136.668 427.475 136.241 428.424 135.626C428.661 135.473 428.888 135.304 429.104 135.121C429.971 134.384 430.632 133.435 431.025 132.366L434.317 123.489C434.629 122.654 434.769 121.764 434.727 120.874C434.684 119.984 434.463 119.112 434.077 118.308C433.844 117.821 433.554 117.364 433.213 116.946L366.794 73.8975L320.695 77.0992C319.99 77.1515 319.328 77.4527 318.825 77.9489C318.506 78.2736 318.264 78.6661 318.117 79.0972L317.777 80.1304L368.406 113.341L382.95 122.88L392.481 129.136L426.365 122.399L427.892 122.098L431.504 121.378L427.011 133.595L388.085 141.101L312.069 91.0543L311.431 92.6669Z" fill="#637DE6"/>
<path d="M318.144 79.0767L317.804 80.1099L368.433 113.32L382.977 122.859L392.508 129.116L426.392 122.378L427.92 122.077C426.511 121.206 424.832 120.88 423.199 121.162L392.964 126.562L318.86 77.9234C318.537 78.2488 318.293 78.6432 318.144 79.0767Z" fill="#132D96"/>
<path d="M312.969 91.7253L387.875 141.826L428.545 133.785L387.574 142.714L312.969 91.7253Z" fill="#132D96"/>
<path d="M430.532 121.358L426.011 133.595C426.538 134.289 427.26 134.811 428.085 135.094C428.951 134.356 429.613 133.407 430.005 132.339L433.297 123.461C433.61 122.627 433.75 121.737 433.708 120.847C432.638 120.934 431.576 121.105 430.532 121.358Z" fill="#132D96"/>
<path d="M312.09 91.0394L316.267 90.7973L315.378 93.2082L312.09 91.0394Z" fill="#132D96"/>
<g style="mix-blend-mode:multiply" opacity="0.5">
<path d="M389.363 123.035L325.355 81.1293C325.308 81.1029 325.272 81.0622 325.25 81.0132C325.229 80.9642 325.225 80.9096 325.237 80.8578C325.243 80.8053 325.264 80.7556 325.298 80.7153C325.332 80.675 325.377 80.6459 325.428 80.6317C325.671 80.5868 325.9 80.487 326.098 80.34C326.296 80.193 326.457 80.0027 326.571 79.7836C326.63 79.5586 326.639 79.3231 326.595 79.0945C326.551 78.8658 326.456 78.65 326.318 78.463C326.294 78.4227 326.281 78.3771 326.279 78.3303C326.278 78.2836 326.288 78.2372 326.309 78.1954C326.326 78.1487 326.356 78.1081 326.396 78.0785C326.436 78.0488 326.484 78.0316 326.533 78.0288L363.672 76.0577C363.721 76.0528 363.77 76.0616 363.814 76.0831C363.857 76.1045 363.894 76.1378 363.92 76.1792C364.546 77.1146 365.483 77.7989 366.564 78.1115C367.646 78.424 368.803 78.3448 369.831 77.8877C369.874 77.8686 369.92 77.861 369.966 77.8656C370.012 77.8703 370.056 77.8871 370.094 77.9143L425.621 114.324C425.658 114.351 425.689 114.386 425.71 114.427C425.731 114.468 425.742 114.514 425.743 114.56C425.744 114.604 425.734 114.648 425.713 114.687C425.692 114.727 425.662 114.76 425.625 114.784C425.313 114.994 425.072 115.294 424.935 115.645C424.843 115.96 424.825 116.292 424.883 116.616C424.94 116.939 425.071 117.245 425.265 117.51C425.289 117.547 425.303 117.591 425.305 117.636C425.307 117.681 425.296 117.726 425.275 117.765C425.256 117.805 425.228 117.84 425.192 117.866C425.157 117.893 425.115 117.91 425.071 117.917L396.579 124.186C396.527 124.197 396.472 124.193 396.422 124.174C396.372 124.155 396.329 124.121 396.298 124.077C395.548 123.063 394.427 122.386 393.18 122.194C391.932 122.002 390.66 122.31 389.639 123.051C389.601 123.078 389.558 123.095 389.513 123.101C389.468 123.107 389.422 123.102 389.379 123.086L389.363 123.035ZM396.631 123.63L424.552 117.501C424.393 117.195 424.298 116.86 424.273 116.516C424.247 116.172 424.293 115.826 424.405 115.5C424.524 115.167 424.722 114.868 424.982 114.629L369.908 78.5164C368.794 78.9709 367.559 79.0362 366.403 78.7018C365.247 78.3674 364.238 77.6527 363.539 76.6736L326.998 78.6119C327.115 78.8239 327.186 79.0585 327.205 79.3C327.223 79.5414 327.19 79.7841 327.107 80.0117C327.024 80.2392 326.893 80.4463 326.723 80.619C326.554 80.7917 326.349 80.926 326.123 81.0127L389.533 122.539C390.649 121.807 392 121.521 393.317 121.735C394.635 121.95 395.825 122.651 396.651 123.7L396.631 123.63Z" fill="#132D96"/>
</g>
<path d="M366.158 73.046L318.055 76.51C315.449 76.7693 314.806 77.5387 314.474 79.5308L316.664 80.992L312.077 90.2973L308.821 90.4438C307.463 91.0677 307.187 92.4978 307.785 94.39L385.006 146.899L427.246 136.98C428.882 136.59 430.14 136.424 431.02 134.86C431.02 134.86 436.674 123.947 436.096 121.244C436.969 118.734 433.135 116.177 433.135 116.177L366.158 73.046Z" fill="#FDFDFD" stroke="white" stroke-width="2"/>
<path d="M319.692 80.1179L314.369 94.5223L387.126 141.691L392.385 127.47L319.692 80.1179Z" fill="#FDFDFD"/>
<path d="M320.738 84.8124L388.915 130.243C388.915 130.243 354.472 109.99 320.738 84.8124Z" fill="#E3F0FF"/>
<path d="M319.252 92.1104L340.881 106.228C340.881 106.228 327.609 99.6011 319.252 92.1104Z" fill="#E3F0FF"/>
<path d="M355.946 116.056L386.955 135.437C375.956 130.108 365.561 123.61 355.946 116.056Z" fill="#E3F0FF"/>
<path d="M338.937 101.6L369.952 120.975C358.953 115.646 348.555 109.151 338.937 101.6Z" fill="#E3F0FF"/>
<path d="M391.389 127.469L429.929 120.697L425.157 133.615L386.129 141.689L391.389 127.469Z" fill="#FDFDFD"/>
<path d="M390.057 134.009L412.658 130.432C405.371 132.861 397.736 134.069 390.057 134.009Z" fill="#E3F0FF"/>
<path d="M392.105 130.766L427.087 124.091C427.087 124.091 413.681 129.429 392.105 130.766Z" fill="#E3F0FF"/>
<path d="M424.719 131.548L407.704 134.996C407.704 134.996 418.276 131.229 424.719 131.548Z" fill="#E3F0FF"/>
<path d="M310.923 92.6675C310.739 93.113 310.715 93.6086 310.855 94.0698C310.996 94.5309 311.291 94.9291 311.691 95.1964L385.902 144.995L424.482 136.885C425.588 136.668 426.643 136.241 427.59 135.627C427.826 135.473 428.053 135.305 428.268 135.122C429.132 134.384 429.792 133.435 430.183 132.367L433.466 123.489C433.778 122.654 433.917 121.765 433.875 120.874C433.832 119.984 433.611 119.112 433.227 118.309C432.995 117.822 432.706 117.364 432.365 116.946L366.132 73.898L320.16 77.0997C319.458 77.152 318.797 77.4532 318.296 77.9494C317.978 78.2741 317.736 78.6666 317.59 79.0977L317.25 80.1309L367.739 113.341L382.242 122.88L391.747 129.137L425.536 122.399L427.06 122.098L430.661 121.379L426.18 133.596L387.363 141.102L311.559 91.0548L310.923 92.6675Z" fill="#637DE6"/>
<path d="M317.617 79.0767L317.277 80.1099L367.766 113.32L382.269 122.859L391.774 129.116L425.563 122.378L427.087 122.077C425.682 121.206 424.008 120.88 422.38 121.162L392.229 126.562L318.33 77.9234C318.009 78.2488 317.765 78.6432 317.617 79.0767Z" fill="#132D96"/>
<path d="M312.456 91.7253L387.154 141.826L427.71 133.785L386.854 142.714L312.456 91.7253Z" fill="#132D96"/>
<path d="M429.692 121.358L425.184 133.595C425.709 134.289 426.429 134.811 427.251 135.094C428.116 134.356 428.776 133.407 429.167 132.339L432.449 123.461C432.761 122.627 432.901 121.737 432.859 120.847C431.792 120.934 430.733 121.105 429.692 121.358Z" fill="#132D96"/>
<path d="M311.579 91.0394L315.745 90.7973L314.858 93.2082L311.579 91.0394Z" fill="#132D96"/>
<g style="mix-blend-mode:multiply" opacity="0.5">
<path d="M388.637 123.035L324.807 81.1298C324.761 81.1034 324.724 81.0627 324.703 81.0137C324.682 80.9647 324.678 80.9101 324.69 80.8583C324.696 80.8058 324.717 80.7561 324.75 80.7158C324.784 80.6755 324.83 80.6464 324.88 80.6322C325.122 80.5873 325.351 80.4875 325.548 80.3405C325.746 80.1935 325.907 80.0032 326.02 79.7841C326.079 79.5591 326.088 79.3236 326.044 79.095C326 78.8663 325.906 78.6505 325.768 78.4635C325.744 78.4232 325.731 78.3776 325.729 78.3308C325.728 78.2841 325.738 78.2377 325.759 78.1959C325.776 78.1492 325.806 78.1086 325.846 78.079C325.885 78.0493 325.933 78.0321 325.983 78.0293L363.018 76.0582C363.066 76.0533 363.115 76.0621 363.159 76.0836C363.203 76.105 363.24 76.1383 363.266 76.1797C363.89 77.1151 364.824 77.7994 365.902 78.112C366.98 78.4245 368.134 78.3453 369.16 77.8882C369.202 77.8691 369.249 77.8614 369.295 77.8661C369.341 77.8708 369.384 77.8876 369.422 77.9148L424.794 114.324C424.831 114.351 424.862 114.387 424.883 114.428C424.904 114.469 424.916 114.514 424.916 114.56C424.917 114.605 424.907 114.648 424.886 114.688C424.866 114.727 424.835 114.76 424.799 114.785C424.487 114.995 424.247 115.295 424.11 115.645C424.019 115.961 424.001 116.293 424.058 116.616C424.115 116.939 424.245 117.245 424.439 117.51C424.463 117.548 424.477 117.592 424.479 117.636C424.481 117.681 424.471 117.726 424.45 117.766C424.431 117.806 424.402 117.84 424.367 117.867C424.331 117.893 424.29 117.911 424.246 117.917L395.833 124.186C395.781 124.198 395.727 124.194 395.677 124.174C395.627 124.155 395.584 124.122 395.553 124.078C394.805 123.064 393.687 122.387 392.443 122.195C391.2 122.002 389.93 122.31 388.912 123.052C388.875 123.078 388.832 123.095 388.787 123.101C388.742 123.107 388.696 123.102 388.654 123.086L388.637 123.035ZM395.885 123.631L423.728 117.501C423.569 117.195 423.475 116.86 423.45 116.516C423.425 116.172 423.47 115.827 423.582 115.501C423.701 115.168 423.898 114.869 424.157 114.629L369.237 78.5169C368.125 78.9714 366.894 79.0367 365.741 78.7023C364.588 78.3679 363.582 77.6532 362.885 76.6741L326.446 78.6124C326.563 78.8244 326.633 79.059 326.652 79.3005C326.671 79.5419 326.638 79.7846 326.555 80.0122C326.472 80.2397 326.342 80.4468 326.172 80.6195C326.003 80.7922 325.798 80.9265 325.573 81.0132L388.807 122.54C389.92 121.808 391.267 121.521 392.581 121.736C393.895 121.951 395.081 122.652 395.905 123.7L395.885 123.631Z" fill="#132D96"/>
</g>
<path d="M876.868 57.3807L910.937 93.9425C912.734 95.9804 912.688 97.04 911.558 98.8474L908.884 98.4613L905.909 109.038L908.276 111.444C908.873 112.891 908.091 114.215 906.325 115.289L812.055 101.68L786.213 64.9307C785.243 63.4727 784.405 62.4565 784.822 60.6024C784.822 60.6024 788.103 48.0061 790.416 46.2763C791.494 43.6803 796.174 44.3559 796.174 44.3559L876.868 57.3807Z" fill="#FDFDFD" stroke="#FDFDFD" stroke-width="2"/>
<path d="M907.69 96.4452L901.674 110.999L813.898 95.709L819.828 81.3485L907.69 96.4452Z" fill="#FDFDFD"/>
<path d="M902.615 99.2412L819.516 85.8431C819.516 85.8431 859.622 94.6473 902.615 99.2412Z" fill="#E3F0FF"/>
<path d="M898.689 105.757L872.549 101.301C872.549 101.301 887.178 105.573 898.689 105.757Z" fill="#E3F0FF"/>
<path d="M854.279 98.1875L817.389 91.1299C829.399 94.7894 841.766 97.1554 854.279 98.1875Z" fill="#E3F0FF"/>
<path d="M877.198 99.1743L840.303 92.124C852.314 95.7833 864.683 98.1469 877.198 99.1743Z" fill="#E3F0FF"/>
<path d="M819.828 81.348L795.439 49.3548L790.049 62.4104L813.897 95.7085L819.828 81.348Z" fill="#FDFDFD"/>
<path d="M816.28 87.1898L801.696 68.7059C805.508 75.626 810.435 81.871 816.28 87.1898Z" fill="#E3F0FF"/>
<path d="M816.992 83.3222L795.21 53.8805C795.21 53.8805 801.644 67.2935 816.992 83.3222Z" fill="#E3F0FF"/>
<path d="M791.826 61.1862L802.278 75.6572C802.278 75.6572 796.906 65.4142 791.826 61.1862Z" fill="#E3F0FF"/>
<path d="M791.607 49.725L787.904 58.7089C787.579 59.5046 787.404 60.3532 787.388 61.2123C787.375 61.7922 787.44 62.3712 787.581 62.934C787.718 63.4945 787.911 64.0401 788.155 64.5631C788.391 65.0889 788.679 65.5895 789.015 66.0572L811.893 98.2041C812.291 98.7468 812.883 99.1148 813.546 99.231L903.223 113.377C903.709 113.457 904.208 113.365 904.635 113.118C905.061 112.871 905.389 112.483 905.561 112.022L906.183 110.355L814.117 95.1673L790.031 62.4395L795.183 49.9855L819.16 82.9743L830.446 84.8676L909.494 98.0986L909.947 97.0883C910.074 96.8116 910.159 96.5169 910.196 96.2146C910.248 95.7781 910.204 95.3357 910.066 94.9182C909.928 94.5007 909.701 94.1184 909.4 93.798L877.906 60.371C877.294 59.7191 876.487 59.2832 875.605 59.1286L799.155 45.924L798.158 45.7503L796.993 45.5492C796.239 45.6442 795.507 45.8676 794.828 46.2096C794.269 46.4938 793.751 46.8533 793.289 47.2782C792.921 47.6174 792.592 47.9976 792.31 48.4114C792.031 48.8238 791.796 49.264 791.607 49.725Z" fill="#F2B441"/>
<path d="M794.523 51.5662L795.164 50.0149L819.141 83.0037L830.427 84.897L909.494 98.099L909.947 97.0886C910.075 96.8119 910.159 96.5172 910.197 96.2149L819.948 80.9598L794.805 46.215C794.245 46.4992 793.727 46.8587 793.266 47.2836C792.897 47.6228 792.569 48.003 792.286 48.4168L794.523 51.5662Z" fill="#DEA02D"/>
<path d="M904.724 110.698L813.438 96.2687L788.409 61.92L813.044 97.1413L904.724 110.698Z" fill="#DEA02D"/>
<path d="M791.607 49.7254L787.904 58.7094C787.579 59.505 787.404 60.3537 787.388 61.2128C788.096 61.9209 789.032 62.3557 790.031 62.44L795.182 49.9859C794.887 48.8978 794.221 47.9464 793.299 47.2954C792.564 47.972 791.986 48.8015 791.607 49.7254Z" fill="#DEA02D"/>
<path d="M903.187 110.326L900.22 107.229L899.208 109.668L903.187 110.326Z" fill="#DEA02D"/>
<g style="mix-blend-mode:multiply" opacity="0.5">
<path d="M825.69 80.6032L825.741 80.6365L903.086 93.6161C903.14 93.6227 903.195 93.6143 903.244 93.5917C903.294 93.5692 903.336 93.5334 903.367 93.4883C903.398 93.4444 903.415 93.3922 903.418 93.3384C903.42 93.2845 903.406 93.2312 903.378 93.1849C903.228 92.982 903.127 92.7472 903.082 92.4988C903.037 92.2504 903.051 91.995 903.121 91.7527C903.233 91.5425 903.391 91.3599 903.583 91.2179C903.774 91.0758 903.995 90.9779 904.229 90.9312C904.277 90.9194 904.322 90.8946 904.357 90.8595C904.393 90.8244 904.419 90.7804 904.431 90.732C904.444 90.6842 904.445 90.6338 904.433 90.5859C904.42 90.5379 904.396 90.4939 904.361 90.4582L877.771 63.1335C877.737 63.0967 877.693 63.0695 877.645 63.0543C877.597 63.0392 877.545 63.0366 877.496 63.047C876.374 63.3168 875.193 63.1819 874.162 62.6659C873.13 62.15 872.314 61.2863 871.858 60.2276C871.835 60.1846 871.802 60.1481 871.761 60.1215C871.72 60.095 871.673 60.0792 871.625 60.0757L804.522 48.8257C804.474 48.8188 804.425 48.823 804.379 48.8381C804.334 48.8531 804.292 48.8785 804.257 48.9124C804.227 48.9469 804.204 48.9885 804.193 49.0334C804.182 49.0784 804.182 49.1255 804.192 49.1706C804.283 49.5441 804.258 49.9361 804.121 50.2953C803.969 50.5993 803.75 50.8653 803.481 51.0736C803.212 51.2819 802.9 51.4272 802.567 51.4988C802.524 51.5115 802.484 51.5342 802.451 51.5651C802.419 51.5959 802.394 51.634 802.378 51.6763C802.364 51.7199 802.36 51.7661 802.366 51.8115C802.373 51.8569 802.389 51.9002 802.415 51.9383L819.495 76.4771C819.528 76.5232 819.573 76.559 819.625 76.5803C819.678 76.6015 819.735 76.6074 819.79 76.5971C821.052 76.3496 822.361 76.6087 823.433 77.3182C824.506 78.0278 825.255 79.1307 825.52 80.3882C825.528 80.4354 825.548 80.4799 825.578 80.5174C825.607 80.555 825.646 80.5845 825.69 80.6032ZM902.678 92.9868L826.028 80.0874C825.692 78.7594 824.873 77.6044 823.729 76.8486C822.586 76.0929 821.201 75.791 819.847 76.002L803.089 51.9225C803.43 51.8069 803.742 51.6221 804.008 51.3798C804.273 51.1375 804.486 50.8429 804.632 50.5145C804.766 50.1795 804.821 49.8183 804.793 49.4587L871.425 60.6191C871.946 61.7366 872.829 62.6453 873.932 63.1976C875.035 63.7499 876.292 63.9131 877.499 63.6608L903.673 90.5584C903.441 90.6459 903.228 90.7786 903.047 90.9488C902.866 91.1191 902.721 91.3235 902.62 91.5503C902.448 92.0134 902.464 92.5252 902.663 92.9773L902.678 92.9868Z" fill="#DEA02D"/>
</g>
<path d="M94.8705 41.5428L149.132 48.0616C152.07 48.4972 152.764 49.4156 153.055 51.7234L150.515 53.2879L155.308 64.2281L158.985 64.5682C160.494 65.3571 160.746 67.0159 159.988 69.1597L70.4507 124.308L23.0512 111.826C21.2176 111.292 19.8017 111.034 18.8726 109.19C18.8726 109.19 12.9428 96.3457 13.7111 93.2677C12.8304 90.337 17.2755 87.5992 17.2755 87.5992L94.8705 41.5428Z" fill="#FDFDFD" stroke="#FDFDFD" stroke-width="2"/>
<path d="M149.017 51.9478L154.374 68.7667L67.8524 118.932L62.5637 102.327L149.017 51.9478Z" fill="#FDFDFD"/>
<path d="M147.544 57.2788L66.4082 105.693C66.4082 105.693 107.254 84.3409 147.544 57.2788Z" fill="#E3F0FF"/>
<path d="M146.882 65.7129L121.151 80.742C121.151 80.742 136.852 73.8354 146.882 65.7129Z" fill="#E3F0FF"/>
<path d="M105.225 91.228L68.3896 111.773C81.3686 106.255 93.7175 99.3675 105.225 91.228Z" fill="#E3F0FF"/>
<path d="M123.64 75.5469L86.8047 96.0915C99.7836 90.5738 112.133 83.6864 123.64 75.5469Z" fill="#E3F0FF"/>
<path d="M62.5639 102.327L18.4492 92.4634L23.2598 107.551L67.8525 118.932L62.5639 102.327Z" fill="#FDFDFD"/>
<path d="M63.7344 109.905L37.8276 104.555C46.109 107.748 54.8623 109.556 63.7344 109.905Z" fill="#E3F0FF"/>
<path d="M61.5486 106.072L21.542 96.5103C21.542 96.5103 36.7543 103.388 61.5486 106.072Z" fill="#E3F0FF"/>
<path d="M23.9028 105.226L43.35 110.09C43.35 110.09 31.3285 105.187 23.9028 105.226Z" fill="#E3F0FF"/>
<path d="M15.4239 95.5277L18.722 105.888C19.0133 106.808 19.4805 107.664 20.0978 108.407C20.5104 108.912 20.9859 109.364 21.5127 109.749C22.037 110.125 22.5956 110.451 23.1813 110.722C23.7664 111.001 24.3775 111.223 25.006 111.384L67.9399 122.493C68.3044 122.584 68.6834 122.602 69.0551 122.547C69.4268 122.492 69.7839 122.364 70.1061 122.172L157.438 69.6426C157.912 69.3581 158.273 68.919 158.46 68.3996C158.646 67.8802 158.647 67.3124 158.462 66.7924L157.789 64.8469L67.6374 118.271L23.2593 107.57L18.6927 93.2514L63.1684 104.273L74.2336 97.7553L151.798 52.0843L151.466 50.8878C151.369 50.5605 151.224 50.2491 151.037 49.9637C150.769 49.5489 150.412 49.1986 149.992 48.9379C149.571 48.6771 149.099 48.5126 148.607 48.4559L95.8177 42.3081L19.1806 86.8604L18.2048 87.4343L17.0534 88.0958C15.9783 89.2626 15.2959 90.7353 15.1019 92.3078C14.9703 93.3968 15.0734 94.5012 15.4044 95.5471L15.4239 95.5277Z" fill="#FF7878"/>
<path d="M19.2586 95.0214L18.6926 93.2316L63.1683 104.253L74.2336 97.7354L151.798 52.0645L151.466 50.868C151.369 50.5406 151.224 50.2292 151.037 49.9438L62.4267 101.928L15.6677 90.2549C15.3892 90.9133 15.2053 91.6076 15.1213 92.3172C15.0579 92.8698 15.0579 93.4279 15.1213 93.9806L19.2586 95.0214Z" fill="#E00000"/>
<path d="M156.774 66.3159L67.8613 119.74L21.5024 108.31L68.1541 120.781L156.774 66.3159Z" fill="#E00000"/>
<path d="M15.4243 95.5274L18.7224 105.887C19.0137 106.808 19.4809 107.663 20.0982 108.407C21.2204 108.502 22.3403 108.199 23.2597 107.551L18.6931 93.2317C17.6514 92.5052 16.3893 92.1614 15.1218 92.2589C14.98 93.3573 15.0832 94.4734 15.4243 95.5274Z" fill="#E00000"/>
<path d="M155.781 64.9243L150.99 64.4185L151.887 67.2297L155.781 64.9243Z" fill="#E00000"/>
<g style="mix-blend-mode:multiply" opacity="0.5">
<path d="M66.7487 97.4241C66.0443 96.8734 65.2158 96.5023 64.335 96.3429C63.4542 96.1836 62.5477 96.2409 61.6942 96.5097C60.6633 96.8339 59.7529 97.457 59.0791 98.2996C59.0392 98.3464 58.987 98.3812 58.9284 98.4001C58.8698 98.419 58.8071 98.4213 58.7473 98.4066L26.3029 89.6518C26.2526 89.6398 26.2059 89.6158 26.1668 89.5819C26.1278 89.548 26.0975 89.5053 26.0785 89.4573C26.0568 89.4117 26.0455 89.3618 26.0455 89.3113C26.0455 89.2609 26.0568 89.211 26.0785 89.1654C26.311 88.8639 26.4728 88.5144 26.5522 88.1424C26.6316 87.7704 26.6264 87.3854 26.5371 87.0157C26.3904 86.6235 26.1286 86.2845 25.7858 86.0429C25.7444 86.0087 25.7114 85.9655 25.6894 85.9165C25.6674 85.8676 25.657 85.8144 25.6589 85.7608C25.6654 85.71 25.6827 85.6611 25.7096 85.6175C25.7365 85.5739 25.7725 85.5365 25.815 85.5079L91.6991 46.7435C91.7451 46.717 91.7973 46.7031 91.8504 46.7031C91.9035 46.7031 91.9556 46.717 92.0016 46.7435C93.1621 47.3205 94.4893 47.4721 95.7507 47.1715C97.012 46.8709 98.127 46.1374 98.9003 45.0995C98.9312 45.0539 98.9737 45.0173 99.0234 44.9934C99.0731 44.9694 99.1283 44.9591 99.1833 44.9633L141.825 49.2435C141.878 49.2525 141.929 49.2739 141.973 49.306C142.017 49.3381 142.053 49.38 142.078 49.4283C142.106 49.4771 142.121 49.5325 142.121 49.5888C142.121 49.6452 142.106 49.7005 142.078 49.7493C141.909 49.9561 141.789 50.1981 141.727 50.4574C141.664 50.7167 141.661 50.9866 141.717 51.2473C141.834 51.5058 142.008 51.7346 142.226 51.9166C142.444 52.0985 142.7 52.2289 142.976 52.2979C143.034 52.3152 143.085 52.3495 143.124 52.3963C143.162 52.4432 143.185 52.5004 143.191 52.5606C143.196 52.6218 143.184 52.6833 143.157 52.7383C143.129 52.7933 143.087 52.8396 143.034 52.8719L67.0999 97.4825H67.0414C66.9912 97.4941 66.9392 97.495 66.8887 97.4849C66.8382 97.4748 66.7905 97.4541 66.7487 97.4241ZM141.112 51.403C140.962 50.8643 141.029 50.2886 141.298 49.7979L99.3394 45.5859C98.484 46.6735 97.2839 47.4397 95.9352 47.7595C94.5864 48.0793 93.1688 47.9338 91.9138 47.3466L26.5371 85.8094C26.8226 86.1003 27.0364 86.4532 27.1616 86.8405C27.2723 87.2271 27.3017 87.6322 27.248 88.0306C27.1943 88.429 27.0585 88.812 26.8494 89.1557L58.679 97.7354C59.686 96.5738 61.0925 95.8297 62.622 95.6497C64.1515 95.4697 65.6931 95.8667 66.9438 96.7627L142.147 52.58C141.666 52.3331 141.299 51.9118 141.122 51.403H141.112Z" fill="#E00000"/>
</g>
<path d="M646.919 108.755L674.738 94.9025C676.229 94.1084 676.436 93.4852 676.178 92.1969L674.541 91.8467L675.145 85.0873L677.048 84.2029C677.713 83.4931 677.551 82.559 676.762 81.5587L619.068 69.2149L595.981 84.9409C595.097 85.5767 594.387 85.9851 594.22 87.1474C594.22 87.1474 593.351 95.1414 594.312 96.6386C594.366 98.3723 597.23 98.9851 597.23 98.9851L646.919 108.755Z" fill="#FDFDFD" stroke="white" stroke-width="2"/>
<path d="M670.456 92.9923L670.186 83.1707L615.837 72.84L616.108 82.5369L670.456 92.9923Z" fill="white"/>
<path d="M668.717 90.4662L617.506 80.0557C617.506 80.0557 642.734 83.7115 668.717 90.4662Z" fill="#BEE3F2"/>
<path d="M667.873 85.7911L651.699 82.6636C651.699 82.6636 661.148 83.379 667.873 85.7911Z" fill="#BEE3F2"/>
<path d="M640.416 80.4765L617.428 76.5034C625.213 76.9966 632.92 78.3286 640.416 80.4765Z" fill="#BEE3F2"/>
<path d="M653.938 84.9288L630.946 80.9526C638.733 81.4476 646.441 82.7806 653.938 84.9288Z" fill="#BEE3F2"/>
<path d="M618.113 82.5326L596.879 95.8773L596.636 87.063L617.842 72.8357L618.113 82.5326Z" fill="white"/>
<path d="M615.339 78.3417L602.783 85.9448C606.527 82.7366 610.769 80.1677 615.339 78.3417Z" fill="#BEE3F2"/>
<path d="M614.896 80.7573L595.759 93.1846C595.759 93.1846 602.459 86.7688 614.896 80.7573Z" fill="#BEE3F2"/>
<path d="M595.403 88.1611L604.647 82.0258C604.647 82.0258 599.278 86.818 595.403 88.1611Z" fill="#BEE3F2"/>
<path d="M594.741 94.8358L594.568 88.7851C594.554 88.2466 594.641 87.7098 594.825 87.2028C594.95 86.8589 595.119 86.5327 595.328 86.2325C595.534 85.9323 595.766 85.6516 596.023 85.3941C596.279 85.1424 596.557 84.9133 596.853 84.7093L617.236 70.9474C617.408 70.8308 617.601 70.7498 617.804 70.7092C618.007 70.6686 618.217 70.6691 618.419 70.7107L673.616 82.1215C673.917 82.1815 674.188 82.3448 674.382 82.5834C674.576 82.822 674.681 83.1212 674.68 83.4298L674.674 84.5526L617.853 73.2193L596.633 87.0676L596.867 95.4278L618.08 81.4095L625.048 82.7833L673.885 92.4031L673.928 93.092C673.94 93.2812 673.922 93.4713 673.875 93.655C673.811 93.922 673.688 94.1717 673.516 94.3857C673.344 94.5997 673.127 94.7728 672.88 94.8923L646.441 107.897L598.29 98.698L597.658 98.5708L596.938 98.4289C596.521 98.2044 596.145 97.9113 595.826 97.5618C595.56 97.2663 595.336 96.9362 595.159 96.5804C594.892 96.0338 594.745 95.4358 594.728 94.8266L594.741 94.8358Z" fill="#B96DFF"/>
<path d="M596.853 94.3632L596.88 95.4097L618.093 81.3914L625.06 82.7651L673.885 92.4027L673.928 93.0917C673.941 93.2808 673.923 93.4709 673.875 93.6546L618.118 82.7731L595.839 97.5708C595.574 97.2753 595.35 96.9452 595.172 96.5894C595.036 96.3097 594.931 96.016 594.858 95.7134L596.853 94.3632Z" fill="#9A3BC2"/>
<path d="M673.892 84.0056L617.698 72.4073L595.579 86.9922L617.667 71.8057L673.892 84.0056Z" fill="#9A3BC2"/>
<path d="M594.744 94.8309L594.571 88.7802C594.555 88.2433 594.641 87.7077 594.825 87.2024C595.394 86.9517 596.032 86.9056 596.629 87.0717L596.864 95.4319C596.448 96.0033 595.85 96.4137 595.169 96.5937C594.902 96.0445 594.757 95.443 594.744 94.8309Z" fill="#9A3BC2"/>
<path d="M672.663 84.5523L670.253 85.7078L670.211 84.0643L672.663 84.5523Z" fill="#9A3BC2"/>
<g style="mix-blend-mode:multiply" opacity="0.5">
<path d="M619.187 84.3288C618.755 85.0054 618.075 85.4852 617.295 85.6651C616.516 85.845 615.698 85.7106 615.019 85.2907C614.989 85.2721 614.955 85.2623 614.92 85.2627C614.885 85.263 614.85 85.2734 614.821 85.2926L599.491 95.9024C599.467 95.9147 599.446 95.933 599.43 95.9557C599.415 95.9784 599.405 96.0046 599.402 96.0319C599.401 96.0603 599.407 96.0885 599.419 96.114C599.431 96.1396 599.449 96.1618 599.472 96.1787C599.648 96.293 599.797 96.4462 599.907 96.6268C600.016 96.8073 600.083 97.0105 600.103 97.2212C600.107 97.4623 600.036 97.6989 599.9 97.8979C599.884 97.9223 599.874 97.9502 599.871 97.9792C599.868 98.0083 599.872 98.0375 599.883 98.0645C599.898 98.0894 599.918 98.1108 599.942 98.1272C599.965 98.1436 599.992 98.1546 600.021 98.1595L641.52 106.335C641.548 106.342 641.579 106.342 641.607 106.334C641.636 106.326 641.662 106.31 641.682 106.289C642.181 105.769 642.846 105.443 643.559 105.366C644.272 105.29 644.988 105.469 645.581 105.872C645.607 105.89 645.637 105.901 645.668 105.904C645.699 105.907 645.73 105.902 645.759 105.889L667.237 95.7508C667.265 95.7378 667.29 95.7171 667.308 95.6912C667.326 95.6652 667.336 95.6348 667.338 95.6034C667.342 95.5723 667.337 95.5409 667.324 95.5124C667.312 95.484 667.292 95.4595 667.266 95.4416C667.14 95.3651 667.033 95.2611 666.953 95.1372C666.873 95.0133 666.821 94.8727 666.803 94.7259C666.815 94.5681 666.864 94.4151 666.945 94.279C667.026 94.1429 667.137 94.0274 667.27 93.9416C667.297 93.9209 667.318 93.8923 667.328 93.8596C667.339 93.827 667.34 93.7919 667.33 93.759C667.323 93.7255 667.306 93.6949 667.282 93.6711C667.257 93.6472 667.227 93.6311 667.193 93.6249L619.38 84.2578L619.354 84.2394C619.32 84.2342 619.286 84.2401 619.256 84.2563C619.226 84.2724 619.202 84.2979 619.187 84.3288ZM666.424 94.7344C666.443 95.0445 666.582 95.3343 666.811 95.5422L645.673 105.52C645.1 105.15 644.427 104.966 643.745 104.992C642.894 105.018 642.082 105.366 641.472 105.966L600.334 97.8751C600.433 97.6708 600.48 97.4452 600.471 97.2186C600.459 96.9949 600.401 96.7763 600.301 96.5766C600.2 96.3769 600.06 96.2003 599.888 96.058L614.942 85.6594C615.68 86.0837 616.552 86.2133 617.383 86.0226C618.215 85.8319 618.946 85.3348 619.432 84.6297L666.772 93.9139C666.556 94.1359 666.436 94.434 666.437 94.7436L666.424 94.7344Z" fill="#9A3BC2"/>
</g>
</svg>
