<svg width="120" height="17" viewBox="0 0 120 17" fill="none" xmlns="http://www.w3.org/2000/svg">
<path fill-rule="evenodd" clip-rule="evenodd" d="M113.698 11.6229L114.159 15.9681L112.213 16.1819L110.951 4.30866L112.898 4.09493L113.36 8.4402L116.264 3.72534L118.738 3.45373L114.77 9.89528L120 15.327L117.526 15.5986L113.698 11.6229ZM109.272 2.35244L107.517 14.1608L105.581 13.8635L106.965 4.54806L98.3614 12.755L95.901 12.3773L97.6555 0.56894L99.5916 0.866198L98.2075 10.1817L106.812 1.97469L109.272 2.35244ZM91.6611 7.09899C91.5745 6.69377 91.3603 6.38179 91.0186 6.16306C90.681 5.93773 90.3129 5.86908 89.9143 5.95711L87.5226 6.48525L88.3538 10.3753L90.7456 9.84713C91.1442 9.75911 91.4517 9.54412 91.6681 9.20215C91.8886 8.85359 91.9555 8.4767 91.8689 8.0715L91.6611 7.09899ZM89.3828 4.19521C90.3076 3.99099 91.1679 4.14897 91.9637 4.66916C92.7594 5.18935 93.2578 5.9195 93.4587 6.85959L93.6665 7.83211C93.8674 8.77219 93.712 9.64669 93.2002 10.4556C92.6885 11.2645 91.9702 11.7711 91.0454 11.9753L88.6536 12.5034L89.4849 16.3934L87.5715 16.816L85.0776 5.14586L89.3828 4.19521ZM78.2171 5.73387L78.6993 5.81957C79.1011 5.89099 79.4657 5.80985 79.793 5.57615C80.1266 5.33797 80.3285 5.01464 80.3988 4.60618C80.469 4.19771 80.3865 3.82664 80.1513 3.49297C79.9223 3.15481 79.6069 2.95002 79.2051 2.87861L78.7229 2.79291L78.2171 5.73387ZM79.785 11.0639C80.1869 11.1354 80.5514 11.0542 80.8787 10.8205C81.2123 10.5823 81.4143 10.259 81.4845 9.85056C81.5548 9.4421 81.4723 9.07103 81.237 8.73736C81.0081 8.39919 80.6927 8.19441 80.2908 8.12299L77.8799 7.69452L77.3741 10.6355L79.785 11.0639ZM81.6527 6.51284C82.1185 6.75838 82.5149 7.1179 82.8421 7.59138C83.3859 8.37838 83.5763 9.2457 83.4133 10.1933C83.2503 11.141 82.7817 11.8912 82.0075 12.444C81.2333 12.9967 80.3801 13.1903 79.4478 13.0246L75.1081 12.2533L77.1313 0.489502L79.5423 0.917973C80.4745 1.08365 81.2126 1.55999 81.7563 2.34698C82.3001 3.13399 82.4905 4.00131 82.3275 4.94895C82.2245 5.54803 81.9996 6.06933 81.6527 6.51284ZM70.7438 11.3092L70.5004 9.3343C70.3658 8.2426 69.8707 7.36119 69.0151 6.69008C68.1642 6.01279 67.2018 5.74253 66.1278 5.87931C65.0539 6.01611 64.1841 6.51972 63.5185 7.39016C62.8576 8.25442 62.5944 9.2324 62.729 10.3241L62.9724 12.299L70.7438 11.3092ZM60.805 10.7243C60.6035 9.08948 61.0007 7.6208 61.9968 6.31824C62.9928 5.01567 64.295 4.26197 65.9032 4.05713C67.5115 3.8523 68.9563 4.25612 70.2377 5.26862C71.5191 6.28112 72.2606 7.60478 72.4621 9.23958L73.1923 15.1644L71.2495 15.4118L71.0061 13.4369L63.2347 14.4267L63.4781 16.4017L61.5353 16.6491L60.805 10.7243ZM53.6737 12.6677C52.7449 12.4831 52.0164 11.9918 51.4882 11.1939C50.9601 10.396 50.7868 9.52499 50.9684 8.58086L52.89 8.96282C52.8118 9.36977 52.8837 9.74462 53.106 10.0874C53.3346 10.4258 53.6491 10.6348 54.0495 10.7143L55.0103 10.9053C55.4106 10.9849 55.7767 10.9112 56.1086 10.6842C56.4468 10.4528 56.655 10.1337 56.7333 9.72673C56.8116 9.31978 56.7364 8.9471 56.5078 8.60871C56.2855 8.26595 55.9743 8.05479 55.5739 7.97521L53.1718 7.49777L53.5476 5.54438L54.9888 5.83085C55.3892 5.91043 55.7553 5.83672 56.0871 5.60973C56.4253 5.37838 56.6336 5.05924 56.7119 4.65229C56.7902 4.24532 56.715 3.87265 56.4864 3.53426C56.2641 3.19151 55.9528 2.98034 55.5525 2.90077C55.1521 2.8212 54.7828 2.89708 54.4446 3.12842C54.1128 3.35541 53.9077 3.67239 53.8294 4.07935L51.9078 3.69739C52.0894 2.75325 52.5727 2.01273 53.3576 1.47583C54.1425 0.938926 54.9994 0.76278 55.9282 0.947389C56.857 1.132 57.5855 1.62326 58.1137 2.42117C58.6419 3.21908 58.8151 4.0901 58.6335 5.03424C58.4895 5.78304 58.1572 6.40146 57.6366 6.8895C57.8186 7.06653 57.9848 7.26857 58.1351 7.49562C58.6633 8.29353 58.8366 9.16455 58.655 10.1087C58.4734 11.0528 57.9901 11.7933 57.2051 12.3302C56.4202 12.8671 55.5633 13.0433 54.6345 12.8587L53.6737 12.6677ZM42.6445 13.64C43.7227 13.7366 44.6744 13.4333 45.4998 12.7302C46.331 12.0221 46.7942 11.12 46.8892 10.024C46.9842 8.92806 46.6831 7.96033 45.986 7.12086C45.2948 6.27635 44.4101 5.80581 43.3319 5.70925C42.2537 5.61268 41.299 5.91846 40.4678 6.62659C39.6424 7.3297 39.1822 8.22925 39.0872 9.32524C38.9922 10.4212 39.2903 11.3915 39.9815 12.236C40.6786 13.0754 41.5663 13.5435 42.6445 13.64ZM42.4593 15.7761C40.8448 15.6315 39.5162 14.9269 38.4738 13.6625C37.4313 12.398 36.9812 10.9451 37.1235 9.3039C37.2657 7.66267 37.9588 6.3122 39.2028 5.25251C40.4467 4.19283 41.8759 3.7353 43.4905 3.87991C45.1051 4.02452 46.4336 4.72907 47.476 5.99355C48.5185 7.25803 48.9686 8.71088 48.8263 10.3521C48.6841 11.9933 47.991 13.3438 46.7471 14.4035C45.5031 15.4632 44.0739 15.9207 42.4593 15.7761ZM36.4766 1.25691L36.6283 3.24131L31.7479 3.62686L32.5065 13.5488L30.5543 13.7031L29.7958 3.78108L24.9154 4.16662L24.7637 2.18222L36.4766 1.25691ZM23.1975 4.52978L22.5 16.451L20.5455 16.3328L21.0957 6.92832L13.2565 15.8922L10.7726 15.742L11.47 3.82079L13.4246 3.93895L12.8744 13.3435L20.7136 4.37961L23.1975 4.52978ZM6.34954 7.50454L5.85309 1.55477L7.80412 1.38655L8.79703 13.2861L6.846 13.4543L6.51503 9.4878C4.90001 9.62705 3.47224 9.16477 2.23173 8.10095C0.991218 7.03713 0.302469 5.68438 0.165484 4.04268L0 2.05943L1.95103 1.8912L2.11651 3.87446C2.20799 4.97076 2.6655 5.87459 3.48905 6.58595C4.31756 7.29133 5.27106 7.59752 6.34954 7.50454Z" fill="white"/>
</svg>
