<svg width="105" height="14" viewBox="0 0 105 14" fill="none" xmlns="http://www.w3.org/2000/svg">
<path fill-rule="evenodd" clip-rule="evenodd" d="M99.0957 9.54691L99.4981 13.273L97.8014 13.4563L96.7019 3.27494L98.3986 3.09167L98.801 6.81775L101.332 2.77475L103.489 2.54184L100.03 8.06549L104.588 12.7232L102.432 12.9561L99.0957 9.54691ZM95.2384 1.59748L93.7092 11.7232L92.0218 11.4683L93.2281 3.48023L85.7291 10.5177L83.5846 10.1938L85.1138 0.0681185L86.8012 0.323018L85.5949 8.31106L93.0939 1.27355L95.2384 1.59748ZM79.8893 5.66766C79.8138 5.32018 79.6271 5.05266 79.3293 4.86509C79.0351 4.67187 78.7142 4.61301 78.3668 4.68849L76.2822 5.14138L77.0067 8.47709L79.0913 8.0242C79.4387 7.94872 79.7067 7.76437 79.8953 7.47112C80.0875 7.17224 80.1459 6.84905 80.0704 6.50158L79.8893 5.66766ZM77.9036 3.17765C78.7096 3.00254 79.4594 3.13801 80.153 3.58407C80.8465 4.03014 81.2809 4.65624 81.456 5.46237L81.6371 6.29631C81.8122 7.10244 81.6767 7.85232 81.2307 8.54596C80.7847 9.2396 80.1587 9.67398 79.3526 9.84909L77.268 10.302L77.9926 13.6377L76.3249 14L74.1513 3.99284L77.9036 3.17765ZM68.1718 4.49706L68.5921 4.57055C68.9423 4.63179 69.2601 4.56221 69.5453 4.36182C69.8361 4.15758 70.0121 3.88032 70.0733 3.53006C70.1345 3.1798 70.0626 2.86161 69.8576 2.57548C69.658 2.28551 69.3832 2.1099 69.0329 2.04867L68.6127 1.97518L68.1718 4.49706ZM69.5384 9.06762C69.8886 9.12886 70.2064 9.05929 70.4916 8.85889C70.7824 8.65465 70.9584 8.3774 71.0196 8.02714C71.0809 7.67688 71.009 7.35869 70.8039 7.07256C70.6044 6.78259 70.3295 6.60698 69.9793 6.54574L67.8779 6.17832L67.4371 8.70021L69.5384 9.06762ZM71.1663 5.16503C71.5722 5.37559 71.9177 5.68387 72.2029 6.08988C72.6768 6.76473 72.8427 7.50847 72.7007 8.32107C72.5586 9.13368 72.1502 9.77699 71.4754 10.251C70.8007 10.725 70.057 10.891 69.2445 10.7489L65.4621 10.0875L67.2255 0L69.3268 0.367416C70.1394 0.509487 70.7826 0.917945 71.2565 1.5928C71.7305 2.26765 71.8964 3.01139 71.7544 3.82399C71.6646 4.33771 71.4685 4.78472 71.1663 5.16503ZM61.6583 9.27795L61.4461 7.58444C61.3289 6.64831 60.8974 5.8925 60.1516 5.31702C59.41 4.73624 58.5712 4.50449 57.6352 4.62178C56.6991 4.73908 55.941 5.17093 55.3609 5.91733C54.7849 6.65844 54.5556 7.49706 54.6728 8.43319L54.885 10.1267L61.6583 9.27795ZM52.9959 8.77636C52.8203 7.37451 53.1665 6.11511 54.0347 4.99816C54.9028 3.8812 56.0377 3.2349 57.4394 3.05925C58.8411 2.88361 60.1004 3.22989 61.2172 4.09811C62.334 4.96634 62.9803 6.10137 63.1559 7.50322L63.7924 12.5838L62.0991 12.796L61.8869 11.1025L55.1136 11.9512L55.3257 13.6447L53.6324 13.8569L52.9959 8.77636ZM46.7805 10.4429C45.971 10.2845 45.3361 9.86329 44.8757 9.17908C44.4154 8.49487 44.2643 7.74796 44.4226 6.93836L46.0975 7.2659C46.0292 7.61486 46.092 7.93629 46.2857 8.23021C46.485 8.52037 46.7591 8.69959 47.108 8.76783L47.9454 8.93158C48.2943 8.99981 48.6134 8.93661 48.9027 8.74198C49.1974 8.54359 49.3789 8.26991 49.4472 7.92095C49.5154 7.57199 49.4499 7.25242 49.2506 6.96225C49.0569 6.66833 48.7856 6.48726 48.4367 6.41902L46.3431 6.00961L46.6706 4.33458L47.9267 4.58022C48.2757 4.64846 48.5947 4.58526 48.884 4.39061C49.1787 4.19223 49.3603 3.91856 49.4285 3.5696C49.4967 3.22063 49.4312 2.90106 49.2319 2.61089C49.0382 2.31698 48.7669 2.13591 48.418 2.06767C48.069 1.99944 47.7472 2.06451 47.4524 2.26289C47.1632 2.45753 46.9844 2.72934 46.9162 3.0783L45.2414 2.75078C45.3996 1.94117 45.8209 1.30618 46.505 0.845777C47.1891 0.385383 47.9359 0.234337 48.7455 0.39264C49.555 0.550948 50.1899 0.972205 50.6503 1.65641C51.1106 2.34062 51.2616 3.08753 51.1033 3.89713C50.9778 4.53923 50.6882 5.06952 50.2344 5.48802C50.3931 5.63982 50.538 5.81307 50.6689 6.00777C51.1293 6.69198 51.2803 7.43888 51.122 8.24848C50.9637 9.05808 50.5425 9.69307 49.8584 10.1535C49.1743 10.6139 48.4274 10.7649 47.6179 10.6066L46.7805 10.4429ZM37.1677 11.2766C38.1074 11.3594 38.937 11.0994 39.6563 10.4965C40.3808 9.88924 40.7845 9.11571 40.8673 8.1759C40.9501 7.23609 40.6877 6.40626 40.0801 5.68641C39.4777 4.96224 38.7066 4.55876 37.7669 4.47595C36.8272 4.39314 35.9951 4.65535 35.2706 5.26258C34.5512 5.86549 34.1501 6.63686 34.0673 7.57667C33.9845 8.51648 34.2444 9.34847 34.8468 10.0726C35.4544 10.7925 36.228 11.1938 37.1677 11.2766ZM37.0064 13.1083C35.5991 12.9843 34.4412 12.3802 33.5327 11.2959C32.6241 10.2116 32.2318 8.96574 32.3558 7.55838C32.4798 6.15101 33.0839 4.99298 34.168 4.0843C35.2522 3.17562 36.4979 2.78328 37.9051 2.90729C39.3123 3.03129 40.4702 3.63545 41.3788 4.71974C42.2874 5.80403 42.6797 7.04986 42.5557 8.45722C42.4317 9.86458 41.8276 11.0226 40.7434 11.9313C39.6592 12.84 38.4136 13.2323 37.0064 13.1083ZM31.7919 0.658055L31.9242 2.35968L27.6706 2.69029L28.3317 11.1984L26.6303 11.3307L25.9691 2.82254L21.7155 3.15314L21.5833 1.45151L31.7919 0.658055ZM20.2183 3.46455L19.6104 13.687L17.9068 13.5857L18.3864 5.5213L11.554 13.2078L9.38906 13.0791L9.99695 2.85659L11.7005 2.95791L11.2209 11.0223L18.0534 3.33578L20.2183 3.46455ZM5.53408 6.01542L5.10139 0.913473L6.80185 0.76922L7.66724 10.9731L5.96678 11.1174L5.67831 7.71607C4.27071 7.83548 3.02631 7.43907 1.94511 6.52684C0.863917 5.61461 0.263623 4.45462 0.144232 3.04686L0 1.34621L1.70046 1.20196L1.84469 2.90261C1.92442 3.84269 2.32318 4.61773 3.04096 5.22772C3.76306 5.83259 4.5941 6.09515 5.53408 6.01542Z" fill="#7791FA"/>
</svg>
