<svg width="40" height="34" viewBox="0 0 40 34" fill="none" xmlns="http://www.w3.org/2000/svg">
<path fill-rule="evenodd" clip-rule="evenodd" d="M19.3724 0.477555L0.0878833 32.9015C-0.162814 33.322 0.152565 33.8479 0.657975 33.8479L8.60715 33.8548C9.04788 33.8548 9.43641 33.5084 9.48905 33.0866C9.54481 32.6429 9.6144 32.1941 9.6996 31.7418C11.1061 24.2241 16.0478 16.6999 20.9319 14.6407C25.8161 12.581 28.9248 16.7115 27.9961 24.0274L27.4804 26.7842C26.954 28.9342 26.1404 31.1148 25.1037 33.1606C24.9047 33.5523 25.1001 33.8651 25.5511 33.8651L39.3903 33.875C39.8574 33.875 40.1518 33.3874 39.9181 32.9941L20.6357 0.479289C20.3569 0.00719918 19.653 0.00718696 19.3724 0.477555Z" fill="#7791FA"/>
</svg>
