<svg width="60" height="50" viewBox="0 0 60 50" fill="none" xmlns="http://www.w3.org/2000/svg">
<path fill-rule="evenodd" clip-rule="evenodd" d="M29.0768 0.52017L0.740462 48.3595C0.372092 48.9798 0.835505 49.7557 1.57815 49.7557L13.2585 49.7659C13.9061 49.7659 14.477 49.2548 14.5544 48.6325C14.6363 47.9779 14.7386 47.3156 14.8638 46.6483C16.9304 35.5565 24.1917 24.4551 31.3683 21.4169C38.545 18.378 43.1129 24.4722 41.7483 35.2663L40.9905 39.3337C40.2171 42.5059 39.0215 45.7232 37.4982 48.7417C37.2059 49.3195 37.493 49.7811 38.1557 49.7811L58.4908 49.7957C59.177 49.7957 59.6097 49.0763 59.2662 48.496L30.9331 0.522728C30.5234 -0.173807 29.4891 -0.173825 29.0768 0.52017Z" fill="#FDFDFD"/>
</svg>
