<svg xmlns="http://www.w3.org/2000/svg" width="360" height="44" viewBox="0 0 360 44" fill="none">
  <path d="M0 0H360V30.4944C360 30.4944 345.207 33.8404 335.656 33.4446C315.766 32.6203 287.325 14.268 287.325 14.268C287.325 14.268 260.669 32.4142 241.836 33.4446C220.171 34.6298 188.707 14.268 188.707 14.268C188.707 14.268 174.873 28.3155 166.14 30.4944C155.053 33.2607 143.218 18.4826 143.218 18.4826C143.218 18.4826 137.897 28.8638 132.912 30.4944C126.177 32.6976 119.941 18.4826 119.941 18.4826C119.941 18.4826 100.609 44.8013 84.4028 43.9812C69.2507 43.2144 52.0632 18.4826 52.0632 18.4826C52.0632 18.4826 37.452 31.1799 26.4758 33.4446C16.2445 35.5556 0 30.4944 0 30.4944V0Z" fill="#7791FA"/>
</svg>