<svg xmlns="http://www.w3.org/2000/svg" width="768" height="55" viewBox="0 0 768 55" fill="none">
  <path d="M0 0H768V38.1179C768 38.1179 736.441 42.3005 716.067 41.8057C673.633 40.7753 612.96 17.8349 612.96 17.8349C612.96 17.8349 556.095 40.5178 515.917 41.8057C469.699 43.2873 402.575 17.8349 402.575 17.8349C402.575 17.8349 373.062 35.3944 354.432 38.1179C330.78 41.5758 305.532 23.1032 305.532 23.1032C305.532 23.1032 294.18 36.0797 283.546 38.1179C269.177 40.872 255.874 23.1032 255.874 23.1032C255.874 23.1032 214.632 56.0017 180.059 54.9765C147.735 54.018 111.068 23.1032 111.068 23.1032C111.068 23.1032 79.8976 38.9749 56.4817 41.8057C34.655 44.4445 0 38.1179 0 38.1179V0Z" fill="#7791FA"/>
</svg>