<svg xmlns="http://www.w3.org/2000/svg" width="688" height="160" viewBox="0 0 688 160" fill="none">
  <g clip-path="url(#clip0_6215_53010)">
    <rect width="688" height="160" rx="8" fill="#C7E1FF"/>
    <g clip-path="url(#clip1_6215_53010)">
      <mask id="mask0_6215_53010" style="mask-type:alpha" maskUnits="userSpaceOnUse" x="36" y="23" width="1280" height="312">
        <rect x="36" y="23" width="1280" height="312" rx="8" fill="#FFFFB9"/>
      </mask>
      <g mask="url(#mask0_6215_53010)">
        <circle cx="583" cy="943" r="830" fill="#3EB560"/>
      </g>
      <mask id="mask1_6215_53010" style="mask-type:alpha" maskUnits="userSpaceOnUse" x="-407" y="16" width="1280" height="312">
        <rect x="-407" y="16" width="1280" height="312" rx="8" fill="#FFFFB9"/>
        <g opacity="0.5">
          <circle cx="544.395" cy="115" r="10" fill="#E3F0FF"/>
          <path d="M539.684 111.378C538.11 113.694 537.058 116.318 536.28 115.789C535.503 115.261 535.4 112.181 536.974 109.865C538.547 107.549 541.554 106.879 542.331 107.407C543.108 107.935 541.257 109.062 539.684 111.378Z" fill="white"/>
          <path d="M551.273 119.537C550.908 120.13 550.354 120.428 550.087 120.264C549.82 120.1 550.226 119.66 550.591 119.067C550.956 118.474 551.183 118.002 551.45 118.167C551.717 118.331 551.637 118.944 551.273 119.537Z" fill="#FDFDFD"/>
        </g>
      </mask>
      <g mask="url(#mask1_6215_53010)">
        <circle cx="53" cy="931" r="830" fill="#52C974"/>
      </g>
    </g>
    <g opacity="0.5">
      <circle cx="371.836" cy="37.5" r="8.5" fill="#E3F0FF"/>
      <path d="M367.831 34.4216C366.494 36.3901 365.599 38.6205 364.939 38.1716C364.278 37.7226 364.19 35.1044 365.528 33.1359C366.866 31.1674 369.421 30.5977 370.081 31.0466C370.742 31.4956 369.169 32.453 367.831 34.4216Z" fill="#FDFDFD"/>
      <path d="M377.681 41.3566C377.371 41.8606 376.9 42.1138 376.673 41.9742C376.447 41.8347 376.792 41.4605 377.102 40.9565C377.412 40.4526 377.605 40.0519 377.832 40.1914C378.059 40.3309 377.991 40.8526 377.681 41.3566Z" fill="#FDFDFD"/>
    </g>
    <g opacity="0.5">
      <circle cx="311.836" cy="53.5" r="8.5" fill="#E3F0FF"/>
      <path d="M307.831 50.4216C306.494 52.3901 305.599 54.6205 304.939 54.1716C304.278 53.7226 304.19 51.1044 305.528 49.1359C306.866 47.1674 309.421 46.5977 310.081 47.0466C310.742 47.4956 309.169 48.453 307.831 50.4216Z" fill="#FDFDFD"/>
      <path d="M317.681 57.3566C317.371 57.8606 316.9 58.1138 316.673 57.9742C316.447 57.8347 316.792 57.4605 317.102 56.9565C317.412 56.4526 317.605 56.0519 317.832 56.1914C318.059 56.3309 317.991 56.8526 317.681 57.3566Z" fill="#FDFDFD"/>
    </g>
    <g opacity="0.5">
      <circle cx="656.395" cy="67" r="10" fill="#E3F0FF"/>
      <path d="M651.684 63.3777C650.11 65.6937 649.058 68.3177 648.28 67.7895C647.503 67.2613 647.4 64.1811 648.974 61.8652C650.547 59.5493 653.554 58.879 654.331 59.4072C655.108 59.9354 653.257 61.0618 651.684 63.3777Z" fill="#FDFDFD"/>
      <path d="M663.273 71.5374C662.908 72.1303 662.354 72.4282 662.087 72.264C661.82 72.0999 662.226 71.6597 662.591 71.0668C662.956 70.4738 663.183 70.0024 663.45 70.1666C663.717 70.3307 663.637 70.9445 663.273 71.5374Z" fill="#FDFDFD"/>
    </g>
    <g opacity="0.5">
      <circle cx="356.958" cy="93.0435" r="23.0435" fill="#E3F0FF"/>
      <path d="M346.095 84.6965C342.469 90.0331 340.044 96.0798 338.253 94.8627C336.462 93.6455 336.224 86.5477 339.85 81.211C343.477 75.8744 350.404 74.3299 352.195 75.547C353.986 76.7642 349.722 79.3598 346.095 84.6965Z" fill="#FDFDFD"/>
      <path d="M372.796 103.5C371.956 104.866 370.679 105.552 370.064 105.174C369.449 104.796 370.385 103.781 371.226 102.415C372.066 101.049 372.59 99.9625 373.205 100.341C373.82 100.719 373.637 102.133 372.796 103.5Z" fill="#FDFDFD"/>
    </g>
    <circle cx="189.516" cy="47" r="13" fill="#E3F0FF"/>
    <path d="M183.389 42.2901C181.343 45.3008 179.975 48.712 178.964 48.0254C177.954 47.3387 177.82 43.3345 179.866 40.3238C181.911 37.3131 185.819 36.4418 186.83 37.1284C187.84 37.8151 185.434 39.2794 183.389 42.2901Z" fill="#FDFDFD"/>
    <path d="M198.455 52.899C197.981 53.6698 197.26 54.057 196.914 53.8436C196.567 53.6302 197.095 53.058 197.569 52.2872C198.043 51.5164 198.339 50.9035 198.686 51.1169C199.033 51.3304 198.929 52.1282 198.455 52.899Z" fill="#FDFDFD"/>
    <circle cx="508.956" cy="86.0411" r="23.0411" fill="#E3F0FF"/>
    <path d="M498.094 77.6951C494.468 83.0312 492.044 89.0773 490.253 87.8603C488.462 86.6432 488.224 79.5462 491.85 74.21C495.476 68.8739 502.402 67.3296 504.193 68.5466C505.984 69.7637 501.72 72.359 498.094 77.6951Z" fill="#FDFDFD"/>
    <path d="M524.799 96.4953C523.959 97.8615 522.682 98.5479 522.067 98.1696C521.452 97.7914 522.388 96.7771 523.229 95.411C524.069 94.0448 524.593 92.9586 525.208 93.3369C525.823 93.7151 525.64 95.1292 524.799 96.4953Z" fill="#FDFDFD"/>
    <g opacity="0.5">
      <path d="M511.857 87.2598H510.228V94.6134H511.857V87.2598Z" fill="#900000"/>
      <path d="M510.686 93.0273H511.45C512.051 93.0273 512.539 93.516 512.539 94.1169V94.8779C512.539 95.0162 512.427 95.1294 512.288 95.1294H509.848C509.71 95.1294 509.597 95.017 509.597 94.8779V94.1169C509.597 93.516 510.085 93.0273 510.686 93.0273Z" fill="#EA5858"/>
      <path d="M506.818 87.2617H505.188V94.6154H506.818V87.2617Z" fill="#900000"/>
      <path d="M505.643 93.0293H506.407C507.008 93.0293 507.496 93.5179 507.496 94.1189V94.8799C507.496 95.0182 507.384 95.1313 507.245 95.1313H504.805C504.667 95.1313 504.554 95.019 504.554 94.8799V94.1189C504.554 93.5179 505.042 93.0293 505.643 93.0293Z" fill="#EA5858"/>
      <ellipse cx="505.318" cy="80.9335" rx="4.31652" ry="4.31632" fill="#EA5858"/>
      <ellipse cx="510.517" cy="80.9335" rx="4.31652" ry="4.31632" fill="#EA5858"/>
      <ellipse cx="505.318" cy="86.8847" rx="4.31652" ry="4.31632" fill="#EA5858"/>
      <ellipse cx="510.683" cy="86.8847" rx="4.31652" ry="4.31632" fill="#EA5858"/>
      <path d="M506.358 84.9428C506.355 85.1877 506.056 85.3059 505.887 85.1286L504.317 83.4818C503.731 82.8677 503.954 81.8562 504.743 81.5444C505.532 81.2326 506.386 81.819 506.378 82.6674L506.358 84.9428Z" fill="#7791FA"/>
      <path d="M505.859 84.9447C505.861 85.1897 506.16 85.3078 506.329 85.1305L507.9 83.4838C508.485 82.8697 508.263 81.8581 507.474 81.5463C506.685 81.2346 505.831 81.8209 505.838 82.6694L505.859 84.9447Z" fill="#7791FA"/>
      <path d="M506.286 84.7009C506.284 84.8928 506.05 84.9854 505.918 84.8465L504.688 83.5563C504.229 83.0753 504.403 82.2827 505.021 82.0385C505.64 81.7942 506.308 82.2536 506.302 82.9183L506.286 84.7009Z" fill="#1E1E1E"/>
      <path d="M505.895 84.703C505.897 84.8949 506.131 84.9875 506.264 84.8485L507.494 83.5584C507.953 83.0773 507.779 82.2848 507.16 82.0406C506.542 81.7963 505.873 82.2557 505.879 82.9204L505.895 84.703Z" fill="#1E1E1E"/>
      <mask id="mask2_6215_53010" style="mask-type:alpha" maskUnits="userSpaceOnUse" x="504" y="81" width="4" height="4">
        <path d="M506.275 84.6989C506.273 84.8909 506.039 84.9834 505.906 84.8445L504.676 83.5544C504.217 83.0733 504.391 82.2808 505.01 82.0365C505.628 81.7923 506.297 82.2517 506.291 82.9164L506.275 84.6989Z" fill="#1D1D1B"/>
        <path d="M505.884 84.701C505.885 84.893 506.12 84.9855 506.252 84.8466L507.482 83.5565C507.941 83.0754 507.767 82.2829 507.149 82.0386C506.53 81.7943 505.862 82.2537 505.868 82.9184L505.884 84.701Z" fill="#1D1D1B"/>
      </mask>
      <g mask="url(#mask2_6215_53010)">
        <rect width="0.63569" height="3.17845" transform="matrix(0.707123 -0.70709 0.707123 0.70709 504.628 82.1562)" fill="white"/>
      </g>
      <path d="M510.299 85.0248C510.297 85.2698 509.998 85.3879 509.829 85.2106L508.258 83.5638C507.673 82.9498 507.895 81.9382 508.684 81.6264C509.474 81.3146 510.327 81.901 510.32 82.7495L510.299 85.0248Z" fill="#7791FA"/>
      <path d="M509.801 85.0267C509.803 85.2717 510.102 85.3899 510.271 85.2125L511.841 83.5658C512.427 82.9517 512.204 81.9402 511.415 81.6284C510.626 81.3166 509.772 81.903 509.78 82.7514L509.801 85.0267Z" fill="#7791FA"/>
      <path d="M510.222 84.7829C510.22 84.9749 509.986 85.0674 509.853 84.9285L508.623 83.6384C508.164 83.1573 508.339 82.3648 508.957 82.1205C509.575 81.8763 510.244 82.3356 510.238 83.0003L510.222 84.7829Z" fill="#1E1E1E"/>
      <path d="M509.831 84.785C509.833 84.9769 510.067 85.0695 510.199 84.9306L511.43 83.6404C511.888 83.1594 511.714 82.3669 511.096 82.1226C510.478 81.8783 509.809 82.3377 509.815 83.0024L509.831 84.785Z" fill="#1E1E1E"/>
      <mask id="mask3_6215_53010" style="mask-type:alpha" maskUnits="userSpaceOnUse" x="508" y="82" width="4" height="3">
        <path d="M510.228 84.781C510.226 84.9729 509.992 85.0655 509.859 84.9265L508.629 83.6364C508.17 83.1553 508.344 82.3628 508.963 82.1186C509.581 81.8743 510.25 82.3337 510.244 82.9984L510.228 84.781Z" fill="#1D1D1B"/>
        <path d="M509.837 84.7831C509.839 84.975 510.073 85.0675 510.205 84.9286L511.436 83.6385C511.894 83.1574 511.72 82.3649 511.102 82.1206C510.484 81.8764 509.815 82.3358 509.821 83.0005L509.837 84.7831Z" fill="#1D1D1B"/>
      </mask>
      <g mask="url(#mask3_6215_53010)">
        <rect width="0.63569" height="3.17845" transform="matrix(0.707123 -0.70709 0.707123 0.70709 508.575 82.2383)" fill="white"/>
      </g>
      <path d="M507.454 85.332C507.454 85.332 507.459 86.9667 508.139 86.9236C508.803 86.8816 508.706 85.332 508.706 85.332" stroke="#1E1E1E" stroke-width="1.99999" stroke-linecap="round"/>
    </g>
    <circle cx="589" cy="76" r="29" fill="#E3F0FF"/>
    <path d="M573.765 63.0577C570.165 68.3561 567.757 74.3595 565.979 73.151C564.201 71.9426 563.965 64.8956 567.565 59.5972C571.166 54.2988 578.043 52.7654 579.821 53.9738C581.6 55.1823 577.366 57.7592 573.765 63.0577Z" fill="#FDFDFD"/>
    <path d="M609.94 91.2756C608.837 93.0693 607.16 93.9706 606.353 93.474C605.546 92.9773 606.775 91.6455 607.878 89.8518C608.982 88.058 609.67 86.6318 610.477 87.1285C611.284 87.6251 611.044 89.4818 609.94 91.2756Z" fill="#FDFDFD"/>
    <g opacity="0.5">
      <path d="M588.08 74.3164H584.672V90.3847H588.08V74.3164Z" fill="#F2B441"/>
      <path d="M585.625 86.9219H587.222C588.479 86.9219 589.501 87.9896 589.501 89.3026V90.9655C589.501 91.2677 589.266 91.5149 588.975 91.5149H583.872C583.582 91.5149 583.346 91.2695 583.346 90.9655V89.3026C583.346 87.9896 584.368 86.9219 585.625 86.9219Z" fill="#F2B441"/>
      <path d="M596.332 74.3145H592.924V90.3827H596.332V74.3145Z" fill="#F2B441"/>
      <path d="M593.877 86.9199H595.474C596.731 86.9199 597.753 87.9876 597.753 89.3007V90.9636C597.753 91.2657 597.518 91.513 597.227 91.513H592.124C591.834 91.513 591.598 91.2676 591.598 90.9636V89.3007C591.598 87.9876 592.62 86.9199 593.877 86.9199Z" fill="#F2B441"/>
      <path d="M582.817 63.6737L578.454 66.5682C578.214 66.7276 578.237 67.0997 578.511 67.1617C578.955 67.2623 579.225 67.244 579.677 67.1773C580.276 67.0886 580.623 66.9654 581.137 66.6298C581.584 66.3383 581.816 66.1178 582.129 65.676C582.485 65.1742 582.637 64.8293 582.754 64.2189C582.794 64.0085 582.817 63.6737 582.817 63.6737Z" fill="#132D96"/>
      <path d="M583.091 64.0863L578.168 65.728C577.896 65.8186 577.637 65.5621 577.767 65.3025C577.978 64.8817 578.165 64.6768 578.504 64.3577C578.953 63.9339 579.266 63.7348 579.842 63.5378C580.343 63.3667 580.654 63.3218 581.179 63.3541C581.776 63.3908 582.126 63.49 582.65 63.7876C582.83 63.8902 583.091 64.0863 583.091 64.0863Z" fill="#132D96"/>
      <mask id="mask4_6215_53010" style="mask-type:alpha" maskUnits="userSpaceOnUse" x="580" y="60" width="21" height="22">
        <ellipse cx="590.452" cy="70.8678" rx="10.2778" ry="10.7368" fill="#D9D9D9"/>
      </mask>
      <g mask="url(#mask4_6215_53010)">
        <ellipse cx="590.452" cy="70.8678" rx="10.2778" ry="10.7368" fill="#F2B441"/>
        <rect width="1.17212" height="22.3237" transform="matrix(0.627183 -0.778872 0.751169 0.66011 585.881 61.045)" fill="#1E1E1E"/>
        <ellipse cx="594.701" cy="68.1511" rx="2.60118" ry="2.71735" fill="#1E1E1E"/>
      </g>
      <path d="M587.069 70.8957C588.427 70.8957 589.527 69.8518 589.527 68.564C589.527 67.2763 588.427 66.2324 587.069 66.2324C585.712 66.2324 584.611 67.2763 584.611 68.564C584.611 69.8518 585.712 70.8957 587.069 70.8957Z" fill="#FDFDFD"/>
      <path d="M587.068 69.6753C587.624 69.6753 588.076 69.2041 588.076 68.6228C588.076 68.0415 587.624 67.5703 587.068 67.5703C586.512 67.5703 586.061 68.0415 586.061 68.6228C586.061 69.2041 586.512 69.6753 587.068 69.6753Z" fill="#1E1E1E"/>
      <path d="M586.205 68.6238C586.205 68.6238 586.551 68.5708 586.593 68.4767C586.593 68.4767 586.7 68.7842 586.719 68.8081C586.719 68.8081 586.402 69.0917 586.333 69.0612C586.265 69.0308 586.205 68.6238 586.205 68.6238Z" fill="#FDFDFD"/>
      <path d="M587.093 74.4167C587.093 74.4167 587.834 78.0399 590.594 78.0293C593.354 78.0197 594.441 75.0357 594.441 75.0357C594.441 75.0357 595.077 73.2167 594.056 73.9884C592.892 74.8693 591.292 74.7993 590.979 74.794C590.482 74.7856 590.027 74.8343 587.536 73.6693C587.536 73.6693 586.798 73.4754 587.093 74.4167Z" fill="black"/>
      <mask id="mask5_6215_53010" style="mask-type:alpha" maskUnits="userSpaceOnUse" x="587" y="73" width="8" height="6">
        <path d="M587.093 74.4147C587.093 74.4147 587.834 78.0379 590.594 78.0273C593.354 78.0178 594.441 75.0338 594.441 75.0338C594.441 75.0338 595.077 73.2148 594.056 73.9865C592.892 74.8674 591.292 74.7974 590.979 74.7921C590.482 74.7836 590.027 74.8324 587.536 73.6674C587.536 73.6674 586.798 73.4734 587.093 74.4147Z" fill="black"/>
      </mask>
      <g mask="url(#mask5_6215_53010)">
        <path d="M589.254 73.9688C589.254 73.9688 589.34 76.1475 590.018 76.1941C590.713 76.2419 590.877 73.9688 590.877 73.9688H589.254Z" fill="#FDFDFD" stroke="#FDFDFD"/>
        <path d="M589.309 78.9531C589.309 78.9531 589.579 76.7476 591.697 76.7005C593.869 76.6521 594.384 78.9531 594.384 78.9531H589.309Z" fill="#FF3232" stroke="#FF3232"/>
        <path d="M590.879 74.2871C590.879 74.2871 590.965 75.5321 591.643 75.5587C592.338 75.586 592.502 74.2871 592.502 74.2871H590.879Z" fill="#FDFDFD" stroke="#FDFDFD"/>
      </g>
      <path d="M598.7 64.3081L582.078 64.5068C582.078 64.5068 582.72 63.5224 583.233 62.9836C584.144 62.0269 584.817 61.6338 585.993 61.0631C587.555 60.3052 588.567 60.0372 590.293 60.0035C591.792 59.9742 592.675 60.1225 594.079 60.6658C595.674 61.2827 596.55 61.856 597.738 63.1161C598.147 63.5506 598.7 64.3081 598.7 64.3081Z" fill="#132D96"/>
    </g>
    <g opacity="0.5">
      <circle cx="36.5527" cy="74" r="14" fill="#E3F0FF"/>
      <path d="M29.9561 68.9288C27.753 72.1711 26.2797 75.8448 25.1915 75.1053C24.1032 74.3658 23.959 70.0536 26.1621 66.8113C28.3653 63.569 32.5737 62.6307 33.662 63.3701C34.7502 64.1096 32.1593 65.6866 29.9561 68.9288Z" fill="#FDFDFD"/>
      <path d="M46.178 80.3515C45.6673 81.1816 44.8914 81.5987 44.5179 81.3689C44.1443 81.139 44.7131 80.5227 45.2238 79.6927C45.7346 78.8626 46.0529 78.2026 46.4264 78.4324C46.7999 78.6623 46.6887 79.5215 46.178 80.3515Z" fill="#FDFDFD"/>
    </g>
    <circle cx="73.4267" cy="32.5752" r="21.5752" fill="#E3F0FF"/>
    <path d="M63.262 24.7602C59.8667 29.7569 57.5963 35.4183 55.9192 34.2787C54.2421 33.1391 54.0198 26.4935 57.4151 21.4969C60.8104 16.5003 67.2959 15.0542 68.973 16.1938C70.6501 17.3334 66.6572 19.7636 63.262 24.7602Z" fill="#FDFDFD"/>
    <path d="M88.2657 42.3646C87.4786 43.6438 86.2829 44.2866 85.7073 43.9324C85.1316 43.5782 86.0081 42.6285 86.7952 41.3492C87.5823 40.07 88.0728 39.0529 88.6485 39.4071C89.2241 39.7613 89.0527 41.0854 88.2657 42.3646Z" fill="#FDFDFD"/>

    <path d="M64.2407 150.432C64.2407 110.802 96.3673 78.6757 135.997 78.6757C175.628 78.6757 207.754 110.802 207.754 150.432V159.855C207.754 164.338 204.12 167.973 199.636 167.973H72.3586C67.8752 167.973 64.2407 164.338 64.2407 159.855V150.432Z" fill="#9B90C5"/>
    <path d="M107.295 87.4529C95.7311 78.0222 74.8912 68.1664 84.0405 104.189L107.295 87.4529Z" fill="#9B90C5"/>
    <path d="M164.7 87.4529C176.264 78.0222 197.104 68.1664 187.955 104.189L164.7 87.4529Z" fill="#9B90C5"/>
    <path d="M151.118 139.271H120.776C119.548 139.271 118.626 140.344 118.956 141.527C120.181 145.924 124.132 155.217 135.648 155.217C147.097 155.217 151.473 146.031 152.917 141.603C153.309 140.402 152.381 139.271 151.118 139.271Z" fill="#1E1E1E"/>
    <path d="M128.557 145.649L124.836 139.271H131.215L128.557 145.649Z" fill="#FDFDFD"/>
    <circle cx="116.862" cy="118.54" r="11.1622" fill="#FDFDFD"/>
    <circle cx="155.133" cy="118.54" r="11.1622" fill="#FDFDFD"/>
    <circle cx="116.862" cy="116.148" r="7.97297" fill="#1E1E1E"/>
    <circle cx="155.133" cy="116.148" r="7.97297" fill="#1E1E1E"/>
    <rect width="3.18919" height="3.18919" transform="matrix(0.866818 0.498625 -0.501376 0.86523 120.052 112.161)" fill="#FDFDFD"/>
    <rect width="3.18919" height="3.18919" transform="matrix(0.866818 0.498625 -0.501376 0.86523 158.322 112.161)" fill="#FDFDFD"/>
    <mask id="mask6_6215_53010" style="mask-type:alpha" maskUnits="userSpaceOnUse" x="115" y="27" width="44" height="44">
      <rect x="115.271" y="27.649" width="43.0541" height="43.0541" fill="#D9D9D9"/>
    </mask>
    <g mask="url(#mask6_6215_53010)">
      <path d="M136.801 67.1283C136.023 67.1283 135.321 66.9414 134.693 66.5676C134.065 66.1938 133.572 65.6929 133.213 65.0649C132.226 65.0649 131.382 64.7136 130.679 64.0109C129.976 63.3081 129.625 62.4634 129.625 61.4766V55.1072C127.861 53.941 126.448 52.401 125.387 50.4872C124.326 48.5734 123.795 46.4952 123.795 44.2524C123.795 40.6342 125.058 37.5616 127.585 35.0348C130.111 32.508 133.183 31.2446 136.801 31.2446C140.419 31.2446 143.491 32.508 146.017 35.0348C148.544 37.5616 149.807 40.6342 149.807 44.2524C149.807 46.555 149.276 48.6482 148.215 50.5321C147.153 52.416 145.741 53.941 143.977 55.1072V61.4766C143.977 62.4634 143.625 63.3081 142.923 64.0109C142.22 64.7136 141.375 65.0649 140.389 65.0649C140.03 65.6929 139.537 66.1938 138.909 66.5676C138.281 66.9414 137.578 67.1283 136.801 67.1283ZM133.213 61.4766H140.389V59.8618H133.213V61.4766ZM133.213 58.0676H140.389V56.3632H133.213V58.0676ZM132.854 52.7748H135.455V47.9305L131.509 43.9833L133.392 42.0994L136.801 45.5084L140.209 42.0994L142.093 43.9833L138.146 47.9305V52.7748H140.747C142.362 51.9973 143.678 50.8535 144.694 49.3434C145.711 47.8333 146.219 46.1363 146.219 44.2524C146.219 41.621 145.307 39.3932 143.483 37.5691C141.659 35.745 139.432 34.833 136.801 34.833C134.17 34.833 131.942 35.745 130.118 37.5691C128.295 39.3932 127.383 41.621 127.383 44.2524C127.383 46.1363 127.891 47.8333 128.908 49.3434C129.924 50.8535 131.24 51.9973 132.854 52.7748Z" fill="#FFFFB9"/>
    </g>


  </g>
  <defs>
    <clipPath id="clip0_6215_53010">
      <rect width="688" height="160" rx="8" fill="white"/>
    </clipPath>
    <clipPath id="clip1_6215_53010">
      <rect width="688" height="144" fill="white" transform="translate(0 16)"/>
    </clipPath>
  </defs>
</svg>