<svg xmlns="http://www.w3.org/2000/svg" width="1280" height="224" viewBox="0 0 1280 224" fill="none">
  <g clip-path="url(#clip0_6215_51764)">
    <rect width="1280" height="224" rx="8" fill="#C7E1FF"/>
    <g clip-path="url(#clip1_6215_51764)">
      <mask id="mask0_6215_51764" style="mask-type:alpha" maskUnits="userSpaceOnUse" x="413" y="63" width="1280" height="312">
        <rect x="413" y="63" width="1280" height="312" rx="8" fill="#FFFFB9"/>
      </mask>
      <g mask="url(#mask0_6215_51764)">
        <circle cx="960" cy="983" r="830" fill="#3EB560"/>
      </g>
      <mask id="mask1_6215_51764" style="mask-type:alpha" maskUnits="userSpaceOnUse" x="-140" y="56" width="1280" height="312">
        <rect x="-140" y="56" width="1280" height="312" rx="8" fill="#FFFFB9"/>
        <g opacity="0.5">
          <circle cx="811.395" cy="155" r="10" fill="#E3F0FF"/>
          <path d="M806.684 151.378C805.11 153.694 804.058 156.318 803.28 155.789C802.503 155.261 802.4 152.181 803.974 149.865C805.547 147.549 808.554 146.879 809.331 147.407C810.108 147.935 808.257 149.062 806.684 151.378Z" fill="white"/>
          <path d="M818.273 159.537C817.908 160.13 817.354 160.428 817.087 160.264C816.82 160.1 817.226 159.66 817.591 159.067C817.956 158.474 818.183 158.002 818.45 158.167C818.717 158.331 818.637 158.944 818.273 159.537Z" fill="#FDFDFD"/>
        </g>
      </mask>
      <g mask="url(#mask1_6215_51764)">
        <circle cx="320" cy="971" r="830" fill="#52C974"/>
      </g>
    </g>
    <circle cx="479.464" cy="54.5343" r="23.5343" fill="#E3F0FF"/>
    <path d="M468.374 46.0087C464.671 51.459 462.194 57.6345 460.365 56.3914C458.535 55.1484 458.293 47.8993 461.996 42.449C465.7 36.9986 472.775 35.4213 474.604 36.6644C476.433 37.9075 472.078 40.5583 468.374 46.0087Z" fill="#FDFDFD"/>
    <path d="M495.649 65.2128C494.79 66.6082 493.486 67.3093 492.858 66.9229C492.23 66.5366 493.186 65.5006 494.045 64.1052C494.903 62.7098 495.438 61.6004 496.066 61.9867C496.694 62.373 496.507 63.8174 495.649 65.2128Z" fill="#FDFDFD"/>
    <circle cx="74.7943" cy="80.2045" r="40.2045" fill="#E3F0FF"/>
    <path d="M55.8497 65.6409C49.5228 74.9519 45.292 85.5017 42.1668 83.3781C39.0417 81.2545 38.6274 68.8708 44.9544 59.5598C51.2813 50.2487 63.3669 47.5541 66.4921 49.6777C69.6173 51.8013 62.1767 56.3299 55.8497 65.6409Z" fill="#FDFDFD"/>
    <path d="M102.443 98.4462C100.976 100.83 98.7481 102.028 97.6754 101.368C96.6027 100.708 98.2361 98.9378 99.7027 96.5541C101.169 94.1703 102.084 92.275 103.156 92.935C104.229 93.595 103.91 96.0624 102.443 98.4462Z" fill="#FDFDFD"/>
    <circle cx="353.516" cy="27" r="13" fill="#E3F0FF"/>
    <path d="M347.389 22.2901C345.343 25.3008 343.975 28.712 342.964 28.0254C341.954 27.3387 341.82 23.3345 343.866 20.3238C345.911 17.3131 349.819 16.4418 350.83 17.1284C351.84 17.8151 349.434 19.2794 347.389 22.2901Z" fill="#FDFDFD"/>
    <path d="M362.455 32.899C361.981 33.6698 361.26 34.057 360.914 33.8436C360.567 33.6302 361.095 33.058 361.569 32.2872C362.043 31.5164 362.339 30.9035 362.686 31.1169C363.033 31.3304 362.929 32.1282 362.455 32.899Z" fill="#FDFDFD"/>
    <g opacity="0.5">
      <circle cx="1108.74" cy="96" r="44" fill="#E3F0FF"/>
      <path d="M1088.01 80.0601C1081.08 90.2501 1076.45 101.796 1073.03 99.4718C1069.61 97.1477 1069.16 83.5949 1076.08 73.4049C1083.01 63.2149 1096.23 60.2658 1099.65 62.5899C1103.07 64.914 1094.93 69.8701 1088.01 80.0601Z" fill="#FDFDFD"/>
      <path d="M1139 115.966C1137.4 118.574 1134.96 119.885 1133.78 119.163C1132.61 118.441 1134.4 116.504 1136 113.895C1137.61 111.286 1138.61 109.212 1139.78 109.934C1140.96 110.656 1140.61 113.357 1139 115.966Z" fill="#FDFDFD"/>
      <g opacity="0.5">
        <path d="M1107.63 94.209H1102.82V116.891H1107.63V94.209Z" fill="#F2B441"/>
        <path d="M1104.17 112.002H1106.42C1108.2 112.002 1109.64 113.509 1109.64 115.363V117.71C1109.64 118.136 1109.31 118.485 1108.9 118.485H1101.7C1101.29 118.485 1100.95 118.139 1100.95 117.71V115.363C1100.95 113.509 1102.4 112.002 1104.17 112.002Z" fill="#F2B441"/>
        <path d="M1119.28 94.207H1114.47V116.889H1119.28V94.207Z" fill="#F2B441"/>
        <path d="M1115.81 112H1118.07C1119.84 112 1121.29 113.507 1121.29 115.361V117.708C1121.29 118.134 1120.95 118.483 1120.54 118.483H1113.34C1112.93 118.483 1112.6 118.137 1112.6 117.708V115.361C1112.6 113.507 1114.04 112 1115.81 112Z" fill="#F2B441"/>
        <path d="M1100.2 79.1899L1094.05 83.2758C1093.71 83.5007 1093.74 84.026 1094.13 84.1135C1094.75 84.2555 1095.13 84.2296 1095.77 84.1354C1096.62 84.0104 1097.11 83.8364 1097.83 83.3627C1098.46 82.9512 1098.79 82.6399 1099.23 82.0162C1099.74 81.308 1099.95 80.8211 1100.12 79.9596C1100.17 79.6625 1100.2 79.1899 1100.2 79.1899Z" fill="#132D96"/>
        <path d="M1100.59 79.7713L1093.64 82.0886C1093.26 82.2166 1092.89 81.8545 1093.08 81.488C1093.38 80.894 1093.64 80.6047 1094.12 80.1544C1094.75 79.5562 1095.19 79.2751 1096.01 78.997C1096.71 78.7554 1097.15 78.6921 1097.89 78.7377C1098.74 78.7895 1099.23 78.9296 1099.97 79.3496C1100.22 79.4944 1100.59 79.7713 1100.59 79.7713Z" fill="#132D96"/>
        <mask id="mask2_6215_51764" style="mask-type:alpha" maskUnits="userSpaceOnUse" x="1096" y="74" width="30" height="31">
          <ellipse cx="1110.98" cy="89.3434" rx="14.508" ry="15.1559" fill="#D9D9D9"/>
        </mask>
        <g mask="url(#mask2_6215_51764)">
          <ellipse cx="1110.98" cy="89.3434" rx="14.508" ry="15.1559" fill="#F2B441"/>
          <rect width="1.65454" height="31.5117" transform="matrix(0.627183 -0.778872 0.751169 0.66011 1104.53 75.4766)" fill="#1E1E1E"/>
          <ellipse cx="1116.98" cy="85.5076" rx="3.67177" ry="3.83576" fill="#1E1E1E"/>
        </g>
        <path d="M1106.21 89.3794C1108.12 89.3794 1109.68 87.9059 1109.68 86.0881C1109.68 84.2704 1108.12 82.7969 1106.21 82.7969C1104.29 82.7969 1102.74 84.2704 1102.74 86.0881C1102.74 87.9059 1104.29 89.3794 1106.21 89.3794Z" fill="#FDFDFD"/>
        <path d="M1106.21 87.6569C1106.99 87.6569 1107.63 86.9917 1107.63 86.1712C1107.63 85.3507 1106.99 84.6855 1106.21 84.6855C1105.42 84.6855 1104.79 85.3507 1104.79 86.1712C1104.79 86.9917 1105.42 87.6569 1106.21 87.6569Z" fill="#1E1E1E"/>
        <path d="M1104.99 86.1725C1104.99 86.1725 1105.48 86.0977 1105.54 85.9648C1105.54 85.9648 1105.69 86.3989 1105.71 86.4326C1105.71 86.4326 1105.27 86.833 1105.17 86.79C1105.07 86.747 1104.99 86.1725 1104.99 86.1725Z" fill="#FDFDFD"/>
        <path d="M1106.24 94.3517C1106.24 94.3517 1107.29 99.4661 1111.18 99.4511C1115.08 99.4377 1116.61 95.2255 1116.61 95.2255C1116.61 95.2255 1117.51 92.6578 1116.07 93.7471C1114.43 94.9906 1112.17 94.8918 1111.73 94.8844C1111.03 94.8724 1110.38 94.9412 1106.87 93.2968C1106.87 93.2968 1105.83 93.0229 1106.24 94.3517Z" fill="black"/>
        <mask id="mask3_6215_51764" style="mask-type:alpha" maskUnits="userSpaceOnUse" x="1106" y="93" width="11" height="7">
          <path d="M1106.24 94.3497C1106.24 94.3497 1107.29 99.4641 1111.18 99.4492C1115.08 99.4357 1116.61 95.2236 1116.61 95.2236C1116.61 95.2236 1117.51 92.6559 1116.07 93.7452C1114.43 94.9886 1112.17 94.8899 1111.73 94.8824C1111.03 94.8704 1110.38 94.9393 1106.87 93.2948C1106.87 93.2948 1105.83 93.021 1106.24 94.3497Z" fill="black"/>
        </mask>
        <g mask="url(#mask3_6215_51764)">
          <path d="M1109.29 93.7207C1109.29 93.7207 1109.42 96.7962 1110.37 96.8619C1111.35 96.9294 1111.58 93.7207 1111.58 93.7207H1109.29Z" fill="#FDFDFD" stroke="#FDFDFD"/>
          <path d="M1109.37 100.756C1109.37 100.756 1109.75 97.6426 1112.74 97.576C1115.81 97.5078 1116.54 100.756 1116.54 100.756H1109.37Z" fill="#FF3232" stroke="#FF3232"/>
          <path d="M1111.59 94.1699C1111.59 94.1699 1111.71 95.9273 1112.66 95.9649C1113.65 96.0035 1113.88 94.1699 1113.88 94.1699H1111.59Z" fill="#FDFDFD" stroke="#FDFDFD"/>
        </g>
        <path d="M1122.63 80.0813L1099.16 80.3617C1099.16 80.3617 1100.07 78.9722 1100.79 78.2117C1102.08 76.8611 1103.03 76.3062 1104.69 75.5007C1106.9 74.4308 1108.32 74.0526 1110.76 74.005C1112.88 73.9636 1114.12 74.1729 1116.1 74.9398C1118.36 75.8107 1119.59 76.6198 1121.27 78.3986C1121.85 79.0119 1122.63 80.0813 1122.63 80.0813Z" fill="#132D96"/>
      </g>
    </g>
    <circle cx="984.154" cy="110.849" r="32.849" fill="#E3F0FF"/>
    <path d="M968.668 98.95C963.499 106.557 960.042 115.177 957.489 113.442C954.935 111.707 954.597 101.589 959.766 93.9814C964.935 86.3739 974.81 84.1722 977.363 85.9073C979.917 87.6424 973.838 91.3424 968.668 98.95Z" fill="#FDFDFD"/>
    <path d="M1006.74 125.754C1005.54 127.701 1003.72 128.68 1002.85 128.141C1001.97 127.601 1003.3 126.155 1004.5 124.208C1005.7 122.26 1006.45 120.711 1007.32 121.251C1008.2 121.79 1007.94 123.806 1006.74 125.754Z" fill="#FDFDFD"/>
    <g opacity="0.5">
      <path d="M991.614 113.25H988.82V125.859H991.614V113.25Z" fill="#900000"/>
      <path d="M989.607 123.141H990.916C991.946 123.141 992.784 123.978 992.784 125.009V126.314C992.784 126.551 992.592 126.745 992.353 126.745H988.169C987.932 126.745 987.738 126.552 987.738 126.314V125.009C987.738 123.978 988.576 123.141 989.607 123.141Z" fill="#EA5858"/>
      <path d="M982.977 113.252H980.184V125.861H982.977V113.252Z" fill="#900000"/>
      <path d="M980.962 123.143H982.271C983.302 123.143 984.14 123.98 984.14 125.011V126.316C984.14 126.553 983.947 126.747 983.708 126.747H979.525C979.288 126.747 979.094 126.554 979.094 126.316V125.011C979.094 123.98 979.932 123.143 980.962 123.143Z" fill="#EA5858"/>
      <ellipse cx="980.401" cy="102.401" rx="7.40133" ry="7.40099" fill="#EA5858"/>
      <ellipse cx="989.315" cy="102.401" rx="7.40133" ry="7.40099" fill="#EA5858"/>
      <ellipse cx="980.401" cy="112.604" rx="7.40133" ry="7.40099" fill="#EA5858"/>
      <ellipse cx="989.601" cy="112.604" rx="7.40133" ry="7.40099" fill="#EA5858"/>
      <path d="M982.187 109.276C982.183 109.696 981.67 109.899 981.38 109.595L978.688 106.771C977.684 105.718 978.065 103.984 979.418 103.449C980.771 102.914 982.235 103.92 982.222 105.375L982.187 109.276Z" fill="#7791FA"/>
      <path d="M981.333 109.28C981.337 109.7 981.849 109.903 982.139 109.599L984.832 106.775C985.836 105.722 985.454 103.988 984.101 103.453C982.748 102.918 981.284 103.924 981.297 105.379L981.333 109.28Z" fill="#7791FA"/>
      <path d="M982.063 108.86C982.06 109.189 981.659 109.347 981.432 109.109L979.322 106.897C978.535 106.072 978.834 104.713 979.894 104.295C980.954 103.876 982.101 104.663 982.091 105.803L982.063 108.86Z" fill="#1E1E1E"/>
      <path d="M981.394 108.864C981.397 109.193 981.798 109.351 982.025 109.113L984.135 106.901C984.922 106.076 984.623 104.717 983.563 104.298C982.503 103.88 981.356 104.667 981.366 105.807L981.394 108.864Z" fill="#1E1E1E"/>
      <mask id="mask4_6215_51764" style="mask-type:alpha" maskUnits="userSpaceOnUse" x="978" y="104" width="7" height="6">
        <path d="M982.048 108.862C982.045 109.191 981.643 109.349 981.416 109.111L979.306 106.899C978.52 106.074 978.819 104.715 979.879 104.297C980.939 103.878 982.086 104.665 982.075 105.805L982.048 108.862Z" fill="#1D1D1B"/>
        <path d="M981.378 108.866C981.381 109.195 981.783 109.353 982.01 109.115L984.119 106.903C984.906 106.078 984.607 104.719 983.547 104.3C982.487 103.882 981.34 104.669 981.35 105.809L981.378 108.866Z" fill="#1D1D1B"/>
      </mask>
      <g mask="url(#mask4_6215_51764)">
        <rect width="1.08999" height="5.44994" transform="matrix(0.707123 -0.70709 0.707123 0.70709 979.223 104.502)" fill="white"/>
      </g>
      <path d="M988.945 109.417C988.941 109.837 988.428 110.039 988.138 109.735L985.446 106.912C984.442 105.859 984.823 104.124 986.176 103.59C987.529 103.055 988.993 104.06 988.98 105.515L988.945 109.417Z" fill="#7791FA"/>
      <path d="M988.091 109.421C988.094 109.841 988.607 110.043 988.897 109.739L991.59 106.916C992.594 105.863 992.212 104.128 990.859 103.594C989.506 103.059 988.042 104.064 988.055 105.519L988.091 109.421Z" fill="#7791FA"/>
      <path d="M988.813 109.002C988.81 109.331 988.409 109.49 988.182 109.252L986.072 107.04C985.285 106.215 985.584 104.856 986.644 104.437C987.704 104.018 988.851 104.806 988.841 105.946L988.813 109.002Z" fill="#1E1E1E"/>
      <path d="M988.144 109.006C988.147 109.335 988.548 109.494 988.775 109.256L990.885 107.044C991.672 106.219 991.373 104.86 990.313 104.441C989.253 104.022 988.106 104.81 988.116 105.95L988.144 109.006Z" fill="#1E1E1E"/>
      <mask id="mask5_6215_51764" style="mask-type:alpha" maskUnits="userSpaceOnUse" x="985" y="104" width="7" height="6">
        <path d="M988.821 109.002C988.818 109.331 988.417 109.49 988.189 109.252L986.08 107.04C985.293 106.215 985.592 104.856 986.652 104.437C987.712 104.018 988.859 104.806 988.849 105.946L988.821 109.002Z" fill="#1D1D1B"/>
        <path d="M988.152 109.006C988.155 109.335 988.556 109.494 988.783 109.256L990.893 107.044C991.679 106.219 991.381 104.86 990.32 104.441C989.26 104.022 988.113 104.81 988.124 105.95L988.152 109.006Z" fill="#1D1D1B"/>
      </mask>
      <g mask="url(#mask5_6215_51764)">
        <rect width="1.08999" height="5.44994" transform="matrix(0.707123 -0.70709 0.707123 0.70709 985.988 104.643)" fill="white"/>
      </g>
      <path d="M984.066 109.943C984.066 109.943 984.074 112.746 985.241 112.672C986.38 112.6 986.214 109.943 986.214 109.943" stroke="#1E1E1E" stroke-width="1.99999" stroke-linecap="round"/>
    </g>
    <g opacity="0.5">
      <circle cx="37.2734" cy="163.5" r="19.5" fill="#E3F0FF"/>
      <path d="M28.0808 156.436C25.0121 160.952 22.9601 166.069 21.4443 165.039C19.9286 164.009 19.7276 158.003 22.7963 153.487C25.865 148.971 31.7268 147.664 33.2426 148.694C34.7584 149.724 31.1495 151.92 28.0808 156.436Z" fill="#FDFDFD"/>
      <path d="M50.6787 172.348C49.9673 173.505 48.8866 174.086 48.3664 173.765C47.8461 173.445 48.6383 172.587 49.3496 171.431C50.061 170.275 50.5044 169.355 51.0246 169.675C51.5449 169.996 51.39 171.192 50.6787 172.348Z" fill="#FDFDFD"/>
    </g>
    <g opacity="0.5">
      <circle cx="691.836" cy="37.5" r="8.5" fill="#E3F0FF"/>
      <path d="M687.831 34.4216C686.494 36.3901 685.599 38.6205 684.939 38.1716C684.278 37.7226 684.19 35.1044 685.528 33.1359C686.866 31.1674 689.421 30.5977 690.081 31.0466C690.742 31.4956 689.169 32.453 687.831 34.4216Z" fill="#FDFDFD"/>
      <path d="M697.681 41.3566C697.371 41.8606 696.9 42.1138 696.673 41.9742C696.447 41.8347 696.792 41.4605 697.102 40.9565C697.412 40.4526 697.605 40.0519 697.832 40.1914C698.059 40.3309 697.991 40.8526 697.681 41.3566Z" fill="#FDFDFD"/>
    </g>
    <g opacity="0.5">
      <circle cx="631.836" cy="53.5" r="8.5" fill="#E3F0FF"/>
      <path d="M627.831 50.4216C626.494 52.3901 625.599 54.6205 624.939 54.1716C624.278 53.7226 624.19 51.1044 625.528 49.1359C626.866 47.1674 629.421 46.5977 630.081 47.0466C630.742 47.4956 629.169 48.453 627.831 50.4216Z" fill="#FDFDFD"/>
      <path d="M637.681 57.3566C637.371 57.8606 636.9 58.1138 636.673 57.9742C636.447 57.8347 636.792 57.4605 637.102 56.9565C637.412 56.4526 637.605 56.0519 637.832 56.1914C638.059 56.3309 637.991 56.8526 637.681 57.3566Z" fill="#FDFDFD"/>
    </g>
    <g opacity="0.4">
      <circle cx="1216.84" cy="167.16" r="17.1598" fill="#E3F0FF"/>
      <path d="M1208.75 160.944C1206.05 164.918 1204.24 169.421 1202.91 168.514C1201.58 167.608 1201.4 162.322 1204.1 158.348C1206.8 154.374 1211.96 153.224 1213.29 154.13C1214.63 155.037 1211.45 156.97 1208.75 160.944Z" fill="#FDFDFD"/>
      <path d="M1228.64 174.946C1228.01 175.964 1227.06 176.475 1226.6 176.193C1226.14 175.912 1226.84 175.156 1227.47 174.139C1228.09 173.121 1228.48 172.312 1228.94 172.594C1229.4 172.876 1229.26 173.929 1228.64 174.946Z" fill="#FDFDFD"/>
    </g>
    <g opacity="0.5">
      <circle cx="200.434" cy="71" r="11" fill="#E3F0FF"/>
      <path d="M195.249 67.0145C193.518 69.562 192.361 72.4485 191.506 71.8675C190.651 71.2864 190.537 67.8982 192.268 65.3507C193.999 62.8032 197.306 62.066 198.161 62.647C199.016 63.228 196.98 64.467 195.249 67.0145Z" fill="#FDFDFD"/>
      <path d="M207.997 75.9899C207.596 76.6421 206.987 76.9698 206.693 76.7893C206.4 76.6087 206.846 76.1245 207.248 75.4723C207.649 74.8201 207.899 74.3015 208.193 74.4821C208.486 74.6626 208.399 75.3377 207.997 75.9899Z" fill="#FDFDFD"/>
    </g>
    <g opacity="0.5">
      <circle cx="361.273" cy="95.5" r="19.5" fill="#E3F0FF"/>
      <path d="M352.081 88.4361C349.012 92.9521 346.96 98.069 345.444 97.039C343.929 96.009 343.728 90.0027 346.796 85.4866C349.865 80.9706 355.727 79.6637 357.243 80.6936C358.758 81.7236 355.15 83.9201 352.081 88.4361Z" fill="#FDFDFD"/>
      <path d="M374.679 104.348C373.967 105.505 372.887 106.086 372.366 105.765C371.846 105.445 372.638 104.587 373.35 103.431C374.061 102.275 374.504 101.355 375.025 101.675C375.545 101.996 375.39 103.192 374.679 104.348Z" fill="#FDFDFD"/>
    </g>
    <g opacity="0.5">
      <circle cx="198.555" cy="156" r="14" fill="#E3F0FF"/>
      <path d="M191.958 150.929C189.755 154.171 188.282 157.845 187.193 157.105C186.105 156.366 185.961 152.054 188.164 148.811C190.367 145.569 194.576 144.631 195.664 145.37C196.752 146.11 194.161 147.687 191.958 150.929Z" fill="#FDFDFD"/>
      <path d="M208.18 162.352C207.669 163.182 206.893 163.599 206.52 163.369C206.146 163.139 206.715 162.523 207.226 161.693C207.737 160.863 208.055 160.203 208.428 160.432C208.802 160.662 208.691 161.521 208.18 162.352Z" fill="#FDFDFD"/>
    </g>
    <g opacity="0.5">
      <circle cx="862.273" cy="49.5" r="19.5" fill="#E3F0FF"/>
      <path d="M853.081 42.4361C850.012 46.9521 847.96 52.069 846.444 51.039C844.929 50.009 844.728 44.0027 847.796 39.4866C850.865 34.9706 856.727 33.6637 858.243 34.6936C859.758 35.7236 856.15 37.9201 853.081 42.4361Z" fill="#FDFDFD"/>
      <path d="M875.679 58.3485C874.967 59.5046 873.887 60.0856 873.366 59.7655C872.846 59.4453 873.638 58.5869 874.35 57.4308C875.061 56.2746 875.504 55.3553 876.025 55.6754C876.545 55.9955 876.39 57.1923 875.679 58.3485Z" fill="#FDFDFD"/>
    </g>
    <g opacity="0.5">
      <circle cx="974.395" cy="55" r="10" fill="#E3F0FF"/>
      <path d="M969.684 51.3777C968.11 53.6937 967.058 56.3177 966.28 55.7895C965.503 55.2613 965.4 52.1811 966.974 49.8652C968.547 47.5493 971.554 46.879 972.331 47.4072C973.108 47.9354 971.257 49.0618 969.684 51.3777Z" fill="#FDFDFD"/>
      <path d="M981.273 59.5374C980.908 60.1303 980.354 60.4282 980.087 60.264C979.82 60.0999 980.226 59.6597 980.591 59.0668C980.956 58.4738 981.183 58.0024 981.45 58.1666C981.717 58.3307 981.637 58.9445 981.273 59.5374Z" fill="#FDFDFD"/>
    </g>
    <g opacity="0.5">
      <circle cx="726.11" cy="112.888" r="30.8877" fill="#E3F0FF"/>
      <path d="M711.552 101.698C706.691 108.852 703.441 116.957 701.04 115.325C698.639 113.694 698.321 104.18 703.181 97.0265C708.042 89.8732 717.327 87.8029 719.728 89.4344C722.129 91.0659 716.413 94.5451 711.552 101.698Z" fill="#FDFDFD"/>
      <path d="M747.343 126.903C746.216 128.734 744.504 129.655 743.68 129.148C742.856 128.641 744.111 127.281 745.237 125.449C746.364 123.618 747.066 122.162 747.891 122.669C748.715 123.176 748.469 125.072 747.343 126.903Z" fill="#FDFDFD"/>
    </g>



    <path d="M144.363 209.149C144.363 149.704 192.553 101.514 251.998 101.514C311.444 101.514 359.634 149.704 359.634 209.149V223.283C359.634 230.008 354.182 235.46 347.457 235.46H156.54C149.815 235.46 144.363 230.008 144.363 223.283V209.149Z" fill="#9B90C5"/>
    <path d="M208.944 114.68C191.599 100.533 160.339 85.7497 174.063 139.784L208.944 114.68Z" fill="#9B90C5"/>
    <path d="M295.052 114.68C312.397 100.533 343.657 85.7497 329.933 139.784L295.052 114.68Z" fill="#9B90C5"/>
    <path d="M274.675 192.406H229.163C227.321 192.406 225.938 194.016 226.432 195.79C228.27 202.386 234.197 216.325 251.47 216.325C268.644 216.325 275.208 202.547 277.375 195.905C277.962 194.104 276.57 192.406 274.675 192.406Z" fill="#1E1E1E"/>
    <path d="M240.835 201.974L235.254 192.406H244.821L240.835 201.974Z" fill="#FDFDFD"/>
    <circle cx="223.294" cy="161.312" r="16.7432" fill="#FDFDFD"/>
    <circle cx="280.7" cy="161.312" r="16.7432" fill="#FDFDFD"/>
    <circle cx="223.293" cy="157.724" r="11.9595" fill="#1E1E1E"/>
    <circle cx="280.7" cy="157.724" r="11.9595" fill="#1E1E1E"/>
    <rect width="4.78378" height="4.78378" transform="matrix(0.866818 0.498625 -0.501376 0.86523 228.078 151.744)" fill="#FDFDFD"/>
    <rect width="4.78378" height="4.78378" transform="matrix(0.866818 0.498625 -0.501376 0.86523 285.482 151.744)" fill="#FDFDFD"/>
    <mask id="mask6_6215_51764" style="mask-type:alpha" maskUnits="userSpaceOnUse" x="220" y="24" width="66" height="66">
      <rect x="220.904" y="24.9736" width="64.5811" height="64.5811" fill="#D9D9D9"/>
    </mask>
    <g mask="url(#mask6_6215_51764)">
      <path d="M253.2 83.9638C252.034 83.9638 250.98 83.684 250.038 83.1243C249.097 82.5646 248.357 81.8147 247.819 80.8744C246.339 80.8744 245.072 80.3483 244.018 79.2961C242.964 78.244 242.437 76.9791 242.437 75.5016V65.9648C239.791 64.2186 237.672 61.9127 236.08 59.0472C234.487 56.1817 233.691 53.0699 233.691 49.7119C233.691 44.2943 235.586 39.6938 239.376 35.9104C243.166 32.127 247.774 30.2354 253.2 30.2354C258.627 30.2354 263.235 32.127 267.025 35.9104C270.814 39.6938 272.709 44.2943 272.709 49.7119C272.709 53.1595 271.913 56.2936 270.321 59.1144C268.729 61.9351 266.61 64.2186 263.964 65.9648V75.5016C263.964 76.9791 263.437 78.244 262.383 79.2961C261.329 80.3483 260.062 80.8744 258.582 80.8744C258.044 81.8147 257.304 82.5646 256.362 83.1243C255.42 83.684 254.366 83.9638 253.2 83.9638ZM247.819 75.5016H258.582V73.0838H247.819V75.5016ZM247.819 70.3974H258.582V67.8453H247.819V70.3974ZM247.28 62.4724H251.182V55.2191L245.262 49.3089L248.088 46.4882L253.2 51.5924L258.313 46.4882L261.138 49.3089L255.218 55.2191V62.4724H259.12C261.542 61.3083 263.515 59.5957 265.04 57.3346C266.565 55.0736 267.327 52.5327 267.327 49.7119C267.327 45.7718 265.96 42.4362 263.224 39.705C260.488 36.9738 257.147 35.6082 253.2 35.6082C249.254 35.6082 245.912 36.9738 243.177 39.705C240.441 42.4362 239.073 45.7718 239.073 49.7119C239.073 52.5327 239.836 55.0736 241.36 57.3346C242.885 59.5957 244.859 61.3083 247.28 62.4724Z" fill="#FFFFB9"/>
    </g>
  </g>
  <defs>
    <clipPath id="clip0_6215_51764">
      <rect width="1280" height="224" rx="8" fill="white"/>
    </clipPath>
    <clipPath id="clip1_6215_51764">
      <rect width="1280" height="167" fill="white" transform="translate(0 56)"/>
    </clipPath>
  </defs>
</svg>