<svg xmlns="http://www.w3.org/2000/svg" width="328" height="140" viewBox="0 0 328 140" fill="none">
  <g clip-path="url(#clip0_6215_56304)">
    <rect width="328" height="140" rx="8" fill="#C7E1FF"/>
    <g clip-path="url(#clip1_6215_56304)">
      <mask id="mask0_6215_56304" style="mask-type:alpha" maskUnits="userSpaceOnUse" x="-294" y="26" width="1280" height="312">
        <rect x="-294" y="26" width="1280" height="312" rx="8" fill="#FFFFB9"/>
      </mask>
      <g mask="url(#mask0_6215_56304)">
        <circle cx="166" cy="941" r="830" fill="#52C974"/>
      </g>
    </g>
    <g opacity="0.5">
      <circle cx="297.976" cy="56.5562" r="10.5562" fill="#E3F0FF"/>
      <path d="M292.999 52.731C291.338 55.1757 290.227 57.9457 289.406 57.3881C288.586 56.8306 288.477 53.5791 290.138 51.1343C291.8 48.6896 294.973 47.9821 295.793 48.5397C296.614 49.0973 294.66 50.2863 292.999 52.731Z" fill="#FDFDFD"/>
      <path d="M305.231 61.3464C304.846 61.9723 304.261 62.2868 303.979 62.1135C303.698 61.9402 304.126 61.4755 304.512 60.8496C304.897 60.2237 305.137 59.7261 305.418 59.8994C305.7 60.0727 305.616 60.7205 305.231 61.3464Z" fill="#FDFDFD"/>
    </g>
    <circle cx="38.2904" cy="97.7084" r="14.7084" fill="#E3F0FF"/>
    <path d="M31.3594 92.3803C29.0447 95.7867 27.497 99.6462 26.3536 98.8693C25.2103 98.0924 25.0588 93.5619 27.3734 90.1556C29.6881 86.7493 34.1094 85.7635 35.2528 86.5404C36.3961 87.3173 33.674 88.974 31.3594 92.3803Z" fill="#FDFDFD"/>
    <path d="M48.405 104.383C47.8684 105.255 47.0533 105.693 46.6609 105.452C46.2685 105.21 46.866 104.563 47.4026 103.691C47.9391 102.819 48.2735 102.125 48.666 102.367C49.0584 102.608 48.9416 103.511 48.405 104.383Z" fill="#FDFDFD"/>
    <circle cx="37.8206" cy="43.0413" r="16.18" fill="#E3F0FF"/>
    <path d="M30.1926 37.1798C27.6463 40.9269 25.9437 45.1726 24.686 44.318C23.4283 43.4634 23.2616 38.4796 25.8078 34.7325C28.354 30.9853 33.2178 29.9009 34.4755 30.7555C35.7332 31.6101 32.7388 33.4326 30.1926 37.1798Z" fill="#FDFDFD"/>
    <path d="M48.9453 50.3817C48.3551 51.341 47.4584 51.823 47.0267 51.5574C46.595 51.2918 47.2523 50.5795 47.8426 49.6202C48.4328 48.6609 48.8007 47.8981 49.2324 48.1637C49.6641 48.4293 49.5356 49.4223 48.9453 50.3817Z" fill="#FDFDFD"/>
    <g opacity="0.5">
      <path d="M39.859 43.8965H38.7148V49.0604H39.859V43.8965Z" fill="#900000"/>
      <path d="M39.0366 47.9473H39.5728C39.9948 47.9473 40.338 48.2904 40.338 48.7124V49.2468C40.338 49.3439 40.2591 49.4233 40.1614 49.4233H38.4481C38.3509 49.4233 38.2715 49.3445 38.2715 49.2468V48.7124C38.2715 48.2904 38.6146 47.9473 39.0366 47.9473Z" fill="#EA5858"/>
      <path d="M36.32 43.8965H35.1758V49.0604H36.32V43.8965Z" fill="#900000"/>
      <path d="M35.4956 47.9473H36.0318C36.4538 47.9473 36.797 48.2904 36.797 48.7124V49.2468C36.797 49.3439 36.7181 49.4233 36.6204 49.4233H34.907C34.8099 49.4233 34.7305 49.3445 34.7305 49.2468V48.7124C34.7305 48.2904 35.0736 47.9473 35.4956 47.9473Z" fill="#EA5858"/>
      <ellipse cx="35.2655" cy="39.4529" rx="3.03116" ry="3.03102" fill="#EA5858"/>
      <ellipse cx="38.9159" cy="39.4529" rx="3.03116" ry="3.03102" fill="#EA5858"/>
      <ellipse cx="35.2655" cy="43.6326" rx="3.03116" ry="3.03102" fill="#EA5858"/>
      <ellipse cx="39.0331" cy="43.6326" rx="3.03116" ry="3.03102" fill="#EA5858"/>
      <path d="M35.999 42.2691C35.9974 42.4411 35.7875 42.524 35.6687 42.3995L34.566 41.2432C34.1548 40.8119 34.311 40.1016 34.8651 39.8827C35.4193 39.6637 36.0188 40.0755 36.0134 40.6713L35.999 42.2691Z" fill="#7791FA"/>
      <path d="M35.6475 42.2691C35.6491 42.4411 35.859 42.524 35.9778 42.3995L37.0805 41.2432C37.4917 40.8119 37.3355 40.1016 36.7814 39.8827C36.2272 39.6637 35.6276 40.0755 35.633 40.6713L35.6475 42.2691Z" fill="#7791FA"/>
      <path d="M35.9437 42.1002C35.9425 42.235 35.778 42.3 35.685 42.2025L34.8211 41.2965C34.4989 40.9587 34.6213 40.4022 35.0555 40.2306C35.4896 40.0591 35.9593 40.3817 35.9551 40.8485L35.9437 42.1002Z" fill="#1E1E1E"/>
      <path d="M35.67 42.1002C35.6713 42.235 35.8357 42.3 35.9288 42.2025L36.7927 41.2965C37.1148 40.9587 36.9925 40.4022 36.5583 40.2306C36.1242 40.0591 35.6545 40.3817 35.6587 40.8485L35.67 42.1002Z" fill="#1E1E1E"/>
      <mask id="mask1_6215_56304" style="mask-type:alpha" maskUnits="userSpaceOnUse" x="34" y="40" width="3" height="3">
        <path d="M35.934 42.1002C35.9328 42.235 35.7683 42.3 35.6753 42.2025L34.8113 41.2965C34.4892 40.9587 34.6115 40.4022 35.0457 40.2306C35.4798 40.0591 35.9496 40.3817 35.9453 40.8485L35.934 42.1002Z" fill="#1D1D1B"/>
        <path d="M35.6603 42.1002C35.6615 42.235 35.826 42.3 35.919 42.2025L36.7829 41.2965C37.1051 40.9587 36.9827 40.4022 36.5486 40.2306C36.1144 40.0591 35.6447 40.3817 35.6489 40.8485L35.6603 42.1002Z" fill="#1D1D1B"/>
      </mask>
      <g mask="url(#mask1_6215_56304)">
        <rect width="0.446396" height="2.23198" transform="matrix(0.707123 -0.70709 0.707123 0.70709 34.7786 40.3125)" fill="white"/>
      </g>
      <path d="M38.7665 42.3277C38.765 42.4997 38.555 42.5826 38.4363 42.4581L37.3336 41.3017C36.9224 40.8705 37.0786 40.1602 37.6327 39.9412C38.1869 39.7223 38.7864 40.1341 38.781 40.7299L38.7665 42.3277Z" fill="#7791FA"/>
      <path d="M38.4151 42.3277C38.4167 42.4997 38.6266 42.5826 38.7453 42.4581L39.8481 41.3017C40.2593 40.8705 40.1031 40.1602 39.5489 39.9412C38.9948 39.7223 38.3952 40.1341 38.4006 40.7299L38.4151 42.3277Z" fill="#7791FA"/>
      <path d="M38.7055 42.1569C38.7042 42.2917 38.5398 42.3567 38.4467 42.2591L37.5828 41.3532C37.2607 41.0153 37.383 40.4588 37.8172 40.2873C38.2513 40.1158 38.721 40.4383 38.7168 40.9051L38.7055 42.1569Z" fill="#1E1E1E"/>
      <path d="M38.4317 42.1569C38.433 42.2917 38.5975 42.3567 38.6905 42.2591L39.5544 41.3532C39.8765 41.0153 39.7542 40.4588 39.32 40.2873C38.8859 40.1158 38.4162 40.4383 38.4204 40.9051L38.4317 42.1569Z" fill="#1E1E1E"/>
      <mask id="mask2_6215_56304" style="mask-type:alpha" maskUnits="userSpaceOnUse" x="37" y="40" width="3" height="3">
        <path d="M38.7113 42.1549C38.7101 42.2897 38.5456 42.3547 38.4526 42.2572L37.5887 41.3512C37.2665 41.0134 37.3889 40.4569 37.823 40.2853C38.2572 40.1138 38.7269 40.4364 38.7227 40.9032L38.7113 42.1549Z" fill="#1D1D1B"/>
        <path d="M38.4376 42.1549C38.4388 42.2897 38.6033 42.3547 38.6963 42.2572L39.5603 41.3512C39.8824 41.0134 39.76 40.4569 39.3259 40.2853C38.8918 40.1138 38.422 40.4364 38.4263 40.9032L38.4376 42.1549Z" fill="#1D1D1B"/>
      </mask>
      <g mask="url(#mask2_6215_56304)">
        <rect width="0.446396" height="2.23198" transform="matrix(0.707123 -0.70709 0.707123 0.70709 37.55 40.3691)" fill="white"/>
      </g>
      <path d="M36.7656 42.543C36.7656 42.543 36.7688 43.6909 37.2468 43.6606C37.7131 43.6311 37.645 42.543 37.645 42.543" stroke="#1E1E1E" stroke-width="1.99999" stroke-linecap="round"/>
    </g>
    <circle cx="275" cy="90" r="21" fill="#E3F0FF"/>
    <path d="M263.967 80.6283C261.36 84.4651 259.617 88.8124 258.329 87.9373C257.041 87.0622 256.87 81.9592 259.477 78.1225C262.085 74.2857 267.065 73.1753 268.352 74.0503C269.64 74.9254 266.574 76.7915 263.967 80.6283Z" fill="#FDFDFD"/>
    <path d="M290.164 101.062C289.365 102.36 288.151 103.013 287.566 102.653C286.982 102.294 287.872 101.329 288.671 100.031C289.47 98.7316 289.968 97.6988 290.553 98.0585C291.137 98.4181 290.963 99.7626 290.164 101.062Z" fill="#FDFDFD"/>
    <g opacity="0.5">
      <path d="M274.333 88.7812H271.865V100.417H274.333V88.7812Z" fill="#F2B441"/>
      <path d="M272.555 97.9102H273.711C274.621 97.9102 275.361 98.6833 275.361 99.6342V100.838C275.361 101.057 275.191 101.236 274.981 101.236H271.285C271.076 101.236 270.904 101.058 270.904 100.838V99.6342C270.904 98.6833 271.644 97.9102 272.555 97.9102Z" fill="#F2B441"/>
      <path d="M280.31 88.7793H277.842V100.415H280.31V88.7793Z" fill="#F2B441"/>
      <path d="M278.531 97.9082H279.688C280.598 97.9082 281.338 98.6814 281.338 99.6322V100.836C281.338 101.055 281.168 101.234 280.957 101.234H277.262C277.052 101.234 276.881 101.056 276.881 100.836V99.6322C276.881 98.6814 277.621 97.9082 278.531 97.9082Z" fill="#F2B441"/>
      <path d="M270.521 81.074L267.361 83.17C267.188 83.2855 267.204 83.5549 267.402 83.5998C267.724 83.6726 267.92 83.6594 268.247 83.6111C268.681 83.5469 268.932 83.4576 269.305 83.2146C269.628 83.0035 269.796 82.8438 270.023 82.5239C270.28 82.1606 270.391 81.9108 270.475 81.4688C270.505 81.3164 270.521 81.074 270.521 81.074Z" fill="#132D96"/>
      <path d="M270.719 81.3737L267.154 82.5625C266.957 82.6281 266.77 82.4424 266.864 82.2543C267.017 81.9496 267.152 81.8012 267.397 81.5702C267.723 81.2633 267.949 81.1191 268.366 80.9764C268.729 80.8525 268.954 80.82 269.335 80.8434C269.766 80.87 270.021 80.9419 270.4 81.1573C270.53 81.2316 270.719 81.3737 270.719 81.3737Z" fill="#132D96"/>
      <mask id="mask3_6215_56304" style="mask-type:alpha" maskUnits="userSpaceOnUse" x="268" y="78" width="16" height="17">
        <ellipse cx="276.05" cy="86.2847" rx="7.44257" ry="7.77496" fill="#D9D9D9"/>
      </mask>
      <g mask="url(#mask3_6215_56304)">
        <ellipse cx="276.05" cy="86.2847" rx="7.44257" ry="7.77496" fill="#F2B441"/>
        <rect width="0.848775" height="16.1654" transform="matrix(0.627183 -0.778872 0.751169 0.66011 272.74 79.1719)" fill="#1E1E1E"/>
        <ellipse cx="279.128" cy="84.3173" rx="1.88361" ry="1.96774" fill="#1E1E1E"/>
      </g>
      <path d="M273.6 86.3026C274.583 86.3026 275.38 85.5467 275.38 84.6142C275.38 83.6817 274.583 82.9258 273.6 82.9258C272.617 82.9258 271.82 83.6817 271.82 84.6142C271.82 85.5467 272.617 86.3026 273.6 86.3026Z" fill="#FDFDFD"/>
      <path d="M273.599 85.4188C274.002 85.4188 274.328 85.0776 274.328 84.6567C274.328 84.2358 274.002 83.8945 273.599 83.8945C273.196 83.8945 272.869 84.2358 272.869 84.6567C272.869 85.0776 273.196 85.4188 273.599 85.4188Z" fill="#1E1E1E"/>
      <path d="M272.974 84.6573C272.974 84.6573 273.225 84.6189 273.256 84.5508C273.256 84.5508 273.333 84.7735 273.346 84.7907C273.346 84.7907 273.117 84.9962 273.067 84.9741C273.018 84.952 272.974 84.6573 272.974 84.6573Z" fill="#FDFDFD"/>
      <path d="M273.619 88.8527C273.619 88.8527 274.155 91.4764 276.154 91.4687C278.153 91.4618 278.94 89.301 278.94 89.301C278.94 89.301 279.4 87.9838 278.661 88.5426C277.818 89.1805 276.659 89.1298 276.432 89.126C276.073 89.1198 275.743 89.1552 273.939 88.3115C273.939 88.3115 273.405 88.1711 273.619 88.8527Z" fill="black"/>
      <mask id="mask4_6215_56304" style="mask-type:alpha" maskUnits="userSpaceOnUse" x="273" y="88" width="7" height="4">
        <path d="M273.619 88.8527C273.619 88.8527 274.155 91.4764 276.154 91.4687C278.153 91.4618 278.94 89.301 278.94 89.301C278.94 89.301 279.4 87.9838 278.661 88.5426C277.818 89.1805 276.659 89.1298 276.432 89.126C276.073 89.1198 275.743 89.1551 273.939 88.3115C273.939 88.3115 273.405 88.1711 273.619 88.8527Z" fill="black"/>
      </mask>
      <g mask="url(#mask4_6215_56304)">
        <path d="M275.184 88.5293C275.184 88.5293 275.246 90.107 275.737 90.1407C276.24 90.1753 276.359 88.5293 276.359 88.5293H275.184Z" fill="#FDFDFD" stroke="#FDFDFD"/>
        <path d="M275.223 92.1387C275.223 92.1387 275.418 90.5416 276.952 90.5074C278.525 90.4724 278.898 92.1387 278.898 92.1387H275.223Z" fill="#FF3232" stroke="#FF3232"/>
        <path d="M276.359 88.7598C276.359 88.7598 276.422 89.6613 276.913 89.6806C277.416 89.7004 277.535 88.7598 277.535 88.7598H276.359Z" fill="#FDFDFD" stroke="#FDFDFD"/>
      </g>
      <path d="M282.023 81.5338L269.986 81.6776C269.986 81.6776 270.451 80.9648 270.823 80.5746C271.483 79.8818 271.969 79.5971 272.821 79.1839C273.953 78.6351 274.685 78.441 275.935 78.4166C277.021 78.3954 277.66 78.5027 278.677 78.8962C279.832 79.3429 280.466 79.758 281.326 80.6705C281.622 80.9852 282.023 81.5338 282.023 81.5338Z" fill="#132D96"/>
    </g>
    <circle cx="99.5726" cy="82.5726" r="8.5726" fill="#E3F0FF"/>
    <path d="M119 133C119 108.147 139.147 88 164 88C188.853 88 209 108.147 209 133V138.909C209 141.721 206.721 144 203.909 144H124.091C121.279 144 119 141.721 119 138.909V133Z" fill="#9B90C5"/>
    <path d="M146 93.5044C138.748 87.5902 125.679 81.4094 131.417 104L146 93.5044Z" fill="#9B90C5"/>
    <path d="M182 93.5044C189.252 87.5902 202.321 81.4094 196.583 104L182 93.5044Z" fill="#9B90C5"/>
    <path d="M173.482 126H154.454C153.684 126 153.105 126.673 153.312 127.415C154.08 130.173 156.558 136 163.78 136C170.96 136 173.704 130.24 174.61 127.463C174.856 126.71 174.274 126 173.482 126Z" fill="#1E1E1E"/>
    <path d="M159.333 130L157 126H161L159.333 130Z" fill="#FDFDFD"/>
    <circle cx="152" cy="113" r="7" fill="#FDFDFD"/>
    <circle cx="176" cy="113" r="7" fill="#FDFDFD"/>
    <circle cx="152" cy="111.5" r="5" fill="#1E1E1E"/>
    <circle cx="176" cy="111.5" r="5" fill="#1E1E1E"/>
    <rect width="2" height="2" transform="matrix(0.866818 0.498625 -0.501376 0.86523 154 109)" fill="#FDFDFD"/>
    <rect width="2" height="2" transform="matrix(0.866818 0.498625 -0.501376 0.86523 178 109)" fill="#FDFDFD"/>
    <mask id="mask5_6215_56304" style="mask-type:alpha" maskUnits="userSpaceOnUse" x="151" y="56" width="27" height="27">
      <rect x="151" y="56" width="27" height="27" fill="#D9D9D9"/>
    </mask>
    <g mask="url(#mask5_6215_56304)">
      <path d="M164.502 80.75C164.014 80.75 163.574 80.6328 163.18 80.3984C162.786 80.1641 162.477 79.85 162.252 79.4562C161.633 79.4562 161.104 79.2359 160.663 78.7953C160.222 78.3547 160.002 77.825 160.002 77.2062V73.2125C158.896 72.4812 158.01 71.5156 157.344 70.3156C156.679 69.1156 156.346 67.8125 156.346 66.4062C156.346 64.1375 157.138 62.2109 158.722 60.6266C160.307 59.0422 162.233 58.25 164.502 58.25C166.771 58.25 168.697 59.0422 170.282 60.6266C171.866 62.2109 172.658 64.1375 172.658 66.4062C172.658 67.85 172.325 69.1625 171.66 70.3437C170.994 71.525 170.108 72.4812 169.002 73.2125V77.2062C169.002 77.825 168.782 78.3547 168.341 78.7953C167.9 79.2359 167.371 79.4562 166.752 79.4562C166.527 79.85 166.218 80.1641 165.824 80.3984C165.43 80.6328 164.989 80.75 164.502 80.75ZM162.252 77.2062H166.752V76.1937H162.252V77.2062ZM162.252 75.0687H166.752V74H162.252V75.0687ZM162.027 71.75H163.658V68.7125L161.183 66.2375L162.364 65.0562L164.502 67.1937L166.639 65.0562L167.821 66.2375L165.346 68.7125V71.75H166.977C167.989 71.2625 168.814 70.5453 169.452 69.5984C170.089 68.6516 170.408 67.5875 170.408 66.4062C170.408 64.7562 169.836 63.3594 168.693 62.2156C167.549 61.0719 166.152 60.5 164.502 60.5C162.852 60.5 161.455 61.0719 160.311 62.2156C159.168 63.3594 158.596 64.7562 158.596 66.4062C158.596 67.5875 158.914 68.6516 159.552 69.5984C160.189 70.5453 161.014 71.2625 162.027 71.75Z" fill="#FFFFB9"/>
    </g>



  </g>
  <defs>
    <clipPath id="clip0_6215_56304">
      <rect width="328" height="140" rx="8" fill="white"/>
    </clipPath>
    <clipPath id="clip1_6215_56304">
      <rect width="328" height="120" fill="white" transform="translate(0 26)"/>
    </clipPath>
  </defs>
</svg>