<svg xmlns="http://www.w3.org/2000/svg" width="904" height="160" viewBox="0 0 904 160" fill="none">
  <g clip-path="url(#clip0_6215_52452)">
    <rect width="904" height="160" rx="8" fill="#C7E1FF"/>
    <g clip-path="url(#clip1_6215_52452)">
      <mask id="mask0_6215_52452" style="mask-type:alpha" maskUnits="userSpaceOnUse" x="174" y="23" width="1280" height="312">
        <rect x="174" y="23" width="1280" height="312" rx="8" fill="#FFFFB9"/>
      </mask>
      <g mask="url(#mask0_6215_52452)">
        <circle cx="721" cy="943" r="830" fill="#3EB560"/>
      </g>
      <mask id="mask1_6215_52452" style="mask-type:alpha" maskUnits="userSpaceOnUse" x="-269" y="16" width="1280" height="312">
        <rect x="-269" y="16" width="1280" height="312" rx="8" fill="#FFFFB9"/>
        <g opacity="0.5">
          <circle cx="682.395" cy="115" r="10" fill="#E3F0FF"/>
          <path d="M677.684 111.378C676.11 113.694 675.058 116.318 674.28 115.789C673.503 115.261 673.4 112.181 674.974 109.865C676.547 107.549 679.554 106.879 680.331 107.407C681.108 107.935 679.257 109.062 677.684 111.378Z" fill="white"/>
          <path d="M689.273 119.537C688.908 120.13 688.354 120.428 688.087 120.264C687.82 120.1 688.226 119.66 688.591 119.067C688.956 118.474 689.183 118.002 689.45 118.167C689.717 118.331 689.637 118.944 689.273 119.537Z" fill="#FDFDFD"/>
        </g>
      </mask>
      <g mask="url(#mask1_6215_52452)">
        <circle cx="191" cy="931" r="830" fill="#52C974"/>
      </g>
    </g>
    <circle cx="303.348" cy="40.6522" r="17.6522" fill="#E3F0FF"/>
    <path d="M295.03 34.2569C292.252 38.345 290.394 42.977 289.022 42.0446C287.65 41.1122 287.468 35.675 290.246 31.5869C293.024 27.4988 298.33 26.3157 299.702 27.248C301.074 28.1804 297.808 30.1688 295.03 34.2569Z" fill="#FDFDFD"/>
    <path d="M315.488 48.6618C314.844 49.7084 313.865 50.2342 313.394 49.9445C312.923 49.6547 313.641 48.8776 314.285 47.831C314.928 46.7844 315.33 45.9522 315.801 46.242C316.272 46.5318 316.132 47.6151 315.488 48.6618Z" fill="#FDFDFD"/>
    <circle cx="227.516" cy="49" r="13" fill="#E3F0FF"/>
    <g opacity="0.5">
      <circle cx="509.836" cy="37.5" r="8.5" fill="#E3F0FF"/>
      <path d="M505.831 34.4216C504.494 36.3901 503.599 38.6205 502.939 38.1716C502.278 37.7226 502.19 35.1044 503.528 33.1359C504.866 31.1674 507.421 30.5977 508.081 31.0466C508.742 31.4956 507.169 32.453 505.831 34.4216Z" fill="#FDFDFD"/>
      <path d="M515.681 41.3566C515.371 41.8606 514.9 42.1138 514.673 41.9742C514.447 41.8347 514.792 41.4605 515.102 40.9565C515.412 40.4526 515.605 40.0519 515.832 40.1914C516.059 40.3309 515.991 40.8526 515.681 41.3566Z" fill="#FDFDFD"/>
    </g>
    <g opacity="0.5">
      <circle cx="449.836" cy="53.5" r="8.5" fill="#E3F0FF"/>
      <path d="M445.831 50.4216C444.494 52.3901 443.599 54.6205 442.939 54.1716C442.278 53.7226 442.19 51.1044 443.528 49.1359C444.866 47.1674 447.421 46.5977 448.081 47.0466C448.742 47.4956 447.169 48.453 445.831 50.4216Z" fill="#FDFDFD"/>
      <path d="M455.681 57.3566C455.371 57.8606 454.9 58.1138 454.673 57.9742C454.447 57.8347 454.792 57.4605 455.102 56.9565C455.412 56.4526 455.605 56.0519 455.832 56.1914C456.059 56.3309 455.991 56.8526 455.681 57.3566Z" fill="#FDFDFD"/>
    </g>
    <g opacity="0.5">
      <circle cx="35.5547" cy="84" r="14" fill="#E3F0FF"/>
      <path d="M28.9581 78.9288C26.7549 82.1711 25.2817 85.8448 24.1934 85.1053C23.1052 84.3658 22.9609 80.0536 25.1641 76.8113C27.3672 73.569 31.5757 72.6307 32.6639 73.3701C33.7522 74.1096 31.1612 75.6866 28.9581 78.9288Z" fill="#FDFDFD"/>
      <path d="M45.1799 90.3515C44.6692 91.1816 43.8934 91.5987 43.5198 91.3689C43.1463 91.139 43.7151 90.5227 44.2258 89.6927C44.7365 88.8626 45.0548 88.2026 45.4283 88.4324C45.8019 88.6623 45.6907 89.5215 45.1799 90.3515Z" fill="#FDFDFD"/>
    </g>
    <g opacity="0.5">
      <circle cx="794.395" cy="67" r="10" fill="#E3F0FF"/>
      <path d="M789.684 63.3777C788.11 65.6937 787.058 68.3177 786.28 67.7895C785.503 67.2613 785.4 64.1811 786.974 61.8652C788.547 59.5493 791.554 58.879 792.331 59.4072C793.108 59.9354 791.257 61.0618 789.684 63.3777Z" fill="#FDFDFD"/>
      <path d="M801.273 71.5374C800.908 72.1303 800.354 72.4282 800.087 72.264C799.82 72.0999 800.226 71.6597 800.591 71.0668C800.956 70.4738 801.183 70.0024 801.45 70.1666C801.717 70.3307 801.637 70.9445 801.273 71.5374Z" fill="#FDFDFD"/>
    </g>
    <g opacity="0.5">
      <circle cx="494.958" cy="93.0435" r="23.0435" fill="#E3F0FF"/>
      <path d="M484.095 84.6965C480.469 90.0331 478.044 96.0798 476.253 94.8627C474.462 93.6455 474.224 86.5477 477.85 81.211C481.477 75.8744 488.404 74.3299 490.195 75.547C491.986 76.7642 487.722 79.3598 484.095 84.6965Z" fill="#FDFDFD"/>
      <path d="M510.798 103.5C509.957 104.866 508.68 105.552 508.066 105.174C507.451 104.796 508.387 103.781 509.228 102.415C510.068 101.049 510.592 99.9625 511.207 100.341C511.822 100.719 511.639 102.133 510.798 103.5Z" fill="#FDFDFD"/>
    </g>
    <circle cx="681.154" cy="71.849" r="32.849" fill="#E3F0FF"/>
    <path d="M665.668 59.95C660.499 67.5575 657.042 76.1772 654.489 74.4421C651.935 72.707 651.597 62.5889 656.766 54.9814C661.935 47.3739 671.81 45.1722 674.363 46.9073C676.917 48.6424 670.838 52.3424 665.668 59.95Z" fill="#FDFDFD"/>
    <path d="M703.741 86.7536C702.543 88.7012 700.723 89.6798 699.846 89.1405C698.97 88.6013 700.304 87.1552 701.503 85.2076C702.701 83.2599 703.448 81.7114 704.324 82.2506C705.201 82.7899 704.94 84.8059 703.741 86.7536Z" fill="#FDFDFD"/>
    <g opacity="0.5">
      <path d="M688.614 74.25H685.82V86.859H688.614V74.25Z" fill="#900000"/>
      <path d="M686.607 84.1406H687.916C688.946 84.1406 689.784 84.9784 689.784 86.0088V87.3137C689.784 87.5508 689.592 87.7448 689.353 87.7448H685.169C684.932 87.7448 684.738 87.5523 684.738 87.3137V86.0088C684.738 84.9784 685.576 84.1406 686.607 84.1406Z" fill="#EA5858"/>
      <path d="M679.977 74.252H677.184V86.8609H679.977V74.252Z" fill="#900000"/>
      <path d="M677.962 84.1426H679.271C680.302 84.1426 681.14 84.9804 681.14 86.0108V87.3157C681.14 87.5528 680.947 87.7468 680.708 87.7468H676.525C676.288 87.7468 676.094 87.5542 676.094 87.3157V86.0108C676.094 84.9804 676.932 84.1426 677.962 84.1426Z" fill="#EA5858"/>
      <ellipse cx="677.401" cy="63.401" rx="7.40133" ry="7.40099" fill="#EA5858"/>
      <ellipse cx="686.315" cy="63.401" rx="7.40133" ry="7.40099" fill="#EA5858"/>
      <ellipse cx="677.401" cy="73.6041" rx="7.40133" ry="7.40099" fill="#EA5858"/>
      <ellipse cx="686.601" cy="73.6041" rx="7.40133" ry="7.40099" fill="#EA5858"/>
      <path d="M679.187 70.276C679.183 70.6961 678.67 70.8986 678.38 70.5946L675.688 67.771C674.684 66.7181 675.065 64.9836 676.418 64.449C677.771 63.9144 679.235 64.9198 679.222 66.3746L679.187 70.276Z" fill="#7791FA"/>
      <path d="M678.333 70.2799C678.337 70.7 678.849 70.9025 679.139 70.5985L681.832 67.7749C682.836 66.722 682.454 64.9875 681.101 64.4529C679.748 63.9183 678.284 64.9237 678.297 66.3785L678.333 70.2799Z" fill="#7791FA"/>
      <path d="M679.063 69.8597C679.06 70.1888 678.659 70.3474 678.432 70.1093L676.322 67.8971C675.535 67.0723 675.834 65.7134 676.894 65.2946C677.954 64.8757 679.101 65.6634 679.091 66.8032L679.063 69.8597Z" fill="#1E1E1E"/>
      <path d="M678.394 69.8636C678.397 70.1927 678.798 70.3514 679.025 70.1132L681.135 67.901C681.922 67.0762 681.623 65.7173 680.563 65.2985C679.503 64.8796 678.356 65.6673 678.366 66.8071L678.394 69.8636Z" fill="#1E1E1E"/>
      <mask id="mask2_6215_52452" style="mask-type:alpha" maskUnits="userSpaceOnUse" x="675" y="65" width="7" height="6">
        <path d="M679.048 69.8616C679.045 70.1907 678.643 70.3494 678.416 70.1112L676.306 67.8991C675.52 67.0742 675.819 65.7153 676.879 65.2965C677.939 64.8777 679.086 65.6654 679.075 66.8051L679.048 69.8616Z" fill="#1D1D1B"/>
        <path d="M678.378 69.8655C678.381 70.1946 678.783 70.3533 679.01 70.1151L681.119 67.903C681.906 67.0781 681.607 65.7192 680.547 65.3004C679.487 64.8816 678.34 65.6693 678.35 66.809L678.378 69.8655Z" fill="#1D1D1B"/>
      </mask>
      <g mask="url(#mask2_6215_52452)">
        <rect width="1.08999" height="5.44994" transform="matrix(0.707123 -0.70709 0.707123 0.70709 676.223 65.502)" fill="white"/>
      </g>
      <path d="M685.945 70.4166C685.941 70.8367 685.428 71.0393 685.138 70.7352L682.446 67.9116C681.442 66.8587 681.823 65.1242 683.176 64.5896C684.529 64.055 685.993 65.0605 685.98 66.5153L685.945 70.4166Z" fill="#7791FA"/>
      <path d="M685.091 70.4205C685.094 70.8406 685.607 71.0432 685.897 70.7391L688.59 67.9155C689.594 66.8626 689.212 65.1281 687.859 64.5935C686.506 64.0589 685.042 65.0644 685.055 66.5192L685.091 70.4205Z" fill="#7791FA"/>
      <path d="M685.813 70.0022C685.81 70.3314 685.409 70.49 685.182 70.2518L683.072 68.0397C682.285 67.2148 682.584 65.856 683.644 65.4371C684.704 65.0183 685.851 65.806 685.841 66.9457L685.813 70.0022Z" fill="#1E1E1E"/>
      <path d="M685.144 70.0062C685.147 70.3353 685.548 70.4939 685.775 70.2557L687.885 68.0436C688.672 67.2187 688.373 65.8599 687.313 65.441C686.253 65.0222 685.106 65.8099 685.116 66.9496L685.144 70.0062Z" fill="#1E1E1E"/>
      <mask id="mask3_6215_52452" style="mask-type:alpha" maskUnits="userSpaceOnUse" x="682" y="65" width="7" height="6">
        <path d="M685.821 70.0022C685.818 70.3314 685.417 70.49 685.189 70.2518L683.08 68.0397C682.293 67.2148 682.592 65.856 683.652 65.4371C684.712 65.0183 685.859 65.806 685.849 66.9457L685.821 70.0022Z" fill="#1D1D1B"/>
        <path d="M685.152 70.0062C685.155 70.3353 685.556 70.4939 685.783 70.2557L687.893 68.0436C688.679 67.2187 688.381 65.8599 687.32 65.441C686.26 65.0222 685.113 65.8099 685.124 66.9496L685.152 70.0062Z" fill="#1D1D1B"/>
      </mask>
      <g mask="url(#mask3_6215_52452)">
        <rect width="1.08999" height="5.44994" transform="matrix(0.707123 -0.70709 0.707123 0.70709 682.988 65.6426)" fill="white"/>
      </g>
      <path d="M681.066 70.9434C681.066 70.9434 681.074 73.7463 682.241 73.6724C683.38 73.6003 683.214 70.9434 683.214 70.9434" stroke="#1E1E1E" stroke-width="1.99999" stroke-linecap="round"/>
    </g>
    <circle cx="794" cy="67" r="38" fill="#E3F0FF"/>
    <path d="M774.036 50.0409C769.318 56.9837 766.164 64.8502 763.833 63.2667C761.503 61.6833 761.194 52.4493 765.912 45.5066C770.63 38.5638 779.641 36.5545 781.971 38.138C784.302 39.7214 778.754 43.0982 774.036 50.0409Z" fill="#FDFDFD"/>
    <path d="M821.439 87.0171C819.993 89.3675 817.796 90.5485 816.739 89.8977C815.681 89.247 817.291 87.5019 818.738 85.1514C820.184 82.801 821.085 80.9322 822.143 81.5829C823.2 82.2337 822.886 84.6667 821.439 87.0171Z" fill="#FDFDFD"/>
    <g opacity="0.5">
      <path d="M789.641 65.209H784.83V87.8907H789.641V65.209Z" fill="#F2B441"/>
      <path d="M786.176 83.002H788.43C790.205 83.002 791.647 84.5091 791.647 86.3626V88.7099C791.647 89.1364 791.316 89.4854 790.905 89.4854H783.701C783.293 89.4854 782.959 89.139 782.959 88.7099V86.3626C782.959 84.5091 784.402 83.002 786.176 83.002Z" fill="#F2B441"/>
      <path d="M801.285 65.207H796.475V87.8887H801.285V65.207Z" fill="#F2B441"/>
      <path d="M797.82 83H800.075C801.849 83 803.292 84.5071 803.292 86.3606V88.7079C803.292 89.1344 802.96 89.4834 802.549 89.4834H795.346C794.938 89.4834 794.604 89.137 794.604 88.7079V86.3606C794.604 84.5071 796.046 83 797.82 83Z" fill="#F2B441"/>
      <path d="M782.211 50.1894L776.051 54.2753C775.712 54.5003 775.744 55.0255 776.131 55.113C776.758 55.255 777.14 55.2291 777.777 55.135C778.623 55.0099 779.113 54.8359 779.839 54.3622C780.469 53.9507 780.797 53.6394 781.239 53.0158C781.741 52.3075 781.956 51.8206 782.121 50.9591C782.178 50.662 782.211 50.1894 782.211 50.1894Z" fill="#132D96"/>
      <path d="M782.599 50.7708L775.649 53.0882C775.266 53.2161 774.9 52.854 775.084 52.4875C775.382 51.8935 775.645 51.6042 776.123 51.1539C776.757 50.5557 777.199 50.2746 778.013 49.9965C778.719 49.7549 779.158 49.6916 779.9 49.7372C780.742 49.789 781.237 49.9291 781.976 50.3491C782.23 50.4939 782.599 50.7708 782.599 50.7708Z" fill="#132D96"/>
      <mask id="mask4_6215_52452" style="mask-type:alpha" maskUnits="userSpaceOnUse" x="778" y="45" width="30" height="31">
        <ellipse cx="792.987" cy="60.3434" rx="14.508" ry="15.1559" fill="#D9D9D9"/>
      </mask>
      <g mask="url(#mask4_6215_52452)">
        <ellipse cx="792.987" cy="60.3434" rx="14.508" ry="15.1559" fill="#F2B441"/>
        <rect width="1.65454" height="31.5117" transform="matrix(0.627183 -0.778872 0.751169 0.66011 786.537 46.4766)" fill="#1E1E1E"/>
        <ellipse cx="798.986" cy="56.5076" rx="3.67177" ry="3.83576" fill="#1E1E1E"/>
      </g>
      <path d="M788.214 60.3794C790.13 60.3794 791.683 58.9059 791.683 57.0881C791.683 55.2704 790.13 53.7969 788.214 53.7969C786.297 53.7969 784.744 55.2704 784.744 57.0881C784.744 58.9059 786.297 60.3794 788.214 60.3794Z" fill="#FDFDFD"/>
      <path d="M788.213 58.6569C788.999 58.6569 789.635 57.9917 789.635 57.1712C789.635 56.3507 788.999 55.6855 788.213 55.6855C787.428 55.6855 786.791 56.3507 786.791 57.1712C786.791 57.9917 787.428 58.6569 788.213 58.6569Z" fill="#1E1E1E"/>
      <path d="M786.994 57.1725C786.994 57.1725 787.483 57.0977 787.542 56.9648C787.542 56.9648 787.693 57.3989 787.72 57.4326C787.72 57.4326 787.272 57.833 787.175 57.79C787.078 57.747 786.994 57.1725 786.994 57.1725Z" fill="#FDFDFD"/>
      <path d="M788.249 65.3517C788.249 65.3517 789.294 70.4661 793.19 70.4511C797.086 70.4377 798.621 66.2255 798.621 66.2255C798.621 66.2255 799.519 63.6578 798.078 64.7471C796.435 65.9906 794.176 65.8918 793.733 65.8844C793.033 65.8724 792.39 65.9412 788.873 64.2968C788.873 64.2968 787.832 64.0229 788.249 65.3517Z" fill="black"/>
      <mask id="mask5_6215_52452" style="mask-type:alpha" maskUnits="userSpaceOnUse" x="788" y="64" width="11" height="7">
        <path d="M788.249 65.3497C788.249 65.3497 789.294 70.4641 793.19 70.4492C797.086 70.4357 798.621 66.2236 798.621 66.2236C798.621 66.2236 799.519 63.6559 798.078 64.7452C796.435 65.9886 794.176 65.8899 793.733 65.8824C793.033 65.8704 792.39 65.9393 788.873 64.2948C788.873 64.2948 787.832 64.021 788.249 65.3497Z" fill="black"/>
      </mask>
      <g mask="url(#mask5_6215_52452)">
        <path d="M791.299 64.7207C791.299 64.7207 791.421 67.7962 792.377 67.8619C793.358 67.9294 793.591 64.7207 793.591 64.7207H791.299Z" fill="#FDFDFD" stroke="#FDFDFD"/>
        <path d="M791.377 71.7559C791.377 71.7559 791.759 68.6426 794.748 68.576C797.814 68.5078 798.541 71.7559 798.541 71.7559H791.377Z" fill="#FF3232" stroke="#FF3232"/>
        <path d="M793.592 65.1699C793.592 65.1699 793.714 66.9273 794.67 66.9649C795.651 67.0035 795.884 65.1699 795.884 65.1699H793.592Z" fill="#FDFDFD" stroke="#FDFDFD"/>
      </g>
      <path d="M804.633 51.0813L781.17 51.3617C781.17 51.3617 782.076 49.9722 782.801 49.2117C784.087 47.8611 785.035 47.3062 786.696 46.5007C788.902 45.4308 790.329 45.0526 792.766 45.005C794.883 44.9636 796.128 45.1729 798.111 45.9398C800.362 46.8107 801.599 47.6198 803.275 49.3986C803.852 50.0119 804.633 51.0813 804.633 51.0813Z" fill="#132D96"/>
    </g>
    <circle cx="77.4267" cy="40.5752" r="21.5752" fill="#E3F0FF"/>
    <path d="M67.262 32.7602C63.8667 37.7569 61.5963 43.4183 59.9192 42.2787C58.2421 41.1391 58.0198 34.4935 61.4151 29.4969C64.8104 24.5003 71.2959 23.0542 72.973 24.1938C74.6501 25.3334 70.6572 27.7636 67.262 32.7602Z" fill="#FDFDFD"/>
    <path d="M92.2657 50.3646C91.4786 51.6438 90.2829 52.2866 89.7073 51.9324C89.1316 51.5782 90.0081 50.6285 90.7952 49.3492C91.5823 48.07 92.0728 47.0529 92.6485 47.4071C93.2241 47.7613 93.0527 49.0854 92.2657 50.3646Z" fill="#FDFDFD"/>



    <path d="M89.2402 148.432C89.2402 108.802 121.367 76.6753 160.997 76.6753C200.627 76.6753 232.754 108.802 232.754 148.432V157.855C232.754 162.338 229.119 165.973 224.636 165.973H97.3582C92.8747 165.973 89.2402 162.338 89.2402 157.855V148.432Z" fill="#9B90C5"/>
    <path d="M132.295 85.4526C120.731 76.0218 99.8912 66.166 109.04 102.189L132.295 85.4526Z" fill="#9B90C5"/>
    <path d="M189.699 85.4526C201.263 76.0218 222.103 66.166 212.954 102.189L189.699 85.4526Z" fill="#9B90C5"/>
    <path d="M176.118 137.27H145.776C144.548 137.27 143.626 138.343 143.956 139.526C145.181 143.923 149.132 153.216 160.648 153.216C172.097 153.216 176.473 144.031 177.917 139.603C178.309 138.402 177.381 137.27 176.118 137.27Z" fill="#1E1E1E"/>
    <path d="M153.557 143.648L149.836 137.27H156.214L153.557 143.648Z" fill="#FDFDFD"/>
    <circle cx="141.862" cy="116.539" r="11.1622" fill="#FDFDFD"/>
    <circle cx="180.133" cy="116.539" r="11.1622" fill="#FDFDFD"/>
    <circle cx="141.863" cy="114.147" r="7.97297" fill="#1E1E1E"/>
    <circle cx="180.132" cy="114.147" r="7.97297" fill="#1E1E1E"/>
    <rect width="3.18919" height="3.18919" transform="matrix(0.866818 0.498625 -0.501376 0.86523 145.052 110.161)" fill="#FDFDFD"/>
    <rect width="3.18919" height="3.18919" transform="matrix(0.866818 0.498625 -0.501376 0.86523 183.322 110.161)" fill="#FDFDFD"/>
    <mask id="mask6_6215_52452" style="mask-type:alpha" maskUnits="userSpaceOnUse" x="140" y="25" width="44" height="44">
      <rect x="140.27" y="25.6489" width="43.0541" height="43.0541" fill="#D9D9D9"/>
    </mask>
    <g mask="url(#mask6_6215_52452)">
      <path d="M161.8 65.1283C161.022 65.1283 160.32 64.9414 159.692 64.5676C159.064 64.1938 158.571 63.6929 158.212 63.0649C157.225 63.0649 156.381 62.7136 155.678 62.0109C154.975 61.3081 154.624 60.4634 154.624 59.4766V53.1072C152.86 51.941 151.447 50.401 150.386 48.4872C149.325 46.5734 148.794 44.4952 148.794 42.2524C148.794 38.6342 150.057 35.5616 152.584 33.0348C155.11 30.508 158.182 29.2446 161.8 29.2446C165.418 29.2446 168.49 30.508 171.016 33.0348C173.543 35.5616 174.806 38.6342 174.806 42.2524C174.806 44.555 174.275 46.6482 173.214 48.5321C172.152 50.416 170.74 51.941 168.976 53.1072V59.4766C168.976 60.4634 168.624 61.3081 167.922 62.0109C167.219 62.7136 166.374 63.0649 165.388 63.0649C165.029 63.6929 164.536 64.1938 163.908 64.5676C163.28 64.9414 162.577 65.1283 161.8 65.1283ZM158.212 59.4766H165.388V57.8618H158.212V59.4766ZM158.212 56.0676H165.388V54.3632H158.212V56.0676ZM157.853 50.7748H160.454V45.9305L156.508 41.9833L158.391 40.0994L161.8 43.5084L165.208 40.0994L167.092 41.9833L163.145 45.9305V50.7748H165.746C167.361 49.9973 168.677 48.8535 169.693 47.3434C170.71 45.8333 171.218 44.1363 171.218 42.2524C171.218 39.621 170.306 37.3932 168.482 35.5691C166.658 33.745 164.431 32.833 161.8 32.833C159.169 32.833 156.941 33.745 155.118 35.5691C153.294 37.3932 152.382 39.621 152.382 42.2524C152.382 44.1363 152.89 45.8333 153.907 47.3434C154.923 48.8535 156.239 49.9973 157.853 50.7748Z" fill="#FFFFB9"/>
    </g>
  </g>
  <defs>
    <clipPath id="clip0_6215_52452">
      <rect width="904" height="160" rx="8" fill="white"/>
    </clipPath>
    <clipPath id="clip1_6215_52452">
      <rect width="904" height="144" fill="white" transform="translate(0 16)"/>
    </clipPath>
  </defs>
</svg>