<svg width="267" height="209" viewBox="0 0 267 209" fill="none" xmlns="http://www.w3.org/2000/svg">
  <path d="M52.2002 188.999C52.2002 144.264 88.4651 107.999 133.2 107.999C177.935 107.999 214.2 144.264 214.2 188.999V199.635C214.2 204.696 210.097 208.799 205.037 208.799H61.3638C56.3029 208.799 52.2002 204.696 52.2002 199.635V188.999Z" fill="#9B90C5"/>
  <path d="M100.8 117.907C87.7468 107.261 64.2224 96.136 74.5502 136.799L100.8 117.907Z" fill="#9B90C5"/>
  <path d="M165.6 117.907C178.654 107.261 202.178 96.136 191.85 136.799L165.6 117.907Z" fill="#9B90C5"/>
  <path d="M150.267 176.398H116.017C114.631 176.398 113.59 177.61 113.962 178.945C115.345 183.909 119.806 194.398 132.804 194.398C145.728 194.398 150.668 184.03 152.299 179.032C152.741 177.676 151.693 176.398 150.267 176.398Z" fill="#1E1E1E"/>
  <path d="M124.801 183.598L120.601 176.398H127.801L124.801 183.598Z" fill="#FDFDFD"/>
  <circle cx="111.6" cy="152.998" r="12.6" fill="#FDFDFD"/>
  <circle cx="154.8" cy="152.998" r="12.6" fill="#FDFDFD"/>
  <circle cx="111.6" cy="150.299" r="9" fill="#1E1E1E"/>
  <circle cx="154.8" cy="150.299" r="9" fill="#1E1E1E"/>
  <rect width="3.6" height="3.6" transform="matrix(0.866818 0.498625 -0.501376 0.86523 115.2 145.799)" fill="#FDFDFD"/>
  <rect width="3.6" height="3.6" transform="matrix(0.866818 0.498625 -0.501376 0.86523 158.4 145.799)" fill="#FDFDFD"/>
  <rect width="18.1383" height="7.28027" transform="matrix(0.75969 0.650285 -0.636206 0.771519 180.802 63.8418)" fill="#EA5858"/>
  <rect width="18.0847" height="7.30198" transform="matrix(0.852582 0.522593 -0.506055 0.862501 213.181 75.7686)" fill="#F2B441"/>
  <rect width="18.0792" height="7.30389" transform="matrix(-0.861657 0.50749 -0.493001 -0.870028 226.674 48.2441)" fill="#52C974"/>
  <rect width="18.2599" height="7.23144" transform="matrix(-0.492547 -0.870286 0.862587 -0.505908 187.994 53.749)" fill="#7791FA"/>
  <rect width="18.1383" height="7.28027" transform="matrix(-0.75969 0.650285 0.636206 0.771519 85.5986 64.124)" fill="#52C974"/>
  <rect width="18.0847" height="7.30198" transform="matrix(-0.852582 0.522593 0.506055 0.862501 53.2197 76.0508)" fill="#7791FA"/>
  <rect width="18.0792" height="7.30389" transform="matrix(0.861657 0.50749 0.493001 -0.870028 39.7266 48.5264)" fill="#F2B441"/>
  <rect width="18.2599" height="7.23144" transform="matrix(0.492547 -0.870286 -0.862587 -0.505908 78.4053 54.0312)" fill="#EA5858"/>
</svg>
