<svg xmlns="http://www.w3.org/2000/svg" width="199" height="199" viewBox="0 0 199 199" fill="none">
  <path d="M33.166 161.688V37.3132C33.166 31.8154 35.35 26.5429 39.2374 22.6554C43.1249 18.7679 48.3975 16.584 53.8952 16.584H165.833V182.417H53.8952C48.3975 182.417 43.1249 180.233 39.2374 176.346C35.35 172.458 33.166 167.186 33.166 161.688C33.166 156.19 35.35 150.918 39.2374 147.03C43.1249 143.143 48.3975 140.959 53.8952 140.959H165.833" fill="#FDFDFD"/>
  <path d="M33.166 161.688V37.3132C33.166 31.8154 35.35 26.5429 39.2374 22.6554C43.1249 18.7679 48.3975 16.584 53.8952 16.584H165.833V182.417H53.8952C48.3975 182.417 43.1249 180.233 39.2374 176.346C35.35 172.458 33.166 167.186 33.166 161.688ZM33.166 161.688C33.166 156.19 35.35 150.918 39.2374 147.03C43.1249 143.143 48.3975 140.959 53.8952 140.959H165.833" stroke="#7791FA" stroke-width="6" stroke-linecap="round" stroke-linejoin="round"/>
</svg>