<svg width="199" height="199" viewBox="0 0 199 199" fill="none" xmlns="http://www.w3.org/2000/svg">
<path d="M165.834 58.041H33.1673C24.0086 58.041 16.584 65.4656 16.584 74.6243V157.541C16.584 166.7 24.0086 174.124 33.1673 174.124H165.834C174.993 174.124 182.417 166.7 182.417 157.541V74.6243C182.417 65.4656 174.993 58.041 165.834 58.041Z" fill="#FDFDFD" stroke="#7791FA" stroke-width="6" stroke-linecap="round" stroke-linejoin="round"/>
<path d="M132.667 174.125V41.4583C132.667 37.0602 130.92 32.8421 127.81 29.7321C124.7 26.6222 120.482 24.875 116.084 24.875H82.9173C78.5191 24.875 74.3011 26.6222 71.1911 29.7321C68.0812 32.8421 66.334 37.0602 66.334 41.4583V174.125" stroke="#7791FA" stroke-width="6" stroke-linecap="round" stroke-linejoin="round"/>
</svg>
