<svg width="52" height="44" viewBox="0 0 52 44" fill="none" xmlns="http://www.w3.org/2000/svg">
<path d="M48 0.5H4C3.07174 0.5 2.1815 0.868749 1.52513 1.52513C0.868749 2.1815 0.5 3.07174 0.5 4V40C0.5 40.9283 0.868749 41.8185 1.52513 42.4749C2.1815 43.1312 3.07174 43.5 4 43.5H48C48.9283 43.5 49.8185 43.1312 50.4749 42.4749C51.1312 41.8185 51.5 40.9283 51.5 40V4C51.5 3.07174 51.1312 2.1815 50.4749 1.52513C49.8185 0.868749 48.9283 0.5 48 0.5ZM4 3.5H48C48.1326 3.5 48.2598 3.55268 48.3536 3.64645C48.4473 3.74021 48.5 3.86739 48.5 4V32.375L40.475 24.35C39.8154 23.6996 38.9263 23.335 38 23.335C37.0737 23.335 36.1846 23.6996 35.525 24.35L30.35 29.525C30.3055 29.5735 30.2514 29.6122 30.1912 29.6387C30.1309 29.6652 30.0658 29.6789 30 29.6789C29.9342 29.6789 29.8691 29.6652 29.8088 29.6387C29.7486 29.6122 29.6945 29.5735 29.65 29.525L18.475 18.35C17.8154 17.6996 16.9263 17.335 16 17.335C15.0737 17.335 14.1846 17.6996 13.525 18.35L3.5 28.375V4C3.5 3.86739 3.55268 3.74021 3.64645 3.64645C3.74021 3.55268 3.86739 3.5 4 3.5ZM48 40.5H4C3.86739 40.5 3.74021 40.4473 3.64645 40.3536C3.55268 40.2598 3.5 40.1326 3.5 40V32.625L15.65 20.475C15.6945 20.4265 15.7486 20.3878 15.8088 20.3613C15.8691 20.3348 15.9342 20.3211 16 20.3211C16.0658 20.3211 16.1309 20.3348 16.1912 20.3613C16.2514 20.3878 16.3055 20.4265 16.35 20.475L27.525 31.65C28.1846 32.3004 29.0737 32.665 30 32.665C30.9263 32.665 31.8154 32.3004 32.475 31.65L37.65 26.475C37.6945 26.4265 37.7486 26.3878 37.8088 26.3613C37.8691 26.3348 37.9342 26.3211 38 26.3211C38.0658 26.3211 38.1309 26.3348 38.1912 26.3613C38.2514 26.3878 38.3055 26.4265 38.35 26.475L48.5 36.625V40C48.5 40.1326 48.4473 40.2598 48.3536 40.3536C48.2598 40.4473 48.1326 40.5 48 40.5ZM31.225 16.775C30.9922 16.5422 30.8081 16.2653 30.6836 15.9606C30.5591 15.6558 30.4967 15.3292 30.5 15C30.5 14.337 30.7634 13.7011 31.2322 13.2322C31.7011 12.7634 32.337 12.5 33 12.5C33.663 12.5 34.2989 12.7634 34.7678 13.2322C35.2366 13.7011 35.5 14.337 35.5 15C35.5 15.663 35.2366 16.2989 34.7678 16.7678C34.2989 17.2366 33.663 17.5 33 17.5C32.6708 17.5033 32.3442 17.4409 32.0394 17.3164C31.7347 17.1919 31.4578 17.0078 31.225 16.775Z" fill="#9FB9FF"/>
</svg>
