<svg xmlns="http://www.w3.org/2000/svg" width="353" height="190" viewBox="0 0 353 190" fill="none">
  <path fill-rule="evenodd" clip-rule="evenodd" d="M192.654 12.7321C222.334 10.1592 250.696 -1.48208 279.562 0.486857C308.913 2.48884 344.991 8.89495 351.445 23.5631C359.202 41.1945 313.636 58.4682 313.225 76.9931C312.961 88.9138 351.899 92.9307 349.639 104.911C347.454 116.501 318.246 122.699 302.849 132.02C289.147 140.315 279.525 149.979 263.464 157.08C245.915 164.839 225.957 170.409 205.14 175.221C179.359 181.18 151.935 192.144 126.41 188.76C101.217 185.421 94.7306 169.076 79.6849 158.591C66.1542 149.162 53.686 139.848 41.8066 129.804C26.8997 117.201 1.54102 106.928 0.393529 91.5543C-0.758551 76.1193 17.0184 60.5747 35.6434 47.2324C54.0904 34.0177 77.8413 21.7981 106.586 15.4819C134.3 9.39232 163.613 15.2496 192.654 12.7321Z" fill="#E3F0FF"/>
</svg>