<svg width="199" height="199" viewBox="0 0 199 199" fill="none" xmlns="http://www.w3.org/2000/svg">
<g id="users-2">
<g id="Vector">
<path d="M149.086 157.543C149.086 144.348 143.844 131.694 134.515 122.364C125.185 113.034 112.53 107.793 99.3359 107.793C86.1414 107.793 73.4873 113.034 64.1574 122.364C54.8274 131.694 49.5859 144.348 49.5859 157.543" fill="#FDFDFD"/>
<path d="M149.086 157.543C149.086 144.348 143.844 131.694 134.515 122.364C125.185 113.034 112.53 107.793 99.3359 107.793C86.1414 107.793 73.4873 113.034 64.1574 122.364C54.8274 131.694 49.5859 144.348 49.5859 157.543" stroke="#7791FA" stroke-width="6" stroke-linecap="round" stroke-linejoin="round"/>
</g>
<path id="Vector_2" d="M99.3307 107.79C117.648 107.79 132.497 92.9411 132.497 74.6237C132.497 56.3063 117.648 41.457 99.3307 41.457C81.0133 41.457 66.1641 56.3063 66.1641 74.6237C66.1641 92.9411 81.0133 107.79 99.3307 107.79Z" fill="#FDFDFD" stroke="#7791FA" stroke-width="6" stroke-linecap="round" stroke-linejoin="round"/>
</g>
</svg>
